<?xml-stylesheet href="https://s3.amazonaws.com/maker.works.boards/css/blackpcb.css" type="text/css"?><svg xmlns="http://www.w3.org/2000/svg" version="1.1" xmlns:xlink="http://www.w3.org/1999/xlink" stroke-width="0" stroke-linecap="round" stroke-linejoin="round" width="1.2598in" height="0.9055in" id="pcb_bottom" viewBox="7.5 7.5 1259.8 905.5"><defs><circle cx="0" cy="0" r="6.5" id="tool-T10-pad-1000"/><circle cx="0" cy="0" r="43.5" id="tool-T11-pad-1001"/><circle cx="0" cy="0" r="13.55" id="tool-D13-pad-1005"/><rect x="-108.2675" y="-108.2675" width="216.535" height="216.535" transform="rotate(180)" id="tool-D14-pad-1006"/><rect x="-78.74" y="-78.74" width="157.48" height="157.48" transform="rotate(180)" id="tool-D15-pad-1007"/><circle cx="0" cy="0" r="78.75" id="tool-D16-pad-1008"/><circle cx="0" cy="0" r="17.7" id="tool-D11-pad-1010"/><circle cx="0" cy="0" r="13.55" id="tool-D10-pad-1011"/><rect x="-108.2675" y="-108.2675" width="216.535" height="216.535" transform="rotate(180)" id="tool-D11-pad-1012"/><rect x="-78.74" y="-78.74" width="157.48" height="157.48" transform="rotate(180)" id="tool-D12-pad-1013"/><circle cx="0" cy="0" r="78.75" id="tool-D13-pad-1014"/><g id="pcb_bottom-cu" fill="currentColor" stroke="currentColor"><path stroke-width="2" fill="none" d="M 1247.7 344 L 1247.7 344 M 1247.7 344 L 1033.1 344 M 1033.1 344 L 1033.1 344 M 1033.1 344 L 1031.8 344 M 1031.8 344 L 1031.8 344 M 1031.8 344 L 1030.6 344.4 M 1030.6 344.4 L 1030.6 344.4 M 1030.6 344.4 L 1029.4 344.8 M 1029.4 344.8 L 1029.4 344.8 M 1029.4 344.8 L 1028.4 345.5 M 1028.4 345.5 L 1028.4 345.5 M 1028.4 345.5 L 1027.4 346.3 M 1027.4 346.3 L 1027.4 346.3 M 1027.4 346.3 L 1026.6 347.3 M 1026.6 347.3 L 1026.6 347.3 M 1026.6 347.3 L 1025.9 348.3 M 1025.9 348.3 L 1025.9 348.3 M 1025.9 348.3 L 1025.5 349.5 M 1025.5 349.5 L 1025.5 349.5 M 1025.5 349.5 L 1025.1 350.7 M 1025.1 350.7 L 1025.1 350.7 M 1025.1 350.7 L 1025.1 352 M 1025.1 352 L 1025.1 352 M 1025.1 352 L 1025.1 568.5 M 1025.1 568.5 L 1025.1 568.5 M 1025.1 568.5 L 1025.1 569.8 M 1025.1 569.8 L 1025.1 569.8 M 1025.1 569.8 L 1025.5 571 M 1025.5 571 L 1025.5 571 M 1025.5 571 L 1025.9 572.2 M 1025.9 572.2 L 1025.9 572.2 M 1025.9 572.2 L 1026.6 573.2 M 1026.6 573.2 L 1026.6 573.2 M 1026.6 573.2 L 1027.4 574.2 M 1027.4 574.2 L 1027.4 574.2 M 1027.4 574.2 L 1028.4 575 M 1028.4 575 L 1028.4 575 M 1028.4 575 L 1029.4 575.7 M 1029.4 575.7 L 1029.4 575.7 M 1029.4 575.7 L 1030.6 576.2 M 1030.6 576.2 L 1030.6 576.2 M 1030.6 576.2 L 1031.8 576.5 M 1031.8 576.5 L 1031.8 576.5 M 1031.8 576.5 L 1033.1 576.6 M 1033.1 576.6 L 1033.1 576.6 M 1033.1 576.6 L 1084 576.6 M 1084 576.6 L 1084 586.4 M 1084 586.4 L 1082.9 588 M 1082.9 588 L 1082.9 588 M 1082.9 588 L 1081 592.9 M 1081 592.9 L 1081 592.9 M 1081 592.9 L 1080.4 598.1 M 1080.4 598.1 L 1080.4 598.1 M 1080.4 598.1 L 1081 603.2 M 1081 603.2 L 1081 603.2 M 1081 603.2 L 1082.9 608.1 M 1082.9 608.1 L 1082.9 608.1 M 1082.9 608.1 L 1085.8 612.4 M 1085.8 612.4 L 1085.8 612.4 M 1085.8 612.4 L 1089.7 615.8 M 1089.7 615.8 L 1089.7 615.8 M 1089.7 615.8 L 1094.3 618.2 M 1094.3 618.2 L 1094.3 618.2 M 1094.3 618.2 L 1099.4 619.5 M 1099.4 619.5 L 1099.4 619.5 M 1099.4 619.5 L 1104.6 619.5 M 1104.6 619.5 L 1104.6 619.5 M 1104.6 619.5 L 1109.7 618.2 M 1109.7 618.2 L 1109.7 618.2 M 1109.7 618.2 L 1114.3 615.8 M 1114.3 615.8 L 1114.3 615.8 M 1114.3 615.8 L 1118.2 612.4 M 1118.2 612.4 L 1118.2 612.4 M 1118.2 612.4 L 1121.7 607.3 M 1121.7 607.3 L 1125.2 612.4 M 1125.2 612.4 L 1125.2 612.4 M 1125.2 612.4 L 1129.1 615.8 M 1129.1 615.8 L 1129.1 615.8 M 1129.1 615.8 L 1133.7 618.2 M 1133.7 618.2 L 1133.7 618.2 M 1133.7 618.2 L 1138.8 619.5 M 1138.8 619.5 L 1138.8 619.5 M 1138.8 619.5 L 1144 619.5 M 1144 619.5 L 1144 619.5 M 1144 619.5 L 1149 618.2 M 1149 618.2 L 1149 618.2 M 1149 618.2 L 1153.6 615.8 M 1153.6 615.8 L 1153.6 615.8 M 1153.6 615.8 L 1157.5 612.4 M 1157.5 612.4 L 1157.5 612.4 M 1157.5 612.4 L 1161 607.3 M 1161 607.3 L 1164.5 612.4 M 1164.5 612.4 L 1164.5 612.4 M 1164.5 612.4 L 1168.4 615.8 M 1168.4 615.8 L 1168.4 615.8 M 1168.4 615.8 L 1173.1 618.2 M 1173.1 618.2 L 1173.1 618.2 M 1173.1 618.2 L 1178.1 619.5 M 1178.1 619.5 L 1178.1 619.5 M 1178.1 619.5 L 1183.3 619.5 M 1183.3 619.5 L 1183.3 619.5 M 1183.3 619.5 L 1188.4 618.2 M 1188.4 618.2 L 1188.4 618.2 M 1188.4 618.2 L 1193 615.8 M 1193 615.8 L 1193 615.8 M 1193 615.8 L 1196.9 612.4 M 1196.9 612.4 L 1196.9 612.4 M 1196.9 612.4 L 1199.9 608.1 M 1199.9 608.1 L 1199.9 608.1 M 1199.9 608.1 L 1201.7 603.2 M 1201.7 603.2 L 1201.7 603.2 M 1201.7 603.2 L 1202.3 598.1 M 1202.3 598.1 L 1202.3 598.1 M 1202.3 598.1 L 1201.7 592.9 M 1201.7 592.9 L 1201.7 592.9 M 1201.7 592.9 L 1199.9 588 M 1199.9 588 L 1199.9 588 M 1199.9 588 L 1198.8 586.4 M 1198.8 586.4 L 1198.8 576.6 M 1198.8 576.6 L 1247.7 576.6 M 1247.7 576.6 L 1247.7 893.3 M 1247.7 893.3 L 27.2 893.3 M 27.2 893.3 L 27.2 576.6 M 27.2 576.6 L 76.1 576.6 M 76.1 576.6 L 76.1 586.4 M 76.1 586.4 L 75 588 M 75 588 L 75 588 M 75 588 L 73.1 592.9 M 73.1 592.9 L 73.1 592.9 M 73.1 592.9 L 72.5 598.1 M 72.5 598.1 L 72.5 598.1 M 72.5 598.1 L 73.1 603.2 M 73.1 603.2 L 73.1 603.2 M 73.1 603.2 L 75 608.1 M 75 608.1 L 75 608.1 M 75 608.1 L 77.9 612.4 M 77.9 612.4 L 77.9 612.4 M 77.9 612.4 L 81.8 615.8 M 81.8 615.8 L 81.8 615.8 M 81.8 615.8 L 86.4 618.2 M 86.4 618.2 L 86.4 618.2 M 86.4 618.2 L 91.5 619.5 M 91.5 619.5 L 91.5 619.5 M 91.5 619.5 L 96.7 619.5 M 96.7 619.5 L 96.7 619.5 M 96.7 619.5 L 101.8 618.2 M 101.8 618.2 L 101.8 618.2 M 101.8 618.2 L 106.4 615.8 M 106.4 615.8 L 106.4 615.8 M 106.4 615.8 L 110.3 612.4 M 110.3 612.4 L 110.3 612.4 M 110.3 612.4 L 113.8 607.3 M 113.8 607.3 L 117.3 612.4 M 117.3 612.4 L 117.3 612.4 M 117.3 612.4 L 121.2 615.8 M 121.2 615.8 L 121.2 615.8 M 121.2 615.8 L 125.8 618.2 M 125.8 618.2 L 125.8 618.2 M 125.8 618.2 L 130.9 619.5 M 130.9 619.5 L 130.9 619.5 M 130.9 619.5 L 136.1 619.5 M 136.1 619.5 L 136.1 619.5 M 136.1 619.5 L 141.2 618.2 M 141.2 618.2 L 141.2 618.2 M 141.2 618.2 L 145.8 615.8 M 145.8 615.8 L 145.8 615.8 M 145.8 615.8 L 149.7 612.4 M 149.7 612.4 L 149.7 612.4 M 149.7 612.4 L 153.2 607.3 M 153.2 607.3 L 156.7 612.4 M 156.7 612.4 L 156.7 612.4 M 156.7 612.4 L 160.6 615.8 M 160.6 615.8 L 160.6 615.8 M 160.6 615.8 L 165.2 618.2 M 165.2 618.2 L 165.2 618.2 M 165.2 618.2 L 170.3 619.5 M 170.3 619.5 L 170.3 619.5 M 170.3 619.5 L 175.5 619.5 M 175.5 619.5 L 175.5 619.5 M 175.5 619.5 L 180.5 618.2 M 180.5 618.2 L 180.5 618.2 M 180.5 618.2 L 185.1 615.8 M 185.1 615.8 L 185.1 615.8 M 185.1 615.8 L 189 612.4 M 189 612.4 L 189 612.4 M 189 612.4 L 192 608.1 M 192 608.1 L 192 608.1 M 192 608.1 L 193.8 603.2 M 193.8 603.2 L 193.8 603.2 M 193.8 603.2 L 194.5 598.1 M 194.5 598.1 L 194.5 598.1 M 194.5 598.1 L 193.8 592.9 M 193.8 592.9 L 193.8 592.9 M 193.8 592.9 L 192 588 M 192 588 L 192 588 M 192 588 L 190.9 586.4 M 190.9 586.4 L 190.9 576.6 M 190.9 576.6 L 241.8 576.6 M 241.8 576.6 L 241.8 576.6 M 241.8 576.6 L 243 576.5 M 243 576.5 L 243 576.5 M 243 576.5 L 244.2 576.2 M 244.2 576.2 L 244.2 576.2 M 244.2 576.2 L 245.4 575.7 M 245.4 575.7 L 245.4 575.7 M 245.4 575.7 L 246.5 575 M 246.5 575 L 246.5 575 M 246.5 575 L 247.5 574.2 M 247.5 574.2 L 247.5 574.2 M 247.5 574.2 L 248.2 573.2 M 248.2 573.2 L 248.2 573.2 M 248.2 573.2 L 248.9 572.2 M 248.9 572.2 L 248.9 572.2 M 248.9 572.2 L 249.4 571 M 249.4 571 L 249.4 571 M 249.4 571 L 249.7 569.8 M 249.7 569.8 L 249.7 569.8 M 249.7 569.8 L 249.8 568.5 M 249.8 568.5 L 249.8 568.5 M 249.8 568.5 L 249.8 352 M 249.8 352 L 249.8 352 M 249.8 352 L 249.7 350.7 M 249.7 350.7 L 249.7 350.7 M 249.7 350.7 L 249.4 349.5 M 249.4 349.5 L 249.4 349.5 M 249.4 349.5 L 248.9 348.3 M 248.9 348.3 L 248.9 348.3 M 248.9 348.3 L 248.2 347.3 M 248.2 347.3 L 248.2 347.3 M 248.2 347.3 L 247.5 346.3 M 247.5 346.3 L 247.5 346.3 M 247.5 346.3 L 246.5 345.5 M 246.5 345.5 L 246.5 345.5 M 246.5 345.5 L 245.4 344.8 M 245.4 344.8 L 245.4 344.8 M 245.4 344.8 L 244.2 344.4 M 244.2 344.4 L 244.2 344.4 M 244.2 344.4 L 243 344 M 243 344 L 243 344 M 243 344 L 241.8 344 M 241.8 344 L 241.8 344 M 241.8 344 L 190.9 344 M 190.9 344 L 190.9 334.1 M 190.9 334.1 L 192 332.5 M 192 332.5 L 192 332.5 M 192 332.5 L 193.8 327.6 M 193.8 327.6 L 193.8 327.6 M 193.8 327.6 L 194.5 322.5 M 194.5 322.5 L 194.5 322.5 M 194.5 322.5 L 193.8 317.3 M 193.8 317.3 L 193.8 317.3 M 193.8 317.3 L 192 312.4 M 192 312.4 L 192 312.4 M 192 312.4 L 189 308.1 M 189 308.1 L 189 308.1 M 189 308.1 L 185.1 304.7 M 185.1 304.7 L 185.1 304.7 M 185.1 304.7 L 180.5 302.3 M 180.5 302.3 L 180.5 302.3 M 180.5 302.3 L 175.5 301 M 175.5 301 L 175.5 301 M 175.5 301 L 170.3 301 M 170.3 301 L 170.3 301 M 170.3 301 L 165.2 302.3 M 165.2 302.3 L 165.2 302.3 M 165.2 302.3 L 160.6 304.7 M 160.6 304.7 L 160.6 304.7 M 160.6 304.7 L 156.7 308.1 M 156.7 308.1 L 156.7 308.1 M 156.7 308.1 L 153.2 313.2 M 153.2 313.2 L 149.7 308.1 M 149.7 308.1 L 149.7 308.1 M 149.7 308.1 L 145.8 304.7 M 145.8 304.7 L 145.8 304.7 M 145.8 304.7 L 141.2 302.3 M 141.2 302.3 L 141.2 302.3 M 141.2 302.3 L 136.1 301 M 136.1 301 L 136.1 301 M 136.1 301 L 130.9 301 M 130.9 301 L 130.9 301 M 130.9 301 L 125.8 302.3 M 125.8 302.3 L 125.8 302.3 M 125.8 302.3 L 121.2 304.7 M 121.2 304.7 L 121.2 304.7 M 121.2 304.7 L 117.3 308.1 M 117.3 308.1 L 117.3 308.1 M 117.3 308.1 L 113.8 313.2 M 113.8 313.2 L 110.3 308.1 M 110.3 308.1 L 110.3 308.1 M 110.3 308.1 L 106.4 304.7 M 106.4 304.7 L 106.4 304.7 M 106.4 304.7 L 101.8 302.3 M 101.8 302.3 L 101.8 302.3 M 101.8 302.3 L 96.7 301 M 96.7 301 L 96.7 301 M 96.7 301 L 91.5 301 M 91.5 301 L 91.5 301 M 91.5 301 L 86.4 302.3 M 86.4 302.3 L 86.4 302.3 M 86.4 302.3 L 81.8 304.7 M 81.8 304.7 L 81.8 304.7 M 81.8 304.7 L 77.9 308.1 M 77.9 308.1 L 77.9 308.1 M 77.9 308.1 L 75 312.4 M 75 312.4 L 75 312.4 M 75 312.4 L 73.1 317.3 M 73.1 317.3 L 73.1 317.3 M 73.1 317.3 L 72.5 322.5 M 72.5 322.5 L 72.5 322.5 M 72.5 322.5 L 73.1 327.6 M 73.1 327.6 L 73.1 327.6 M 73.1 327.6 L 75 332.5 M 75 332.5 L 75 332.5 M 75 332.5 L 76.1 334.1 M 76.1 334.1 L 76.1 344 M 76.1 344 L 27.2 344 M 27.2 344 L 27.2 27.2 M 27.2 27.2 L 1247.7 27.2 M 1247.7 27.2 L 1247.7 344 M 121.6 708.6 L 106.3 710.3 M 106.3 710.3 L 88 716.7 M 88 716.7 L 71.5 727.1 M 71.5 727.1 L 57.8 740.8 M 57.8 740.8 L 47.4 757.3 M 47.4 757.3 L 41 775.6 M 41 775.6 L 39.3 790.9 M 39.3 790.9 L 48.9 790.9 M 48.9 790.9 L 48.9 798.9 M 48.9 798.9 L 39.3 798.9 M 39.3 798.9 L 41 814.2 M 41 814.2 L 47.4 832.5 M 47.4 832.5 L 57.8 849 M 57.8 849 L 71.5 862.7 M 71.5 862.7 L 88 873.1 M 88 873.1 L 106.3 879.5 M 106.3 879.5 L 121.6 881.2 M 121.6 881.2 L 121.6 871.6 M 121.6 871.6 L 129.6 871.6 M 129.6 871.6 L 129.6 881.2 M 129.6 881.2 L 144.9 879.5 M 144.9 879.5 L 163.2 873.1 M 163.2 873.1 L 179.7 862.7 M 179.7 862.7 L 193.4 849 M 193.4 849 L 203.8 832.5 M 203.8 832.5 L 210.2 814.2 M 210.2 814.2 L 211.9 798.9 M 211.9 798.9 L 202.3 798.9 M 202.3 798.9 L 202.3 790.9 M 202.3 790.9 L 211.9 790.9 M 211.9 790.9 L 210.2 775.6 M 210.2 775.6 L 203.8 757.3 M 203.8 757.3 L 193.4 740.8 M 193.4 740.8 L 179.7 727.1 M 179.7 727.1 L 163.2 716.7 M 163.2 716.7 L 144.9 710.3 M 144.9 710.3 L 129.6 708.6 M 129.6 708.6 L 129.6 718.2 M 129.6 718.2 L 121.6 718.2 M 121.6 718.2 L 121.6 708.6 M 1153.2 708.6 L 1153.2 718.2 M 1153.2 718.2 L 1145.2 718.2 M 1145.2 718.2 L 1145.2 708.6 M 1145.2 708.6 L 1129.9 710.3 M 1129.9 710.3 L 1111.6 716.7 M 1111.6 716.7 L 1095.1 727.1 M 1095.1 727.1 L 1081.4 740.8 M 1081.4 740.8 L 1071 757.3 M 1071 757.3 L 1064.6 775.6 M 1064.6 775.6 L 1062.9 790.9 M 1062.9 790.9 L 1072.5 790.9 M 1072.5 790.9 L 1072.5 798.9 M 1072.5 798.9 L 1062.9 798.9 M 1062.9 798.9 L 1064.6 814.2 M 1064.6 814.2 L 1071 832.5 M 1071 832.5 L 1081.4 849 M 1081.4 849 L 1095.1 862.7 M 1095.1 862.7 L 1111.6 873.1 M 1111.6 873.1 L 1129.9 879.5 M 1129.9 879.5 L 1145.2 881.2 M 1145.2 881.2 L 1145.2 871.6 M 1145.2 871.6 L 1153.2 871.6 M 1153.2 871.6 L 1153.2 881.2 M 1153.2 881.2 L 1168.5 879.5 M 1168.5 879.5 L 1186.9 873.1 M 1186.9 873.1 L 1203.3 862.7 M 1203.3 862.7 L 1217.1 849 M 1217.1 849 L 1227.4 832.5 M 1227.4 832.5 L 1233.8 814.2 M 1233.8 814.2 L 1235.6 798.9 M 1235.6 798.9 L 1226 798.9 M 1226 798.9 L 1226 790.9 M 1226 790.9 L 1235.6 790.9 M 1235.6 790.9 L 1233.8 775.6 M 1233.8 775.6 L 1227.4 757.3 M 1227.4 757.3 L 1217.1 740.8 M 1217.1 740.8 L 1203.3 727.1 M 1203.3 727.1 L 1186.9 716.7 M 1186.9 716.7 L 1168.5 710.3 M 1168.5 710.3 L 1153.2 708.6 M 716.2 373.5 L 558.7 373.5 M 558.7 373.5 L 557.4 373.6 M 557.4 373.6 L 556.2 373.9 M 556.2 373.9 L 555 374.4 M 555 374.4 L 554 375 M 554 375 L 553 375.8 M 553 375.8 L 552.2 376.8 M 552.2 376.8 L 551.5 377.9 M 551.5 377.9 L 551 379 M 551 379 L 550.7 380.3 M 550.7 380.3 L 550.6 381.5 M 550.6 381.5 L 550.6 456.2 M 550.6 456.2 L 560.7 456.2 M 560.7 456.2 L 560.7 464.3 M 560.7 464.3 L 550.6 464.3 M 550.6 464.3 L 550.6 539 M 550.6 539 L 550.7 540.3 M 550.7 540.3 L 551 541.5 M 551 541.5 L 551.5 542.7 M 551.5 542.7 L 552.2 543.7 M 552.2 543.7 L 553 544.7 M 553 544.7 L 554 545.5 M 554 545.5 L 555 546.2 M 555 546.2 L 556.2 546.6 M 556.2 546.6 L 557.4 546.9 M 557.4 546.9 L 558.7 547 M 558.7 547 L 633.4 547 M 633.4 547 L 633.4 537 M 633.4 537 L 641.4 537 M 641.4 537 L 641.4 547 M 641.4 547 L 716.2 547 M 716.2 547 L 717.4 546.9 M 717.4 546.9 L 718.6 546.6 M 718.6 546.6 L 719.8 546.2 M 719.8 546.2 L 720.9 545.5 M 720.9 545.5 L 721.8 544.7 M 721.8 544.7 L 722.7 543.7 M 722.7 543.7 L 723.3 542.7 M 723.3 542.7 L 723.8 541.5 M 723.8 541.5 L 724.1 540.3 M 724.1 540.3 L 724.2 539 M 724.2 539 L 724.2 464.3 M 724.2 464.3 L 714.2 464.3 M 714.2 464.3 L 714.2 456.2 M 714.2 456.2 L 724.2 456.2 M 724.2 456.2 L 724.2 381.5 M 724.2 381.5 L 724.1 380.3 M 724.1 380.3 L 723.8 379 M 723.8 379 L 723.3 377.9 M 723.3 377.9 L 722.7 376.8 M 722.7 376.8 L 721.8 375.8 M 721.8 375.8 L 720.9 375 M 720.9 375 L 719.8 374.4 M 719.8 374.4 L 718.6 373.9 M 718.6 373.9 L 717.4 373.6 M 717.4 373.6 L 716.2 373.5 M 983.9 132.1 L 978.7 132.1 M 978.7 132.1 L 973.7 133.3 M 973.7 133.3 L 969.1 135.7 M 969.1 135.7 L 965.2 139.2 M 965.2 139.2 L 962.9 142.5 M 962.9 142.5 L 952.5 142.5 M 952.5 142.5 L 951.9 142.5 M 951.9 142.5 L 951.3 142.5 M 951.3 142.5 L 950.6 142.7 M 950.6 142.7 L 950.1 142.7 M 950.1 142.7 L 949.5 142.9 M 949.5 142.9 L 948.8 143.1 M 948.8 143.1 L 948.3 143.4 M 948.3 143.4 L 947.7 143.6 M 947.7 143.6 L 947.2 143.9 M 947.2 143.9 L 946.6 144.2 M 946.6 144.2 L 946.2 144.5 M 946.2 144.5 L 945.6 144.9 M 945.6 144.9 L 945.2 145.3 M 945.2 145.3 L 944.7 145.7 M 944.7 145.7 L 837.7 252.7 M 837.7 252.7 L 835.1 252.1 M 835.1 252.1 L 829.9 252.1 M 829.9 252.1 L 824.9 253.3 M 824.9 253.3 L 820.2 255.7 M 820.2 255.7 L 816.4 259.2 M 816.4 259.2 L 813.4 263.5 M 813.4 263.5 L 811.6 268.3 M 811.6 268.3 L 810.9 273.5 M 810.9 273.5 L 811.6 278.7 M 811.6 278.7 L 813.4 283.5 M 813.4 283.5 L 816.4 287.8 M 816.4 287.8 L 820.2 291.3 M 820.2 291.3 L 824.9 293.7 M 824.9 293.7 L 829.9 294.9 M 829.9 294.9 L 835.1 294.9 M 835.1 294.9 L 840.1 293.7 M 840.1 293.7 L 844.8 291.3 M 844.8 291.3 L 848.6 287.8 M 848.6 287.8 L 851.6 283.5 M 851.6 283.5 L 853.4 278.7 M 853.4 278.7 L 854.1 273.5 M 854.1 273.5 L 853.4 268.2 M 853.4 268.2 L 957.1 164.5 M 957.1 164.5 L 962.9 164.5 M 962.9 164.5 L 965.2 167.8 M 965.2 167.8 L 969.1 171.3 M 969.1 171.3 L 973.7 173.7 M 973.7 173.7 L 978.7 174.9 M 978.7 174.9 L 983.9 174.9 M 983.9 174.9 L 989 173.7 M 989 173.7 L 993.6 171.3 M 993.6 171.3 L 997.5 167.8 M 997.5 167.8 L 1000.5 163.5 M 1000.5 163.5 L 1002.3 158.7 M 1002.3 158.7 L 1002.9 153.5 M 1002.9 153.5 L 1002.3 148.3 M 1002.3 148.3 L 1000.5 143.5 M 1000.5 143.5 L 997.5 139.2 M 997.5 139.2 L 993.6 135.7 M 993.6 135.7 L 989 133.3 M 989 133.3 L 983.9 132.1 M 569.2 98.3 L 564 98.3 M 564 98.3 L 558.9 99.5 M 558.9 99.5 L 554.3 101.9 M 554.3 101.9 L 550.4 105.4 M 550.4 105.4 L 547.4 109.7 M 547.4 109.7 L 545.6 114.5 M 545.6 114.5 L 545 119.7 M 545 119.7 L 545.6 124.9 M 545.6 124.9 L 547.4 129.7 M 547.4 129.7 L 550.4 134 M 550.4 134 L 554.3 137.5 M 554.3 137.5 L 555.5 138.1 M 555.5 138.1 L 555.5 180 M 555.5 180 L 554.3 180.7 M 554.3 180.7 L 550.4 184.1 M 550.4 184.1 L 547.4 188.4 M 547.4 188.4 L 545.6 193.3 M 545.6 193.3 L 545 198.4 M 545 198.4 L 545.6 203.6 M 545.6 203.6 L 547.4 208.5 M 547.4 208.5 L 550.4 212.8 M 550.4 212.8 L 554.3 216.2 M 554.3 216.2 L 558.9 218.6 M 558.9 218.6 L 564 219.9 M 564 219.9 L 569.2 219.9 M 569.2 219.9 L 574.2 218.6 M 574.2 218.6 L 578.8 216.2 M 578.8 216.2 L 582.7 212.8 M 582.7 212.8 L 585.7 208.5 M 585.7 208.5 L 587.5 203.6 M 587.5 203.6 L 588.1 198.4 M 588.1 198.4 L 587.5 193.3 M 587.5 193.3 L 585.7 188.4 M 585.7 188.4 L 582.7 184.1 M 582.7 184.1 L 578.8 180.7 M 578.8 180.7 L 577.6 180 M 577.6 180 L 577.6 138.1 M 577.6 138.1 L 578.8 137.5 M 578.8 137.5 L 582.7 134 M 582.7 134 L 585.7 129.7 M 585.7 129.7 L 587.5 124.9 M 587.5 124.9 L 588.1 119.7 M 588.1 119.7 L 587.5 114.5 M 587.5 114.5 L 585.7 109.7 M 585.7 109.7 L 582.7 105.4 M 582.7 105.4 L 578.8 101.9 M 578.8 101.9 L 574.2 99.5 M 574.2 99.5 L 569.2 98.3 M 121.6 39.3 L 106.3 41 M 106.3 41 L 88 47.4 M 88 47.4 L 71.5 57.8 M 71.5 57.8 L 57.8 71.5 M 57.8 71.5 L 47.4 88 M 47.4 88 L 41 106.3 M 41 106.3 L 39.3 121.6 M 39.3 121.6 L 48.9 121.6 M 48.9 121.6 L 48.9 129.6 M 48.9 129.6 L 39.3 129.6 M 39.3 129.6 L 41 144.9 M 41 144.9 L 47.4 163.2 M 47.4 163.2 L 57.8 179.7 M 57.8 179.7 L 71.5 193.4 M 71.5 193.4 L 88 203.8 M 88 203.8 L 106.3 210.2 M 106.3 210.2 L 121.6 211.9 M 121.6 211.9 L 121.6 202.3 M 121.6 202.3 L 129.6 202.3 M 129.6 202.3 L 129.6 211.9 M 129.6 211.9 L 144.9 210.2 M 144.9 210.2 L 163.2 203.8 M 163.2 203.8 L 179.7 193.4 M 179.7 193.4 L 193.4 179.7 M 193.4 179.7 L 203.8 163.2 M 203.8 163.2 L 210.2 144.9 M 210.2 144.9 L 211.9 129.6 M 211.9 129.6 L 202.3 129.6 M 202.3 129.6 L 202.3 121.6 M 202.3 121.6 L 211.9 121.6 M 211.9 121.6 L 210.2 106.3 M 210.2 106.3 L 203.8 88 M 203.8 88 L 193.4 71.5 M 193.4 71.5 L 179.7 57.8 M 179.7 57.8 L 163.2 47.4 M 163.2 47.4 L 144.9 41 M 144.9 41 L 129.6 39.3 M 129.6 39.3 L 129.6 48.9 M 129.6 48.9 L 121.6 48.9 M 121.6 48.9 L 121.6 39.3 M 27.2 29.2 L 1247.7 29.2 M 27.2 31.1 L 1247.7 31.1 M 27.2 33.1 L 1247.7 33.1 M 27.2 35 L 1247.7 35 M 27.2 36.9 L 1247.7 36.9 M 27.2 38.9 L 1247.7 38.9 M 27.2 40.8 L 107.7 40.8 M 121.6 40.8 L 129.6 40.8 M 143.5 40.8 L 1247.7 40.8 M 27.2 42.8 L 101.2 42.8 M 121.6 42.8 L 129.6 42.8 M 150 42.8 L 1247.7 42.8 M 27.2 44.7 L 95.6 44.7 M 121.6 44.7 L 129.6 44.7 M 155.6 44.7 L 1247.7 44.7 M 27.2 46.7 L 90.1 46.7 M 121.6 46.7 L 129.6 46.7 M 161.2 46.7 L 1247.7 46.7 M 27.2 48.6 L 86 48.6 M 121.6 48.6 L 129.6 48.6 M 165.2 48.6 L 1247.7 48.6 M 27.2 50.6 L 82.9 50.6 M 168.3 50.6 L 1247.7 50.6 M 27.2 52.5 L 79.8 52.5 M 171.4 52.5 L 1247.7 52.5 M 27.2 54.5 L 76.7 54.5 M 174.5 54.5 L 1247.7 54.5 M 27.2 56.4 L 73.6 56.4 M 177.6 56.4 L 1247.7 56.4 M 27.2 58.4 L 70.9 58.4 M 180.3 58.4 L 1247.7 58.4 M 27.2 60.3 L 68.9 60.3 M 182.3 60.3 L 1247.7 60.3 M 27.2 62.3 L 66.9 62.3 M 184.3 62.3 L 1247.7 62.3 M 27.2 64.2 L 65 64.2 M 186.2 64.2 L 1247.7 64.2 M 27.2 66.2 L 63.1 66.2 M 188.2 66.2 L 1247.7 66.2 M 27.2 68.1 L 61.1 68.1 M 190.1 68.1 L 1247.7 68.1 M 27.2 70.1 L 59.2 70.1 M 192.1 70.1 L 1247.7 70.1 M 27.2 72 L 57.4 72 M 193.8 72 L 1247.7 72 M 27.2 74 L 56.2 74 M 195 74 L 1247.7 74 M 27.2 75.9 L 55 75.9 M 196.2 75.9 L 1247.7 75.9 M 27.2 77.9 L 53.8 77.9 M 197.5 77.9 L 1247.7 77.9 M 27.2 79.8 L 52.5 79.8 M 198.7 79.8 L 1247.7 79.8 M 27.2 81.8 L 51.3 81.8 M 199.9 81.8 L 1247.7 81.8 M 27.2 83.7 L 50.1 83.7 M 201.2 83.7 L 1247.7 83.7 M 27.2 85.7 L 48.8 85.7 M 202.4 85.7 L 1247.7 85.7 M 27.2 87.6 L 47.6 87.6 M 203.6 87.6 L 1247.7 87.6 M 27.2 89.6 L 46.8 89.6 M 204.4 89.6 L 1247.7 89.6 M 27.2 91.5 L 46.2 91.5 M 205.1 91.5 L 1247.7 91.5 M 27.2 93.5 L 45.5 93.5 M 205.7 93.5 L 1247.7 93.5 M 27.2 95.5 L 44.8 95.5 M 206.4 95.5 L 1247.7 95.5 M 27.2 97.4 L 44.1 97.4 M 207.1 97.4 L 1247.7 97.4 M 27.2 99.4 L 43.4 99.4 M 207.8 99.4 L 559.6 99.4 M 573.5 99.4 L 1247.7 99.4 M 27.2 101.3 L 42.7 101.3 M 208.5 101.3 L 555.5 101.3 M 577.6 101.3 L 1247.7 101.3 M 27.2 103.2 L 42.1 103.2 M 209.2 103.2 L 552.8 103.2 M 580.3 103.2 L 1247.7 103.2 M 27.2 105.2 L 41.4 105.2 M 209.8 105.2 L 550.6 105.2 M 582.5 105.2 L 1247.7 105.2 M 27.2 107.1 L 40.9 107.1 M 210.3 107.1 L 549.2 107.1 M 583.9 107.1 L 1247.7 107.1 M 27.2 109.1 L 40.7 109.1 M 210.5 109.1 L 547.8 109.1 M 585.3 109.1 L 1247.7 109.1 M 27.2 111 L 40.5 111 M 210.8 111 L 546.9 111 M 586.2 111 L 1247.7 111 M 27.2 113 L 40.3 113 M 211 113 L 546.2 113 M 586.9 113 L 1247.7 113 M 27.2 114.9 L 40 114.9 M 211.2 114.9 L 545.5 114.9 M 587.6 114.9 L 1247.7 114.9 M 27.2 116.9 L 39.8 116.9 M 211.4 116.9 L 545.3 116.9 M 587.8 116.9 L 1247.7 116.9 M 27.2 118.8 L 39.6 118.8 M 211.6 118.8 L 545.1 118.8 M 588.1 118.8 L 1247.7 118.8 M 27.2 120.8 L 39.4 120.8 M 211.9 120.8 L 545.1 120.8 M 588 120.8 L 1247.7 120.8 M 27.2 122.7 L 48.9 122.7 M 202.3 122.7 L 545.3 122.7 M 587.8 122.7 L 1247.7 122.7 M 27.2 124.7 L 48.9 124.7 M 202.3 124.7 L 545.6 124.7 M 587.5 124.7 L 1247.7 124.7 M 27.2 126.6 L 48.9 126.6 M 202.3 126.6 L 546.2 126.6 M 586.9 126.6 L 1247.7 126.6 M 27.2 128.6 L 48.9 128.6 M 202.3 128.6 L 547 128.6 M 586.1 128.6 L 1247.7 128.6 M 27.2 130.5 L 39.4 130.5 M 211.8 130.5 L 548 130.5 M 585.1 130.5 L 1247.7 130.5 M 27.2 132.5 L 39.6 132.5 M 211.6 132.5 L 549.3 132.5 M 583.8 132.5 L 977 132.5 M 985.7 132.5 L 1247.7 132.5 M 27.2 134.4 L 39.8 134.4 M 211.4 134.4 L 550.8 134.4 M 582.3 134.4 L 971.5 134.4 M 991.2 134.4 L 1247.7 134.4 M 27.2 136.4 L 40 136.4 M 211.2 136.4 L 553.1 136.4 M 580.1 136.4 L 968.3 136.4 M 994.4 136.4 L 1247.7 136.4 M 27.2 138.3 L 40.3 138.3 M 211 138.3 L 555.5 138.3 M 577.6 138.3 L 966.1 138.3 M 996.6 138.3 L 1247.7 138.3 M 27.2 140.3 L 40.5 140.3 M 210.7 140.3 L 555.5 140.3 M 577.6 140.3 L 964.4 140.3 M 998.2 140.3 L 1247.7 140.3 M 27.2 142.2 L 40.7 142.2 M 210.5 142.2 L 555.5 142.2 M 577.6 142.2 L 963.1 142.2 M 999.6 142.2 L 1247.7 142.2 M 27.2 144.2 L 40.9 144.2 M 210.3 144.2 L 555.5 144.2 M 577.6 144.2 L 946.6 144.2 M 1000.7 144.2 L 1247.7 144.2 M 27.2 146.1 L 41.4 146.1 M 209.8 146.1 L 555.5 146.1 M 577.6 146.1 L 944.2 146.1 M 1001.5 146.1 L 1247.7 146.1 M 27.2 148.1 L 42.1 148.1 M 209.1 148.1 L 555.5 148.1 M 577.6 148.1 L 942.3 148.1 M 1002.2 148.1 L 1247.7 148.1 M 27.2 150 L 42.8 150 M 208.4 150 L 555.5 150 M 577.6 150 L 940.3 150 M 1002.5 150 L 1247.7 150 M 27.2 152 L 43.5 152 M 207.7 152 L 555.5 152 M 577.6 152 L 938.4 152 M 1002.7 152 L 1247.7 152 M 27.2 153.9 L 44.2 153.9 M 207.1 153.9 L 555.5 153.9 M 577.6 153.9 L 936.4 153.9 M 1002.9 153.9 L 1247.7 153.9 M 27.2 155.9 L 44.8 155.9 M 206.4 155.9 L 555.5 155.9 M 577.6 155.9 L 934.5 155.9 M 1002.7 155.9 L 1247.7 155.9 M 27.2 157.9 L 45.5 157.9 M 205.7 157.9 L 555.5 157.9 M 577.6 157.9 L 932.5 157.9 M 1002.4 157.9 L 1247.7 157.9 M 27.2 159.8 L 46.2 159.8 M 205 159.8 L 555.5 159.8 M 577.6 159.8 L 930.6 159.8 M 1001.9 159.8 L 1247.7 159.8 M 27.2 161.8 L 46.9 161.8 M 204.4 161.8 L 555.5 161.8 M 577.6 161.8 L 928.6 161.8 M 1001.1 161.8 L 1247.7 161.8 M 27.2 163.7 L 47.7 163.7 M 203.5 163.7 L 555.5 163.7 M 577.6 163.7 L 926.7 163.7 M 1000.4 163.7 L 1247.7 163.7 M 27.2 165.6 L 48.9 165.6 M 202.3 165.6 L 555.5 165.6 M 577.6 165.6 L 924.7 165.6 M 956 165.6 L 963.6 165.6 M 999 165.6 L 1247.7 165.6 M 27.2 167.6 L 50.1 167.6 M 201.1 167.6 L 555.5 167.6 M 577.6 167.6 L 922.8 167.6 M 954 167.6 L 965 167.6 M 997.7 167.6 L 1247.7 167.6 M 27.2 169.5 L 51.4 169.5 M 199.9 169.5 L 555.5 169.5 M 577.6 169.5 L 920.8 169.5 M 952.1 169.5 L 967.1 169.5 M 995.6 169.5 L 1247.7 169.5 M 27.2 171.5 L 52.6 171.5 M 198.6 171.5 L 555.5 171.5 M 577.6 171.5 L 918.9 171.5 M 950.1 171.5 L 969.5 171.5 M 993.2 171.5 L 1247.7 171.5 M 27.2 173.4 L 53.8 173.4 M 197.4 173.4 L 555.5 173.4 M 577.6 173.4 L 916.9 173.4 M 948.2 173.4 L 973.2 173.4 M 989.5 173.4 L 1247.7 173.4 M 27.2 175.4 L 55 175.4 M 196.2 175.4 L 555.5 175.4 M 577.6 175.4 L 915 175.4 M 946.2 175.4 L 1247.7 175.4 M 27.2 177.3 L 56.2 177.3 M 195 177.3 L 555.5 177.3 M 577.6 177.3 L 913.1 177.3 M 944.3 177.3 L 1247.7 177.3 M 27.2 179.3 L 57.5 179.3 M 193.7 179.3 L 555.5 179.3 M 577.6 179.3 L 911.1 179.3 M 942.3 179.3 L 1247.7 179.3 M 27.2 181.2 L 59.3 181.2 M 191.9 181.2 L 553.6 181.2 M 579.5 181.2 L 909.2 181.2 M 940.4 181.2 L 1247.7 181.2 M 27.2 183.2 L 61.2 183.2 M 190 183.2 L 551.4 183.2 M 581.7 183.2 L 907.2 183.2 M 938.4 183.2 L 1247.7 183.2 M 27.2 185.1 L 63.2 185.1 M 188.1 185.1 L 549.7 185.1 M 583.4 185.1 L 905.3 185.1 M 936.5 185.1 L 1247.7 185.1 M 27.2 187.1 L 65.1 187.1 M 186.1 187.1 L 548.3 187.1 M 584.8 187.1 L 903.3 187.1 M 934.5 187.1 L 1247.7 187.1 M 27.2 189 L 67.1 189 M 184.2 189 L 547.2 189 M 585.9 189 L 901.4 189 M 932.6 189 L 1247.7 189 M 27.2 191 L 69 191 M 182.2 191 L 546.4 191 M 586.7 191 L 899.4 191 M 930.6 191 L 1247.7 191 M 27.2 192.9 L 71 192.9 M 180.3 192.9 L 545.7 192.9 M 587.4 192.9 L 897.4 192.9 M 928.7 192.9 L 1247.7 192.9 M 27.2 194.9 L 73.8 194.9 M 177.5 194.9 L 545.4 194.9 M 587.7 194.9 L 895.5 194.9 M 926.8 194.9 L 1247.7 194.9 M 27.2 196.8 L 76.9 196.8 M 174.4 196.8 L 545.1 196.8 M 588 196.8 L 893.5 196.8 M 924.8 196.8 L 1247.7 196.8 M 27.2 198.8 L 80 198.8 M 171.2 198.8 L 545 198.8 M 588.1 198.8 L 891.6 198.8 M 922.9 198.8 L 1247.7 198.8 M 27.2 200.7 L 83.1 200.7 M 168.2 200.7 L 545.2 200.7 M 587.9 200.7 L 889.6 200.7 M 920.9 200.7 L 1247.7 200.7 M 27.2 202.7 L 86.2 202.7 M 121.6 202.7 L 129.6 202.7 M 165.1 202.7 L 545.5 202.7 M 587.7 202.7 L 887.7 202.7 M 919 202.7 L 1247.7 202.7 M 27.2 204.6 L 90.3 204.6 M 121.6 204.6 L 129.6 204.6 M 160.9 204.6 L 546 204.6 M 587.1 204.6 L 885.7 204.6 M 917 204.6 L 1247.7 204.6 M 27.2 206.6 L 95.9 206.6 M 121.6 206.6 L 129.6 206.6 M 155.3 206.6 L 546.7 206.6 M 586.4 206.6 L 883.8 206.6 M 915.1 206.6 L 1247.7 206.6 M 27.2 208.5 L 101.5 208.5 M 121.6 208.5 L 129.6 208.5 M 149.7 208.5 L 547.5 208.5 M 585.6 208.5 L 881.8 208.5 M 913.1 208.5 L 1247.7 208.5 M 27.2 210.5 L 108.6 210.5 M 121.6 210.5 L 129.6 210.5 M 142.6 210.5 L 548.8 210.5 M 584.3 210.5 L 879.9 210.5 M 911.1 210.5 L 1247.7 210.5 M 27.2 212.4 L 550.2 212.4 M 582.9 212.4 L 877.9 212.4 M 909.2 212.4 L 1247.7 212.4 M 27.2 214.4 L 552.2 214.4 M 580.9 214.4 L 876 214.4 M 907.2 214.4 L 1247.7 214.4 M 27.2 216.3 L 554.5 216.3 M 578.6 216.3 L 874 216.3 M 905.3 216.3 L 1247.7 216.3 M 27.2 218.3 L 558.2 218.3 M 574.9 218.3 L 872.1 218.3 M 903.3 218.3 L 1247.7 218.3 M 27.2 220.2 L 870.1 220.2 M 901.4 220.2 L 1247.7 220.2 M 27.2 222.2 L 868.2 222.2 M 899.4 222.2 L 1247.7 222.2 M 27.2 224.2 L 866.2 224.2 M 897.5 224.2 L 1247.7 224.2 M 27.2 226.1 L 864.3 226.1 M 895.5 226.1 L 1247.7 226.1 M 27.2 228.1 L 862.3 228.1 M 893.6 228.1 L 1247.7 228.1 M 27.2 230 L 860.4 230 M 891.6 230 L 1247.7 230 M 27.2 231.9 L 858.4 231.9 M 889.7 231.9 L 1247.7 231.9 M 27.2 233.9 L 856.5 233.9 M 887.7 233.9 L 1247.7 233.9 M 27.2 235.8 L 854.5 235.8 M 885.8 235.8 L 1247.7 235.8 M 27.2 237.8 L 852.6 237.8 M 883.8 237.8 L 1247.7 237.8 M 27.2 239.7 L 850.6 239.7 M 881.9 239.7 L 1247.7 239.7 M 27.2 241.7 L 848.7 241.7 M 879.9 241.7 L 1247.7 241.7 M 27.2 243.6 L 846.8 243.6 M 878 243.6 L 1247.7 243.6 M 27.2 245.6 L 844.8 245.6 M 876 245.6 L 1247.7 245.6 M 27.2 247.5 L 842.9 247.5 M 874.1 247.5 L 1247.7 247.5 M 27.2 249.5 L 840.9 249.5 M 872.1 249.5 L 1247.7 249.5 M 27.2 251.4 L 839 251.4 M 870.2 251.4 L 1247.7 251.4 M 27.2 253.4 L 824.7 253.4 M 868.2 253.4 L 1247.7 253.4 M 27.2 255.3 L 821 255.3 M 866.3 255.3 L 1247.7 255.3 M 27.2 257.3 L 818.5 257.3 M 864.4 257.3 L 1247.7 257.3 M 27.2 259.2 L 816.3 259.2 M 862.4 259.2 L 1247.7 259.2 M 27.2 261.2 L 814.9 261.2 M 860.5 261.2 L 1247.7 261.2 M 27.2 263.1 L 813.6 263.1 M 858.5 263.1 L 1247.7 263.1 M 27.2 265.1 L 812.8 265.1 M 856.6 265.1 L 1247.7 265.1 M 27.2 267 L 812 267 M 854.6 267 L 1247.7 267 M 27.2 269 L 811.4 269 M 853.6 269 L 1247.7 269 M 27.2 270.9 L 811.2 270.9 M 853.8 270.9 L 1247.7 270.9 M 27.2 272.9 L 811 272.9 M 854 272.9 L 1247.7 272.9 M 27.2 274.8 L 811 274.8 M 854 274.8 L 1247.7 274.8 M 27.2 276.8 L 811.3 276.8 M 853.7 276.8 L 1247.7 276.8 M 27.2 278.7 L 811.6 278.7 M 853.4 278.7 L 1247.7 278.7 M 27.2 280.7 L 812.3 280.7 M 852.7 280.7 L 1247.7 280.7 M 27.2 282.6 L 813.1 282.6 M 851.9 282.6 L 1247.7 282.6 M 27.2 284.6 L 814.1 284.6 M 850.9 284.6 L 1247.7 284.6 M 27.2 286.5 L 815.5 286.5 M 849.5 286.5 L 1247.7 286.5 M 27.2 288.5 L 817.1 288.5 M 847.9 288.5 L 1247.7 288.5 M 27.2 290.5 L 819.3 290.5 M 845.7 290.5 L 1247.7 290.5 M 27.2 292.4 L 822.3 292.4 M 842.7 292.4 L 1247.7 292.4 M 27.2 294.4 L 827.4 294.4 M 837.6 294.4 L 1247.7 294.4 M 27.2 296.3 L 1247.7 296.3 M 27.2 298.2 L 1247.7 298.2 M 27.2 300.2 L 1247.7 300.2 M 27.2 302.1 L 87 302.1 M 101.2 302.1 L 126.4 302.1 M 140.6 302.1 L 165.8 302.1 M 179.9 302.1 L 1247.7 302.1 M 27.2 304.1 L 83 304.1 M 105.2 304.1 L 122.4 304.1 M 144.6 304.1 L 161.8 304.1 M 184 304.1 L 1247.7 304.1 M 27.2 306 L 80.3 306 M 107.9 306 L 119.7 306 M 147.3 306 L 159.1 306 M 186.6 306 L 1247.7 306 M 27.2 308 L 78.1 308 M 110.1 308 L 117.5 308 M 149.5 308 L 156.9 308 M 188.8 308 L 1247.7 308 M 27.2 309.9 L 76.7 309.9 M 111.5 309.9 L 116.1 309.9 M 150.9 309.9 L 155.5 309.9 M 190.3 309.9 L 1247.7 309.9 M 27.2 311.9 L 75.4 311.9 M 112.9 311.9 L 114.7 311.9 M 152.2 311.9 L 154.1 311.9 M 191.6 311.9 L 1247.7 311.9 M 27.2 313.8 L 74.5 313.8 M 192.5 313.8 L 1247.7 313.8 M 27.2 315.8 L 73.7 315.8 M 193.2 315.8 L 1247.7 315.8 M 27.2 317.7 L 73.1 317.7 M 193.9 317.7 L 1247.7 317.7 M 27.2 319.7 L 72.9 319.7 M 194.1 319.7 L 1247.7 319.7 M 27.2 321.6 L 72.6 321.6 M 194.4 321.6 L 1247.7 321.6 M 27.2 323.6 L 72.7 323.6 M 194.3 323.6 L 1247.7 323.6 M 27.2 325.5 L 72.9 325.5 M 194.1 325.5 L 1247.7 325.5 M 27.2 327.5 L 73.1 327.5 M 193.8 327.5 L 1247.7 327.5 M 27.2 329.4 L 73.8 329.4 M 193.1 329.4 L 1247.7 329.4 M 27.2 331.4 L 74.6 331.4 M 192.4 331.4 L 1247.7 331.4 M 27.2 333.3 L 75.6 333.3 M 191.4 333.3 L 1247.7 333.3 M 27.2 335.3 L 76.1 335.3 M 190.9 335.3 L 1247.7 335.3 M 27.2 337.2 L 76.1 337.2 M 190.9 337.2 L 1247.7 337.2 M 27.2 339.2 L 76.1 339.2 M 190.9 339.2 L 1247.7 339.2 M 27.2 341.1 L 76.1 341.1 M 190.9 341.1 L 1247.7 341.1 M 27.2 343.1 L 76.1 343.1 M 190.9 343.1 L 1247.7 343.1 M 245.7 345 L 1029.1 345 M 248 347 L 1026.8 347 M 249.2 348.9 L 1025.7 348.9 M 249.7 350.9 L 1025.1 350.9 M 249.8 352.9 L 1025.1 352.9 M 249.8 354.8 L 1025.1 354.8 M 249.8 356.8 L 1025.1 356.8 M 249.8 358.7 L 1025.1 358.7 M 249.8 360.6 L 1025.1 360.6 M 249.8 362.6 L 1025.1 362.6 M 249.8 364.5 L 1025.1 364.5 M 249.8 366.5 L 1025.1 366.5 M 249.8 368.4 L 1025.1 368.4 M 249.8 370.4 L 1025.1 370.4 M 249.8 372.3 L 1025.1 372.3 M 249.8 374.3 L 555.2 374.3 M 719.7 374.3 L 1025.1 374.3 M 249.8 376.2 L 552.7 376.2 M 722.2 376.2 L 1025.1 376.2 M 249.8 378.2 L 551.4 378.2 M 723.5 378.2 L 1025.1 378.2 M 249.8 380.1 L 550.8 380.1 M 724.1 380.1 L 1025.1 380.1 M 249.8 382.1 L 550.6 382.1 M 724.2 382.1 L 1025.1 382.1 M 249.8 384 L 550.6 384 M 724.2 384 L 1025.1 384 M 249.8 386 L 550.6 386 M 724.2 386 L 1025.1 386 M 249.8 387.9 L 550.6 387.9 M 724.2 387.9 L 1025.1 387.9 M 249.8 389.9 L 550.6 389.9 M 724.2 389.9 L 1025.1 389.9 M 249.8 391.8 L 550.6 391.8 M 724.2 391.8 L 1025.1 391.8 M 249.8 393.8 L 550.6 393.8 M 724.2 393.8 L 1025.1 393.8 M 249.8 395.7 L 550.6 395.7 M 724.2 395.7 L 1025.1 395.7 M 249.8 397.7 L 550.6 397.7 M 724.2 397.7 L 1025.1 397.7 M 249.8 399.6 L 550.6 399.6 M 724.2 399.6 L 1025.1 399.6 M 249.8 401.6 L 550.6 401.6 M 724.2 401.6 L 1025.1 401.6 M 249.8 403.5 L 550.6 403.5 M 724.2 403.5 L 1025.1 403.5 M 249.8 405.5 L 550.6 405.5 M 724.2 405.5 L 1025.1 405.5 M 249.8 407.4 L 550.6 407.4 M 724.2 407.4 L 1025.1 407.4 M 249.8 409.4 L 550.6 409.4 M 724.2 409.4 L 1025.1 409.4 M 249.8 411.3 L 550.6 411.3 M 724.2 411.3 L 1025.1 411.3 M 249.8 413.3 L 550.6 413.3 M 724.2 413.3 L 1025.1 413.3 M 249.8 415.2 L 550.6 415.2 M 724.2 415.2 L 1025.1 415.2 M 249.8 417.2 L 550.6 417.2 M 724.2 417.2 L 1025.1 417.2 M 249.8 419.2 L 550.6 419.2 M 724.2 419.2 L 1025.1 419.2 M 249.8 421.1 L 550.6 421.1 M 724.2 421.1 L 1025.1 421.1 M 249.8 423.1 L 550.6 423.1 M 724.2 423.1 L 1025.1 423.1 M 249.8 425 L 550.6 425 M 724.2 425 L 1025.1 425 M 249.8 426.9 L 550.6 426.9 M 724.2 426.9 L 1025.1 426.9 M 249.8 428.9 L 550.6 428.9 M 724.2 428.9 L 1025.1 428.9 M 249.8 430.8 L 550.6 430.8 M 724.2 430.8 L 1025.1 430.8 M 249.8 432.8 L 550.6 432.8 M 724.2 432.8 L 1025.1 432.8 M 249.8 434.7 L 550.6 434.7 M 724.2 434.7 L 1025.1 434.7 M 249.8 436.7 L 550.6 436.7 M 724.2 436.7 L 1025.1 436.7 M 249.8 438.6 L 550.6 438.6 M 724.2 438.6 L 1025.1 438.6 M 249.8 440.6 L 550.6 440.6 M 724.2 440.6 L 1025.1 440.6 M 249.8 442.5 L 550.6 442.5 M 724.2 442.5 L 1025.1 442.5 M 249.8 444.5 L 550.6 444.5 M 724.2 444.5 L 1025.1 444.5 M 249.8 446.4 L 550.6 446.4 M 724.2 446.4 L 1025.1 446.4 M 249.8 448.4 L 550.6 448.4 M 724.2 448.4 L 1025.1 448.4 M 249.8 450.3 L 550.6 450.3 M 724.2 450.3 L 1025.1 450.3 M 249.8 452.3 L 550.6 452.3 M 724.2 452.3 L 1025.1 452.3 M 249.8 454.2 L 550.6 454.2 M 724.2 454.2 L 1025.1 454.2 M 249.8 456.2 L 550.6 456.2 M 724.2 456.2 L 1025.1 456.2 M 249.8 458.1 L 560.7 458.1 M 714.2 458.1 L 1025.1 458.1 M 249.8 460.1 L 560.7 460.1 M 714.2 460.1 L 1025.1 460.1 M 249.8 462 L 560.7 462 M 714.2 462 L 1025.1 462 M 249.8 464 L 560.7 464 M 714.2 464 L 1025.1 464 M 249.8 465.9 L 550.6 465.9 M 724.2 465.9 L 1025.1 465.9 M 249.8 467.9 L 550.6 467.9 M 724.2 467.9 L 1025.1 467.9 M 249.8 469.8 L 550.6 469.8 M 724.2 469.8 L 1025.1 469.8 M 249.8 471.8 L 550.6 471.8 M 724.2 471.8 L 1025.1 471.8 M 249.8 473.7 L 550.6 473.7 M 724.2 473.7 L 1025.1 473.7 M 249.8 475.7 L 550.6 475.7 M 724.2 475.7 L 1025.1 475.7 M 249.8 477.6 L 550.6 477.6 M 724.2 477.6 L 1025.1 477.6 M 249.8 479.6 L 550.6 479.6 M 724.2 479.6 L 1025.1 479.6 M 249.8 481.5 L 550.6 481.5 M 724.2 481.5 L 1025.1 481.5 M 249.8 483.5 L 550.6 483.5 M 724.2 483.5 L 1025.1 483.5 M 249.8 485.5 L 550.6 485.5 M 724.2 485.5 L 1025.1 485.5 M 249.8 487.4 L 550.6 487.4 M 724.2 487.4 L 1025.1 487.4 M 249.8 489.4 L 550.6 489.4 M 724.2 489.4 L 1025.1 489.4 M 249.8 491.3 L 550.6 491.3 M 724.2 491.3 L 1025.1 491.3 M 249.8 493.2 L 550.6 493.2 M 724.2 493.2 L 1025.1 493.2 M 249.8 495.2 L 550.6 495.2 M 724.2 495.2 L 1025.1 495.2 M 249.8 497.1 L 550.6 497.1 M 724.2 497.1 L 1025.1 497.1 M 249.8 499.1 L 550.6 499.1 M 724.2 499.1 L 1025.1 499.1 M 249.8 501 L 550.6 501 M 724.2 501 L 1025.1 501 M 249.8 503 L 550.6 503 M 724.2 503 L 1025.1 503 M 249.8 504.9 L 550.6 504.9 M 724.2 504.9 L 1025.1 504.9 M 249.8 506.9 L 550.6 506.9 M 724.2 506.9 L 1025.1 506.9 M 249.8 508.8 L 550.6 508.8 M 724.2 508.8 L 1025.1 508.8 M 249.8 510.8 L 550.6 510.8 M 724.2 510.8 L 1025.1 510.8 M 249.8 512.7 L 550.6 512.7 M 724.2 512.7 L 1025.1 512.7 M 249.8 514.7 L 550.6 514.7 M 724.2 514.7 L 1025.1 514.7 M 249.8 516.6 L 550.6 516.6 M 724.2 516.6 L 1025.1 516.6 M 249.8 518.6 L 550.6 518.6 M 724.2 518.6 L 1025.1 518.6 M 249.8 520.5 L 550.6 520.5 M 724.2 520.5 L 1025.1 520.5 M 249.8 522.5 L 550.6 522.5 M 724.2 522.5 L 1025.1 522.5 M 249.8 524.4 L 550.6 524.4 M 724.2 524.4 L 1025.1 524.4 M 249.8 526.4 L 550.6 526.4 M 724.2 526.4 L 1025.1 526.4 M 249.8 528.3 L 550.6 528.3 M 724.2 528.3 L 1025.1 528.3 M 249.8 530.3 L 550.6 530.3 M 724.2 530.3 L 1025.1 530.3 M 249.8 532.2 L 550.6 532.2 M 724.2 532.2 L 1025.1 532.2 M 249.8 534.2 L 550.6 534.2 M 724.2 534.2 L 1025.1 534.2 M 249.8 536.1 L 550.6 536.1 M 724.2 536.1 L 1025.1 536.1 M 249.8 538.1 L 550.6 538.1 M 633.4 538.1 L 641.4 538.1 M 724.2 538.1 L 1025.1 538.1 M 249.8 540 L 550.7 540 M 633.4 540 L 641.4 540 M 724.1 540 L 1025.1 540 M 249.8 542 L 551.2 542 M 633.4 542 L 641.4 542 M 723.6 542 L 1025.1 542 M 249.8 543.9 L 552.3 543.9 M 633.4 543.9 L 641.4 543.9 M 722.5 543.9 L 1025.1 543.9 M 249.8 545.9 L 554.5 545.9 M 633.4 545.9 L 641.4 545.9 M 720.3 545.9 L 1025.1 545.9 M 249.8 547.9 L 1025.1 547.9 M 249.8 549.8 L 1025.1 549.8 M 249.8 551.8 L 1025.1 551.8 M 249.8 553.7 L 1025.1 553.7 M 249.8 555.6 L 1025.1 555.6 M 249.8 557.6 L 1025.1 557.6 M 249.8 559.5 L 1025.1 559.5 M 249.8 561.5 L 1025.1 561.5 M 249.8 563.4 L 1025.1 563.4 M 249.8 565.4 L 1025.1 565.4 M 249.8 567.3 L 1025.1 567.3 M 249.7 569.3 L 1025.1 569.3 M 249.3 571.2 L 1025.5 571.2 M 248.3 573.2 L 1026.6 573.2 M 246.3 575.1 L 1028.5 575.1 M 27.2 577.1 L 76.1 577.1 M 190.9 577.1 L 1084 577.1 M 1198.8 577.1 L 1247.7 577.1 M 27.2 579 L 76.1 579 M 190.9 579 L 1084 579 M 1198.8 579 L 1247.7 579 M 27.2 581 L 76.1 581 M 190.9 581 L 1084 581 M 1198.8 581 L 1247.7 581 M 27.2 582.9 L 76.1 582.9 M 190.9 582.9 L 1084 582.9 M 1198.8 582.9 L 1247.7 582.9 M 27.2 584.9 L 76.1 584.9 M 190.9 584.9 L 1084 584.9 M 1198.8 584.9 L 1247.7 584.9 M 27.2 586.8 L 75.8 586.8 M 191.2 586.8 L 1083.7 586.8 M 1199 586.8 L 1247.7 586.8 M 27.2 588.8 L 74.7 588.8 M 192.3 588.8 L 1082.6 588.8 M 1200.1 588.8 L 1247.7 588.8 M 27.2 590.7 L 74 590.7 M 193 590.7 L 1081.8 590.7 M 1200.9 590.7 L 1247.7 590.7 M 27.2 592.7 L 73.2 592.7 M 193.8 592.7 L 1081.1 592.7 M 1201.6 592.7 L 1247.7 592.7 M 27.2 594.6 L 72.9 594.6 M 194 594.6 L 1080.8 594.6 M 1201.9 594.6 L 1247.7 594.6 M 27.2 596.6 L 72.7 596.6 M 194.3 596.6 L 1080.6 596.6 M 1202.1 596.6 L 1247.7 596.6 M 27.2 598.5 L 72.6 598.5 M 194.4 598.5 L 1080.5 598.5 M 1202.3 598.5 L 1247.7 598.5 M 27.2 600.5 L 72.8 600.5 M 194.2 600.5 L 1080.7 600.5 M 1202 600.5 L 1247.7 600.5 M 27.2 602.4 L 73.1 602.4 M 193.9 602.4 L 1080.9 602.4 M 1201.8 602.4 L 1247.7 602.4 M 27.2 604.4 L 73.6 604.4 M 193.4 604.4 L 1081.5 604.4 M 1201.2 604.4 L 1247.7 604.4 M 27.2 606.3 L 74.4 606.3 M 192.6 606.3 L 1082.2 606.3 M 1200.5 606.3 L 1247.7 606.3 M 27.2 608.3 L 75.1 608.3 M 113.1 608.3 L 114.5 608.3 M 152.5 608.3 L 153.9 608.3 M 191.8 608.3 L 1083 608.3 M 1121 608.3 L 1122.4 608.3 M 1160.3 608.3 L 1161.8 608.3 M 1199.7 608.3 L 1247.7 608.3 M 27.2 610.2 L 76.5 610.2 M 111.8 610.2 L 115.8 610.2 M 151.1 610.2 L 155.2 610.2 M 190.5 610.2 L 1084.4 610.2 M 1119.6 610.2 L 1123.7 610.2 M 1159 610.2 L 1163.1 610.2 M 1198.4 610.2 L 1247.7 610.2 M 27.2 612.2 L 77.8 612.2 M 110.4 612.2 L 117.2 612.2 M 149.8 612.2 L 156.6 612.2 M 189.2 612.2 L 1085.7 612.2 M 1118.3 612.2 L 1125.1 612.2 M 1157.7 612.2 L 1164.4 612.2 M 1197 612.2 L 1247.7 612.2 M 27.2 614.2 L 79.9 614.2 M 108.3 614.2 L 119.3 614.2 M 147.7 614.2 L 158.7 614.2 M 187 614.2 L 1087.8 614.2 M 1116.2 614.2 L 1127.2 614.2 M 1155.5 614.2 L 1166.6 614.2 M 1194.9 614.2 L 1247.7 614.2 M 27.2 616.1 L 82.3 616.1 M 105.9 616.1 L 121.7 616.1 M 145.3 616.1 L 161.1 616.1 M 184.6 616.1 L 1090.2 616.1 M 1113.8 616.1 L 1129.6 616.1 M 1153.1 616.1 L 1169 616.1 M 1192.5 616.1 L 1247.7 616.1 M 27.2 618.1 L 86.1 618.1 M 102.1 618.1 L 125.5 618.1 M 141.5 618.1 L 164.8 618.1 M 180.9 618.1 L 1094 618.1 M 1110 618.1 L 1133.3 618.1 M 1149.4 618.1 L 1172.7 618.1 M 1188.8 618.1 L 1247.7 618.1 M 27.2 620 L 1247.7 620 M 27.2 621.9 L 1247.7 621.9 M 27.2 623.9 L 1247.7 623.9 M 27.2 625.8 L 1247.7 625.8 M 27.2 627.8 L 1247.7 627.8 M 27.2 629.7 L 1247.7 629.7 M 27.2 631.7 L 1247.7 631.7 M 27.2 633.6 L 1247.7 633.6 M 27.2 635.6 L 1247.7 635.6 M 27.2 637.5 L 1247.7 637.5 M 27.2 639.5 L 1247.7 639.5 M 27.2 641.4 L 1247.7 641.4 M 27.2 643.4 L 1247.7 643.4 M 27.2 645.3 L 1247.7 645.3 M 27.2 647.3 L 1247.7 647.3 M 27.2 649.2 L 1247.7 649.2 M 27.2 651.2 L 1247.7 651.2 M 27.2 653.1 L 1247.7 653.1 M 27.2 655.1 L 1247.7 655.1 M 27.2 657 L 1247.7 657 M 27.2 659 L 1247.7 659 M 27.2 660.9 L 1247.7 660.9 M 27.2 662.9 L 1247.7 662.9 M 27.2 664.8 L 1247.7 664.8 M 27.2 666.8 L 1247.7 666.8 M 27.2 668.7 L 1247.7 668.7 M 27.2 670.7 L 1247.7 670.7 M 27.2 672.6 L 1247.7 672.6 M 27.2 674.6 L 1247.7 674.6 M 27.2 676.5 L 1247.7 676.5 M 27.2 678.5 L 1247.7 678.5 M 27.2 680.5 L 1247.7 680.5 M 27.2 682.4 L 1247.7 682.4 M 27.2 684.4 L 1247.7 684.4 M 27.2 686.3 L 1247.7 686.3 M 27.2 688.2 L 1247.7 688.2 M 27.2 690.2 L 1247.7 690.2 M 27.2 692.1 L 1247.7 692.1 M 27.2 694.1 L 1247.7 694.1 M 27.2 696 L 1247.7 696 M 27.2 698 L 1247.7 698 M 27.2 699.9 L 1247.7 699.9 M 27.2 701.9 L 1247.7 701.9 M 27.2 703.8 L 1247.7 703.8 M 27.2 705.8 L 1247.7 705.8 M 27.2 707.7 L 1247.7 707.7 M 27.2 709.7 L 111.6 709.7 M 121.6 709.7 L 129.6 709.7 M 139.6 709.7 L 1135.3 709.7 M 1145.3 709.7 L 1153.2 709.7 M 1163.2 709.7 L 1247.7 709.7 M 27.2 711.6 L 102.5 711.6 M 121.6 711.6 L 129.6 711.6 M 148.8 711.6 L 1126.1 711.6 M 1145.3 711.6 L 1153.2 711.6 M 1172.4 711.6 L 1247.7 711.6 M 27.2 713.6 L 96.9 713.6 M 121.6 713.6 L 129.6 713.6 M 154.4 713.6 L 1120.5 713.6 M 1145.3 713.6 L 1153.2 713.6 M 1178 713.6 L 1247.7 713.6 M 27.2 715.5 L 91.3 715.5 M 121.6 715.5 L 129.6 715.5 M 159.9 715.5 L 1114.9 715.5 M 1145.3 715.5 L 1153.2 715.5 M 1183.5 715.5 L 1247.7 715.5 M 27.2 717.5 L 86.7 717.5 M 121.6 717.5 L 129.6 717.5 M 164.5 717.5 L 1110.3 717.5 M 1145.3 717.5 L 1153.2 717.5 M 1188.1 717.5 L 1247.7 717.5 M 27.2 719.4 L 83.6 719.4 M 167.6 719.4 L 1107.2 719.4 M 1191.2 719.4 L 1247.7 719.4 M 27.2 721.4 L 80.5 721.4 M 170.7 721.4 L 1104.1 721.4 M 1194.4 721.4 L 1247.7 721.4 M 27.2 723.3 L 77.4 723.3 M 173.8 723.3 L 1101 723.3 M 1197.4 723.3 L 1247.7 723.3 M 27.2 725.3 L 74.3 725.3 M 176.9 725.3 L 1097.9 725.3 M 1200.5 725.3 L 1247.7 725.3 M 27.2 727.2 L 71.3 727.2 M 179.9 727.2 L 1094.9 727.2 M 1203.5 727.2 L 1247.7 727.2 M 27.2 729.2 L 69.4 729.2 M 181.9 729.2 L 1093 729.2 M 1205.5 729.2 L 1247.7 729.2 M 27.2 731.1 L 67.4 731.1 M 183.8 731.1 L 1091 731.1 M 1207.4 731.1 L 1247.7 731.1 M 27.2 733.1 L 65.5 733.1 M 185.8 733.1 L 1089.1 733.1 M 1209.4 733.1 L 1247.7 733.1 M 27.2 735 L 63.5 735 M 187.7 735 L 1087.1 735 M 1211.3 735 L 1247.7 735 M 27.2 737 L 61.6 737 M 189.7 737 L 1085.2 737 M 1213.3 737 L 1247.7 737 M 27.2 738.9 L 59.6 738.9 M 191.6 738.9 L 1083.2 738.9 M 1215.2 738.9 L 1247.7 738.9 M 27.2 740.9 L 57.7 740.9 M 193.5 740.9 L 1081.3 740.9 M 1217.1 740.9 L 1247.7 740.9 M 27.2 742.9 L 56.5 742.9 M 194.7 742.9 L 1080.1 742.9 M 1218.4 742.9 L 1247.7 742.9 M 27.2 744.8 L 55.3 744.8 M 196 744.8 L 1078.9 744.8 M 1219.6 744.8 L 1247.7 744.8 M 27.2 746.8 L 54 746.8 M 197.2 746.8 L 1077.7 746.8 M 1220.8 746.8 L 1247.7 746.8 M 27.2 748.7 L 52.8 748.7 M 198.4 748.7 L 1076.4 748.7 M 1222.1 748.7 L 1247.7 748.7 M 27.2 750.6 L 51.6 750.6 M 199.7 750.6 L 1075.2 750.6 M 1223.3 750.6 L 1247.7 750.6 M 27.2 752.6 L 50.3 752.6 M 200.9 752.6 L 1074 752.6 M 1224.5 752.6 L 1247.7 752.6 M 27.2 754.5 L 49.1 754.5 M 202.1 754.5 L 1072.7 754.5 M 1225.7 754.5 L 1247.7 754.5 M 27.2 756.5 L 47.9 756.5 M 203.3 756.5 L 1071.5 756.5 M 1226.9 756.5 L 1247.7 756.5 M 27.2 758.4 L 47 758.4 M 204.2 758.4 L 1070.6 758.4 M 1227.9 758.4 L 1247.7 758.4 M 27.2 760.4 L 46.3 760.4 M 204.9 760.4 L 1069.9 760.4 M 1228.5 760.4 L 1247.7 760.4 M 27.2 762.3 L 45.6 762.3 M 205.6 762.3 L 1069.3 762.3 M 1229.2 762.3 L 1247.7 762.3 M 27.2 764.3 L 44.9 764.3 M 206.3 764.3 L 1068.6 764.3 M 1229.9 764.3 L 1247.7 764.3 M 27.2 766.2 L 44.3 766.2 M 206.9 766.2 L 1067.9 766.2 M 1230.6 766.2 L 1247.7 766.2 M 27.2 768.2 L 43.6 768.2 M 207.6 768.2 L 1067.2 768.2 M 1231.2 768.2 L 1247.7 768.2 M 27.2 770.1 L 42.9 770.1 M 208.3 770.1 L 1066.5 770.1 M 1231.9 770.1 L 1247.7 770.1 M 27.2 772.1 L 42.2 772.1 M 209 772.1 L 1065.8 772.1 M 1232.6 772.1 L 1247.7 772.1 M 27.2 774 L 41.6 774 M 209.7 774 L 1065.2 774 M 1233.3 774 L 1247.7 774 M 27.2 776 L 41 776 M 210.3 776 L 1064.6 776 M 1233.9 776 L 1247.7 776 M 27.2 777.9 L 40.7 777.9 M 210.5 777.9 L 1064.4 777.9 M 1234.1 777.9 L 1247.7 777.9 M 27.2 779.9 L 40.5 779.9 M 210.7 779.9 L 1064.2 779.9 M 1234.3 779.9 L 1247.7 779.9 M 27.2 781.8 L 40.3 781.8 M 210.9 781.8 L 1063.9 781.8 M 1234.5 781.8 L 1247.7 781.8 M 27.2 783.8 L 40.1 783.8 M 211.2 783.8 L 1063.7 783.8 M 1234.8 783.8 L 1247.7 783.8 M 27.2 785.7 L 39.9 785.7 M 211.4 785.7 L 1063.5 785.7 M 1235 785.7 L 1247.7 785.7 M 27.2 787.7 L 39.6 787.7 M 211.6 787.7 L 1063.2 787.7 M 1235.2 787.7 L 1247.7 787.7 M 27.2 789.6 L 39.4 789.6 M 211.8 789.6 L 1063.1 789.6 M 1235.4 789.6 L 1247.7 789.6 M 27.2 791.6 L 48.9 791.6 M 202.3 791.6 L 1072.5 791.6 M 1226 791.6 L 1247.7 791.6 M 27.2 793.5 L 48.9 793.5 M 202.3 793.5 L 1072.5 793.5 M 1226 793.5 L 1247.7 793.5 M 27.2 795.5 L 48.9 795.5 M 202.3 795.5 L 1072.5 795.5 M 1226 795.5 L 1247.7 795.5 M 27.2 797.4 L 48.9 797.4 M 202.3 797.4 L 1072.5 797.4 M 1226 797.4 L 1247.7 797.4 M 27.2 799.4 L 39.3 799.4 M 211.9 799.4 L 1062.9 799.4 M 1235.5 799.4 L 1247.7 799.4 M 27.2 801.3 L 39.5 801.3 M 211.7 801.3 L 1063.2 801.3 M 1235.3 801.3 L 1247.7 801.3 M 27.2 803.3 L 39.8 803.3 M 211.4 803.3 L 1063.4 803.3 M 1235.1 803.3 L 1247.7 803.3 M 27.2 805.2 L 40 805.2 M 211.2 805.2 L 1063.6 805.2 M 1234.9 805.2 L 1247.7 805.2 M 27.2 807.2 L 40.2 807.2 M 211 807.2 L 1063.8 807.2 M 1234.6 807.2 L 1247.7 807.2 M 27.2 809.2 L 40.4 809.2 M 210.8 809.2 L 1064 809.2 M 1234.4 809.2 L 1247.7 809.2 M 27.2 811.1 L 40.6 811.1 M 210.6 811.1 L 1064.3 811.1 M 1234.2 811.1 L 1247.7 811.1 M 27.2 813.1 L 40.8 813.1 M 210.4 813.1 L 1064.5 813.1 M 1234 813.1 L 1247.7 813.1 M 27.2 815 L 41.3 815 M 209.9 815 L 1064.9 815 M 1233.6 815 L 1247.7 815 M 27.2 816.9 L 41.9 816.9 M 209.3 816.9 L 1065.6 816.9 M 1232.9 816.9 L 1247.7 816.9 M 27.2 818.9 L 42.6 818.9 M 208.6 818.9 L 1066.2 818.9 M 1232.2 818.9 L 1247.7 818.9 M 27.2 820.8 L 43.3 820.8 M 207.9 820.8 L 1066.9 820.8 M 1231.5 820.8 L 1247.7 820.8 M 27.2 822.8 L 44 822.8 M 207.2 822.8 L 1067.6 822.8 M 1230.8 822.8 L 1247.7 822.8 M 27.2 824.7 L 44.7 824.7 M 206.6 824.7 L 1068.3 824.7 M 1230.2 824.7 L 1247.7 824.7 M 27.2 826.7 L 45.4 826.7 M 205.8 826.7 L 1069 826.7 M 1229.5 826.7 L 1247.7 826.7 M 27.2 828.6 L 46 828.6 M 205.2 828.6 L 1069.7 828.6 M 1228.8 828.6 L 1247.7 828.6 M 27.2 830.6 L 46.7 830.6 M 204.5 830.6 L 1070.3 830.6 M 1228.1 830.6 L 1247.7 830.6 M 27.2 832.5 L 47.4 832.5 M 203.8 832.5 L 1071 832.5 M 1227.4 832.5 L 1247.7 832.5 M 27.2 834.5 L 48.6 834.5 M 202.6 834.5 L 1072.3 834.5 M 1226.2 834.5 L 1247.7 834.5 M 27.2 836.4 L 49.9 836.4 M 201.4 836.4 L 1073.5 836.4 M 1225 836.4 L 1247.7 836.4 M 27.2 838.4 L 51.1 838.4 M 200.1 838.4 L 1074.7 838.4 M 1223.8 838.4 L 1247.7 838.4 M 27.2 840.3 L 52.3 840.3 M 198.9 840.3 L 1075.9 840.3 M 1222.5 840.3 L 1247.7 840.3 M 27.2 842.3 L 53.5 842.3 M 197.7 842.3 L 1077.1 842.3 M 1221.3 842.3 L 1247.7 842.3 M 27.2 844.2 L 54.7 844.2 M 196.5 844.2 L 1078.4 844.2 M 1220.1 844.2 L 1247.7 844.2 M 27.2 846.2 L 56 846.2 M 195.3 846.2 L 1079.6 846.2 M 1218.9 846.2 L 1247.7 846.2 M 27.2 848.1 L 57.2 848.1 M 194 848.1 L 1080.8 848.1 M 1217.7 848.1 L 1247.7 848.1 M 27.2 850.1 L 58.8 850.1 M 192.4 850.1 L 1082.5 850.1 M 1216 850.1 L 1247.7 850.1 M 27.2 852 L 60.8 852 M 190.5 852 L 1084.4 852 M 1214.1 852 L 1247.7 852 M 27.2 854 L 62.7 854 M 188.5 854 L 1086.4 854 M 1212.1 854 L 1247.7 854 M 27.2 855.9 L 64.7 855.9 M 186.6 855.9 L 1088.3 855.9 M 1210.2 855.9 L 1247.7 855.9 M 27.2 857.9 L 66.6 857.9 M 184.6 857.9 L 1090.3 857.9 M 1208.2 857.9 L 1247.7 857.9 M 27.2 859.8 L 68.6 859.8 M 182.7 859.8 L 1092.2 859.8 M 1206.3 859.8 L 1247.7 859.8 M 27.2 861.8 L 70.5 861.8 M 180.7 861.8 L 1094.2 861.8 M 1204.3 861.8 L 1247.7 861.8 M 27.2 863.7 L 73.1 863.7 M 178.2 863.7 L 1096.7 863.7 M 1201.8 863.7 L 1247.7 863.7 M 27.2 865.7 L 76.2 865.7 M 175.1 865.7 L 1099.8 865.7 M 1198.7 865.7 L 1247.7 865.7 M 27.2 867.6 L 79.3 867.6 M 171.9 867.6 L 1102.9 867.6 M 1195.6 867.6 L 1247.7 867.6 M 27.2 869.6 L 82.4 869.6 M 168.8 869.6 L 1106 869.6 M 1192.5 869.6 L 1247.7 869.6 M 27.2 871.5 L 85.5 871.5 M 165.8 871.5 L 1109.1 871.5 M 1189.4 871.5 L 1247.7 871.5 M 27.2 873.5 L 89.1 873.5 M 121.6 873.5 L 129.6 873.5 M 162.1 873.5 L 1112.7 873.5 M 1145.3 873.5 L 1153.2 873.5 M 1185.8 873.5 L 1247.7 873.5 M 27.2 875.5 L 94.6 875.5 M 121.6 875.5 L 129.6 875.5 M 156.6 875.5 L 1118.2 875.5 M 1145.3 875.5 L 1153.2 875.5 M 1180.2 875.5 L 1247.7 875.5 M 27.2 877.4 L 100.2 877.4 M 121.6 877.4 L 129.6 877.4 M 151 877.4 L 1123.8 877.4 M 1145.3 877.4 L 1153.2 877.4 M 1174.6 877.4 L 1247.7 877.4 M 27.2 879.4 L 105.8 879.4 M 121.6 879.4 L 129.6 879.4 M 145.5 879.4 L 1129.4 879.4 M 1145.3 879.4 L 1153.2 879.4 M 1169.1 879.4 L 1247.7 879.4 M 27.2 881.3 L 1247.7 881.3 M 27.2 883.2 L 1247.7 883.2 M 27.2 885.2 L 1247.7 885.2 M 27.2 887.1 L 1247.7 887.1 M 27.2 889.1 L 1247.7 889.1 M 27.2 891 L 1247.7 891 M 27.2 893 L 1247.7 893"/><path stroke-width="20" fill="none" d="M 1141.4 598.1 L 1141.4 460.3"/><path stroke-width="6" fill="none" d="M 832.5 273.5 L 952.5 153.5 M 952.5 153.5 L 981.3 153.5 M 566.6 119.7 L 566.6 198.4"/><path stroke-width="20" fill="none" d="M 172.9 598.1 L 172.9 322.5 M 133.5 322.5 L 133.5 598.1 M 1180.7 598.1 L 1180.7 460.3 M 94.1 322.5 L 94.1 598.1 M 1102 598.1 L 1102 460.3"/><use x="480.9" y="356.9" xlink:href="#tool-D13-pad-1005"/><use x="94.1" y="598.1" xlink:href="#tool-D13-pad-1005"/><use x="133.5" y="598.1" xlink:href="#tool-D13-pad-1005"/><use x="480.9" y="523.2" xlink:href="#tool-D13-pad-1005"/><use x="793.9" y="356.9" xlink:href="#tool-D13-pad-1005"/><use x="920.9" y="777.2" xlink:href="#tool-D13-pad-1005"/><use x="1102" y="598.1" xlink:href="#tool-D13-pad-1005"/><use x="172.9" y="322.5" xlink:href="#tool-D13-pad-1005"/><use x="981.3" y="153.5" xlink:href="#tool-D13-pad-1005"/><use x="1141.4" y="598.1" xlink:href="#tool-D13-pad-1005"/><use x="172.9" y="598.1" xlink:href="#tool-D13-pad-1005"/><use x="637.4" y="356.9" xlink:href="#tool-D13-pad-1005"/><use x="566.6" y="119.7" xlink:href="#tool-D13-pad-1005"/><use x="793.9" y="523.2" xlink:href="#tool-D13-pad-1005"/><use x="94.1" y="322.5" xlink:href="#tool-D13-pad-1005"/><use x="566.6" y="198.4" xlink:href="#tool-D13-pad-1005"/><use x="1013.4" y="204.4" xlink:href="#tool-D13-pad-1005"/><use x="1180.7" y="598.1" xlink:href="#tool-D13-pad-1005"/><use x="832.5" y="273.5" xlink:href="#tool-D13-pad-1005"/><use x="133.5" y="322.5" xlink:href="#tool-D13-pad-1005"/><use x="1141.4" y="460.3" xlink:href="#tool-D14-pad-1006"/><use x="133.5" y="460.3" xlink:href="#tool-D14-pad-1006"/><use x="637.4" y="460.3" xlink:href="#tool-D15-pad-1007"/><use x="125.6" y="125.6" xlink:href="#tool-D16-pad-1008"/><use x="1149.2" y="794.9" xlink:href="#tool-D16-pad-1008"/><use x="125.6" y="794.9" xlink:href="#tool-D16-pad-1008"/></g><mask id="pcb_bottom_mech-mask" fill="#fff" stroke="#fff" fill-rule="evenodd"><path stroke-width="0" d="M 7.5 7.5 L 7.5 913 L 1267.3 913 L 1267.3 7.5 Z"/><g id="pcb_bottom-drl" fill="#000" stroke="#000"><use x="480.9" y="356.9" xlink:href="#tool-T10-pad-1000"/><use x="94.1" y="598.1" xlink:href="#tool-T10-pad-1000"/><use x="133.5" y="598.1" xlink:href="#tool-T10-pad-1000"/><use x="480.9" y="523.2" xlink:href="#tool-T10-pad-1000"/><use x="793.9" y="356.9" xlink:href="#tool-T10-pad-1000"/><use x="920.9" y="777.2" xlink:href="#tool-T10-pad-1000"/><use x="1102" y="598.1" xlink:href="#tool-T10-pad-1000"/><use x="172.9" y="322.5" xlink:href="#tool-T10-pad-1000"/><use x="981.3" y="153.5" xlink:href="#tool-T10-pad-1000"/><use x="1141.4" y="598.1" xlink:href="#tool-T10-pad-1000"/><use x="172.9" y="598.1" xlink:href="#tool-T10-pad-1000"/><use x="637.4" y="356.9" xlink:href="#tool-T10-pad-1000"/><use x="566.6" y="119.7" xlink:href="#tool-T10-pad-1000"/><use x="793.9" y="523.2" xlink:href="#tool-T10-pad-1000"/><use x="94.1" y="322.5" xlink:href="#tool-T10-pad-1000"/><use x="566.6" y="198.4" xlink:href="#tool-T10-pad-1000"/><use x="1013.4" y="204.4" xlink:href="#tool-T10-pad-1000"/><use x="1180.7" y="598.1" xlink:href="#tool-T10-pad-1000"/><use x="832.5" y="273.5" xlink:href="#tool-T10-pad-1000"/><use x="133.5" y="322.5" xlink:href="#tool-T10-pad-1000"/><use x="125.6" y="125.6" xlink:href="#tool-T11-pad-1001"/><use x="1149.2" y="794.9" xlink:href="#tool-T11-pad-1001"/><use x="125.6" y="794.9" xlink:href="#tool-T11-pad-1001"/></g></mask></defs><g mask="url(#pcb_bottom_mech-mask)" transform="translate(1274.8,920.5) scale(-1,-1)"><rect x="7.5" y="7.5" width="1259.8" height="905.5" fill="currentColor" class="pcb_board-fr4"/><use class="pcb_board-cu" xlink:href="#pcb_bottom-cu"/><g><defs><g id="pcb_bottom-sm" fill="currentColor" stroke="currentColor"><use x="480.9" y="356.9" xlink:href="#tool-D10-pad-1011"/><use x="94.1" y="598.1" xlink:href="#tool-D10-pad-1011"/><use x="133.5" y="598.1" xlink:href="#tool-D10-pad-1011"/><use x="480.9" y="523.2" xlink:href="#tool-D10-pad-1011"/><use x="793.9" y="356.9" xlink:href="#tool-D10-pad-1011"/><use x="920.9" y="777.2" xlink:href="#tool-D10-pad-1011"/><use x="1102" y="598.1" xlink:href="#tool-D10-pad-1011"/><use x="172.9" y="322.5" xlink:href="#tool-D10-pad-1011"/><use x="981.3" y="153.5" xlink:href="#tool-D10-pad-1011"/><use x="1141.4" y="598.1" xlink:href="#tool-D10-pad-1011"/><use x="172.9" y="598.1" xlink:href="#tool-D10-pad-1011"/><use x="637.4" y="356.9" xlink:href="#tool-D10-pad-1011"/><use x="566.6" y="119.7" xlink:href="#tool-D10-pad-1011"/><use x="793.9" y="523.2" xlink:href="#tool-D10-pad-1011"/><use x="94.1" y="322.5" xlink:href="#tool-D10-pad-1011"/><use x="566.6" y="198.4" xlink:href="#tool-D10-pad-1011"/><use x="1013.4" y="204.4" xlink:href="#tool-D10-pad-1011"/><use x="1180.7" y="598.1" xlink:href="#tool-D10-pad-1011"/><use x="832.5" y="273.5" xlink:href="#tool-D10-pad-1011"/><use x="133.5" y="322.5" xlink:href="#tool-D10-pad-1011"/><use x="1141.4" y="460.3" xlink:href="#tool-D11-pad-1012"/><use x="133.5" y="460.3" xlink:href="#tool-D11-pad-1012"/><use x="637.4" y="460.3" xlink:href="#tool-D12-pad-1013"/><use x="125.6" y="125.6" xlink:href="#tool-D13-pad-1014"/><use x="1149.2" y="794.9" xlink:href="#tool-D13-pad-1014"/><use x="125.6" y="794.9" xlink:href="#tool-D13-pad-1014"/></g><mask id="pcb_bottom-sm_mask" color="#000"><rect x="7.5" y="7.5" width="1259.8" height="905.5" fill="#fff"/><use xlink:href="#pcb_bottom-sm"/></mask><mask id="pcb_bottom-cu_finish-mask" color="#fff"><use xlink:href="#pcb_bottom-cu"/></mask></defs><g mask="url(#pcb_bottom-sm_mask)"><rect x="7.5" y="7.5" width="1259.8" height="905.5" fill="currentColor" class="pcb_board-sm"/><g id="pcb_bottom-ss" class="pcb_board-ss" fill="currentColor" stroke="currentColor"><path stroke-width="5.9" fill="none" d="M 20.3 861.8 L 20.3 58.7 M 20.3 58.7 L 1254.5 58.7 M 1254.5 58.7 L 1254.5 861.8 M 1254.5 861.8 L 20.3 861.8"/><use x="624.6" y="29.2" xlink:href="#tool-D11-pad-1010"/></g></g><use class="pcb_board-cf" mask="url(#pcb_bottom-cu_finish-mask)" xlink:href="#pcb_bottom-sm"/></g></g></svg>