M48
METRIC,LZ,000.000
;FILE_FORMAT=3:3
;TYPE=PLATED
;Layer: PTH_Through
;EasyEDA v6.5.40, 2024-07-28 23:41:03
;a67cddfb3fce44daa9051d46cbbcc19f,10
;Gerber Generator version 0.2
;Holesize 1 = 0.305 mm
T01C0.305
;Holesize 2 = 0.306 mm
T02C0.306
;Holesize 3 = 1.200 mm
T03C1.200
%
G05
G90
T01
X024250Y013000
X024250Y008000
X022250Y012500
X023250Y002500
X023250Y011250
X022250Y006250
X018000Y010000
T02
X018001Y013000
X018001Y005006
X018000Y002000
X004559Y001191
X007000Y014750
X019000Y016250
X018999Y016251
X009748Y016252
X001000Y017000
X001000Y015000
X001000Y013000
X001000Y011000
X001000Y009000
X001000Y007000
X001000Y005000
X001000Y003000
X039000Y003000
X039000Y005000
X039000Y007000
X039000Y009000
X039000Y011000
X039000Y013000
X039000Y015000
X039000Y017000
X022500Y018750
X021000Y009500
X013750Y011250
X013750Y015000
T03
X003750Y006750
X003750Y013250
X008250Y006750
X008250Y013250
M30
