G04 Layer: TopSolderMaskLayer*
G04 EasyEDA v6.5.40, 2024-07-28 23:41:03*
G04 a67cddfb3fce44daa9051d46cbbcc19f,10*
G04 Gerber Generator version 0.2*
G04 Scale: 100 percent, Rotated: No, Reflected: No *
G04 Dimensions in millimeters *
G04 leading zeros omitted , absolute positions ,4 integer and 5 decimal *
%FSLAX45Y45*%
%MOMM*%

%AMMACRO1*1,1,$1,$2,$3*1,1,$1,$4,$5*1,1,$1,0-$2,0-$3*1,1,$1,0-$4,0-$5*20,1,$1,$2,$3,$4,$5,0*20,1,$1,$4,$5,0-$2,0-$3,0*20,1,$1,0-$2,0-$3,0-$4,0-$5,0*20,1,$1,0-$4,0-$5,$2,$3,0*4,1,4,$2,$3,$4,$5,0-$2,0-$3,0-$4,0-$5,$2,$3,0*%
%ADD10MACRO1,0.1016X-0.5663X-0.6885X-0.5663X0.6885*%
%ADD11MACRO1,0.1016X0.5663X-0.6885X0.5663X0.6885*%
%ADD12MACRO1,0.1016X0.5663X0.6885X0.5663X-0.6885*%
%ADD13MACRO1,0.1016X-0.5663X0.6885X-0.5663X-0.6885*%
%ADD14MACRO1,0.1016X0.4X0.4X0.4X-0.4*%
%ADD15MACRO1,0.1016X0.7425X0.81X0.7425X-0.81*%
%ADD16MACRO1,0.1016X-0.7425X0.81X-0.7425X-0.81*%
%ADD17C,1.9016*%
%ADD18MACRO1,0.1016X-0.7X0.6X0.7X0.6*%
%ADD19O,2.1395944X0.6755891999999999*%

%LPD*%
D10*
G01*
X2800024Y599947D03*
D11*
G01*
X2600015Y599947D03*
D10*
G01*
X2800024Y1400047D03*
D11*
G01*
X2600015Y1400047D03*
D12*
G01*
X2600015Y199897D03*
D13*
G01*
X2800024Y199897D03*
D14*
G01*
X3414910Y599998D03*
G01*
X3585090Y599998D03*
D15*
G01*
X3350747Y1400002D03*
D16*
G01*
X3649248Y1400002D03*
D17*
G01*
X375005Y675004D03*
G01*
X375005Y1324990D03*
G01*
X824992Y675004D03*
G01*
X824992Y1324990D03*
D18*
G01*
X489999Y1612508D03*
G01*
X709998Y1612508D03*
G01*
X709998Y1787514D03*
G01*
X489999Y1787509D03*
D19*
G01*
X2076907Y1118996D03*
G01*
X2076907Y1245996D03*
G01*
X2076907Y1372996D03*
G01*
X2076907Y1499996D03*
G01*
X2076907Y1626996D03*
G01*
X2076907Y1753996D03*
G01*
X2076907Y1880996D03*
G01*
X1523085Y1118996D03*
G01*
X1523085Y1245996D03*
G01*
X1523085Y1372996D03*
G01*
X1523085Y1499996D03*
G01*
X1523085Y1626996D03*
G01*
X1523085Y1753996D03*
G01*
X1523085Y1880996D03*
G01*
X2076907Y118998D03*
G01*
X2076907Y245998D03*
G01*
X2076907Y372998D03*
G01*
X2076907Y499998D03*
G01*
X2076907Y626998D03*
G01*
X2076907Y753998D03*
G01*
X2076907Y880998D03*
G01*
X1523085Y118998D03*
G01*
X1523085Y245998D03*
G01*
X1523085Y372998D03*
G01*
X1523085Y499998D03*
G01*
X1523085Y626998D03*
G01*
X1523085Y753998D03*
G01*
X1523085Y880998D03*
M02*
