G04 Layer: BottomLayer*
G04 EasyEDA v6.5.40, 2024-07-28 23:41:03*
G04 a67cddfb3fce44daa9051d46cbbcc19f,10*
G04 Gerber Generator version 0.2*
G04 Scale: 100 percent, Rotated: No, Reflected: No *
G04 Dimensions in millimeters *
G04 leading zeros omitted , absolute positions ,4 integer and 5 decimal *
%FSLAX45Y45*%
%MOMM*%

%AMMACRO1*21,1,$1,$2,0,0,$3*%
%ADD10C,0.5000*%
%ADD11MACRO1,3.56X3.13X90.0000*%
%ADD12C,1.8000*%
%ADD13C,0.6096*%
%ADD14C,0.6100*%
%ADD15C,0.0163*%

%LPD*%
G36*
X250291Y25908D02*
G01*
X230022Y26822D01*
X210667Y29413D01*
X191566Y33680D01*
X172974Y39624D01*
X154889Y47142D01*
X137566Y56184D01*
X121107Y66700D01*
X105664Y78638D01*
X91236Y91897D01*
X78079Y106324D01*
X66192Y121869D01*
X55727Y138379D01*
X46736Y155702D01*
X39319Y173786D01*
X33477Y192430D01*
X29260Y211531D01*
X26771Y230936D01*
X25908Y250748D01*
X25908Y1749247D01*
X26822Y1769973D01*
X29413Y1789328D01*
X33680Y1808429D01*
X39624Y1827022D01*
X47142Y1845106D01*
X56184Y1862429D01*
X66700Y1878888D01*
X78638Y1894332D01*
X91897Y1908759D01*
X106324Y1921916D01*
X121869Y1933803D01*
X138379Y1944268D01*
X155702Y1953260D01*
X173786Y1960676D01*
X192430Y1966518D01*
X211531Y1970735D01*
X230936Y1973224D01*
X250748Y1974088D01*
X3749243Y1974088D01*
X3769969Y1973173D01*
X3789324Y1970582D01*
X3808425Y1966315D01*
X3827068Y1960372D01*
X3845102Y1952853D01*
X3862425Y1943811D01*
X3878884Y1933295D01*
X3894378Y1921357D01*
X3908755Y1908098D01*
X3921912Y1893671D01*
X3933799Y1878126D01*
X3944264Y1861616D01*
X3953256Y1844293D01*
X3960672Y1826209D01*
X3966514Y1807565D01*
X3970731Y1788464D01*
X3973220Y1769110D01*
X3974084Y1749247D01*
X3974084Y250748D01*
X3973169Y230022D01*
X3970578Y210667D01*
X3966311Y191566D01*
X3960368Y172974D01*
X3952849Y154889D01*
X3943807Y137566D01*
X3933291Y121107D01*
X3921353Y105664D01*
X3908094Y91236D01*
X3893667Y78079D01*
X3878122Y66192D01*
X3861663Y55727D01*
X3844290Y46736D01*
X3826205Y39319D01*
X3807561Y33477D01*
X3788460Y29260D01*
X3769106Y26771D01*
X3749243Y25908D01*
G37*

%LPC*%
G36*
X455930Y62738D02*
G01*
X465734Y63601D01*
X475234Y66141D01*
X484124Y70307D01*
X492150Y75946D01*
X499109Y82905D01*
X504748Y90932D01*
X508914Y99822D01*
X511454Y109321D01*
X512318Y119126D01*
X511454Y128930D01*
X508914Y138430D01*
X504748Y147320D01*
X499109Y155346D01*
X492150Y162306D01*
X484124Y167944D01*
X476250Y171602D01*
X473354Y173634D01*
X428802Y218033D01*
X426567Y221335D01*
X425805Y225247D01*
X425805Y564692D01*
X426364Y567994D01*
X427990Y570992D01*
X430530Y573278D01*
X443128Y581253D01*
X454304Y590499D01*
X464312Y601116D01*
X472846Y612902D01*
X479856Y625652D01*
X485190Y639165D01*
X488848Y653288D01*
X490677Y667715D01*
X490677Y682294D01*
X488848Y696722D01*
X485190Y710793D01*
X479856Y724357D01*
X472846Y737108D01*
X464312Y748893D01*
X454304Y759460D01*
X443128Y768756D01*
X430631Y776681D01*
X428091Y778967D01*
X426466Y781913D01*
X425907Y785926D01*
X426669Y789838D01*
X428904Y793140D01*
X432206Y795324D01*
X436067Y796086D01*
X617423Y796086D01*
X623773Y796798D01*
X629208Y798728D01*
X634085Y801776D01*
X638200Y805891D01*
X641299Y810768D01*
X643178Y816254D01*
X643890Y822553D01*
X643890Y1177442D01*
X643178Y1183741D01*
X641299Y1189228D01*
X638200Y1194104D01*
X634085Y1198219D01*
X629208Y1201267D01*
X623773Y1203198D01*
X617423Y1203909D01*
X436067Y1203909D01*
X432206Y1204671D01*
X428904Y1206906D01*
X426669Y1210157D01*
X425907Y1214729D01*
X426466Y1218082D01*
X428091Y1221079D01*
X430631Y1223314D01*
X443128Y1231239D01*
X454304Y1240536D01*
X464312Y1251153D01*
X472846Y1262888D01*
X479856Y1275638D01*
X485190Y1289202D01*
X488848Y1303274D01*
X490677Y1317701D01*
X490677Y1332280D01*
X488848Y1346708D01*
X485190Y1360830D01*
X479856Y1374343D01*
X472846Y1387094D01*
X464312Y1398879D01*
X454304Y1409496D01*
X443128Y1418742D01*
X430834Y1426565D01*
X417677Y1432763D01*
X403809Y1437233D01*
X389534Y1439976D01*
X375005Y1440891D01*
X360476Y1439976D01*
X346202Y1437233D01*
X332333Y1432763D01*
X319176Y1426565D01*
X306882Y1418742D01*
X295656Y1409496D01*
X285699Y1398879D01*
X277164Y1387094D01*
X270154Y1374343D01*
X264769Y1360830D01*
X261162Y1346708D01*
X259334Y1332280D01*
X259334Y1317701D01*
X261162Y1303274D01*
X264769Y1289202D01*
X270154Y1275638D01*
X277164Y1262888D01*
X285699Y1251153D01*
X295656Y1240536D01*
X306882Y1231239D01*
X319379Y1223314D01*
X321919Y1221028D01*
X323545Y1218082D01*
X324104Y1214069D01*
X323342Y1210157D01*
X321106Y1206906D01*
X317804Y1204671D01*
X313944Y1203909D01*
X305562Y1203909D01*
X299262Y1203198D01*
X293776Y1201267D01*
X288899Y1198219D01*
X284784Y1194104D01*
X281736Y1189228D01*
X279806Y1183741D01*
X279095Y1177442D01*
X279095Y822553D01*
X279806Y816254D01*
X281736Y810768D01*
X284784Y805891D01*
X288899Y801776D01*
X293776Y798728D01*
X299262Y796798D01*
X305562Y796086D01*
X313944Y796086D01*
X317804Y795324D01*
X321106Y793140D01*
X323342Y789838D01*
X324104Y785266D01*
X323545Y781913D01*
X321919Y778967D01*
X319379Y776681D01*
X306882Y768756D01*
X295656Y759460D01*
X285699Y748893D01*
X277164Y737108D01*
X270154Y724357D01*
X264769Y710793D01*
X261162Y696722D01*
X259334Y682294D01*
X259334Y667715D01*
X261162Y653288D01*
X264769Y639165D01*
X270154Y625652D01*
X277164Y612902D01*
X285699Y601116D01*
X295656Y590499D01*
X306882Y581253D01*
X319278Y573379D01*
X321818Y571093D01*
X323443Y568147D01*
X324002Y564794D01*
X324002Y200101D01*
X324205Y195376D01*
X324764Y191058D01*
X325780Y186639D01*
X327050Y182473D01*
X328828Y178308D01*
X330809Y174447D01*
X333248Y170637D01*
X335889Y167182D01*
X339140Y163677D01*
X401523Y101498D01*
X403555Y98602D01*
X407111Y90932D01*
X412750Y82905D01*
X419709Y75946D01*
X427735Y70307D01*
X436626Y66141D01*
X446125Y63601D01*
G37*
G36*
X1799996Y143611D02*
G01*
X1809800Y144475D01*
X1819300Y147015D01*
X1828190Y151180D01*
X1836216Y156819D01*
X1843176Y163779D01*
X1848815Y171805D01*
X1852980Y180695D01*
X1855520Y190195D01*
X1856384Y199999D01*
X1855520Y209804D01*
X1852980Y219303D01*
X1851863Y221640D01*
X1850898Y225958D01*
X1850898Y474472D01*
X1851863Y478739D01*
X1853082Y481330D01*
X1855622Y490829D01*
X1856486Y500634D01*
X1855622Y510438D01*
X1853082Y519938D01*
X1851863Y522528D01*
X1850898Y526796D01*
X1850898Y974090D01*
X1851863Y978408D01*
X1852930Y980744D01*
X1855470Y990193D01*
X1856333Y999998D01*
X1855470Y1009802D01*
X1852930Y1019251D01*
X1851863Y1021587D01*
X1850898Y1025906D01*
X1850898Y1273810D01*
X1851863Y1278128D01*
X1853082Y1280718D01*
X1855622Y1290218D01*
X1856486Y1299972D01*
X1855622Y1309776D01*
X1853082Y1319276D01*
X1848916Y1328166D01*
X1843278Y1336243D01*
X1836318Y1343202D01*
X1828292Y1348790D01*
X1819402Y1352956D01*
X1809902Y1355496D01*
X1800098Y1356360D01*
X1790293Y1355496D01*
X1780793Y1352956D01*
X1771904Y1348790D01*
X1763877Y1343202D01*
X1756918Y1336243D01*
X1751279Y1328166D01*
X1747113Y1319276D01*
X1744573Y1309776D01*
X1743710Y1299972D01*
X1744573Y1290218D01*
X1747113Y1280718D01*
X1748129Y1278534D01*
X1749094Y1274267D01*
X1749094Y1025906D01*
X1748129Y1021587D01*
X1747062Y1019251D01*
X1744522Y1009802D01*
X1743659Y999998D01*
X1744522Y990193D01*
X1747062Y980744D01*
X1748129Y978408D01*
X1749094Y974090D01*
X1749094Y526389D01*
X1748129Y522071D01*
X1747113Y519938D01*
X1744573Y510438D01*
X1743710Y500634D01*
X1744573Y490829D01*
X1747113Y481330D01*
X1748129Y479196D01*
X1749094Y474878D01*
X1749094Y225958D01*
X1748129Y221640D01*
X1747012Y219303D01*
X1744472Y209804D01*
X1743608Y199999D01*
X1744472Y190195D01*
X1747012Y180695D01*
X1751177Y171805D01*
X1756816Y163779D01*
X1763775Y156819D01*
X1771802Y151180D01*
X1780692Y147015D01*
X1790192Y144475D01*
G37*
G36*
X2325014Y193649D02*
G01*
X2334768Y194513D01*
X2344267Y197053D01*
X2353157Y201168D01*
X2361234Y206806D01*
X2368143Y213766D01*
X2373782Y221792D01*
X2377948Y230733D01*
X2380488Y240182D01*
X2381351Y249986D01*
X2380488Y259791D01*
X2377948Y269240D01*
X2376830Y271576D01*
X2375916Y275894D01*
X2375916Y746302D01*
X2376830Y750620D01*
X2379522Y754126D01*
X2383434Y756158D01*
X2387803Y756310D01*
X2391867Y754634D01*
X2396794Y751179D01*
X2405735Y747064D01*
X2415184Y744524D01*
X2424988Y743661D01*
X2434793Y744524D01*
X2444242Y747064D01*
X2453182Y751179D01*
X2461209Y756818D01*
X2468168Y763778D01*
X2473807Y771804D01*
X2477922Y780745D01*
X2480462Y790194D01*
X2481326Y799998D01*
X2480462Y809802D01*
X2477922Y819251D01*
X2476855Y821588D01*
X2475890Y825906D01*
X2475890Y1274114D01*
X2476855Y1278382D01*
X2477922Y1280718D01*
X2480462Y1290218D01*
X2481326Y1299972D01*
X2480462Y1309776D01*
X2477922Y1319276D01*
X2473807Y1328166D01*
X2468168Y1336243D01*
X2461209Y1343152D01*
X2453182Y1348790D01*
X2444242Y1352956D01*
X2434793Y1355496D01*
X2424988Y1356360D01*
X2415184Y1355496D01*
X2405735Y1352956D01*
X2396794Y1348790D01*
X2388768Y1343152D01*
X2381808Y1336243D01*
X2376170Y1328166D01*
X2372055Y1319276D01*
X2369515Y1309776D01*
X2368651Y1299972D01*
X2369515Y1290218D01*
X2372055Y1280718D01*
X2373122Y1278382D01*
X2374087Y1274064D01*
X2374087Y1178661D01*
X2373122Y1174343D01*
X2370480Y1170889D01*
X2366568Y1168857D01*
X2362149Y1168654D01*
X2358085Y1170330D01*
X2353157Y1173784D01*
X2344267Y1177950D01*
X2334768Y1180490D01*
X2325014Y1181354D01*
X2315210Y1180490D01*
X2305710Y1177950D01*
X2296820Y1173784D01*
X2291892Y1170330D01*
X2287828Y1168654D01*
X2283460Y1168857D01*
X2279548Y1170889D01*
X2276856Y1174394D01*
X2275890Y1178661D01*
X2275890Y1224127D01*
X2276856Y1228394D01*
X2277922Y1230731D01*
X2280462Y1240231D01*
X2281326Y1249984D01*
X2280462Y1259789D01*
X2277922Y1269288D01*
X2273808Y1278178D01*
X2268169Y1286256D01*
X2261209Y1293164D01*
X2253183Y1298803D01*
X2244242Y1302969D01*
X2234793Y1305509D01*
X2224989Y1306372D01*
X2215184Y1305509D01*
X2205736Y1302969D01*
X2196795Y1298803D01*
X2188768Y1293164D01*
X2181809Y1286256D01*
X2176170Y1278178D01*
X2172055Y1269288D01*
X2169515Y1259789D01*
X2168652Y1249984D01*
X2169515Y1240231D01*
X2172055Y1230731D01*
X2173122Y1228394D01*
X2174087Y1224076D01*
X2174087Y650900D01*
X2173122Y646633D01*
X2172055Y644245D01*
X2169515Y634796D01*
X2168652Y624992D01*
X2169515Y615188D01*
X2172055Y605739D01*
X2176170Y596798D01*
X2181809Y588772D01*
X2188768Y581812D01*
X2196795Y576173D01*
X2205736Y572058D01*
X2215184Y569518D01*
X2224989Y568655D01*
X2234793Y569518D01*
X2244242Y572058D01*
X2253183Y576173D01*
X2258110Y579628D01*
X2262174Y581355D01*
X2266543Y581152D01*
X2270455Y579120D01*
X2273147Y575614D01*
X2274062Y571347D01*
X2274062Y275894D01*
X2273147Y271627D01*
X2272030Y269240D01*
X2269490Y259791D01*
X2268626Y249986D01*
X2269490Y240182D01*
X2272030Y230733D01*
X2276195Y221792D01*
X2281834Y213766D01*
X2288743Y206806D01*
X2296820Y201168D01*
X2305710Y197053D01*
X2315210Y194513D01*
G37*
G36*
X824992Y559104D02*
G01*
X839520Y560019D01*
X853795Y562762D01*
X867664Y567232D01*
X880821Y573430D01*
X893114Y581253D01*
X904341Y590499D01*
X914298Y601116D01*
X922832Y612902D01*
X929843Y625652D01*
X935228Y639165D01*
X938834Y653288D01*
X940663Y667715D01*
X940663Y682294D01*
X938834Y696722D01*
X935228Y710793D01*
X929843Y724357D01*
X922832Y737108D01*
X914298Y748893D01*
X904341Y759460D01*
X893114Y768756D01*
X880821Y776528D01*
X867664Y782726D01*
X853795Y787247D01*
X839520Y789990D01*
X824992Y790905D01*
X810463Y789990D01*
X796188Y787247D01*
X782320Y782726D01*
X769162Y776528D01*
X756869Y768756D01*
X745693Y759460D01*
X735685Y748893D01*
X727151Y737108D01*
X720140Y724357D01*
X714806Y710793D01*
X711149Y696722D01*
X709320Y682294D01*
X709320Y667715D01*
X711149Y653288D01*
X714806Y639165D01*
X720140Y625652D01*
X727151Y612902D01*
X735685Y601116D01*
X745693Y590499D01*
X756869Y581253D01*
X769162Y573430D01*
X782320Y567232D01*
X796188Y562762D01*
X810463Y560019D01*
G37*
G36*
X3182569Y796086D02*
G01*
X3253892Y796086D01*
X3253892Y904646D01*
X3156102Y904646D01*
X3156102Y822553D01*
X3156813Y816254D01*
X3158693Y810768D01*
X3161792Y805891D01*
X3165906Y801776D01*
X3170783Y798728D01*
X3176270Y796798D01*
G37*
G36*
X3423107Y796086D02*
G01*
X3494430Y796086D01*
X3500729Y796798D01*
X3506215Y798728D01*
X3511092Y801776D01*
X3515207Y805891D01*
X3518306Y810768D01*
X3520186Y816254D01*
X3520897Y822553D01*
X3520897Y904646D01*
X3423107Y904646D01*
G37*
G36*
X1375003Y1068628D02*
G01*
X1384808Y1069492D01*
X1394307Y1072032D01*
X1403197Y1076198D01*
X1411224Y1081786D01*
X1418183Y1088745D01*
X1423822Y1096822D01*
X1427988Y1105712D01*
X1430528Y1115212D01*
X1431391Y1124966D01*
X1430528Y1134770D01*
X1427988Y1144270D01*
X1426870Y1146657D01*
X1425905Y1150975D01*
X1425905Y1474012D01*
X1426870Y1478330D01*
X1427988Y1480718D01*
X1430528Y1490218D01*
X1431391Y1499971D01*
X1430528Y1509776D01*
X1427988Y1519275D01*
X1423822Y1528165D01*
X1418183Y1536242D01*
X1411224Y1543202D01*
X1403197Y1548790D01*
X1394307Y1552956D01*
X1389126Y1554327D01*
X1385417Y1556207D01*
X1382776Y1559407D01*
X1381607Y1563420D01*
X1382166Y1567535D01*
X1384300Y1571091D01*
X1387703Y1573479D01*
X1391767Y1574342D01*
X1873808Y1574190D01*
X1878126Y1573225D01*
X1880717Y1572006D01*
X1890217Y1569466D01*
X1900021Y1568602D01*
X1909775Y1569466D01*
X1919274Y1572006D01*
X1928164Y1576171D01*
X1936242Y1581810D01*
X1943201Y1588770D01*
X1948789Y1596796D01*
X1952955Y1605686D01*
X1955495Y1615186D01*
X1956358Y1624990D01*
X1955495Y1634794D01*
X1952955Y1644294D01*
X1948789Y1653184D01*
X1943150Y1661210D01*
X1936140Y1668272D01*
X1928114Y1673910D01*
X1919224Y1678076D01*
X1909724Y1680616D01*
X1899920Y1681480D01*
X1890115Y1680616D01*
X1880616Y1678076D01*
X1878279Y1676958D01*
X1873961Y1675993D01*
X1000455Y1676247D01*
X996187Y1677212D01*
X994054Y1678178D01*
X984554Y1680718D01*
X974801Y1681581D01*
X964996Y1680718D01*
X955497Y1678178D01*
X946607Y1674012D01*
X938530Y1668424D01*
X931570Y1661464D01*
X925982Y1653387D01*
X921816Y1644497D01*
X919276Y1634998D01*
X918413Y1625193D01*
X919276Y1615440D01*
X921816Y1605940D01*
X925982Y1597050D01*
X931570Y1588973D01*
X938530Y1582013D01*
X946607Y1576425D01*
X955497Y1572260D01*
X964996Y1569720D01*
X974801Y1568856D01*
X984554Y1569720D01*
X994054Y1572260D01*
X996696Y1573479D01*
X1001014Y1574444D01*
X1358290Y1574342D01*
X1362354Y1573479D01*
X1365758Y1571091D01*
X1367891Y1567535D01*
X1368399Y1563420D01*
X1367282Y1559407D01*
X1364640Y1556207D01*
X1360932Y1554378D01*
X1355699Y1552956D01*
X1346809Y1548790D01*
X1338783Y1543202D01*
X1331823Y1536242D01*
X1326184Y1528165D01*
X1322019Y1519275D01*
X1319479Y1509776D01*
X1318615Y1499971D01*
X1319479Y1490218D01*
X1322019Y1480718D01*
X1323136Y1478330D01*
X1324102Y1474063D01*
X1324102Y1150924D01*
X1323136Y1146657D01*
X1322019Y1144270D01*
X1319479Y1134770D01*
X1318615Y1124966D01*
X1319479Y1115212D01*
X1322019Y1105712D01*
X1326184Y1096822D01*
X1331823Y1088745D01*
X1338783Y1081786D01*
X1346809Y1076198D01*
X1355699Y1072032D01*
X1365199Y1069492D01*
G37*
G36*
X3156102Y1095349D02*
G01*
X3253892Y1095349D01*
X3253892Y1203909D01*
X3182569Y1203909D01*
X3176270Y1203198D01*
X3170783Y1201267D01*
X3165906Y1198219D01*
X3161792Y1194104D01*
X3158693Y1189228D01*
X3156813Y1183741D01*
X3156102Y1177442D01*
G37*
G36*
X3423107Y1095349D02*
G01*
X3520897Y1095349D01*
X3520897Y1177442D01*
X3520186Y1183741D01*
X3518306Y1189228D01*
X3515207Y1194104D01*
X3511092Y1198219D01*
X3506215Y1201267D01*
X3500729Y1203198D01*
X3494430Y1203909D01*
X3423107Y1203909D01*
G37*
G36*
X824992Y1209090D02*
G01*
X839520Y1210005D01*
X853795Y1212748D01*
X867664Y1217269D01*
X880821Y1223467D01*
X893114Y1231239D01*
X904341Y1240536D01*
X914298Y1251153D01*
X922832Y1262888D01*
X929843Y1275638D01*
X935228Y1289202D01*
X938834Y1303274D01*
X940663Y1317701D01*
X940663Y1332280D01*
X938834Y1346708D01*
X935228Y1360830D01*
X929843Y1374343D01*
X922832Y1387094D01*
X914298Y1398879D01*
X904341Y1409496D01*
X893114Y1418742D01*
X880821Y1426565D01*
X867664Y1432763D01*
X853795Y1437233D01*
X839520Y1439976D01*
X824992Y1440891D01*
X810463Y1439976D01*
X796188Y1437233D01*
X782320Y1432763D01*
X769162Y1426565D01*
X756869Y1418742D01*
X745693Y1409496D01*
X735685Y1398879D01*
X727151Y1387094D01*
X720140Y1374343D01*
X714806Y1360830D01*
X711149Y1346708D01*
X709320Y1332280D01*
X709320Y1317701D01*
X711149Y1303274D01*
X714806Y1289202D01*
X720140Y1275638D01*
X727151Y1262888D01*
X735685Y1251153D01*
X745693Y1240536D01*
X756869Y1231239D01*
X769162Y1223467D01*
X782320Y1217269D01*
X796188Y1212748D01*
X810463Y1210005D01*
G37*

%LPD*%
D10*
X2324994Y249999D02*
G01*
X2324994Y249991D01*
X2324988Y249986D01*
X2324994Y249991D01*
X2324994Y1124991D01*
X375005Y675007D02*
G01*
X375005Y1324993D01*
X1800100Y1299969D02*
G01*
X1799996Y1299865D01*
X1799996Y999997D01*
X2424998Y800000D02*
G01*
X2424998Y1299999D01*
X374904Y675131D02*
G01*
X374904Y199897D01*
X455929Y119126D01*
X974852Y1625345D02*
G01*
X1899920Y1625092D01*
X2224999Y625000D02*
G01*
X2224999Y1250000D01*
X1799996Y199999D02*
G01*
X1799996Y999997D01*
X1799996Y999997D01*
X1375001Y1124999D02*
G01*
X1375001Y1499999D01*
D11*
G01*
X461501Y1000000D03*
G01*
X3338501Y1000000D03*
D12*
G01*
X375005Y675004D03*
G01*
X375005Y1324990D03*
G01*
X824992Y675004D03*
G01*
X824992Y1324990D03*
D13*
G01*
X2424988Y1299997D03*
G01*
X2424988Y799998D03*
G01*
X2224989Y1250010D03*
G01*
X2324988Y249986D03*
G01*
X2324988Y1124991D03*
G01*
X2224989Y624992D03*
G01*
X1799996Y999997D03*
D14*
G01*
X1800097Y1299997D03*
G01*
X1800097Y500634D03*
G01*
X1799996Y199999D03*
G01*
X455929Y119126D03*
G01*
X699998Y1475003D03*
G01*
X1899996Y1624990D03*
G01*
X1899920Y1625092D03*
G01*
X974775Y1625219D03*
G01*
X99999Y1699996D03*
G01*
X99999Y1499996D03*
G01*
X99999Y1299997D03*
G01*
X99999Y1099997D03*
G01*
X99999Y899998D03*
G01*
X99999Y699998D03*
G01*
X99999Y499998D03*
G01*
X99999Y299999D03*
G01*
X3899992Y299999D03*
G01*
X3899992Y499998D03*
G01*
X3899992Y699998D03*
G01*
X3899992Y899998D03*
G01*
X3899992Y1099997D03*
G01*
X3899992Y1299997D03*
G01*
X3899992Y1499996D03*
G01*
X3899992Y1699996D03*
G01*
X2250008Y1875002D03*
G01*
X2099995Y950010D03*
G01*
X1375003Y1124991D03*
G01*
X1375003Y1499996D03*
M02*
