G04 Layer: TopSilkscreenLayer*
G04 EasyEDA v6.5.40, 2024-07-28 23:41:03*
G04 a67cddfb3fce44daa9051d46cbbcc19f,10*
G04 Gerber Generator version 0.2*
G04 Scale: 100 percent, Rotated: No, Reflected: No *
G04 Dimensions in millimeters *
G04 leading zeros omitted , absolute positions ,4 integer and 5 decimal *
%FSLAX45Y45*%
%MOMM*%

%ADD10C,0.2032*%
%ADD11C,0.1524*%
%ADD12C,0.2540*%
%ADD13C,0.2030*%
%ADD14C,0.1520*%
%ADD15C,0.3000*%
%ADD16C,0.0116*%

%LPD*%
D10*
X2947670Y1190497D02*
G01*
X2940811Y1197355D01*
X2930652Y1200657D01*
X2916936Y1200657D01*
X2906775Y1197355D01*
X2899918Y1190497D01*
X2899918Y1183639D01*
X2903474Y1176781D01*
X2906775Y1173479D01*
X2913634Y1169923D01*
X2934208Y1163065D01*
X2940811Y1159763D01*
X2944368Y1156462D01*
X2947670Y1149604D01*
X2947670Y1139189D01*
X2940811Y1132586D01*
X2930652Y1129029D01*
X2916936Y1129029D01*
X2906775Y1132586D01*
X2899918Y1139189D01*
X2987293Y1176781D02*
G01*
X2980436Y1173479D01*
X2973577Y1166621D01*
X2970275Y1156462D01*
X2970275Y1149604D01*
X2973577Y1139189D01*
X2980436Y1132586D01*
X2987293Y1129029D01*
X2997454Y1129029D01*
X3004311Y1132586D01*
X3011170Y1139189D01*
X3014472Y1149604D01*
X3014472Y1156462D01*
X3011170Y1166621D01*
X3004311Y1173479D01*
X2997454Y1176781D01*
X2987293Y1176781D01*
X3037077Y1176781D02*
G01*
X3037077Y1129029D01*
X3037077Y1163065D02*
G01*
X3047238Y1173479D01*
X3054095Y1176781D01*
X3064256Y1176781D01*
X3071113Y1173479D01*
X3074415Y1163065D01*
X3074415Y1129029D01*
X3074415Y1163065D02*
G01*
X3084829Y1173479D01*
X3091688Y1176781D01*
X3101847Y1176781D01*
X3108706Y1173479D01*
X3112008Y1163065D01*
X3112008Y1129029D01*
X3134613Y1156462D02*
G01*
X3175508Y1156462D01*
X3175508Y1163065D01*
X3171952Y1169923D01*
X3168650Y1173479D01*
X3161791Y1176781D01*
X3151631Y1176781D01*
X3144774Y1173479D01*
X3137915Y1166621D01*
X3134613Y1156462D01*
X3134613Y1149604D01*
X3137915Y1139189D01*
X3144774Y1132586D01*
X3151631Y1129029D01*
X3161791Y1129029D01*
X3168650Y1132586D01*
X3175508Y1139189D01*
X3208274Y1200657D02*
G01*
X3208274Y1142745D01*
X3211575Y1132586D01*
X3218434Y1129029D01*
X3225291Y1129029D01*
X3197859Y1176781D02*
G01*
X3221736Y1176781D01*
X3247643Y1200657D02*
G01*
X3251200Y1197355D01*
X3254502Y1200657D01*
X3251200Y1203960D01*
X3247643Y1200657D01*
X3251200Y1176781D02*
G01*
X3251200Y1129029D01*
X3277108Y1176781D02*
G01*
X3277108Y1129029D01*
X3277108Y1163065D02*
G01*
X3287268Y1173479D01*
X3294125Y1176781D01*
X3304286Y1176781D01*
X3311143Y1173479D01*
X3314445Y1163065D01*
X3314445Y1129029D01*
X3314445Y1163065D02*
G01*
X3324859Y1173479D01*
X3331718Y1176781D01*
X3341877Y1176781D01*
X3348736Y1173479D01*
X3352038Y1163065D01*
X3352038Y1129029D01*
X3374643Y1156462D02*
G01*
X3415538Y1156462D01*
X3415538Y1163065D01*
X3411981Y1169923D01*
X3408679Y1173479D01*
X3401822Y1176781D01*
X3391661Y1176781D01*
X3384804Y1173479D01*
X3377945Y1166621D01*
X3374643Y1156462D01*
X3374643Y1149604D01*
X3377945Y1139189D01*
X3384804Y1132586D01*
X3391661Y1129029D01*
X3401822Y1129029D01*
X3408679Y1132586D01*
X3415538Y1139189D01*
X3475481Y1166621D02*
G01*
X3471925Y1173479D01*
X3461765Y1176781D01*
X3451606Y1176781D01*
X3441445Y1173479D01*
X3437890Y1166621D01*
X3441445Y1159763D01*
X3448304Y1156462D01*
X3465322Y1152905D01*
X3471925Y1149604D01*
X3475481Y1142745D01*
X3475481Y1139189D01*
X3471925Y1132586D01*
X3461765Y1129029D01*
X3451606Y1129029D01*
X3441445Y1132586D01*
X3437890Y1139189D01*
X3550411Y1176781D02*
G01*
X3550411Y1129029D01*
X3550411Y1156462D02*
G01*
X3553968Y1166621D01*
X3560572Y1173479D01*
X3567429Y1176781D01*
X3577843Y1176781D01*
X3600195Y1156462D02*
G01*
X3641090Y1156462D01*
X3641090Y1163065D01*
X3637788Y1169923D01*
X3634231Y1173479D01*
X3627627Y1176781D01*
X3617213Y1176781D01*
X3610356Y1173479D01*
X3603752Y1166621D01*
X3600195Y1156462D01*
X3600195Y1149604D01*
X3603752Y1139189D01*
X3610356Y1132586D01*
X3617213Y1129029D01*
X3627627Y1129029D01*
X3634231Y1132586D01*
X3641090Y1139189D01*
X3704590Y1200657D02*
G01*
X3704590Y1129029D01*
X3704590Y1166621D02*
G01*
X3697731Y1173479D01*
X3690874Y1176781D01*
X3680713Y1176781D01*
X3673856Y1173479D01*
X3666997Y1166621D01*
X3663695Y1156462D01*
X3663695Y1149604D01*
X3666997Y1139189D01*
X3673856Y1132586D01*
X3680713Y1129029D01*
X3690874Y1129029D01*
X3697731Y1132586D01*
X3704590Y1139189D01*
X3733800Y1142745D02*
G01*
X3730497Y1139189D01*
X3726941Y1142745D01*
X3730497Y1146047D01*
X3733800Y1142745D01*
X3733800Y1135887D01*
X3726941Y1129029D01*
X2947670Y1013968D02*
G01*
X2940811Y1020571D01*
X2930652Y1024128D01*
X2916936Y1024128D01*
X2906775Y1020571D01*
X2899918Y1013968D01*
X2899918Y1007110D01*
X2903474Y1000252D01*
X2906775Y996695D01*
X2913634Y993394D01*
X2934208Y986536D01*
X2940811Y983234D01*
X2944368Y979678D01*
X2947670Y972820D01*
X2947670Y962660D01*
X2940811Y955802D01*
X2930652Y952500D01*
X2916936Y952500D01*
X2906775Y955802D01*
X2899918Y962660D01*
X2987293Y1000252D02*
G01*
X2980436Y996695D01*
X2973577Y990092D01*
X2970275Y979678D01*
X2970275Y972820D01*
X2973577Y962660D01*
X2980436Y955802D01*
X2987293Y952500D01*
X2997454Y952500D01*
X3004311Y955802D01*
X3011170Y962660D01*
X3014472Y972820D01*
X3014472Y979678D01*
X3011170Y990092D01*
X3004311Y996695D01*
X2997454Y1000252D01*
X2987293Y1000252D01*
X3037077Y1000252D02*
G01*
X3037077Y952500D01*
X3037077Y986536D02*
G01*
X3047238Y996695D01*
X3054095Y1000252D01*
X3064256Y1000252D01*
X3071113Y996695D01*
X3074415Y986536D01*
X3074415Y952500D01*
X3074415Y986536D02*
G01*
X3084829Y996695D01*
X3091688Y1000252D01*
X3101847Y1000252D01*
X3108706Y996695D01*
X3112008Y986536D01*
X3112008Y952500D01*
X3134613Y979678D02*
G01*
X3175508Y979678D01*
X3175508Y986536D01*
X3171952Y993394D01*
X3168650Y996695D01*
X3161791Y1000252D01*
X3151631Y1000252D01*
X3144774Y996695D01*
X3137915Y990092D01*
X3134613Y979678D01*
X3134613Y972820D01*
X3137915Y962660D01*
X3144774Y955802D01*
X3151631Y952500D01*
X3161791Y952500D01*
X3168650Y955802D01*
X3175508Y962660D01*
X3208274Y1024128D02*
G01*
X3208274Y966215D01*
X3211575Y955802D01*
X3218434Y952500D01*
X3225291Y952500D01*
X3197859Y1000252D02*
G01*
X3221736Y1000252D01*
X3247643Y1024128D02*
G01*
X3251200Y1020571D01*
X3254502Y1024128D01*
X3251200Y1027429D01*
X3247643Y1024128D01*
X3251200Y1000252D02*
G01*
X3251200Y952500D01*
X3277108Y1000252D02*
G01*
X3277108Y952500D01*
X3277108Y986536D02*
G01*
X3287268Y996695D01*
X3294125Y1000252D01*
X3304286Y1000252D01*
X3311143Y996695D01*
X3314445Y986536D01*
X3314445Y952500D01*
X3314445Y986536D02*
G01*
X3324859Y996695D01*
X3331718Y1000252D01*
X3341877Y1000252D01*
X3348736Y996695D01*
X3352038Y986536D01*
X3352038Y952500D01*
X3374643Y979678D02*
G01*
X3415538Y979678D01*
X3415538Y986536D01*
X3411981Y993394D01*
X3408679Y996695D01*
X3401822Y1000252D01*
X3391661Y1000252D01*
X3384804Y996695D01*
X3377945Y990092D01*
X3374643Y979678D01*
X3374643Y972820D01*
X3377945Y962660D01*
X3384804Y955802D01*
X3391661Y952500D01*
X3401822Y952500D01*
X3408679Y955802D01*
X3415538Y962660D01*
X3475481Y990092D02*
G01*
X3471925Y996695D01*
X3461765Y1000252D01*
X3451606Y1000252D01*
X3441445Y996695D01*
X3437890Y990092D01*
X3441445Y983234D01*
X3448304Y979678D01*
X3465322Y976376D01*
X3471925Y972820D01*
X3475481Y966215D01*
X3475481Y962660D01*
X3471925Y955802D01*
X3461765Y952500D01*
X3451606Y952500D01*
X3441445Y955802D01*
X3437890Y962660D01*
X3550411Y1024128D02*
G01*
X3550411Y952500D01*
X3550411Y990092D02*
G01*
X3557270Y996695D01*
X3564127Y1000252D01*
X3574288Y1000252D01*
X3581145Y996695D01*
X3588004Y990092D01*
X3591306Y979678D01*
X3591306Y972820D01*
X3588004Y962660D01*
X3581145Y955802D01*
X3574288Y952500D01*
X3564127Y952500D01*
X3557270Y955802D01*
X3550411Y962660D01*
X3613911Y1024128D02*
G01*
X3613911Y952500D01*
X3636263Y1000252D02*
G01*
X3636263Y966215D01*
X3639820Y955802D01*
X3646677Y952500D01*
X3656838Y952500D01*
X3663695Y955802D01*
X3673856Y966215D01*
X3673856Y1000252D02*
G01*
X3673856Y952500D01*
X3696461Y979678D02*
G01*
X3737356Y979678D01*
X3737356Y986536D01*
X3733800Y993394D01*
X3730497Y996695D01*
X3723640Y1000252D01*
X3713479Y1000252D01*
X3706622Y996695D01*
X3699763Y990092D01*
X3696461Y979678D01*
X3696461Y972820D01*
X3699763Y962660D01*
X3706622Y955802D01*
X3713479Y952500D01*
X3723640Y952500D01*
X3730497Y955802D01*
X3737356Y962660D01*
X2899918Y847597D02*
G01*
X2927350Y775970D01*
X2954527Y847597D02*
G01*
X2927350Y775970D01*
X2977134Y833881D02*
G01*
X2983738Y837184D01*
X2994152Y847597D01*
X2994152Y775970D01*
X3020059Y792987D02*
G01*
X3016504Y789431D01*
X3020059Y786129D01*
X3023361Y789431D01*
X3020059Y792987D01*
X3045968Y833881D02*
G01*
X3052825Y837184D01*
X3062986Y847597D01*
X3062986Y775970D01*
D11*
X2525013Y840231D02*
G01*
X2525013Y731265D01*
X2525013Y840231D02*
G01*
X2571750Y840231D01*
X2587243Y835152D01*
X2592577Y829818D01*
X2597658Y819657D01*
X2597658Y809244D01*
X2592577Y798829D01*
X2587243Y793495D01*
X2571750Y788415D01*
X2525013Y788415D01*
X2561336Y788415D02*
G01*
X2597658Y731265D01*
X2631947Y819657D02*
G01*
X2642361Y824737D01*
X2658109Y840231D01*
X2658109Y731265D01*
X2525013Y1640331D02*
G01*
X2525013Y1531112D01*
X2525013Y1640331D02*
G01*
X2571750Y1640331D01*
X2587243Y1635252D01*
X2592577Y1629918D01*
X2597658Y1619504D01*
X2597658Y1609089D01*
X2592577Y1598676D01*
X2587243Y1593595D01*
X2571750Y1588262D01*
X2525013Y1588262D01*
X2561336Y1588262D02*
G01*
X2597658Y1531112D01*
X2637281Y1614423D02*
G01*
X2637281Y1619504D01*
X2642361Y1629918D01*
X2647695Y1635252D01*
X2658109Y1640331D01*
X2678684Y1640331D01*
X2689097Y1635252D01*
X2694431Y1629918D01*
X2699511Y1619504D01*
X2699511Y1609089D01*
X2694431Y1598676D01*
X2684018Y1583181D01*
X2631947Y1531112D01*
X2704845Y1531112D01*
X2525013Y440436D02*
G01*
X2525013Y331215D01*
X2525013Y440436D02*
G01*
X2571750Y440436D01*
X2587243Y435102D01*
X2592577Y430021D01*
X2597658Y419607D01*
X2597658Y409194D01*
X2592577Y398779D01*
X2587243Y393445D01*
X2571750Y388365D01*
X2525013Y388365D01*
X2561336Y388365D02*
G01*
X2597658Y331215D01*
X2642361Y440436D02*
G01*
X2699511Y440436D01*
X2668270Y398779D01*
X2684018Y398779D01*
X2694431Y393445D01*
X2699511Y388365D01*
X2704845Y372871D01*
X2704845Y362457D01*
X2699511Y346710D01*
X2689097Y336295D01*
X2673604Y331215D01*
X2658109Y331215D01*
X2642361Y336295D01*
X2637281Y341629D01*
X2631947Y352044D01*
X3324999Y465315D02*
G01*
X3324999Y356349D01*
X3324999Y356349D02*
G01*
X3387229Y356349D01*
X3421519Y465315D02*
G01*
X3421519Y356349D01*
X3421519Y465315D02*
G01*
X3489083Y465315D01*
X3421519Y413499D02*
G01*
X3463175Y413499D01*
X3421519Y356349D02*
G01*
X3489083Y356349D01*
X3523373Y465315D02*
G01*
X3523373Y356349D01*
X3523373Y465315D02*
G01*
X3559949Y465315D01*
X3575443Y460235D01*
X3585857Y449821D01*
X3590937Y439407D01*
X3596271Y423659D01*
X3596271Y397751D01*
X3590937Y382257D01*
X3585857Y371843D01*
X3575443Y361429D01*
X3559949Y356349D01*
X3523373Y356349D01*
X3630561Y444487D02*
G01*
X3640975Y449821D01*
X3656469Y465315D01*
X3656469Y356349D01*
X3250001Y1665315D02*
G01*
X3250001Y1556349D01*
X3250001Y1556349D02*
G01*
X3312231Y1556349D01*
X3346521Y1665315D02*
G01*
X3346521Y1556349D01*
X3346521Y1665315D02*
G01*
X3414085Y1665315D01*
X3346521Y1613499D02*
G01*
X3388177Y1613499D01*
X3346521Y1556349D02*
G01*
X3414085Y1556349D01*
X3448375Y1665315D02*
G01*
X3448375Y1556349D01*
X3448375Y1665315D02*
G01*
X3484951Y1665315D01*
X3500445Y1660235D01*
X3510859Y1649821D01*
X3515939Y1639407D01*
X3521273Y1623659D01*
X3521273Y1597751D01*
X3515939Y1582257D01*
X3510859Y1571843D01*
X3500445Y1561429D01*
X3484951Y1556349D01*
X3448375Y1556349D01*
X3560643Y1639407D02*
G01*
X3560643Y1644487D01*
X3565977Y1654901D01*
X3571057Y1660235D01*
X3581471Y1665315D01*
X3602299Y1665315D01*
X3612713Y1660235D01*
X3617793Y1654901D01*
X3623127Y1644487D01*
X3623127Y1634073D01*
X3617793Y1623659D01*
X3607379Y1608165D01*
X3555563Y1556349D01*
X3628207Y1556349D01*
X522643Y549821D02*
G01*
X512229Y560235D01*
X496735Y565315D01*
X475907Y565315D01*
X460413Y560235D01*
X449999Y549821D01*
X449999Y539407D01*
X455079Y528993D01*
X460413Y523659D01*
X470827Y518579D01*
X502069Y508165D01*
X512229Y503085D01*
X517563Y497751D01*
X522643Y487337D01*
X522643Y471843D01*
X512229Y461429D01*
X496735Y456349D01*
X475907Y456349D01*
X460413Y461429D01*
X449999Y471843D01*
X556933Y565315D02*
G01*
X583095Y456349D01*
X609003Y565315D02*
G01*
X583095Y456349D01*
X609003Y565315D02*
G01*
X634911Y456349D01*
X660819Y565315D02*
G01*
X634911Y456349D01*
X695109Y544487D02*
G01*
X705523Y549821D01*
X721271Y565315D01*
X721271Y456349D01*
X199999Y1915314D02*
G01*
X272643Y1806348D01*
X272643Y1915314D02*
G01*
X199999Y1806348D01*
X306933Y1894486D02*
G01*
X317347Y1899820D01*
X333095Y1915314D01*
X333095Y1806348D01*
X1224993Y1940316D02*
G01*
X1224993Y1862338D01*
X1230073Y1846844D01*
X1240487Y1836430D01*
X1256235Y1831350D01*
X1266649Y1831350D01*
X1282143Y1836430D01*
X1292557Y1846844D01*
X1297637Y1862338D01*
X1297637Y1940316D01*
X1331927Y1919488D02*
G01*
X1342341Y1924822D01*
X1358089Y1940316D01*
X1358089Y1831350D01*
X1199995Y915316D02*
G01*
X1199995Y837338D01*
X1205075Y821844D01*
X1215489Y811430D01*
X1231237Y806350D01*
X1241651Y806350D01*
X1257145Y811430D01*
X1267559Y821844D01*
X1272639Y837338D01*
X1272639Y915316D01*
X1312263Y889408D02*
G01*
X1312263Y894488D01*
X1317343Y904902D01*
X1322677Y910236D01*
X1333091Y915316D01*
X1353665Y915316D01*
X1364079Y910236D01*
X1369413Y904902D01*
X1374493Y894488D01*
X1374493Y884074D01*
X1369413Y873660D01*
X1358999Y858166D01*
X1306929Y806350D01*
X1379827Y806350D01*
G36*
X3761587Y1488643D02*
G01*
X3761587Y1311402D01*
X3776827Y1311402D01*
X3776827Y1488643D01*
G37*
X2747639Y508238D02*
G01*
X2876133Y508238D01*
X2876133Y691657D01*
X2747639Y691657D01*
X2652400Y508238D02*
G01*
X2523906Y508238D01*
X2523906Y691657D01*
X2652400Y691657D01*
X2747639Y1308338D02*
G01*
X2876133Y1308338D01*
X2876133Y1491757D01*
X2747639Y1491757D01*
X2652400Y1308338D02*
G01*
X2523906Y1308338D01*
X2523906Y1491757D01*
X2652400Y1491757D01*
X2652400Y291607D02*
G01*
X2523906Y291607D01*
X2523906Y108188D01*
X2652400Y108188D01*
X2747639Y291607D02*
G01*
X2876133Y291607D01*
X2876133Y108188D01*
X2747639Y108188D01*
D12*
X3323470Y686358D02*
G01*
X3323470Y513638D01*
X3323470Y513638D02*
G01*
X3470790Y513638D01*
X3323470Y686358D02*
G01*
X3470790Y686358D01*
X3529210Y513638D02*
G01*
X3646050Y513638D01*
X3531750Y686358D02*
G01*
X3646050Y686358D01*
X3646050Y686358D02*
G01*
X3681610Y650798D01*
X3681610Y549198D01*
X3646050Y513638D01*
D13*
X3492380Y640638D02*
G01*
X3492380Y561898D01*
X3492380Y600793D02*
G01*
X3509916Y600793D01*
D11*
X3417376Y1503862D02*
G01*
X3253635Y1503862D01*
X3253635Y1296136D01*
X3417376Y1296136D01*
X3582614Y1503862D02*
G01*
X3731112Y1503862D01*
X3746355Y1488620D01*
X3746355Y1311379D01*
X3731112Y1296136D01*
X3582614Y1296136D01*
D12*
X299999Y759589D02*
G01*
X299999Y1240411D01*
X485307Y1299999D02*
G01*
X714689Y1299999D01*
X899998Y1240411D02*
G01*
X899998Y759589D01*
X714689Y700001D02*
G01*
X485307Y700001D01*
D14*
X371398Y1560311D02*
G01*
X371398Y1509511D01*
X422198Y1509511D01*
D11*
X397052Y1532130D02*
G01*
X397052Y1865124D01*
X803198Y1865111D01*
X803198Y1700011D01*
X803198Y1534911D01*
X803198Y1534911D01*
X397052Y1532130D01*
X1952142Y1059878D02*
G01*
X1647860Y1059878D01*
X1647860Y1940120D01*
X1952142Y1940120D01*
X1952142Y1059878D01*
X1952142Y59877D02*
G01*
X1647860Y59877D01*
X1647860Y940120D01*
X1952142Y940120D01*
X1952142Y59877D01*
D12*
G75*
G01
X780009Y999998D02*
G03X780009Y999998I-180010J0D01*
G75*
G01
X464744Y1180008D02*
G03X464744Y1180008I-44729J0D01*
G75*
G01
X464718Y819988D02*
G03X464718Y819988I-44729J0D01*
G75*
G01
X824738Y819988D02*
G03X824738Y819988I-44729J0D01*
G75*
G01
X824738Y1180008D02*
G03X824738Y1180008I-44729J0D01*
D15*
G75*
G01
X1891919Y1118997D02*
G03X1891919Y1118997I-15011J0D01*
G75*
G01
X2091919Y1045058D02*
G03X2091919Y1045058I-15011J0D01*
G75*
G01
X1891919Y118999D02*
G03X1891919Y118999I-15011J0D01*
G75*
G01
X2091919Y45060D02*
G03X2091919Y45060I-15011J0D01*
M02*
