G04 Layer: TopPasteMaskLayer*
G04 EasyEDA v6.5.40, 2024-07-28 23:41:03*
G04 a67cddfb3fce44daa9051d46cbbcc19f,10*
G04 Gerber Generator version 0.2*
G04 Scale: 100 percent, Rotated: No, Reflected: No *
G04 Dimensions in millimeters *
G04 leading zeros omitted , absolute positions ,4 integer and 5 decimal *
%FSLAX45Y45*%
%MOMM*%

%ADD10R,0.8000X0.8000*%
%ADD11R,1.4000X1.2000*%
%ADD12O,2.0379944X0.5739892*%

%LPD*%
G36*
X2535021Y668934D02*
G01*
X2529992Y663956D01*
X2529992Y535940D01*
X2535021Y530961D01*
X2650032Y530961D01*
X2655011Y535940D01*
X2654503Y577951D01*
X2610510Y577951D01*
X2610510Y622960D01*
X2655519Y622960D01*
X2655011Y663956D01*
X2650032Y668934D01*
G37*
G36*
X2750007Y668934D02*
G01*
X2745028Y663956D01*
X2745536Y622960D01*
X2789529Y622960D01*
X2789529Y577951D01*
X2745028Y577951D01*
X2745028Y535940D01*
X2750007Y530961D01*
X2865018Y530961D01*
X2869996Y535940D01*
X2869996Y663956D01*
X2865018Y668934D01*
G37*
G36*
X2535021Y1469034D02*
G01*
X2529992Y1464056D01*
X2529992Y1336040D01*
X2535021Y1331061D01*
X2650032Y1331061D01*
X2655011Y1336040D01*
X2654503Y1378051D01*
X2610510Y1378051D01*
X2610510Y1423060D01*
X2655519Y1423060D01*
X2655011Y1464056D01*
X2650032Y1469034D01*
G37*
G36*
X2750007Y1469034D02*
G01*
X2745028Y1464056D01*
X2745536Y1423060D01*
X2789529Y1423060D01*
X2789529Y1378051D01*
X2745028Y1378051D01*
X2745028Y1336040D01*
X2750007Y1331061D01*
X2865018Y1331061D01*
X2869996Y1336040D01*
X2869996Y1464056D01*
X2865018Y1469034D01*
G37*
G36*
X2750007Y268884D02*
G01*
X2745028Y263906D01*
X2745536Y221894D01*
X2789529Y221894D01*
X2789529Y176885D01*
X2744520Y176885D01*
X2745028Y135890D01*
X2750007Y130911D01*
X2865018Y130911D01*
X2870047Y135890D01*
X2870047Y263906D01*
X2865018Y268884D01*
G37*
G36*
X2535021Y268884D02*
G01*
X2530043Y263906D01*
X2530043Y135890D01*
X2535021Y130911D01*
X2650032Y130911D01*
X2655011Y135890D01*
X2654503Y176885D01*
X2610510Y176885D01*
X2610510Y221894D01*
X2655011Y221894D01*
X2655011Y263906D01*
X2650032Y268884D01*
G37*
G36*
X3286506Y1481023D02*
G01*
X3276498Y1471015D01*
X3276498Y1328978D01*
X3286506Y1319022D01*
X3414979Y1319022D01*
X3424986Y1328978D01*
X3424986Y1362456D01*
X3414979Y1372463D01*
X3384499Y1372463D01*
X3374491Y1382471D01*
X3374491Y1417523D01*
X3384499Y1427530D01*
X3414979Y1427530D01*
X3424986Y1437538D01*
X3424986Y1471015D01*
X3414979Y1481023D01*
G37*
G36*
X3585006Y1481023D02*
G01*
X3574999Y1471015D01*
X3574999Y1437538D01*
X3585006Y1427530D01*
X3615486Y1427530D01*
X3625494Y1417523D01*
X3625494Y1382471D01*
X3615486Y1372463D01*
X3585006Y1372463D01*
X3574999Y1362456D01*
X3574999Y1328978D01*
X3585006Y1319022D01*
X3713479Y1319022D01*
X3723487Y1328978D01*
X3723487Y1471015D01*
X3713479Y1481023D01*
G37*
D10*
G01*
X3414902Y599998D03*
G01*
X3585083Y599998D03*
D11*
G01*
X489991Y1612519D03*
G01*
X710006Y1612519D03*
G01*
X710006Y1787525D03*
G01*
X489991Y1787499D03*
D12*
G01*
X2076907Y1118996D03*
G01*
X2076907Y1245996D03*
G01*
X2076907Y1372996D03*
G01*
X2076907Y1499996D03*
G01*
X2076907Y1626996D03*
G01*
X2076907Y1753996D03*
G01*
X2076907Y1880996D03*
G01*
X1523085Y1118996D03*
G01*
X1523085Y1245996D03*
G01*
X1523085Y1372996D03*
G01*
X1523085Y1499996D03*
G01*
X1523085Y1626996D03*
G01*
X1523085Y1753996D03*
G01*
X1523085Y1880996D03*
G01*
X2076907Y118998D03*
G01*
X2076907Y245998D03*
G01*
X2076907Y372998D03*
G01*
X2076907Y499998D03*
G01*
X2076907Y626998D03*
G01*
X2076907Y753998D03*
G01*
X2076907Y880998D03*
G01*
X1523085Y118998D03*
G01*
X1523085Y245998D03*
G01*
X1523085Y372998D03*
G01*
X1523085Y499998D03*
G01*
X1523085Y626998D03*
G01*
X1523085Y753998D03*
G01*
X1523085Y880998D03*
M02*
