G04 Layer: BottomSilkscreenLayer*
G04 EasyEDA v6.5.40, 2024-07-28 23:41:03*
G04 a67cddfb3fce44daa9051d46cbbcc19f,10*
G04 Gerber Generator version 0.2*
G04 Scale: 100 percent, Rotated: No, Reflected: No *
G04 Dimensions in millimeters *
G04 leading zeros omitted , absolute positions ,4 integer and 5 decimal *
%FSLAX45Y45*%
%MOMM*%

%ADD10C,0.1524*%

%LPD*%
D10*
X1900001Y1978916D02*
G01*
X1900001Y1869950D01*
X1900001Y1978916D02*
G01*
X1853265Y1978916D01*
X1837771Y1973836D01*
X1832437Y1968502D01*
X1827357Y1958088D01*
X1827357Y1947674D01*
X1832437Y1937260D01*
X1837771Y1932180D01*
X1853265Y1927100D01*
X1900001Y1927100D02*
G01*
X1853265Y1927100D01*
X1837771Y1921766D01*
X1832437Y1916686D01*
X1827357Y1906272D01*
X1827357Y1890524D01*
X1832437Y1880110D01*
X1837771Y1875030D01*
X1853265Y1869950D01*
X1900001Y1869950D01*
X1793067Y1958088D02*
G01*
X1782653Y1963422D01*
X1766905Y1978916D01*
X1766905Y1869950D01*
G36*
X3005023Y1815236D02*
G01*
X3005023Y1193241D01*
X3035503Y1193241D01*
X3035503Y1815236D01*
G37*
G36*
X3005023Y806754D02*
G01*
X3005023Y184759D01*
X3035503Y184759D01*
X3035503Y806754D01*
G37*
X3012620Y1807621D02*
G01*
X787382Y1807621D01*
X787382Y1807621D02*
G01*
X787382Y1198321D01*
X3012620Y192379D02*
G01*
X787382Y192379D01*
X787382Y192379D02*
G01*
X787382Y801679D01*
X3161680Y1807621D02*
G01*
X3161680Y192379D01*
M02*
