%FSLAX33Y33*%
%MOMM*%
%AMRect-W5500000-H5500000-RO1.000*
21,1,5.5,5.5,0.,0.,180*%
%AMRect-W4000000-H4000000-RO1.000*
21,1,4.,4.,0.,0.,180*%
%ADD10C,0.0508*%
%ADD11C,0.508*%
%ADD12C,0.1524*%
%ADD13C,0.68834*%
%ADD14Rect-W5500000-H5500000-RO1.000*%
%ADD15Rect-W4000000-H4000000-RO1.000*%
%ADD16C,4.*%
D10*
%LNpour fill*%
G01*
X31500Y8546D02*
X31500Y8546D01*
X26050Y8546*
X26050Y8546*
X26018Y8548*
X26018Y8548*
X25987Y8556*
X25987Y8556*
X25957Y8568*
X25957Y8568*
X25930Y8585*
X25930Y8585*
X25905Y8605*
X25905Y8605*
X25885Y8630*
X25885Y8630*
X25868Y8657*
X25868Y8657*
X25856Y8687*
X25856Y8687*
X25848Y8718*
X25848Y8718*
X25846Y8750*
X25846Y8750*
X25846Y14250*
X25846Y14250*
X25848Y14282*
X25848Y14282*
X25856Y14313*
X25856Y14313*
X25868Y14343*
X25868Y14343*
X25885Y14370*
X25885Y14370*
X25905Y14395*
X25905Y14395*
X25930Y14415*
X25930Y14415*
X25957Y14432*
X25957Y14432*
X25987Y14444*
X25987Y14444*
X26018Y14452*
X26018Y14452*
X26050Y14454*
X26050Y14454*
X27342Y14454*
X27342Y14705*
X27314Y14745*
X27314Y14745*
X27267Y14869*
X27267Y14869*
X27251Y15000*
X27251Y15000*
X27267Y15131*
X27267Y15131*
X27314Y15255*
X27314Y15255*
X27389Y15364*
X27389Y15364*
X27488Y15452*
X27488Y15452*
X27605Y15513*
X27605Y15513*
X27734Y15545*
X27734Y15545*
X27866Y15545*
X27866Y15545*
X27995Y15513*
X27995Y15513*
X28112Y15452*
X28112Y15452*
X28211Y15364*
X28211Y15364*
X28300Y15234*
X28389Y15364*
X28389Y15364*
X28488Y15452*
X28488Y15452*
X28605Y15513*
X28605Y15513*
X28734Y15545*
X28734Y15545*
X28866Y15545*
X28866Y15545*
X28995Y15513*
X28995Y15513*
X29112Y15452*
X29112Y15452*
X29211Y15364*
X29211Y15364*
X29300Y15234*
X29389Y15364*
X29389Y15364*
X29488Y15452*
X29488Y15452*
X29605Y15513*
X29605Y15513*
X29734Y15545*
X29734Y15545*
X29866Y15545*
X29866Y15545*
X29995Y15513*
X29995Y15513*
X30112Y15452*
X30112Y15452*
X30211Y15364*
X30211Y15364*
X30286Y15255*
X30286Y15255*
X30333Y15131*
X30333Y15131*
X30349Y15000*
X30349Y15000*
X30333Y14869*
X30333Y14869*
X30286Y14745*
X30286Y14745*
X30258Y14705*
X30258Y14454*
X31500Y14454*
X31500Y22500*
X0500Y22500*
X0500Y14454*
X1742Y14454*
X1742Y14705*
X1714Y14745*
X1714Y14745*
X1667Y14869*
X1667Y14869*
X1651Y15000*
X1651Y15000*
X1667Y15131*
X1667Y15131*
X1714Y15255*
X1714Y15255*
X1789Y15364*
X1789Y15364*
X1888Y15452*
X1888Y15452*
X2005Y15513*
X2005Y15513*
X2134Y15545*
X2134Y15545*
X2266Y15545*
X2266Y15545*
X2395Y15513*
X2395Y15513*
X2512Y15452*
X2512Y15452*
X2611Y15364*
X2611Y15364*
X2700Y15234*
X2789Y15364*
X2789Y15364*
X2888Y15452*
X2888Y15452*
X3005Y15513*
X3005Y15513*
X3134Y15545*
X3134Y15545*
X3266Y15545*
X3266Y15545*
X3395Y15513*
X3395Y15513*
X3512Y15452*
X3512Y15452*
X3611Y15364*
X3611Y15364*
X3700Y15234*
X3789Y15364*
X3789Y15364*
X3888Y15452*
X3888Y15452*
X4005Y15513*
X4005Y15513*
X4134Y15545*
X4134Y15545*
X4266Y15545*
X4266Y15545*
X4395Y15513*
X4395Y15513*
X4512Y15452*
X4512Y15452*
X4611Y15364*
X4611Y15364*
X4686Y15255*
X4686Y15255*
X4733Y15131*
X4733Y15131*
X4749Y15000*
X4749Y15000*
X4733Y14869*
X4733Y14869*
X4686Y14745*
X4686Y14745*
X4658Y14705*
X4658Y14454*
X5950Y14454*
X5950Y14454*
X5982Y14452*
X5982Y14452*
X6013Y14444*
X6013Y14444*
X6043Y14432*
X6043Y14432*
X6070Y14415*
X6070Y14415*
X6095Y14395*
X6095Y14395*
X6115Y14370*
X6115Y14370*
X6132Y14343*
X6132Y14343*
X6144Y14313*
X6144Y14313*
X6152Y14282*
X6152Y14282*
X6154Y14250*
X6154Y14250*
X6154Y8750*
X6154Y8750*
X6152Y8718*
X6152Y8718*
X6144Y8687*
X6144Y8687*
X6132Y8657*
X6132Y8657*
X6115Y8630*
X6115Y8630*
X6095Y8605*
X6095Y8605*
X6070Y8585*
X6070Y8585*
X6043Y8568*
X6043Y8568*
X6013Y8556*
X6013Y8556*
X5982Y8548*
X5982Y8548*
X5950Y8546*
X5950Y8546*
X4658Y8546*
X4658Y8295*
X4686Y8255*
X4686Y8255*
X4733Y8131*
X4733Y8131*
X4749Y8000*
X4749Y8000*
X4733Y7869*
X4733Y7869*
X4686Y7745*
X4686Y7745*
X4611Y7636*
X4611Y7636*
X4512Y7548*
X4512Y7548*
X4395Y7487*
X4395Y7487*
X4266Y7455*
X4266Y7455*
X4134Y7455*
X4134Y7455*
X4005Y7487*
X4005Y7487*
X3888Y7548*
X3888Y7548*
X3789Y7636*
X3789Y7636*
X3700Y7766*
X3611Y7636*
X3611Y7636*
X3512Y7548*
X3512Y7548*
X3395Y7487*
X3395Y7487*
X3266Y7455*
X3266Y7455*
X3134Y7455*
X3134Y7455*
X3005Y7487*
X3005Y7487*
X2888Y7548*
X2888Y7548*
X2789Y7636*
X2789Y7636*
X2700Y7766*
X2611Y7636*
X2611Y7636*
X2512Y7548*
X2512Y7548*
X2395Y7487*
X2395Y7487*
X2266Y7455*
X2266Y7455*
X2134Y7455*
X2134Y7455*
X2005Y7487*
X2005Y7487*
X1888Y7548*
X1888Y7548*
X1789Y7636*
X1789Y7636*
X1714Y7745*
X1714Y7745*
X1667Y7869*
X1667Y7869*
X1651Y8000*
X1651Y8000*
X1667Y8131*
X1667Y8131*
X1714Y8255*
X1714Y8255*
X1742Y8295*
X1742Y8546*
X0500Y8546*
X0500Y0500*
X31500Y0500*
X31500Y8546*
X2898Y17807D02*
X2510Y17851D01*
X2044Y18014*
X1626Y18277*
X1277Y18626*
X1014Y19044*
X0851Y19510*
X0807Y19898*
X1051Y19898*
X1051Y20102*
X0807Y20102*
X0851Y20490*
X1014Y20956*
X1277Y21374*
X1626Y21723*
X2044Y21986*
X2510Y22149*
X2898Y22193*
X2898Y21949*
X3102Y21949*
X3102Y22193*
X3490Y22149*
X3956Y21986*
X4374Y21723*
X4723Y21374*
X4986Y20956*
X5149Y20490*
X5193Y20102*
X4949Y20102*
X4949Y19898*
X5193Y19898*
X5149Y19510*
X4986Y19044*
X4723Y18626*
X4374Y18277*
X3956Y18014*
X3490Y17851*
X3102Y17807*
X3102Y18051*
X2898Y18051*
X2898Y17807*
X29102Y17807D02*
X29102Y18051D01*
X28898Y18051*
X28898Y17807*
X28510Y17851*
X28044Y18014*
X27626Y18277*
X27277Y18626*
X27014Y19044*
X26851Y19510*
X26807Y19898*
X27051Y19898*
X27051Y20102*
X26807Y20102*
X26851Y20490*
X27014Y20956*
X27277Y21374*
X27626Y21723*
X28044Y21986*
X28510Y22149*
X28898Y22193*
X28898Y21949*
X29102Y21949*
X29102Y22193*
X29490Y22149*
X29956Y21986*
X30374Y21723*
X30723Y21374*
X30986Y20956*
X31149Y20490*
X31193Y20102*
X30949Y20102*
X30949Y19898*
X31193Y19898*
X31149Y19510*
X30986Y19044*
X30723Y18626*
X30374Y18277*
X29956Y18014*
X29490Y17851*
X29102Y17807*
X18000Y9296D02*
X14000Y9296D01*
X13968Y9298*
X13937Y9306*
X13907Y9318*
X13880Y9335*
X13856Y9356*
X13835Y9380*
X13818Y9407*
X13806Y9437*
X13798Y9468*
X13796Y9500*
X13796Y11398*
X14051Y11398*
X14051Y11602*
X13796Y11602*
X13796Y13500*
X13798Y13532*
X13806Y13563*
X13818Y13593*
X13835Y13620*
X13856Y13644*
X13880Y13665*
X13907Y13682*
X13937Y13694*
X13968Y13702*
X14000Y13704*
X15898Y13704*
X15898Y13449*
X16102Y13449*
X16102Y13704*
X18000Y13704*
X18032Y13702*
X18063Y13694*
X18093Y13682*
X18120Y13665*
X18144Y13644*
X18165Y13620*
X18182Y13593*
X18194Y13563*
X18202Y13532*
X18204Y13500*
X18204Y11602*
X17949Y11602*
X17949Y11398*
X18204Y11398*
X18204Y9500*
X18202Y9468*
X18194Y9437*
X18182Y9407*
X18165Y9380*
X18144Y9356*
X18120Y9335*
X18093Y9318*
X18063Y9306*
X18032Y9298*
X18000Y9296*
X24801Y3164D02*
X24669Y3164D01*
X24541Y3196*
X24424Y3257*
X24325Y3345*
X24267Y3428*
X24003Y3428*
X23987Y3430*
X23972Y3430*
X23956Y3433*
X23941Y3435*
X23926Y3440*
X23910Y3444*
X23896Y3451*
X23881Y3456*
X23868Y3464*
X23854Y3471*
X23842Y3481*
X23828Y3489*
X23817Y3500*
X23805Y3510*
X21087Y6228*
X21021Y6212*
X20889Y6212*
X20761Y6244*
X20643Y6305*
X20545Y6393*
X20469Y6502*
X20423Y6625*
X20407Y6756*
X20423Y6888*
X20469Y7011*
X20545Y7120*
X20643Y7208*
X20761Y7269*
X20889Y7301*
X21021Y7301*
X21149Y7269*
X21267Y7208*
X21365Y7120*
X21441Y7011*
X21487Y6888*
X21503Y6756*
X21487Y6621*
X24119Y3989*
X24267Y3989*
X24325Y4072*
X24424Y4160*
X24541Y4221*
X24669Y4253*
X24801Y4253*
X24930Y4221*
X25047Y4160*
X25146Y4072*
X25221Y3963*
X25268Y3840*
X25284Y3708*
X25268Y3577*
X25221Y3454*
X25146Y3345*
X25047Y3257*
X24930Y3196*
X24801Y3164*
X14266Y2306D02*
X14134Y2306D01*
X14006Y2337*
X13888Y2399*
X13790Y2486*
X13714Y2595*
X13668Y2719*
X13652Y2850*
X13668Y2981*
X13714Y3105*
X13790Y3214*
X13888Y3301*
X13920Y3318*
X13920Y4382*
X13888Y4399*
X13790Y4486*
X13714Y4595*
X13668Y4719*
X13652Y4850*
X13668Y4981*
X13714Y5105*
X13790Y5214*
X13888Y5301*
X14006Y5363*
X14134Y5394*
X14266Y5394*
X14394Y5363*
X14512Y5301*
X14610Y5214*
X14686Y5105*
X14732Y4981*
X14748Y4850*
X14732Y4719*
X14686Y4595*
X14610Y4486*
X14512Y4399*
X14480Y4382*
X14480Y3318*
X14512Y3301*
X14610Y3214*
X14686Y3105*
X14732Y2981*
X14748Y2850*
X14732Y2719*
X14686Y2595*
X14610Y2486*
X14512Y2399*
X14394Y2337*
X14266Y2306*
X2898Y0807D02*
X2510Y0851D01*
X2044Y1014*
X1626Y1277*
X1277Y1626*
X1014Y2044*
X0851Y2510*
X0807Y2898*
X1051Y2898*
X1051Y3102*
X0807Y3102*
X0851Y3490*
X1014Y3956*
X1277Y4374*
X1626Y4723*
X2044Y4986*
X2510Y5149*
X2898Y5193*
X2898Y4949*
X3102Y4949*
X3102Y5193*
X3490Y5149*
X3956Y4986*
X4374Y4723*
X4723Y4374*
X4986Y3956*
X5149Y3490*
X5193Y3102*
X4949Y3102*
X4949Y2898*
X5193Y2898*
X5149Y2510*
X4986Y2044*
X4723Y1626*
X4374Y1277*
X3956Y1014*
X3490Y0851*
X3102Y0807*
X3102Y1051*
X2898Y1051*
X2898Y0807*
X0500Y0550D02*
X31500Y0550D01*
X0500Y0599D02*
X31500Y0599D01*
X0500Y0649D02*
X31500Y0649D01*
X0500Y0698D02*
X31500Y0698D01*
X0500Y0748D02*
X31500Y0748D01*
X0500Y0797D02*
X31500Y0797D01*
X0500Y0847D02*
X2546Y0847D01*
X2899Y0847D02*
X3101Y0847D01*
X3454Y0847D02*
X31500Y0847D01*
X0500Y0896D02*
X2380Y0896D01*
X2899Y0896D02*
X3101Y0896D01*
X3620Y0896D02*
X31500Y0896D01*
X0500Y0946D02*
X2238Y0946D01*
X2899Y0946D02*
X3101Y0946D01*
X3762Y0946D02*
X31500Y0946D01*
X0500Y0995D02*
X2097Y0995D01*
X2899Y0995D02*
X3101Y0995D01*
X3903Y0995D02*
X31500Y0995D01*
X0500Y1045D02*
X1994Y1045D01*
X2899Y1045D02*
X3101Y1045D01*
X4006Y1045D02*
X31500Y1045D01*
X0500Y1094D02*
X1915Y1094D01*
X4085Y1094D02*
X31500Y1094D01*
X0500Y1144D02*
X1837Y1144D01*
X4163Y1144D02*
X31500Y1144D01*
X0500Y1193D02*
X1758Y1193D01*
X4242Y1193D02*
X31500Y1193D01*
X0500Y1243D02*
X1679Y1243D01*
X4321Y1243D02*
X31500Y1243D01*
X0500Y1292D02*
X1610Y1292D01*
X4390Y1292D02*
X31500Y1292D01*
X0500Y1342D02*
X1560Y1342D01*
X4440Y1342D02*
X31500Y1342D01*
X0500Y1392D02*
X1510Y1392D01*
X4490Y1392D02*
X31500Y1392D01*
X0500Y1441D02*
X1461Y1441D01*
X4539Y1441D02*
X31500Y1441D01*
X0500Y1491D02*
X1411Y1491D01*
X4589Y1491D02*
X31500Y1491D01*
X0500Y1540D02*
X1362Y1540D01*
X4638Y1540D02*
X31500Y1540D01*
X0500Y1590D02*
X1312Y1590D01*
X4688Y1590D02*
X31500Y1590D01*
X0500Y1639D02*
X1268Y1639D01*
X4732Y1639D02*
X31500Y1639D01*
X0500Y1689D02*
X1237Y1689D01*
X4763Y1689D02*
X31500Y1689D01*
X0500Y1738D02*
X1206Y1738D01*
X4794Y1738D02*
X31500Y1738D01*
X0500Y1788D02*
X1175Y1788D01*
X4825Y1788D02*
X31500Y1788D01*
X0500Y1837D02*
X1143Y1837D01*
X4857Y1837D02*
X31500Y1837D01*
X0500Y1887D02*
X1112Y1887D01*
X4888Y1887D02*
X31500Y1887D01*
X0500Y1936D02*
X1081Y1936D01*
X4919Y1936D02*
X31500Y1936D01*
X0500Y1986D02*
X1050Y1986D01*
X4950Y1986D02*
X31500Y1986D01*
X0500Y2035D02*
X1019Y2035D01*
X4981Y2035D02*
X31500Y2035D01*
X0500Y2085D02*
X0999Y2085D01*
X5001Y2085D02*
X31500Y2085D01*
X0500Y2134D02*
X0982Y2134D01*
X5018Y2134D02*
X31500Y2134D01*
X0500Y2184D02*
X0965Y2184D01*
X5035Y2184D02*
X31500Y2184D01*
X0500Y2234D02*
X0947Y2234D01*
X5053Y2234D02*
X31500Y2234D01*
X0500Y2283D02*
X0930Y2283D01*
X5070Y2283D02*
X31500Y2283D01*
X0500Y2333D02*
X0913Y2333D01*
X5087Y2333D02*
X14023Y2333D01*
X14377Y2333D02*
X31500Y2333D01*
X0500Y2382D02*
X0895Y2382D01*
X5105Y2382D02*
X13919Y2382D01*
X14481Y2382D02*
X31500Y2382D01*
X0500Y2432D02*
X0878Y2432D01*
X5122Y2432D02*
X13851Y2432D01*
X14549Y2432D02*
X31500Y2432D01*
X0500Y2481D02*
X0861Y2481D01*
X5139Y2481D02*
X13795Y2481D01*
X14605Y2481D02*
X31500Y2481D01*
X0500Y2531D02*
X0848Y2531D01*
X5152Y2531D02*
X13759Y2531D01*
X14641Y2531D02*
X31500Y2531D01*
X0500Y2580D02*
X0843Y2580D01*
X5157Y2580D02*
X13724Y2580D01*
X14676Y2580D02*
X31500Y2580D01*
X0500Y2630D02*
X0837Y2630D01*
X5163Y2630D02*
X13701Y2630D01*
X14699Y2630D02*
X31500Y2630D01*
X0500Y2679D02*
X0832Y2679D01*
X5168Y2679D02*
X13682Y2679D01*
X14718Y2679D02*
X31500Y2679D01*
X0500Y2729D02*
X0826Y2729D01*
X5174Y2729D02*
X13666Y2729D01*
X14734Y2729D02*
X31500Y2729D01*
X0500Y2778D02*
X0821Y2778D01*
X5179Y2778D02*
X13660Y2778D01*
X14740Y2778D02*
X31500Y2778D01*
X0500Y2828D02*
X0815Y2828D01*
X5185Y2828D02*
X13654Y2828D01*
X14746Y2828D02*
X31500Y2828D01*
X0500Y2877D02*
X0809Y2877D01*
X5191Y2877D02*
X13655Y2877D01*
X14745Y2877D02*
X31500Y2877D01*
X0500Y2927D02*
X1051Y2927D01*
X4949Y2927D02*
X13661Y2927D01*
X14739Y2927D02*
X31500Y2927D01*
X0500Y2977D02*
X1051Y2977D01*
X4949Y2977D02*
X13667Y2977D01*
X14733Y2977D02*
X31500Y2977D01*
X0500Y3026D02*
X1051Y3026D01*
X4949Y3026D02*
X13684Y3026D01*
X14716Y3026D02*
X31500Y3026D01*
X0500Y3076D02*
X1051Y3076D01*
X4949Y3076D02*
X13703Y3076D01*
X14697Y3076D02*
X31500Y3076D01*
X0500Y3125D02*
X0810Y3125D01*
X5190Y3125D02*
X13728Y3125D01*
X14672Y3125D02*
X31500Y3125D01*
X0500Y3175D02*
X0815Y3175D01*
X5185Y3175D02*
X13762Y3175D01*
X14638Y3175D02*
X24625Y3175D01*
X24846Y3175D02*
X31500Y3175D01*
X0500Y3224D02*
X0821Y3224D01*
X5179Y3224D02*
X13801Y3224D01*
X14599Y3224D02*
X24486Y3224D01*
X24985Y3224D02*
X31500Y3224D01*
X0500Y3274D02*
X0826Y3274D01*
X5174Y3274D02*
X13857Y3274D01*
X14543Y3274D02*
X24405Y3274D01*
X25066Y3274D02*
X31500Y3274D01*
X0500Y3323D02*
X0832Y3323D01*
X5168Y3323D02*
X13919Y3323D01*
X14481Y3323D02*
X24349Y3323D01*
X25122Y3323D02*
X31500Y3323D01*
X0500Y3373D02*
X0838Y3373D01*
X5162Y3373D02*
X13919Y3373D01*
X14481Y3373D02*
X24305Y3373D01*
X25165Y3373D02*
X31500Y3373D01*
X0500Y3422D02*
X0843Y3422D01*
X5157Y3422D02*
X13919Y3422D01*
X14481Y3422D02*
X24271Y3422D01*
X25200Y3422D02*
X31500Y3422D01*
X0500Y3472D02*
X0849Y3472D01*
X5151Y3472D02*
X13919Y3472D01*
X14481Y3472D02*
X23852Y3472D01*
X25228Y3472D02*
X31500Y3472D01*
X0500Y3521D02*
X0862Y3521D01*
X5138Y3521D02*
X13919Y3521D01*
X14481Y3521D02*
X23793Y3521D01*
X25247Y3521D02*
X31500Y3521D01*
X0500Y3571D02*
X0879Y3571D01*
X5121Y3571D02*
X13919Y3571D01*
X14481Y3571D02*
X23744Y3571D01*
X25266Y3571D02*
X31500Y3571D01*
X0500Y3620D02*
X0896Y3620D01*
X5104Y3620D02*
X13919Y3620D01*
X14481Y3620D02*
X23694Y3620D01*
X25273Y3620D02*
X31500Y3620D01*
X0500Y3670D02*
X0914Y3670D01*
X5086Y3670D02*
X13919Y3670D01*
X14481Y3670D02*
X23645Y3670D01*
X25279Y3670D02*
X31500Y3670D01*
X0500Y3719D02*
X0931Y3719D01*
X5069Y3719D02*
X13919Y3719D01*
X14481Y3719D02*
X23595Y3719D01*
X25283Y3719D02*
X31500Y3719D01*
X0500Y3769D02*
X0948Y3769D01*
X5052Y3769D02*
X13919Y3769D01*
X14481Y3769D02*
X23546Y3769D01*
X25277Y3769D02*
X31500Y3769D01*
X0500Y3819D02*
X0966Y3819D01*
X5034Y3819D02*
X13919Y3819D01*
X14481Y3819D02*
X23496Y3819D01*
X25271Y3819D02*
X31500Y3819D01*
X0500Y3868D02*
X0983Y3868D01*
X5017Y3868D02*
X13919Y3868D01*
X14481Y3868D02*
X23446Y3868D01*
X25257Y3868D02*
X31500Y3868D01*
X0500Y3918D02*
X1000Y3918D01*
X5000Y3918D02*
X13919Y3918D01*
X14481Y3918D02*
X23397Y3918D01*
X25238Y3918D02*
X31500Y3918D01*
X0500Y3967D02*
X1021Y3967D01*
X4979Y3967D02*
X13919Y3967D01*
X14481Y3967D02*
X23347Y3967D01*
X25219Y3967D02*
X31500Y3967D01*
X0500Y4017D02*
X1052Y4017D01*
X4948Y4017D02*
X13919Y4017D01*
X14481Y4017D02*
X23298Y4017D01*
X24092Y4017D02*
X24286Y4017D01*
X25184Y4017D02*
X31500Y4017D01*
X0500Y4066D02*
X1083Y4066D01*
X4917Y4066D02*
X13919Y4066D01*
X14481Y4066D02*
X23248Y4066D01*
X24042Y4066D02*
X24321Y4066D01*
X25150Y4066D02*
X31500Y4066D01*
X0500Y4116D02*
X1114Y4116D01*
X4886Y4116D02*
X13919Y4116D01*
X14481Y4116D02*
X23199Y4116D01*
X23993Y4116D02*
X24374Y4116D01*
X25097Y4116D02*
X31500Y4116D01*
X0500Y4165D02*
X1145Y4165D01*
X4855Y4165D02*
X13919Y4165D01*
X14481Y4165D02*
X23149Y4165D01*
X23943Y4165D02*
X24434Y4165D01*
X25037Y4165D02*
X31500Y4165D01*
X0500Y4215D02*
X1176Y4215D01*
X4824Y4215D02*
X13919Y4215D01*
X14481Y4215D02*
X23100Y4215D01*
X23894Y4215D02*
X24528Y4215D01*
X24942Y4215D02*
X31500Y4215D01*
X0500Y4264D02*
X1207Y4264D01*
X4793Y4264D02*
X13919Y4264D01*
X14481Y4264D02*
X23050Y4264D01*
X23844Y4264D02*
X31500Y4264D01*
X0500Y4314D02*
X1238Y4314D01*
X4762Y4314D02*
X13919Y4314D01*
X14481Y4314D02*
X23001Y4314D01*
X23794Y4314D02*
X31500Y4314D01*
X0500Y4363D02*
X1270Y4363D01*
X4730Y4363D02*
X13919Y4363D01*
X14481Y4363D02*
X22951Y4363D01*
X23745Y4363D02*
X31500Y4363D01*
X0500Y4413D02*
X1315Y4413D01*
X4685Y4413D02*
X13872Y4413D01*
X14528Y4413D02*
X22902Y4413D01*
X23695Y4413D02*
X31500Y4413D01*
X0500Y4462D02*
X1364Y4462D01*
X4636Y4462D02*
X13816Y4462D01*
X14584Y4462D02*
X22852Y4462D01*
X23646Y4462D02*
X31500Y4462D01*
X0500Y4512D02*
X1414Y4512D01*
X4586Y4512D02*
X13772Y4512D01*
X14628Y4512D02*
X22803Y4512D01*
X23596Y4512D02*
X31500Y4512D01*
X0500Y4561D02*
X1463Y4561D01*
X4537Y4561D02*
X13737Y4561D01*
X14663Y4561D02*
X22753Y4561D01*
X23547Y4561D02*
X31500Y4561D01*
X0500Y4611D02*
X1513Y4611D01*
X4487Y4611D02*
X13708Y4611D01*
X14692Y4611D02*
X22704Y4611D01*
X23497Y4611D02*
X31500Y4611D01*
X0500Y4661D02*
X1563Y4661D01*
X4437Y4661D02*
X13689Y4661D01*
X14711Y4661D02*
X22654Y4661D01*
X23448Y4661D02*
X31500Y4661D01*
X0500Y4710D02*
X1612Y4710D01*
X4388Y4710D02*
X13671Y4710D01*
X14729Y4710D02*
X22604Y4710D01*
X23398Y4710D02*
X31500Y4710D01*
X0500Y4760D02*
X1683Y4760D01*
X4317Y4760D02*
X13662Y4760D01*
X14738Y4760D02*
X22555Y4760D01*
X23349Y4760D02*
X31500Y4760D01*
X0500Y4809D02*
X1762Y4809D01*
X4238Y4809D02*
X13656Y4809D01*
X14744Y4809D02*
X22505Y4809D01*
X23299Y4809D02*
X31500Y4809D01*
X0500Y4859D02*
X1841Y4859D01*
X4159Y4859D02*
X13652Y4859D01*
X14748Y4859D02*
X22456Y4859D01*
X23250Y4859D02*
X31500Y4859D01*
X0500Y4908D02*
X1919Y4908D01*
X4081Y4908D02*
X13658Y4908D01*
X14742Y4908D02*
X22406Y4908D01*
X23200Y4908D02*
X31500Y4908D01*
X0500Y4958D02*
X1998Y4958D01*
X2899Y4958D02*
X3101Y4958D01*
X4002Y4958D02*
X13664Y4958D01*
X14736Y4958D02*
X22357Y4958D01*
X23151Y4958D02*
X31500Y4958D01*
X0500Y5007D02*
X2104Y5007D01*
X2899Y5007D02*
X3101Y5007D01*
X3896Y5007D02*
X13677Y5007D01*
X14723Y5007D02*
X22307Y5007D01*
X23101Y5007D02*
X31500Y5007D01*
X0500Y5057D02*
X2245Y5057D01*
X2899Y5057D02*
X3101Y5057D01*
X3755Y5057D02*
X13696Y5057D01*
X14704Y5057D02*
X22258Y5057D01*
X23052Y5057D02*
X31500Y5057D01*
X0500Y5106D02*
X2387Y5106D01*
X2899Y5106D02*
X3101Y5106D01*
X3613Y5106D02*
X13715Y5106D01*
X14685Y5106D02*
X22208Y5106D01*
X23002Y5106D02*
X31500Y5106D01*
X0500Y5156D02*
X2568Y5156D01*
X2899Y5156D02*
X3101Y5156D01*
X3432Y5156D02*
X13749Y5156D01*
X14651Y5156D02*
X22159Y5156D01*
X22952Y5156D02*
X31500Y5156D01*
X0500Y5205D02*
X13784Y5205D01*
X14616Y5205D02*
X22109Y5205D01*
X22903Y5205D02*
X31500Y5205D01*
X0500Y5255D02*
X13836Y5255D01*
X14564Y5255D02*
X22060Y5255D01*
X22853Y5255D02*
X31500Y5255D01*
X0500Y5304D02*
X13894Y5304D01*
X14506Y5304D02*
X22010Y5304D01*
X22804Y5304D02*
X31500Y5304D01*
X0500Y5354D02*
X13988Y5354D01*
X14412Y5354D02*
X21961Y5354D01*
X22754Y5354D02*
X31500Y5354D01*
X0500Y5403D02*
X21911Y5403D01*
X22705Y5403D02*
X31500Y5403D01*
X0500Y5453D02*
X21861Y5453D01*
X22655Y5453D02*
X31500Y5453D01*
X0500Y5503D02*
X21812Y5503D01*
X22606Y5503D02*
X31500Y5503D01*
X0500Y5552D02*
X21762Y5552D01*
X22556Y5552D02*
X31500Y5552D01*
X0500Y5602D02*
X21713Y5602D01*
X22507Y5602D02*
X31500Y5602D01*
X0500Y5651D02*
X21663Y5651D01*
X22457Y5651D02*
X31500Y5651D01*
X0500Y5701D02*
X21614Y5701D01*
X22408Y5701D02*
X31500Y5701D01*
X0500Y5750D02*
X21564Y5750D01*
X22358Y5750D02*
X31500Y5750D01*
X0500Y5800D02*
X21515Y5800D01*
X22309Y5800D02*
X31500Y5800D01*
X0500Y5849D02*
X21465Y5849D01*
X22259Y5849D02*
X31500Y5849D01*
X0500Y5899D02*
X21416Y5899D01*
X22210Y5899D02*
X31500Y5899D01*
X0500Y5948D02*
X21366Y5948D01*
X22160Y5948D02*
X31500Y5948D01*
X0500Y5998D02*
X21317Y5998D01*
X22110Y5998D02*
X31500Y5998D01*
X0500Y6047D02*
X21267Y6047D01*
X22061Y6047D02*
X31500Y6047D01*
X0500Y6097D02*
X21218Y6097D01*
X22011Y6097D02*
X31500Y6097D01*
X0500Y6146D02*
X21168Y6146D01*
X21962Y6146D02*
X31500Y6146D01*
X0500Y6196D02*
X21119Y6196D01*
X21912Y6196D02*
X31500Y6196D01*
X0500Y6245D02*
X20757Y6245D01*
X21863Y6245D02*
X31500Y6245D01*
X0500Y6295D02*
X20662Y6295D01*
X21813Y6295D02*
X31500Y6295D01*
X0500Y6345D02*
X20599Y6345D01*
X21764Y6345D02*
X31500Y6345D01*
X0500Y6394D02*
X20543Y6394D01*
X21714Y6394D02*
X31500Y6394D01*
X0500Y6444D02*
X20509Y6444D01*
X21665Y6444D02*
X31500Y6444D01*
X0500Y6493D02*
X20475Y6493D01*
X21615Y6493D02*
X31500Y6493D01*
X0500Y6543D02*
X20454Y6543D01*
X21566Y6543D02*
X31500Y6543D01*
X0500Y6592D02*
X20435Y6592D01*
X21516Y6592D02*
X31500Y6592D01*
X0500Y6642D02*
X20420Y6642D01*
X21490Y6642D02*
X31500Y6642D01*
X0500Y6691D02*
X20414Y6691D01*
X21496Y6691D02*
X31500Y6691D01*
X0500Y6741D02*
X20408Y6741D01*
X21502Y6741D02*
X31500Y6741D01*
X0500Y6790D02*
X20410Y6790D01*
X21500Y6790D02*
X31500Y6790D01*
X0500Y6840D02*
X20417Y6840D01*
X21493Y6840D02*
X31500Y6840D01*
X0500Y6889D02*
X20423Y6889D01*
X21487Y6889D02*
X31500Y6889D01*
X0500Y6939D02*
X20442Y6939D01*
X21468Y6939D02*
X31500Y6939D01*
X0500Y6988D02*
X20461Y6988D01*
X21449Y6988D02*
X31500Y6988D01*
X0500Y7038D02*
X20488Y7038D01*
X21422Y7038D02*
X31500Y7038D01*
X0500Y7087D02*
X20522Y7087D01*
X21388Y7087D02*
X31500Y7087D01*
X0500Y7137D02*
X20563Y7137D01*
X21347Y7137D02*
X31500Y7137D01*
X0500Y7187D02*
X20619Y7187D01*
X21291Y7187D02*
X31500Y7187D01*
X0500Y7236D02*
X20697Y7236D01*
X21213Y7236D02*
X31500Y7236D01*
X0500Y7286D02*
X20826Y7286D01*
X21084Y7286D02*
X31500Y7286D01*
X0500Y7335D02*
X31500Y7335D01*
X0500Y7385D02*
X31500Y7385D01*
X0500Y7434D02*
X31500Y7434D01*
X0500Y7484D02*
X2020Y7484D01*
X2380Y7484D02*
X3020Y7484D01*
X3380Y7484D02*
X4020Y7484D01*
X4380Y7484D02*
X31500Y7484D01*
X0500Y7533D02*
X1918Y7533D01*
X2482Y7533D02*
X2918Y7533D01*
X3482Y7533D02*
X3918Y7533D01*
X4482Y7533D02*
X31500Y7533D01*
X0500Y7583D02*
X1850Y7583D01*
X2550Y7583D02*
X2850Y7583D01*
X3550Y7583D02*
X3850Y7583D01*
X4550Y7583D02*
X31500Y7583D01*
X0500Y7632D02*
X1794Y7632D01*
X2606Y7632D02*
X2794Y7632D01*
X3606Y7632D02*
X3794Y7632D01*
X4606Y7632D02*
X31500Y7632D01*
X0500Y7682D02*
X1758Y7682D01*
X2642Y7682D02*
X2758Y7682D01*
X3642Y7682D02*
X3758Y7682D01*
X4642Y7682D02*
X31500Y7682D01*
X0500Y7731D02*
X1724Y7731D01*
X2676Y7731D02*
X2724Y7731D01*
X3676Y7731D02*
X3724Y7731D01*
X4676Y7731D02*
X31500Y7731D01*
X0500Y7781D02*
X1701Y7781D01*
X4699Y7781D02*
X31500Y7781D01*
X0500Y7830D02*
X1682Y7830D01*
X4718Y7830D02*
X31500Y7830D01*
X0500Y7880D02*
X1666Y7880D01*
X4734Y7880D02*
X31500Y7880D01*
X0500Y7929D02*
X1660Y7929D01*
X4740Y7929D02*
X31500Y7929D01*
X0500Y7979D02*
X1654Y7979D01*
X4746Y7979D02*
X31500Y7979D01*
X0500Y8029D02*
X1655Y8029D01*
X4745Y8029D02*
X31500Y8029D01*
X0500Y8078D02*
X1661Y8078D01*
X4739Y8078D02*
X31500Y8078D01*
X0500Y8128D02*
X1667Y8128D01*
X4733Y8128D02*
X31500Y8128D01*
X0500Y8177D02*
X1685Y8177D01*
X4715Y8177D02*
X31500Y8177D01*
X0500Y8227D02*
X1704Y8227D01*
X4696Y8227D02*
X31500Y8227D01*
X0500Y8276D02*
X1729Y8276D01*
X4671Y8276D02*
X31500Y8276D01*
X0500Y8326D02*
X1742Y8326D01*
X4658Y8326D02*
X31500Y8326D01*
X0500Y8375D02*
X1742Y8375D01*
X4658Y8375D02*
X31500Y8375D01*
X0500Y8425D02*
X1742Y8425D01*
X4658Y8425D02*
X31500Y8425D01*
X0500Y8474D02*
X1742Y8474D01*
X4658Y8474D02*
X31500Y8474D01*
X0500Y8524D02*
X1742Y8524D01*
X4658Y8524D02*
X31500Y8524D01*
X6051Y8573D02*
X25949Y8573D01*
X6109Y8623D02*
X25891Y8623D01*
X6138Y8672D02*
X25862Y8672D01*
X6152Y8722D02*
X25848Y8722D01*
X6154Y8772D02*
X25846Y8772D01*
X6154Y8821D02*
X25846Y8821D01*
X6154Y8871D02*
X25846Y8871D01*
X6154Y8920D02*
X25846Y8920D01*
X6154Y8970D02*
X25846Y8970D01*
X6154Y9019D02*
X25846Y9019D01*
X6154Y9069D02*
X25846Y9069D01*
X6154Y9118D02*
X25846Y9118D01*
X6154Y9168D02*
X25846Y9168D01*
X6154Y9217D02*
X25846Y9217D01*
X6154Y9267D02*
X25846Y9267D01*
X6154Y9316D02*
X13911Y9316D01*
X18089Y9316D02*
X25846Y9316D01*
X6154Y9366D02*
X13847Y9366D01*
X18153Y9366D02*
X25846Y9366D01*
X6154Y9415D02*
X13814Y9415D01*
X18186Y9415D02*
X25846Y9415D01*
X6154Y9465D02*
X13799Y9465D01*
X18201Y9465D02*
X25846Y9465D01*
X6154Y9514D02*
X13796Y9514D01*
X18204Y9514D02*
X25846Y9514D01*
X6154Y9564D02*
X13796Y9564D01*
X18204Y9564D02*
X25846Y9564D01*
X6154Y9614D02*
X13796Y9614D01*
X18204Y9614D02*
X25846Y9614D01*
X6154Y9663D02*
X13796Y9663D01*
X18204Y9663D02*
X25846Y9663D01*
X6154Y9713D02*
X13796Y9713D01*
X18204Y9713D02*
X25846Y9713D01*
X6154Y9762D02*
X13796Y9762D01*
X18204Y9762D02*
X25846Y9762D01*
X6154Y9812D02*
X13796Y9812D01*
X18204Y9812D02*
X25846Y9812D01*
X6154Y9861D02*
X13796Y9861D01*
X18204Y9861D02*
X25846Y9861D01*
X6154Y9911D02*
X13796Y9911D01*
X18204Y9911D02*
X25846Y9911D01*
X6154Y9960D02*
X13796Y9960D01*
X18204Y9960D02*
X25846Y9960D01*
X6154Y10010D02*
X13796Y10010D01*
X18204Y10010D02*
X25846Y10010D01*
X6154Y10059D02*
X13796Y10059D01*
X18204Y10059D02*
X25846Y10059D01*
X6154Y10109D02*
X13796Y10109D01*
X18204Y10109D02*
X25846Y10109D01*
X6154Y10158D02*
X13796Y10158D01*
X18204Y10158D02*
X25846Y10158D01*
X6154Y10208D02*
X13796Y10208D01*
X18204Y10208D02*
X25846Y10208D01*
X6154Y10257D02*
X13796Y10257D01*
X18204Y10257D02*
X25846Y10257D01*
X6154Y10307D02*
X13796Y10307D01*
X18204Y10307D02*
X25846Y10307D01*
X6154Y10356D02*
X13796Y10356D01*
X18204Y10356D02*
X25846Y10356D01*
X6154Y10406D02*
X13796Y10406D01*
X18204Y10406D02*
X25846Y10406D01*
X6154Y10456D02*
X13796Y10456D01*
X18204Y10456D02*
X25846Y10456D01*
X6154Y10505D02*
X13796Y10505D01*
X18204Y10505D02*
X25846Y10505D01*
X6154Y10555D02*
X13796Y10555D01*
X18204Y10555D02*
X25846Y10555D01*
X6154Y10604D02*
X13796Y10604D01*
X18204Y10604D02*
X25846Y10604D01*
X6154Y10654D02*
X13796Y10654D01*
X18204Y10654D02*
X25846Y10654D01*
X6154Y10703D02*
X13796Y10703D01*
X18204Y10703D02*
X25846Y10703D01*
X6154Y10753D02*
X13796Y10753D01*
X18204Y10753D02*
X25846Y10753D01*
X6154Y10802D02*
X13796Y10802D01*
X18204Y10802D02*
X25846Y10802D01*
X6154Y10852D02*
X13796Y10852D01*
X18204Y10852D02*
X25846Y10852D01*
X6154Y10901D02*
X13796Y10901D01*
X18204Y10901D02*
X25846Y10901D01*
X6154Y10951D02*
X13796Y10951D01*
X18204Y10951D02*
X25846Y10951D01*
X6154Y11000D02*
X13796Y11000D01*
X18204Y11000D02*
X25846Y11000D01*
X6154Y11050D02*
X13796Y11050D01*
X18204Y11050D02*
X25846Y11050D01*
X6154Y11099D02*
X13796Y11099D01*
X18204Y11099D02*
X25846Y11099D01*
X6154Y11149D02*
X13796Y11149D01*
X18204Y11149D02*
X25846Y11149D01*
X6154Y11198D02*
X13796Y11198D01*
X18204Y11198D02*
X25846Y11198D01*
X6154Y11248D02*
X13796Y11248D01*
X18204Y11248D02*
X25846Y11248D01*
X6154Y11298D02*
X13796Y11298D01*
X18204Y11298D02*
X25846Y11298D01*
X6154Y11347D02*
X13796Y11347D01*
X18204Y11347D02*
X25846Y11347D01*
X6154Y11397D02*
X13796Y11397D01*
X18204Y11397D02*
X25846Y11397D01*
X6154Y11446D02*
X14051Y11446D01*
X17949Y11446D02*
X25846Y11446D01*
X6154Y11496D02*
X14051Y11496D01*
X17949Y11496D02*
X25846Y11496D01*
X6154Y11545D02*
X14051Y11545D01*
X17949Y11545D02*
X25846Y11545D01*
X6154Y11595D02*
X14051Y11595D01*
X17949Y11595D02*
X25846Y11595D01*
X6154Y11644D02*
X13796Y11644D01*
X18204Y11644D02*
X25846Y11644D01*
X6154Y11694D02*
X13796Y11694D01*
X18204Y11694D02*
X25846Y11694D01*
X6154Y11743D02*
X13796Y11743D01*
X18204Y11743D02*
X25846Y11743D01*
X6154Y11793D02*
X13796Y11793D01*
X18204Y11793D02*
X25846Y11793D01*
X6154Y11842D02*
X13796Y11842D01*
X18204Y11842D02*
X25846Y11842D01*
X6154Y11892D02*
X13796Y11892D01*
X18204Y11892D02*
X25846Y11892D01*
X6154Y11941D02*
X13796Y11941D01*
X18204Y11941D02*
X25846Y11941D01*
X6154Y11991D02*
X13796Y11991D01*
X18204Y11991D02*
X25846Y11991D01*
X6154Y12040D02*
X13796Y12040D01*
X18204Y12040D02*
X25846Y12040D01*
X6154Y12090D02*
X13796Y12090D01*
X18204Y12090D02*
X25846Y12090D01*
X6154Y12140D02*
X13796Y12140D01*
X18204Y12140D02*
X25846Y12140D01*
X6154Y12189D02*
X13796Y12189D01*
X18204Y12189D02*
X25846Y12189D01*
X6154Y12239D02*
X13796Y12239D01*
X18204Y12239D02*
X25846Y12239D01*
X6154Y12288D02*
X13796Y12288D01*
X18204Y12288D02*
X25846Y12288D01*
X6154Y12338D02*
X13796Y12338D01*
X18204Y12338D02*
X25846Y12338D01*
X6154Y12387D02*
X13796Y12387D01*
X18204Y12387D02*
X25846Y12387D01*
X6154Y12437D02*
X13796Y12437D01*
X18204Y12437D02*
X25846Y12437D01*
X6154Y12486D02*
X13796Y12486D01*
X18204Y12486D02*
X25846Y12486D01*
X6154Y12536D02*
X13796Y12536D01*
X18204Y12536D02*
X25846Y12536D01*
X6154Y12585D02*
X13796Y12585D01*
X18204Y12585D02*
X25846Y12585D01*
X6154Y12635D02*
X13796Y12635D01*
X18204Y12635D02*
X25846Y12635D01*
X6154Y12684D02*
X13796Y12684D01*
X18204Y12684D02*
X25846Y12684D01*
X6154Y12734D02*
X13796Y12734D01*
X18204Y12734D02*
X25846Y12734D01*
X6154Y12783D02*
X13796Y12783D01*
X18204Y12783D02*
X25846Y12783D01*
X6154Y12833D02*
X13796Y12833D01*
X18204Y12833D02*
X25846Y12833D01*
X6154Y12883D02*
X13796Y12883D01*
X18204Y12883D02*
X25846Y12883D01*
X6154Y12932D02*
X13796Y12932D01*
X18204Y12932D02*
X25846Y12932D01*
X6154Y12982D02*
X13796Y12982D01*
X18204Y12982D02*
X25846Y12982D01*
X6154Y13031D02*
X13796Y13031D01*
X18204Y13031D02*
X25846Y13031D01*
X6154Y13081D02*
X13796Y13081D01*
X18204Y13081D02*
X25846Y13081D01*
X6154Y13130D02*
X13796Y13130D01*
X18204Y13130D02*
X25846Y13130D01*
X6154Y13180D02*
X13796Y13180D01*
X18204Y13180D02*
X25846Y13180D01*
X6154Y13229D02*
X13796Y13229D01*
X18204Y13229D02*
X25846Y13229D01*
X6154Y13279D02*
X13796Y13279D01*
X18204Y13279D02*
X25846Y13279D01*
X6154Y13328D02*
X13796Y13328D01*
X18204Y13328D02*
X25846Y13328D01*
X6154Y13378D02*
X13796Y13378D01*
X18204Y13378D02*
X25846Y13378D01*
X6154Y13427D02*
X13796Y13427D01*
X18204Y13427D02*
X25846Y13427D01*
X6154Y13477D02*
X13796Y13477D01*
X15899Y13477D02*
X16101Y13477D01*
X18204Y13477D02*
X25846Y13477D01*
X6154Y13526D02*
X13798Y13526D01*
X15899Y13526D02*
X16101Y13526D01*
X18202Y13526D02*
X25846Y13526D01*
X6154Y13576D02*
X13811Y13576D01*
X15899Y13576D02*
X16101Y13576D01*
X18189Y13576D02*
X25846Y13576D01*
X6154Y13625D02*
X13839Y13625D01*
X15899Y13625D02*
X16101Y13625D01*
X18161Y13625D02*
X25846Y13625D01*
X6154Y13675D02*
X13895Y13675D01*
X15899Y13675D02*
X16101Y13675D01*
X18105Y13675D02*
X25846Y13675D01*
X6154Y13725D02*
X25846Y13725D01*
X6154Y13774D02*
X25846Y13774D01*
X6154Y13824D02*
X25846Y13824D01*
X6154Y13873D02*
X25846Y13873D01*
X6154Y13923D02*
X25846Y13923D01*
X6154Y13972D02*
X25846Y13972D01*
X6154Y14022D02*
X25846Y14022D01*
X6154Y14071D02*
X25846Y14071D01*
X6154Y14121D02*
X25846Y14121D01*
X6154Y14170D02*
X25846Y14170D01*
X6154Y14220D02*
X25846Y14220D01*
X6153Y14269D02*
X25847Y14269D01*
X6142Y14319D02*
X25858Y14319D01*
X6116Y14368D02*
X25884Y14368D01*
X6066Y14418D02*
X25934Y14418D01*
X0500Y14467D02*
X1742Y14467D01*
X4658Y14467D02*
X27342Y14467D01*
X30258Y14467D02*
X31500Y14467D01*
X0500Y14517D02*
X1742Y14517D01*
X4658Y14517D02*
X27342Y14517D01*
X30258Y14517D02*
X31500Y14517D01*
X0500Y14567D02*
X1742Y14567D01*
X4658Y14567D02*
X27342Y14567D01*
X30258Y14567D02*
X31500Y14567D01*
X0500Y14616D02*
X1742Y14616D01*
X4658Y14616D02*
X27342Y14616D01*
X30258Y14616D02*
X31500Y14616D01*
X0500Y14666D02*
X1742Y14666D01*
X4658Y14666D02*
X27342Y14666D01*
X30258Y14666D02*
X31500Y14666D01*
X0500Y14715D02*
X1735Y14715D01*
X4665Y14715D02*
X27335Y14715D01*
X30265Y14715D02*
X31500Y14715D01*
X0500Y14765D02*
X1707Y14765D01*
X4693Y14765D02*
X27307Y14765D01*
X30293Y14765D02*
X31500Y14765D01*
X0500Y14814D02*
X1688Y14814D01*
X4712Y14814D02*
X27288Y14814D01*
X30312Y14814D02*
X31500Y14814D01*
X0500Y14864D02*
X1669Y14864D01*
X4731Y14864D02*
X27269Y14864D01*
X30331Y14864D02*
X31500Y14864D01*
X0500Y14913D02*
X1662Y14913D01*
X4738Y14913D02*
X27262Y14913D01*
X30338Y14913D02*
X31500Y14913D01*
X0500Y14963D02*
X1656Y14963D01*
X4744Y14963D02*
X27256Y14963D01*
X30344Y14963D02*
X31500Y14963D01*
X0500Y15012D02*
X1653Y15012D01*
X4747Y15012D02*
X27253Y15012D01*
X30347Y15012D02*
X31500Y15012D01*
X0500Y15062D02*
X1659Y15062D01*
X4741Y15062D02*
X27259Y15062D01*
X30341Y15062D02*
X31500Y15062D01*
X0500Y15111D02*
X1665Y15111D01*
X4735Y15111D02*
X27265Y15111D01*
X30335Y15111D02*
X31500Y15111D01*
X0500Y15161D02*
X1679Y15161D01*
X4721Y15161D02*
X27279Y15161D01*
X30321Y15161D02*
X31500Y15161D01*
X0500Y15210D02*
X1698Y15210D01*
X4702Y15210D02*
X27298Y15210D01*
X30302Y15210D02*
X31500Y15210D01*
X0500Y15260D02*
X1718Y15260D01*
X2682Y15260D02*
X2718Y15260D01*
X3682Y15260D02*
X3718Y15260D01*
X4682Y15260D02*
X27318Y15260D01*
X28282Y15260D02*
X28318Y15260D01*
X29282Y15260D02*
X29318Y15260D01*
X30282Y15260D02*
X31500Y15260D01*
X0500Y15309D02*
X1752Y15309D01*
X2648Y15309D02*
X2752Y15309D01*
X3648Y15309D02*
X3752Y15309D01*
X4648Y15309D02*
X27352Y15309D01*
X28248Y15309D02*
X28352Y15309D01*
X29248Y15309D02*
X29352Y15309D01*
X30248Y15309D02*
X31500Y15309D01*
X0500Y15359D02*
X1786Y15359D01*
X2614Y15359D02*
X2786Y15359D01*
X3614Y15359D02*
X3786Y15359D01*
X4614Y15359D02*
X27386Y15359D01*
X28214Y15359D02*
X28386Y15359D01*
X29214Y15359D02*
X29386Y15359D01*
X30214Y15359D02*
X31500Y15359D01*
X0500Y15409D02*
X1840Y15409D01*
X2560Y15409D02*
X2840Y15409D01*
X3560Y15409D02*
X3840Y15409D01*
X4560Y15409D02*
X27440Y15409D01*
X28160Y15409D02*
X28440Y15409D01*
X29160Y15409D02*
X29440Y15409D01*
X30160Y15409D02*
X31500Y15409D01*
X0500Y15458D02*
X1901Y15458D01*
X2499Y15458D02*
X2901Y15458D01*
X3499Y15458D02*
X3901Y15458D01*
X4499Y15458D02*
X27501Y15458D01*
X28099Y15458D02*
X28501Y15458D01*
X29099Y15458D02*
X29501Y15458D01*
X30099Y15458D02*
X31500Y15458D01*
X0500Y15508D02*
X1996Y15508D01*
X2404Y15508D02*
X2996Y15508D01*
X3404Y15508D02*
X3996Y15508D01*
X4404Y15508D02*
X27596Y15508D01*
X28004Y15508D02*
X28596Y15508D01*
X29004Y15508D02*
X29596Y15508D01*
X30004Y15508D02*
X31500Y15508D01*
X0500Y15557D02*
X31500Y15557D01*
X0500Y15607D02*
X31500Y15607D01*
X0500Y15656D02*
X31500Y15656D01*
X0500Y15706D02*
X31500Y15706D01*
X0500Y15755D02*
X31500Y15755D01*
X0500Y15805D02*
X31500Y15805D01*
X0500Y15854D02*
X31500Y15854D01*
X0500Y15904D02*
X31500Y15904D01*
X0500Y15953D02*
X31500Y15953D01*
X0500Y16003D02*
X31500Y16003D01*
X0500Y16052D02*
X31500Y16052D01*
X0500Y16102D02*
X31500Y16102D01*
X0500Y16151D02*
X31500Y16151D01*
X0500Y16201D02*
X31500Y16201D01*
X0500Y16251D02*
X31500Y16251D01*
X0500Y16300D02*
X31500Y16300D01*
X0500Y16350D02*
X31500Y16350D01*
X0500Y16399D02*
X31500Y16399D01*
X0500Y16449D02*
X31500Y16449D01*
X0500Y16498D02*
X31500Y16498D01*
X0500Y16548D02*
X31500Y16548D01*
X0500Y16597D02*
X31500Y16597D01*
X0500Y16647D02*
X31500Y16647D01*
X0500Y16696D02*
X31500Y16696D01*
X0500Y16746D02*
X31500Y16746D01*
X0500Y16795D02*
X31500Y16795D01*
X0500Y16845D02*
X31500Y16845D01*
X0500Y16894D02*
X31500Y16894D01*
X0500Y16944D02*
X31500Y16944D01*
X0500Y16993D02*
X31500Y16993D01*
X0500Y17043D02*
X31500Y17043D01*
X0500Y17093D02*
X31500Y17093D01*
X0500Y17142D02*
X31500Y17142D01*
X0500Y17192D02*
X31500Y17192D01*
X0500Y17241D02*
X31500Y17241D01*
X0500Y17291D02*
X31500Y17291D01*
X0500Y17340D02*
X31500Y17340D01*
X0500Y17390D02*
X31500Y17390D01*
X0500Y17439D02*
X31500Y17439D01*
X0500Y17489D02*
X31500Y17489D01*
X0500Y17538D02*
X31500Y17538D01*
X0500Y17588D02*
X31500Y17588D01*
X0500Y17637D02*
X31500Y17637D01*
X0500Y17687D02*
X31500Y17687D01*
X0500Y17736D02*
X31500Y17736D01*
X0500Y17786D02*
X31500Y17786D01*
X0500Y17835D02*
X2645Y17835D01*
X2899Y17835D02*
X3101Y17835D01*
X3355Y17835D02*
X28645Y17835D01*
X28899Y17835D02*
X29101Y17835D01*
X29355Y17835D02*
X31500Y17835D01*
X0500Y17885D02*
X2412Y17885D01*
X2899Y17885D02*
X3101Y17885D01*
X3588Y17885D02*
X28412Y17885D01*
X28899Y17885D02*
X29101Y17885D01*
X29588Y17885D02*
X31500Y17885D01*
X0500Y17935D02*
X2270Y17935D01*
X2899Y17935D02*
X3101Y17935D01*
X3730Y17935D02*
X28270Y17935D01*
X28899Y17935D02*
X29101Y17935D01*
X29730Y17935D02*
X31500Y17935D01*
X0500Y17984D02*
X2129Y17984D01*
X2899Y17984D02*
X3101Y17984D01*
X3871Y17984D02*
X28129Y17984D01*
X28899Y17984D02*
X29101Y17984D01*
X29871Y17984D02*
X31500Y17984D01*
X0500Y18034D02*
X2012Y18034D01*
X2899Y18034D02*
X3101Y18034D01*
X3988Y18034D02*
X28012Y18034D01*
X28899Y18034D02*
X29101Y18034D01*
X29988Y18034D02*
X31500Y18034D01*
X0500Y18083D02*
X1933Y18083D01*
X4067Y18083D02*
X27933Y18083D01*
X30067Y18083D02*
X31500Y18083D01*
X0500Y18133D02*
X1854Y18133D01*
X4146Y18133D02*
X27854Y18133D01*
X30146Y18133D02*
X31500Y18133D01*
X0500Y18182D02*
X1776Y18182D01*
X4224Y18182D02*
X27776Y18182D01*
X30224Y18182D02*
X31500Y18182D01*
X0500Y18232D02*
X1697Y18232D01*
X4303Y18232D02*
X27697Y18232D01*
X30303Y18232D02*
X31500Y18232D01*
X0500Y18281D02*
X1621Y18281D01*
X4379Y18281D02*
X27621Y18281D01*
X30379Y18281D02*
X31500Y18281D01*
X0500Y18331D02*
X1571Y18331D01*
X4429Y18331D02*
X27571Y18331D01*
X30429Y18331D02*
X31500Y18331D01*
X0500Y18380D02*
X1522Y18380D01*
X4478Y18380D02*
X27522Y18380D01*
X30478Y18380D02*
X31500Y18380D01*
X0500Y18430D02*
X1472Y18430D01*
X4528Y18430D02*
X27472Y18430D01*
X30528Y18430D02*
X31500Y18430D01*
X0500Y18479D02*
X1423Y18479D01*
X4577Y18479D02*
X27423Y18479D01*
X30577Y18479D02*
X31500Y18479D01*
X0500Y18529D02*
X1373Y18529D01*
X4627Y18529D02*
X27373Y18529D01*
X30627Y18529D02*
X31500Y18529D01*
X0500Y18578D02*
X1324Y18578D01*
X4676Y18578D02*
X27324Y18578D01*
X30676Y18578D02*
X31500Y18578D01*
X0500Y18628D02*
X1275Y18628D01*
X4725Y18628D02*
X27275Y18628D01*
X30725Y18628D02*
X31500Y18628D01*
X0500Y18678D02*
X1244Y18678D01*
X4756Y18678D02*
X27244Y18678D01*
X30756Y18678D02*
X31500Y18678D01*
X0500Y18727D02*
X1213Y18727D01*
X4787Y18727D02*
X27213Y18727D01*
X30787Y18727D02*
X31500Y18727D01*
X0500Y18777D02*
X1182Y18777D01*
X4818Y18777D02*
X27182Y18777D01*
X30818Y18777D02*
X31500Y18777D01*
X0500Y18826D02*
X1150Y18826D01*
X4850Y18826D02*
X27150Y18826D01*
X30850Y18826D02*
X31500Y18826D01*
X0500Y18876D02*
X1119Y18876D01*
X4881Y18876D02*
X27119Y18876D01*
X30881Y18876D02*
X31500Y18876D01*
X0500Y18925D02*
X1088Y18925D01*
X4912Y18925D02*
X27088Y18925D01*
X30912Y18925D02*
X31500Y18925D01*
X0500Y18975D02*
X1057Y18975D01*
X4943Y18975D02*
X27057Y18975D01*
X30943Y18975D02*
X31500Y18975D01*
X0500Y19024D02*
X1026Y19024D01*
X4974Y19024D02*
X27026Y19024D01*
X30974Y19024D02*
X31500Y19024D01*
X0500Y19074D02*
X1003Y19074D01*
X4997Y19074D02*
X27003Y19074D01*
X30997Y19074D02*
X31500Y19074D01*
X0500Y19123D02*
X0986Y19123D01*
X5014Y19123D02*
X26986Y19123D01*
X31014Y19123D02*
X31500Y19123D01*
X0500Y19173D02*
X0969Y19173D01*
X5031Y19173D02*
X26969Y19173D01*
X31031Y19173D02*
X31500Y19173D01*
X0500Y19222D02*
X0951Y19222D01*
X5049Y19222D02*
X26951Y19222D01*
X31049Y19222D02*
X31500Y19222D01*
X0500Y19272D02*
X0934Y19272D01*
X5066Y19272D02*
X26934Y19272D01*
X31066Y19272D02*
X31500Y19272D01*
X0500Y19321D02*
X0917Y19321D01*
X5083Y19321D02*
X26917Y19321D01*
X31083Y19321D02*
X31500Y19321D01*
X0500Y19371D02*
X0899Y19371D01*
X5101Y19371D02*
X26899Y19371D01*
X31101Y19371D02*
X31500Y19371D01*
X0500Y19420D02*
X0882Y19420D01*
X5118Y19420D02*
X26882Y19420D01*
X31118Y19420D02*
X31500Y19420D01*
X0500Y19470D02*
X0865Y19470D01*
X5135Y19470D02*
X26865Y19470D01*
X31135Y19470D02*
X31500Y19470D01*
X0500Y19520D02*
X0850Y19520D01*
X5150Y19520D02*
X26850Y19520D01*
X31150Y19520D02*
X31500Y19520D01*
X0500Y19569D02*
X0844Y19569D01*
X5156Y19569D02*
X26844Y19569D01*
X31156Y19569D02*
X31500Y19569D01*
X0500Y19619D02*
X0839Y19619D01*
X5161Y19619D02*
X26839Y19619D01*
X31161Y19619D02*
X31500Y19619D01*
X0500Y19668D02*
X0833Y19668D01*
X5167Y19668D02*
X26833Y19668D01*
X31167Y19668D02*
X31500Y19668D01*
X0500Y19718D02*
X0827Y19718D01*
X5173Y19718D02*
X26827Y19718D01*
X31173Y19718D02*
X31500Y19718D01*
X0500Y19767D02*
X0822Y19767D01*
X5178Y19767D02*
X26822Y19767D01*
X31178Y19767D02*
X31500Y19767D01*
X0500Y19817D02*
X0816Y19817D01*
X5184Y19817D02*
X26816Y19817D01*
X31184Y19817D02*
X31500Y19817D01*
X0500Y19866D02*
X0811Y19866D01*
X5189Y19866D02*
X26811Y19866D01*
X31189Y19866D02*
X31500Y19866D01*
X0500Y19916D02*
X1051Y19916D01*
X4949Y19916D02*
X27051Y19916D01*
X30949Y19916D02*
X31500Y19916D01*
X0500Y19965D02*
X1051Y19965D01*
X4949Y19965D02*
X27051Y19965D01*
X30949Y19965D02*
X31500Y19965D01*
X0500Y20015D02*
X1051Y20015D01*
X4949Y20015D02*
X27051Y20015D01*
X30949Y20015D02*
X31500Y20015D01*
X0500Y20064D02*
X1051Y20064D01*
X4949Y20064D02*
X27051Y20064D01*
X30949Y20064D02*
X31500Y20064D01*
X0500Y20114D02*
X0808Y20114D01*
X5192Y20114D02*
X26808Y20114D01*
X31192Y20114D02*
X31500Y20114D01*
X0500Y20163D02*
X0814Y20163D01*
X5186Y20163D02*
X26814Y20163D01*
X31186Y20163D02*
X31500Y20163D01*
X0500Y20213D02*
X0820Y20213D01*
X5180Y20213D02*
X26820Y20213D01*
X31180Y20213D02*
X31500Y20213D01*
X0500Y20262D02*
X0825Y20262D01*
X5175Y20262D02*
X26825Y20262D01*
X31175Y20262D02*
X31500Y20262D01*
X0500Y20312D02*
X0831Y20312D01*
X5169Y20312D02*
X26831Y20312D01*
X31169Y20312D02*
X31500Y20312D01*
X0500Y20362D02*
X0836Y20362D01*
X5164Y20362D02*
X26836Y20362D01*
X31164Y20362D02*
X31500Y20362D01*
X0500Y20411D02*
X0842Y20411D01*
X5158Y20411D02*
X26842Y20411D01*
X31158Y20411D02*
X31500Y20411D01*
X0500Y20461D02*
X0847Y20461D01*
X5153Y20461D02*
X26847Y20461D01*
X31153Y20461D02*
X31500Y20461D01*
X0500Y20510D02*
X0858Y20510D01*
X5142Y20510D02*
X26858Y20510D01*
X31142Y20510D02*
X31500Y20510D01*
X0500Y20560D02*
X0875Y20560D01*
X5125Y20560D02*
X26875Y20560D01*
X31125Y20560D02*
X31500Y20560D01*
X0500Y20609D02*
X0892Y20609D01*
X5108Y20609D02*
X26892Y20609D01*
X31108Y20609D02*
X31500Y20609D01*
X0500Y20659D02*
X0910Y20659D01*
X5090Y20659D02*
X26910Y20659D01*
X31090Y20659D02*
X31500Y20659D01*
X0500Y20708D02*
X0927Y20708D01*
X5073Y20708D02*
X26927Y20708D01*
X31073Y20708D02*
X31500Y20708D01*
X0500Y20758D02*
X0944Y20758D01*
X5056Y20758D02*
X26944Y20758D01*
X31056Y20758D02*
X31500Y20758D01*
X0500Y20807D02*
X0962Y20807D01*
X5038Y20807D02*
X26962Y20807D01*
X31038Y20807D02*
X31500Y20807D01*
X0500Y20857D02*
X0979Y20857D01*
X5021Y20857D02*
X26979Y20857D01*
X31021Y20857D02*
X31500Y20857D01*
X0500Y20906D02*
X0996Y20906D01*
X5004Y20906D02*
X26996Y20906D01*
X31004Y20906D02*
X31500Y20906D01*
X0500Y20956D02*
X1014Y20956D01*
X4986Y20956D02*
X27014Y20956D01*
X30986Y20956D02*
X31500Y20956D01*
X0500Y21005D02*
X1045Y21005D01*
X4955Y21005D02*
X27045Y21005D01*
X30955Y21005D02*
X31500Y21005D01*
X0500Y21055D02*
X1076Y21055D01*
X4924Y21055D02*
X27076Y21055D01*
X30924Y21055D02*
X31500Y21055D01*
X0500Y21104D02*
X1107Y21104D01*
X4893Y21104D02*
X27107Y21104D01*
X30893Y21104D02*
X31500Y21104D01*
X0500Y21154D02*
X1138Y21154D01*
X4862Y21154D02*
X27138Y21154D01*
X30862Y21154D02*
X31500Y21154D01*
X0500Y21204D02*
X1169Y21204D01*
X4831Y21204D02*
X27169Y21204D01*
X30831Y21204D02*
X31500Y21204D01*
X0500Y21253D02*
X1200Y21253D01*
X4800Y21253D02*
X27200Y21253D01*
X30800Y21253D02*
X31500Y21253D01*
X0500Y21303D02*
X1231Y21303D01*
X4769Y21303D02*
X27231Y21303D01*
X30769Y21303D02*
X31500Y21303D01*
X0500Y21352D02*
X1262Y21352D01*
X4738Y21352D02*
X27262Y21352D01*
X30738Y21352D02*
X31500Y21352D01*
X0500Y21402D02*
X1304Y21402D01*
X4696Y21402D02*
X27304Y21402D01*
X30696Y21402D02*
X31500Y21402D01*
X0500Y21451D02*
X1353Y21451D01*
X4647Y21451D02*
X27353Y21451D01*
X30647Y21451D02*
X31500Y21451D01*
X0500Y21501D02*
X1403Y21501D01*
X4597Y21501D02*
X27403Y21501D01*
X30597Y21501D02*
X31500Y21501D01*
X0500Y21550D02*
X1452Y21550D01*
X4548Y21550D02*
X27452Y21550D01*
X30548Y21550D02*
X31500Y21550D01*
X0500Y21600D02*
X1502Y21600D01*
X4498Y21600D02*
X27502Y21600D01*
X30498Y21600D02*
X31500Y21600D01*
X0500Y21649D02*
X1551Y21649D01*
X4449Y21649D02*
X27551Y21649D01*
X30449Y21649D02*
X31500Y21649D01*
X0500Y21699D02*
X1601Y21699D01*
X4399Y21699D02*
X27601Y21699D01*
X30399Y21699D02*
X31500Y21699D01*
X0500Y21748D02*
X1665Y21748D01*
X4335Y21748D02*
X27665Y21748D01*
X30335Y21748D02*
X31500Y21748D01*
X0500Y21798D02*
X1744Y21798D01*
X4256Y21798D02*
X27744Y21798D01*
X30256Y21798D02*
X31500Y21798D01*
X0500Y21847D02*
X1823Y21847D01*
X4177Y21847D02*
X27823Y21847D01*
X30177Y21847D02*
X31500Y21847D01*
X0500Y21897D02*
X1902Y21897D01*
X4098Y21897D02*
X27902Y21897D01*
X30098Y21897D02*
X31500Y21897D01*
X0500Y21946D02*
X1980Y21946D01*
X4020Y21946D02*
X27980Y21946D01*
X30020Y21946D02*
X31500Y21946D01*
X0500Y21996D02*
X2072Y21996D01*
X2899Y21996D02*
X3101Y21996D01*
X3928Y21996D02*
X28072Y21996D01*
X28899Y21996D02*
X29101Y21996D01*
X29928Y21996D02*
X31500Y21996D01*
X0500Y22046D02*
X2213Y22046D01*
X2899Y22046D02*
X3101Y22046D01*
X3787Y22046D02*
X28213Y22046D01*
X28899Y22046D02*
X29101Y22046D01*
X29787Y22046D02*
X31500Y22046D01*
X0500Y22095D02*
X2355Y22095D01*
X2899Y22095D02*
X3101Y22095D01*
X3645Y22095D02*
X28355Y22095D01*
X28899Y22095D02*
X29101Y22095D01*
X29645Y22095D02*
X31500Y22095D01*
X0500Y22145D02*
X2496Y22145D01*
X2899Y22145D02*
X3101Y22145D01*
X3504Y22145D02*
X28496Y22145D01*
X28899Y22145D02*
X29101Y22145D01*
X29504Y22145D02*
X31500Y22145D01*
X0500Y22194D02*
X31500Y22194D01*
X0500Y22244D02*
X31500Y22244D01*
X0500Y22293D02*
X31500Y22293D01*
X0500Y22343D02*
X31500Y22343D01*
X0500Y22392D02*
X31500Y22392D01*
X0500Y22442D02*
X31500Y22442D01*
X0500Y22491D02*
X31500Y22491D01*
%LNbottom copper_traces*%
D11*
X28800Y15000D02*
X28800Y11500D01*
D12*
X20955Y6756D02*
X24003Y3708D01*
X24735Y3708*
X14200Y2850D02*
X14200Y4850D01*
D11*
X4200Y15000D02*
X4200Y8000D01*
X3200Y8000D02*
X3200Y15000D01*
X29800Y15000D02*
X29800Y11500D01*
X2200Y8000D02*
X2200Y15000D01*
X27800Y15000D02*
X27800Y11500D01*
D13*
X12025Y8875D03*
X2200Y15000D03*
X3200Y15000D03*
X12025Y13100D03*
X19975Y8875D03*
X23200Y19550D03*
X27800Y15000D03*
X4200Y8000D03*
X24735Y3708D03*
X28800Y15000D03*
X4200Y15000D03*
X16000Y8875D03*
X14200Y2850D03*
X19975Y13100D03*
X2200Y8000D03*
X14200Y4850D03*
X25550Y5000D03*
X29800Y15000D03*
X20955Y6756D03*
X3200Y8000D03*
%LNbottom copper component 3bfa6d12eeac1ceb*%
D14*
X28800Y11500D03*
X3200Y11500D03*
D15*
X16000Y11500D03*
%LNbottom copper component f51130c770a72e1a*%
D16*
X3000Y3000D03*
%LNbottom copper component c199763d80fc7ed0*%
X29000Y20000D03*
%LNbottom copper component a6ba738d966070ac*%
X3000Y20000D03*
M02*