%FSLAX33Y33*%
%MOMM*%
%AMRect-W670710-H1320710-RO1.000*
21,1,0.67071,1.32071,0.,0.,180*%
%AMRect-W670710-H1320710-RO1.500*
21,1,0.67071,1.32071,0.,0.,90*%
%AMRect-W900000-H335831-RO1.000*
21,1,0.9,0.335831,0.,0.,180*%
%AMRR-H335831-W900000-R167915-RO1.000*
21,1,0.56417,0.335831,0.,0.,180*
21,1,0.9,0.000001,0.,0.,180*
1,1,0.33583,0.282085,-0.0000005*
1,1,0.33583,-0.282085,-0.0000005*
1,1,0.33583,-0.282085,0.0000005*
1,1,0.33583,0.282085,0.0000005*%
%AMRect-W1458141-H335831-RO0.500*
21,1,1.458141,0.335831,0.,0.,270*%
%AMRR-H335831-W1458141-R167915-RO0.500*
21,1,1.122311,0.335831,0.,0.,270*
21,1,1.458141,0.000001,0.,0.,270*
1,1,0.33583,0.0000005,0.5611555*
1,1,0.33583,0.0000005,-0.5611555*
1,1,0.33583,-0.0000005,-0.5611555*
1,1,0.33583,-0.0000005,0.5611555*%
%AMRR-H5400000-W2000000-R1000000-RO1.500*
21,1,2.,3.4,0.,0.,90*
1,1,2.,-1.7,-0.*
1,1,2.,-1.7,0.*
1,1,2.,1.7,0.*
1,1,2.,1.7,-0.*%
%AMRect-W2000000-H5400000-RO1.500*
21,1,2.,5.4,0.,0.,90*%
%ADD10C,0.0508*%
%ADD11C,0.508*%
%ADD12C,0.1524*%
%ADD13C,0.68834*%
%ADD14R,0.4X0.7*%
%ADD15Rect-W670710-H1320710-RO1.000*%
%ADD16Rect-W670710-H1320710-RO1.500*%
%ADD17R,1.55X1.3*%
%ADD18C,4.*%
%ADD19R,0.42X0.6*%
%ADD20R,0.67071X1.32071*%
%ADD21Rect-W900000-H335831-RO1.000*%
%ADD22RR-H335831-W900000-R167915-RO1.000*%
%ADD23Rect-W1458141-H335831-RO0.500*%
%ADD24RR-H335831-W1458141-R167915-RO0.500*%
%ADD25RR-H5400000-W2000000-R1000000-RO1.500*%
%ADD26Rect-W2000000-H5400000-RO1.500*%
D10*
%LNpour fill*%
G01*
X31500Y1296D02*
X31500Y1296D01*
X26200Y1296*
X26200Y1296*
X26168Y1298*
X26168Y1298*
X26137Y1306*
X26137Y1306*
X26107Y1318*
X26107Y1318*
X26080Y1335*
X26080Y1335*
X26055Y1355*
X26055Y1355*
X26035Y1380*
X26035Y1380*
X26018Y1407*
X26018Y1407*
X26006Y1437*
X26006Y1437*
X25998Y1468*
X25998Y1468*
X25996Y1500*
X25996Y1500*
X25996Y2042*
X24590Y2042*
X24590Y1840*
X24590Y1840*
X24587Y1808*
X24587Y1808*
X24580Y1776*
X24580Y1776*
X24568Y1747*
X24568Y1747*
X24551Y1719*
X24551Y1719*
X24530Y1695*
X24530Y1695*
X24506Y1674*
X24506Y1674*
X24478Y1657*
X24478Y1657*
X24449Y1645*
X24449Y1645*
X24417Y1638*
X24417Y1638*
X24385Y1635*
X24385Y1635*
X23715Y1635*
X23715Y1635*
X23683Y1638*
X23683Y1638*
X23651Y1645*
X23651Y1645*
X23622Y1657*
X23622Y1657*
X23594Y1674*
X23594Y1674*
X23570Y1695*
X23570Y1695*
X23549Y1719*
X23549Y1719*
X23532Y1747*
X23532Y1747*
X23520Y1776*
X23520Y1776*
X23513Y1808*
X23513Y1808*
X23510Y1840*
X23510Y1840*
X23510Y3160*
X23510Y3160*
X23513Y3192*
X23513Y3192*
X23520Y3224*
X23520Y3224*
X23532Y3253*
X23532Y3253*
X23549Y3281*
X23549Y3281*
X23570Y3305*
X23570Y3305*
X23594Y3326*
X23594Y3326*
X23622Y3343*
X23622Y3343*
X23651Y3355*
X23651Y3355*
X23683Y3362*
X23683Y3362*
X23715Y3365*
X23715Y3365*
X24183Y3365*
X24213Y3450*
X24174Y3481*
X24160Y3489*
X24160Y3489*
X24149Y3500*
X24137Y3510*
X24137Y3510*
X23735Y3911*
X22490Y2666*
X22490Y1840*
X22490Y1840*
X22487Y1808*
X22487Y1808*
X22480Y1776*
X22480Y1776*
X22468Y1747*
X22468Y1747*
X22451Y1719*
X22451Y1719*
X22430Y1695*
X22430Y1695*
X22406Y1674*
X22406Y1674*
X22378Y1657*
X22378Y1657*
X22349Y1645*
X22349Y1645*
X22317Y1638*
X22317Y1638*
X22285Y1635*
X22285Y1635*
X21615Y1635*
X21615Y1635*
X21583Y1638*
X21583Y1638*
X21551Y1645*
X21551Y1645*
X21522Y1657*
X21522Y1657*
X21494Y1674*
X21494Y1674*
X21470Y1695*
X21470Y1695*
X21449Y1719*
X21449Y1719*
X21432Y1747*
X21432Y1747*
X21420Y1776*
X21420Y1776*
X21413Y1808*
X21413Y1808*
X21410Y1840*
X21410Y1840*
X21410Y3160*
X21410Y3160*
X21413Y3192*
X21413Y3192*
X21420Y3224*
X21420Y3224*
X21432Y3253*
X21432Y3253*
X21449Y3281*
X21449Y3281*
X21470Y3305*
X21470Y3305*
X21494Y3326*
X21494Y3326*
X21522Y3343*
X21522Y3343*
X21551Y3355*
X21551Y3355*
X21583Y3362*
X21583Y3362*
X21615Y3365*
X21615Y3365*
X22285Y3365*
X22285Y3365*
X22317Y3362*
X22317Y3362*
X22378Y3348*
X23142Y4112*
X23133Y4150*
X23133Y4150*
X23130Y4189*
X23064Y4221*
X22916Y4119*
X22916Y4119*
X22897Y4109*
X22879Y4097*
X22879Y4097*
X22869Y4094*
X22861Y4089*
X22861Y4089*
X22840Y4084*
X22820Y4076*
X22820Y4076*
X22810Y4075*
X22800Y4073*
X22800Y4073*
X22779Y4072*
X22757Y4069*
X22757Y4069*
X22737Y4069*
X22703Y4041*
X22703Y4041*
X22639Y4007*
X22639Y4007*
X22569Y3986*
X22569Y3986*
X22497Y3979*
X22497Y3979*
X21933Y3979*
X21933Y3979*
X21860Y3986*
X21860Y3986*
X21790Y4007*
X21790Y4007*
X21726Y4041*
X21726Y4041*
X21670Y4087*
X21670Y4087*
X21624Y4144*
X21624Y4144*
X21589Y4208*
X21589Y4208*
X21568Y4278*
X21568Y4278*
X21561Y4350*
X21561Y4350*
X21568Y4422*
X21568Y4422*
X21589Y4492*
X21589Y4492*
X21624Y4556*
X21624Y4556*
X21670Y4613*
X21670Y4613*
X21746Y4675*
X21670Y4737*
X21670Y4737*
X21624Y4794*
X21624Y4794*
X21589Y4858*
X21589Y4858*
X21577Y4898*
X21577Y4899*
X21815Y4899*
X21815Y5101*
X21577Y5101*
X21577Y5102*
X21589Y5142*
X21589Y5142*
X21624Y5206*
X21624Y5206*
X21698Y5297*
X21664Y5369*
X19741Y5369*
X18257Y3886*
X18219Y3825*
X18219Y3825*
X18175Y3781*
X18175Y3781*
X18122Y3747*
X18122Y3747*
X18062Y3726*
X18062Y3726*
X18000Y3719*
X18000Y3719*
X16402Y3719*
X16387Y3714*
X16387Y3714*
X16325Y3707*
X16325Y3707*
X16263Y3714*
X16263Y3714*
X16248Y3719*
X11404Y3719*
X11404Y3650*
X11404Y3650*
X11402Y3618*
X11402Y3618*
X11394Y3587*
X11394Y3587*
X11382Y3557*
X11382Y3557*
X11365Y3530*
X11365Y3530*
X11345Y3505*
X11345Y3505*
X11320Y3485*
X11320Y3485*
X11293Y3468*
X11293Y3468*
X11263Y3456*
X11263Y3456*
X11232Y3448*
X11232Y3448*
X11200Y3446*
X11200Y3446*
X10800Y3446*
X10800Y3446*
X10768Y3448*
X10768Y3448*
X10737Y3456*
X10737Y3456*
X10707Y3468*
X10707Y3468*
X10680Y3485*
X10680Y3485*
X10655Y3505*
X10655Y3505*
X10635Y3530*
X10635Y3530*
X10618Y3557*
X10618Y3557*
X10606Y3587*
X10606Y3587*
X10598Y3618*
X10598Y3618*
X10596Y3650*
X10596Y3650*
X10596Y4350*
X10596Y4350*
X10598Y4382*
X10598Y4382*
X10606Y4413*
X10606Y4413*
X10618Y4443*
X10618Y4443*
X10635Y4470*
X10635Y4470*
X10655Y4495*
X10655Y4495*
X10680Y4515*
X10680Y4515*
X10707Y4532*
X10707Y4532*
X10737Y4544*
X10737Y4544*
X10768Y4552*
X10768Y4552*
X10800Y4554*
X10800Y4554*
X11200Y4554*
X11200Y4554*
X11232Y4552*
X11232Y4552*
X11263Y4544*
X11263Y4544*
X11293Y4532*
X11293Y4532*
X11320Y4515*
X11320Y4515*
X11345Y4495*
X11345Y4495*
X11365Y4470*
X11365Y4470*
X11382Y4443*
X11382Y4443*
X11394Y4413*
X11394Y4413*
X11402Y4382*
X11402Y4382*
X11404Y4350*
X11404Y4350*
X11404Y4281*
X13906Y4281*
X13930Y4377*
X13888Y4398*
X13888Y4398*
X13789Y4486*
X13789Y4486*
X13714Y4595*
X13714Y4595*
X13667Y4719*
X13667Y4719*
X13651Y4850*
X13651Y4850*
X13667Y4981*
X13667Y4981*
X13714Y5105*
X13714Y5105*
X13789Y5214*
X13789Y5214*
X13888Y5302*
X13888Y5302*
X13919Y5318*
X13919Y10046*
X13790Y10046*
X13790Y10046*
X13758Y10048*
X13758Y10048*
X13727Y10056*
X13727Y10056*
X13675Y10077*
X13623Y10056*
X13623Y10056*
X13592Y10048*
X13592Y10048*
X13560Y10046*
X13560Y10046*
X13140Y10046*
X13140Y10046*
X13108Y10048*
X13108Y10048*
X13077Y10056*
X13077Y10056*
X13047Y10068*
X13047Y10068*
X13020Y10085*
X13020Y10085*
X12995Y10105*
X12995Y10105*
X12975Y10130*
X12975Y10130*
X12958Y10157*
X12958Y10157*
X12946Y10187*
X12946Y10187*
X12938Y10218*
X12938Y10218*
X12936Y10250*
X12936Y10250*
X12936Y10850*
X12936Y10850*
X12938Y10882*
X12938Y10882*
X12946Y10913*
X12946Y10913*
X12958Y10943*
X12958Y10943*
X12975Y10970*
X12975Y10970*
X12995Y10995*
X12995Y10995*
X13020Y11015*
X13020Y11015*
X13069Y11046*
X13069Y11150*
X13069Y11150*
X13076Y11212*
X13076Y11212*
X13097Y11272*
X13097Y11272*
X13131Y11325*
X13131Y11325*
X13175Y11369*
X13175Y11369*
X13258Y11421*
X13231Y11513*
X12460Y11513*
X12156Y11209*
X12156Y10160*
X12156Y10160*
X12154Y10145*
X12154Y10129*
X12154Y10129*
X12150Y10114*
X12149Y10098*
X12149Y10098*
X12143Y10083*
X12140Y10068*
X12140Y10068*
X12133Y10053*
X12128Y10039*
X12128Y10039*
X12119Y10025*
X12113Y10011*
X12113Y10011*
X12103Y9999*
X12094Y9985*
X12094Y9985*
X12083Y9974*
X12073Y9962*
X12073Y9962*
X11413Y9302*
X11413Y9302*
X11401Y9292*
X11390Y9281*
X11390Y9281*
X11376Y9272*
X11364Y9262*
X11364Y9262*
X11350Y9256*
X11336Y9247*
X11336Y9247*
X11322Y9242*
X11307Y9235*
X11307Y9235*
X11292Y9232*
X11277Y9226*
X11277Y9226*
X11261Y9225*
X11246Y9221*
X11246Y9221*
X11230Y9221*
X11215Y9219*
X11215Y9219*
X10590Y9219*
X10590Y8840*
X10590Y8840*
X10587Y8808*
X10587Y8808*
X10580Y8776*
X10580Y8776*
X10568Y8747*
X10568Y8747*
X10551Y8719*
X10551Y8719*
X10530Y8695*
X10530Y8695*
X10506Y8674*
X10506Y8674*
X10478Y8657*
X10478Y8657*
X10449Y8645*
X10449Y8645*
X10417Y8638*
X10417Y8638*
X10385Y8635*
X10385Y8635*
X9715Y8635*
X9715Y8635*
X9683Y8638*
X9683Y8638*
X9651Y8645*
X9651Y8645*
X9622Y8657*
X9622Y8657*
X9594Y8674*
X9594Y8674*
X9570Y8695*
X9570Y8695*
X9549Y8719*
X9549Y8719*
X9532Y8747*
X9532Y8747*
X9520Y8776*
X9520Y8776*
X9513Y8808*
X9513Y8808*
X9510Y8840*
X9510Y8840*
X9510Y10160*
X9510Y10160*
X9513Y10192*
X9513Y10192*
X9520Y10224*
X9520Y10224*
X9532Y10253*
X9532Y10253*
X9549Y10281*
X9549Y10281*
X9570Y10305*
X9570Y10305*
X9594Y10326*
X9594Y10326*
X9622Y10343*
X9622Y10343*
X9651Y10355*
X9651Y10355*
X9683Y10362*
X9683Y10362*
X9715Y10365*
X9715Y10365*
X10385Y10365*
X10385Y10365*
X10417Y10362*
X10417Y10362*
X10449Y10355*
X10449Y10355*
X10478Y10343*
X10478Y10343*
X10506Y10326*
X10506Y10326*
X10530Y10305*
X10530Y10305*
X10551Y10281*
X10551Y10281*
X10568Y10253*
X10568Y10253*
X10580Y10224*
X10580Y10224*
X10587Y10192*
X10587Y10192*
X10590Y10160*
X10590Y10160*
X10590Y9781*
X11098Y9781*
X11594Y10277*
X11594Y11325*
X11594Y11325*
X11596Y11341*
X11596Y11356*
X11596Y11356*
X11600Y11372*
X11601Y11387*
X11601Y11387*
X11607Y11402*
X11610Y11418*
X11610Y11418*
X11617Y11432*
X11622Y11447*
X11622Y11447*
X11631Y11460*
X11637Y11474*
X11637Y11474*
X11647Y11487*
X11656Y11500*
X11656Y11500*
X11667Y11511*
X11677Y11523*
X11677Y11523*
X12145Y11992*
X12145Y11992*
X12157Y12002*
X12168Y12013*
X12168Y12013*
X12182Y12021*
X12194Y12031*
X12194Y12031*
X12208Y12038*
X12222Y12046*
X12222Y12046*
X12237Y12052*
X12251Y12058*
X12251Y12058*
X12266Y12062*
X12281Y12067*
X12281Y12067*
X12297Y12069*
X12312Y12072*
X12312Y12072*
X12328Y12072*
X12343Y12074*
X12343Y12074*
X12942Y12074*
X12936Y12150*
X12936Y12150*
X12936Y12349*
X12936Y12349*
X13191Y12349*
X13191Y12551*
X12936Y12551*
X12936Y12551*
X12936Y12750*
X12936Y12750*
X12938Y12782*
X12938Y12782*
X12946Y12813*
X12946Y12813*
X12958Y12843*
X12958Y12843*
X12975Y12870*
X12975Y12870*
X12995Y12895*
X12995Y12895*
X13020Y12915*
X13020Y12915*
X13047Y12932*
X13047Y12932*
X13077Y12944*
X13077Y12944*
X13108Y12952*
X13108Y12952*
X13140Y12954*
X13140Y12954*
X13249Y12954*
X13249Y12954*
X13249Y12699*
X13451Y12699*
X13451Y12954*
X13451Y12954*
X13560Y12954*
X13560Y12954*
X13592Y12952*
X13592Y12952*
X13623Y12944*
X13623Y12944*
X13653Y12932*
X13653Y12932*
X13680Y12915*
X13680Y12915*
X13705Y12895*
X13705Y12895*
X13725Y12870*
X13725Y12870*
X13742Y12843*
X13742Y12843*
X13754Y12813*
X13754Y12813*
X13762Y12782*
X13762Y12782*
X13764Y12750*
X13764Y12750*
X13764Y12551*
X13764Y12551*
X13509Y12551*
X13509Y12349*
X13764Y12349*
X13764Y12349*
X13764Y12150*
X13764Y12150*
X13758Y12074*
X13877Y12074*
X14236Y12432*
X14236Y12750*
X14236Y12750*
X14238Y12782*
X14238Y12782*
X14246Y12813*
X14246Y12813*
X14258Y12843*
X14258Y12843*
X14275Y12870*
X14275Y12870*
X14295Y12895*
X14295Y12895*
X14320Y12915*
X14320Y12915*
X14347Y12932*
X14347Y12932*
X14377Y12944*
X14377Y12944*
X14408Y12952*
X14408Y12952*
X14440Y12954*
X14440Y12954*
X14860Y12954*
X14860Y12954*
X14892Y12952*
X14892Y12952*
X14923Y12944*
X14923Y12944*
X14953Y12932*
X14953Y12932*
X14980Y12915*
X14980Y12915*
X15005Y12895*
X15005Y12895*
X15025Y12870*
X15025Y12870*
X15042Y12843*
X15042Y12843*
X15054Y12813*
X15054Y12813*
X15062Y12782*
X15062Y12782*
X15064Y12750*
X15064Y12750*
X15064Y12150*
X15064Y12150*
X15062Y12118*
X15062Y12118*
X15054Y12087*
X15054Y12087*
X15042Y12057*
X15042Y12057*
X15025Y12030*
X15025Y12030*
X15005Y12005*
X15005Y12005*
X14980Y11985*
X14980Y11985*
X14953Y11968*
X14953Y11968*
X14923Y11956*
X14923Y11956*
X14892Y11948*
X14892Y11948*
X14860Y11946*
X14860Y11946*
X14542Y11946*
X14198Y11602*
X14198Y11602*
X14186Y11592*
X14168Y11574*
X14168Y11574*
X14086Y11522*
X14112Y11431*
X17719Y11431*
X17719Y11995*
X17623Y11956*
X17623Y11956*
X17592Y11948*
X17592Y11948*
X17560Y11946*
X17560Y11946*
X17451Y11946*
X17451Y11946*
X17451Y12201*
X17249Y12201*
X17249Y11946*
X17249Y11946*
X17140Y11946*
X17140Y11946*
X17108Y11948*
X17108Y11948*
X17077Y11956*
X17077Y11956*
X17047Y11968*
X17047Y11968*
X17020Y11985*
X17020Y11985*
X16995Y12005*
X16995Y12005*
X16975Y12030*
X16975Y12030*
X16958Y12057*
X16958Y12057*
X16946Y12087*
X16946Y12087*
X16938Y12118*
X16938Y12118*
X16936Y12150*
X16936Y12150*
X16936Y12349*
X16936Y12349*
X17191Y12349*
X17191Y12551*
X16936Y12551*
X16936Y12551*
X16936Y12750*
X16936Y12750*
X16938Y12782*
X16938Y12782*
X16946Y12813*
X16946Y12813*
X16958Y12843*
X16958Y12843*
X16975Y12870*
X16975Y12870*
X16995Y12895*
X16995Y12895*
X17020Y12915*
X17020Y12915*
X17047Y12932*
X17047Y12932*
X17077Y12944*
X17077Y12944*
X17108Y12952*
X17108Y12952*
X17140Y12954*
X17140Y12954*
X17249Y12954*
X17249Y12954*
X17249Y12699*
X17451Y12699*
X17451Y12954*
X17451Y12954*
X17560Y12954*
X17560Y12954*
X17592Y12952*
X17592Y12952*
X17623Y12944*
X17623Y12944*
X17719Y12905*
X17719Y14025*
X17719Y14025*
X17721Y14041*
X17721Y14056*
X17721Y14056*
X17725Y14072*
X17726Y14087*
X17726Y14087*
X17732Y14102*
X17735Y14118*
X17735Y14118*
X17742Y14132*
X17747Y14147*
X17747Y14147*
X17756Y14160*
X17762Y14174*
X17762Y14174*
X17772Y14187*
X17781Y14200*
X17781Y14200*
X17792Y14211*
X17802Y14223*
X17802Y14223*
X18202Y14623*
X18202Y14623*
X18214Y14633*
X18225Y14644*
X18225Y14644*
X18238Y14653*
X18251Y14663*
X18251Y14663*
X18265Y14669*
X18278Y14678*
X18278Y14678*
X18293Y14683*
X18307Y14690*
X18307Y14690*
X18323Y14693*
X18338Y14699*
X18338Y14699*
X18353Y14700*
X18369Y14704*
X18369Y14704*
X18384Y14704*
X18400Y14706*
X18400Y14706*
X21223Y14706*
X21719Y15202*
X21719Y16910*
X21340Y16910*
X21340Y16910*
X21308Y16913*
X21308Y16913*
X21276Y16920*
X21276Y16920*
X21247Y16932*
X21247Y16932*
X21219Y16949*
X21219Y16949*
X21195Y16970*
X21195Y16970*
X21174Y16994*
X21174Y16994*
X21157Y17022*
X21157Y17022*
X21145Y17051*
X21145Y17051*
X21138Y17083*
X21138Y17083*
X21131Y17169*
X20876Y17169*
X20845Y17087*
X20895Y17045*
X20895Y17045*
X20915Y17020*
X20915Y17020*
X20932Y16993*
X20932Y16993*
X20944Y16963*
X20944Y16963*
X20952Y16932*
X20952Y16932*
X20954Y16900*
X20954Y16900*
X20954Y15600*
X20954Y15600*
X20952Y15568*
X20952Y15568*
X20944Y15537*
X20944Y15537*
X20932Y15507*
X20932Y15507*
X20915Y15480*
X20915Y15480*
X20895Y15455*
X20895Y15455*
X20870Y15435*
X20870Y15435*
X20843Y15418*
X20843Y15418*
X20813Y15406*
X20813Y15406*
X20782Y15398*
X20782Y15398*
X20750Y15396*
X20750Y15396*
X19200Y15396*
X19200Y15396*
X19168Y15398*
X19168Y15398*
X19137Y15406*
X19137Y15406*
X19107Y15418*
X19107Y15418*
X19080Y15435*
X19080Y15435*
X19055Y15455*
X19055Y15455*
X19035Y15480*
X19035Y15480*
X19018Y15507*
X19018Y15507*
X19006Y15537*
X19006Y15537*
X18998Y15568*
X18998Y15568*
X18996Y15600*
X18996Y15600*
X18996Y16900*
X18996Y16900*
X18998Y16932*
X18998Y16932*
X19006Y16963*
X19006Y16963*
X19018Y16993*
X19018Y16993*
X19035Y17020*
X19035Y17020*
X19055Y17045*
X19055Y17045*
X19080Y17065*
X19080Y17065*
X19107Y17082*
X19107Y17082*
X19137Y17094*
X19137Y17094*
X19168Y17102*
X19168Y17102*
X19200Y17104*
X19200Y17104*
X20600Y17104*
X20630Y17189*
X20588Y17222*
X20575Y17231*
X20575Y17231*
X20564Y17242*
X20552Y17252*
X20552Y17252*
X19777Y18027*
X19777Y18027*
X19767Y18039*
X19756Y18050*
X19756Y18050*
X19747Y18063*
X19737Y18076*
X19737Y18076*
X19731Y18090*
X19722Y18103*
X19722Y18103*
X19717Y18118*
X19710Y18132*
X19710Y18132*
X19707Y18148*
X19701Y18163*
X19701Y18163*
X19700Y18178*
X19696Y18194*
X19696Y18194*
X19696Y18209*
X19694Y18225*
X19694Y18225*
X19694Y19896*
X19200Y19896*
X19200Y19896*
X19168Y19898*
X19168Y19898*
X19137Y19906*
X19137Y19906*
X19107Y19918*
X19107Y19918*
X19080Y19935*
X19080Y19935*
X19055Y19955*
X19055Y19955*
X19035Y19980*
X19035Y19980*
X19018Y20007*
X19018Y20007*
X19006Y20037*
X19006Y20037*
X18998Y20068*
X18998Y20068*
X18996Y20100*
X18996Y20100*
X18996Y20469*
X13004Y20469*
X13004Y20100*
X13004Y20100*
X13002Y20068*
X13002Y20068*
X12994Y20037*
X12994Y20037*
X12982Y20007*
X12982Y20007*
X12965Y19980*
X12965Y19980*
X12945Y19955*
X12945Y19955*
X12920Y19935*
X12920Y19935*
X12893Y19918*
X12893Y19918*
X12863Y19906*
X12863Y19906*
X12832Y19898*
X12832Y19898*
X12800Y19896*
X12800Y19896*
X11250Y19896*
X11250Y19896*
X11218Y19898*
X11218Y19898*
X11187Y19906*
X11187Y19906*
X11157Y19918*
X11157Y19918*
X11130Y19935*
X11130Y19935*
X11105Y19955*
X11105Y19955*
X11085Y19980*
X11085Y19980*
X11068Y20007*
X11068Y20007*
X11056Y20037*
X11056Y20037*
X11048Y20068*
X11048Y20068*
X11046Y20100*
X11046Y20100*
X11046Y21400*
X11046Y21400*
X11048Y21432*
X11048Y21432*
X11056Y21463*
X11056Y21463*
X11068Y21493*
X11068Y21493*
X11085Y21520*
X11085Y21520*
X11105Y21545*
X11105Y21545*
X11130Y21565*
X11130Y21565*
X11157Y21582*
X11157Y21582*
X11187Y21594*
X11187Y21594*
X11218Y21602*
X11218Y21602*
X11250Y21604*
X11250Y21604*
X12800Y21604*
X12800Y21604*
X12832Y21602*
X12832Y21602*
X12863Y21594*
X12863Y21594*
X12893Y21582*
X12893Y21582*
X12920Y21565*
X12920Y21565*
X12945Y21545*
X12945Y21545*
X12965Y21520*
X12965Y21520*
X12982Y21493*
X12982Y21493*
X12994Y21463*
X12994Y21463*
X13002Y21432*
X13002Y21432*
X13004Y21400*
X13004Y21400*
X13004Y21031*
X18996Y21031*
X18996Y21400*
X18996Y21400*
X18998Y21432*
X18998Y21432*
X19006Y21463*
X19006Y21463*
X19018Y21493*
X19018Y21493*
X19035Y21520*
X19035Y21520*
X19055Y21545*
X19055Y21545*
X19080Y21565*
X19080Y21565*
X19107Y21582*
X19107Y21582*
X19137Y21594*
X19137Y21594*
X19168Y21602*
X19168Y21602*
X19200Y21604*
X19200Y21604*
X20750Y21604*
X20750Y21604*
X20782Y21602*
X20782Y21602*
X20813Y21594*
X20813Y21594*
X20843Y21582*
X20843Y21582*
X20870Y21565*
X20870Y21565*
X20895Y21545*
X20895Y21545*
X20915Y21520*
X20915Y21520*
X20932Y21493*
X20932Y21493*
X20944Y21463*
X20944Y21463*
X20952Y21432*
X20952Y21432*
X20954Y21400*
X20954Y21400*
X20954Y20100*
X20954Y20100*
X20952Y20068*
X20952Y20068*
X20944Y20037*
X20944Y20037*
X20932Y20007*
X20932Y20007*
X20915Y19980*
X20915Y19980*
X20895Y19955*
X20895Y19955*
X20870Y19935*
X20870Y19935*
X20843Y19918*
X20843Y19918*
X20813Y19906*
X20813Y19906*
X20782Y19898*
X20782Y19898*
X20750Y19896*
X20750Y19896*
X20256Y19896*
X20256Y18341*
X20866Y17731*
X21131Y17731*
X21138Y17817*
X21138Y17817*
X21145Y17849*
X21145Y17849*
X21157Y17878*
X21157Y17878*
X21174Y17906*
X21174Y17906*
X21195Y17930*
X21195Y17930*
X21219Y17951*
X21219Y17951*
X21247Y17968*
X21247Y17968*
X21276Y17980*
X21276Y17980*
X21308Y17987*
X21308Y17987*
X21340Y17990*
X21340Y17990*
X22660Y17990*
X22660Y17990*
X22692Y17987*
X22692Y17987*
X22724Y17980*
X22724Y17980*
X22753Y17968*
X22753Y17968*
X22781Y17951*
X22781Y17951*
X22805Y17930*
X22805Y17930*
X22826Y17906*
X22826Y17906*
X22843Y17878*
X22843Y17878*
X22855Y17849*
X22855Y17849*
X22862Y17817*
X22862Y17817*
X22865Y17785*
X22865Y17785*
X22865Y17115*
X22865Y17115*
X22862Y17083*
X22862Y17083*
X22855Y17051*
X22855Y17051*
X22843Y17022*
X22843Y17022*
X22826Y16994*
X22826Y16994*
X22805Y16970*
X22805Y16970*
X22781Y16949*
X22781Y16949*
X22753Y16932*
X22753Y16932*
X22724Y16920*
X22724Y16920*
X22692Y16913*
X22692Y16913*
X22660Y16910*
X22660Y16910*
X22281Y16910*
X22281Y15085*
X22281Y15085*
X22279Y15070*
X22279Y15054*
X22279Y15054*
X22275Y15039*
X22274Y15023*
X22274Y15023*
X22268Y15008*
X22265Y14993*
X22265Y14993*
X22258Y14978*
X22253Y14964*
X22253Y14964*
X22244Y14950*
X22238Y14936*
X22238Y14936*
X22228Y14924*
X22219Y14910*
X22219Y14910*
X22208Y14899*
X22198Y14887*
X22198Y14887*
X21538Y14227*
X21538Y14227*
X21526Y14217*
X21515Y14206*
X21515Y14206*
X21501Y14197*
X21489Y14187*
X21489Y14187*
X21475Y14181*
X21461Y14172*
X21461Y14172*
X21447Y14167*
X21432Y14160*
X21432Y14160*
X21417Y14157*
X21402Y14151*
X21402Y14151*
X21386Y14150*
X21371Y14146*
X21371Y14146*
X21355Y14146*
X21340Y14144*
X21340Y14144*
X18516Y14144*
X18281Y13909*
X18281Y12905*
X18377Y12944*
X18377Y12944*
X18408Y12952*
X18408Y12952*
X18440Y12954*
X18440Y12954*
X18860Y12954*
X18860Y12954*
X18892Y12952*
X18892Y12952*
X18923Y12944*
X18923Y12944*
X18953Y12932*
X18953Y12932*
X18980Y12915*
X18980Y12915*
X19005Y12895*
X19005Y12895*
X19025Y12870*
X19025Y12870*
X19042Y12843*
X19042Y12843*
X19054Y12813*
X19054Y12813*
X19062Y12782*
X19062Y12782*
X19064Y12750*
X19064Y12750*
X19064Y12432*
X21338Y10159*
X21409Y10179*
X21420Y10224*
X21420Y10224*
X21432Y10253*
X21432Y10253*
X21449Y10281*
X21449Y10281*
X21470Y10305*
X21470Y10305*
X21494Y10326*
X21494Y10326*
X21522Y10343*
X21522Y10343*
X21551Y10355*
X21551Y10355*
X21583Y10362*
X21583Y10362*
X21615Y10365*
X21615Y10365*
X22285Y10365*
X22285Y10365*
X22317Y10362*
X22317Y10362*
X22349Y10355*
X22349Y10355*
X22378Y10343*
X22378Y10343*
X22406Y10326*
X22406Y10326*
X22430Y10305*
X22430Y10305*
X22451Y10281*
X22451Y10281*
X22468Y10253*
X22468Y10253*
X22480Y10224*
X22480Y10224*
X22487Y10192*
X22487Y10192*
X22490Y10160*
X22490Y10160*
X22490Y8840*
X22490Y8840*
X22487Y8808*
X22487Y8808*
X22480Y8776*
X22480Y8776*
X22468Y8747*
X22468Y8747*
X22451Y8719*
X22451Y8719*
X22430Y8695*
X22430Y8695*
X22406Y8674*
X22406Y8674*
X22378Y8657*
X22378Y8657*
X22349Y8645*
X22349Y8645*
X22317Y8638*
X22317Y8638*
X22285Y8635*
X22285Y8635*
X21615Y8635*
X21615Y8635*
X21583Y8638*
X21583Y8638*
X21551Y8645*
X21551Y8645*
X21522Y8657*
X21522Y8657*
X21494Y8674*
X21494Y8674*
X21470Y8695*
X21470Y8695*
X21449Y8719*
X21449Y8719*
X21432Y8747*
X21432Y8747*
X21420Y8776*
X21420Y8776*
X21413Y8808*
X21413Y8808*
X21410Y8840*
X21410Y8840*
X21410Y9293*
X18758Y11946*
X18440Y11946*
X18440Y11946*
X18408Y11948*
X18408Y11948*
X18377Y11956*
X18377Y11956*
X18281Y11995*
X18281Y11005*
X18377Y11044*
X18377Y11044*
X18408Y11052*
X18408Y11052*
X18440Y11054*
X18440Y11054*
X18860Y11054*
X18860Y11054*
X18892Y11052*
X18892Y11052*
X18923Y11044*
X18923Y11044*
X18953Y11032*
X18953Y11032*
X18980Y11015*
X18980Y11015*
X19005Y10995*
X19005Y10995*
X19025Y10970*
X19025Y10970*
X19042Y10943*
X19042Y10943*
X19054Y10913*
X19054Y10913*
X19062Y10882*
X19062Y10882*
X19064Y10850*
X19064Y10850*
X19064Y10532*
X20173Y9423*
X20173Y9423*
X20183Y9411*
X20194Y9400*
X20194Y9400*
X20203Y9387*
X20225Y9359*
X20287Y9327*
X20287Y9327*
X20386Y9239*
X20386Y9239*
X20461Y9130*
X20461Y9130*
X20508Y9006*
X20508Y9006*
X20524Y8875*
X20524Y8875*
X20508Y8744*
X20508Y8744*
X20461Y8620*
X20461Y8620*
X20386Y8511*
X20386Y8511*
X20287Y8423*
X20287Y8423*
X20170Y8362*
X20170Y8362*
X20041Y8330*
X20041Y8330*
X19909Y8330*
X19909Y8330*
X19780Y8362*
X19780Y8362*
X19663Y8423*
X19663Y8423*
X19564Y8511*
X19564Y8511*
X19489Y8620*
X19489Y8620*
X19442Y8744*
X19442Y8744*
X19426Y8875*
X19426Y8875*
X19442Y9006*
X19442Y9006*
X19489Y9130*
X19489Y9130*
X19564Y9239*
X18758Y10046*
X18440Y10046*
X18440Y10046*
X18408Y10048*
X18408Y10048*
X18377Y10056*
X18377Y10056*
X18281Y10095*
X18281Y6502*
X18281Y6502*
X18279Y6486*
X18279Y6471*
X18279Y6471*
X18275Y6455*
X18274Y6440*
X18274Y6440*
X18268Y6425*
X18265Y6409*
X18265Y6409*
X18258Y6395*
X18253Y6380*
X18253Y6380*
X18244Y6367*
X18238Y6353*
X18238Y6353*
X18228Y6340*
X18219Y6327*
X18219Y6327*
X18208Y6316*
X18198Y6304*
X18198Y6304*
X17347Y5452*
X17347Y4748*
X17347Y4748*
X17345Y4716*
X17345Y4716*
X17337Y4685*
X17337Y4685*
X17325Y4655*
X17325Y4655*
X17308Y4628*
X17308Y4628*
X17287Y4603*
X17287Y4603*
X17263Y4583*
X17263Y4583*
X17236Y4566*
X17236Y4566*
X17206Y4553*
X17206Y4553*
X17175Y4546*
X17175Y4546*
X17143Y4543*
X17143Y4543*
X16807Y4543*
X16807Y4543*
X16775Y4546*
X16775Y4546*
X16744Y4553*
X16744Y4553*
X16714Y4566*
X16714Y4566*
X16670Y4593*
X16606Y4556*
X16606Y4281*
X17859Y4281*
X19427Y5848*
X19427Y5848*
X19439Y5858*
X19450Y5869*
X19450Y5869*
X19463Y5878*
X19476Y5888*
X19476Y5888*
X19490Y5894*
X19503Y5903*
X19503Y5903*
X19518Y5908*
X19532Y5915*
X19532Y5915*
X19548Y5918*
X19563Y5924*
X19563Y5924*
X19578Y5925*
X19594Y5929*
X19594Y5929*
X19609Y5929*
X19625Y5931*
X19625Y5931*
X21692Y5931*
X21726Y5959*
X21726Y5959*
X21790Y5993*
X21790Y5993*
X21860Y6014*
X21860Y6014*
X21933Y6021*
X21933Y6021*
X22497Y6021*
X22497Y6021*
X22569Y6014*
X22569Y6014*
X22639Y5993*
X22639Y5993*
X22703Y5959*
X22703Y5959*
X22759Y5913*
X22759Y5913*
X22806Y5856*
X22806Y5856*
X22840Y5792*
X22840Y5792*
X22853Y5747*
X22930Y5734*
X22991Y5817*
X22991Y5817*
X22995Y5821*
X22998Y5825*
X22998Y5825*
X23016Y5844*
X23034Y5863*
X23034Y5863*
X23038Y5866*
X23042Y5869*
X23042Y5869*
X23064Y5883*
X23086Y5898*
X23086Y5898*
X23091Y5900*
X23095Y5903*
X23095Y5903*
X23120Y5912*
X23145Y5921*
X23145Y5921*
X23150Y5922*
X23155Y5924*
X23155Y5924*
X23181Y5927*
X23207Y5930*
X23207Y5930*
X23212Y5930*
X23217Y5931*
X23217Y5931*
X23263Y5931*
X23297Y5959*
X23297Y5959*
X23361Y5993*
X23361Y5993*
X23431Y6014*
X23431Y6014*
X23503Y6021*
X23503Y6021*
X24067Y6021*
X24067Y6021*
X24140Y6014*
X24140Y6014*
X24210Y5993*
X24210Y5993*
X24274Y5959*
X24274Y5959*
X24330Y5913*
X24330Y5913*
X24376Y5856*
X24376Y5856*
X24411Y5792*
X24411Y5792*
X24432Y5722*
X24432Y5722*
X24439Y5650*
X24439Y5650*
X24432Y5578*
X24432Y5578*
X24411Y5508*
X24411Y5508*
X24376Y5444*
X24376Y5444*
X24302Y5353*
X24336Y5281*
X25082Y5281*
X25139Y5364*
X25139Y5364*
X25238Y5452*
X25238Y5452*
X25355Y5513*
X25355Y5513*
X25484Y5545*
X25484Y5545*
X25616Y5545*
X25616Y5545*
X25745Y5513*
X25745Y5513*
X25848Y5458*
X26091Y5458*
X26158Y5602*
X26158Y5602*
X26278Y5774*
X26278Y5774*
X26426Y5922*
X26426Y5922*
X26598Y6042*
X26598Y6042*
X26788Y6131*
X26788Y6131*
X26991Y6185*
X26991Y6185*
X27070Y6192*
X27070Y6308*
X26991Y6315*
X26991Y6315*
X26788Y6369*
X26788Y6369*
X26598Y6458*
X26598Y6458*
X26426Y6578*
X26426Y6578*
X26278Y6726*
X26278Y6726*
X26158Y6898*
X26158Y6898*
X26091Y7042*
X24590Y7042*
X24590Y6840*
X24590Y6840*
X24587Y6808*
X24587Y6808*
X24580Y6776*
X24580Y6776*
X24568Y6747*
X24568Y6747*
X24551Y6719*
X24551Y6719*
X24530Y6695*
X24530Y6695*
X24506Y6674*
X24506Y6674*
X24478Y6657*
X24478Y6657*
X24449Y6645*
X24449Y6645*
X24417Y6638*
X24417Y6638*
X24385Y6635*
X24385Y6635*
X23715Y6635*
X23715Y6635*
X23683Y6638*
X23683Y6638*
X23651Y6645*
X23651Y6645*
X23622Y6657*
X23622Y6657*
X23594Y6674*
X23594Y6674*
X23570Y6695*
X23570Y6695*
X23549Y6719*
X23549Y6719*
X23532Y6747*
X23532Y6747*
X23520Y6776*
X23520Y6776*
X23513Y6808*
X23513Y6808*
X23510Y6840*
X23510Y6840*
X23510Y8160*
X23510Y8160*
X23513Y8192*
X23513Y8192*
X23520Y8224*
X23520Y8224*
X23532Y8253*
X23532Y8253*
X23549Y8281*
X23549Y8281*
X23570Y8305*
X23570Y8305*
X23594Y8326*
X23594Y8326*
X23622Y8343*
X23622Y8343*
X23651Y8355*
X23651Y8355*
X23683Y8362*
X23683Y8362*
X23715Y8365*
X23715Y8365*
X24385Y8365*
X24385Y8365*
X24417Y8362*
X24417Y8362*
X24449Y8355*
X24449Y8355*
X24478Y8343*
X24478Y8343*
X24506Y8326*
X24506Y8326*
X24530Y8305*
X24530Y8305*
X24551Y8281*
X24551Y8281*
X24568Y8253*
X24568Y8253*
X24580Y8224*
X24580Y8224*
X24587Y8192*
X24587Y8192*
X24590Y8160*
X24590Y8160*
X24590Y7958*
X26091Y7958*
X26158Y8102*
X26158Y8102*
X26278Y8274*
X26278Y8274*
X26426Y8422*
X26426Y8422*
X26598Y8542*
X26598Y8542*
X26788Y8631*
X26788Y8631*
X26991Y8685*
X26991Y8685*
X27200Y8703*
X27200Y8703*
X30600Y8703*
X30600Y8703*
X30809Y8685*
X30809Y8685*
X31012Y8631*
X31012Y8631*
X31202Y8542*
X31202Y8542*
X31374Y8422*
X31374Y8422*
X31422Y8374*
X31500Y8406*
X31500Y22500*
X0500Y22500*
X0500Y0500*
X31500Y0500*
X31500Y1296*
X29000Y17796D02*
X28510Y17851D01*
X28044Y18014*
X27626Y18277*
X27277Y18626*
X27014Y19044*
X26851Y19510*
X26796Y20000*
X26851Y20490*
X27014Y20956*
X27277Y21374*
X27626Y21723*
X28044Y21986*
X28510Y22149*
X29000Y22204*
X29490Y22149*
X29956Y21986*
X30374Y21723*
X30723Y21374*
X30986Y20956*
X31149Y20490*
X31204Y20000*
X31149Y19510*
X30986Y19044*
X30723Y18626*
X30374Y18277*
X29956Y18014*
X29490Y17851*
X29000Y17796*
X3000Y17796D02*
X2510Y17851D01*
X2044Y18014*
X1626Y18277*
X1277Y18626*
X1014Y19044*
X0851Y19510*
X0796Y20000*
X0851Y20490*
X1014Y20956*
X1277Y21374*
X1626Y21723*
X2044Y21986*
X2510Y22149*
X3000Y22204*
X3490Y22149*
X3956Y21986*
X4374Y21723*
X4723Y21374*
X4986Y20956*
X5149Y20490*
X5204Y20000*
X5149Y19510*
X4986Y19044*
X4723Y18626*
X4374Y18277*
X3956Y18014*
X3490Y17851*
X3000Y17796*
X23266Y19006D02*
X23134Y19006D01*
X23006Y19037*
X22902Y19092*
X22823Y19092*
X22805Y19070*
X22780Y19049*
X22753Y19033*
X22723Y19020*
X22692Y19013*
X22660Y19010*
X21340Y19010*
X21308Y19013*
X21277Y19020*
X21247Y19033*
X21220Y19049*
X21195Y19070*
X21174Y19095*
X21158Y19122*
X21145Y19152*
X21138Y19183*
X21135Y19215*
X21135Y19885*
X21138Y19917*
X21145Y19948*
X21158Y19978*
X21174Y20005*
X21195Y20030*
X21220Y20051*
X21247Y20067*
X21277Y20080*
X21308Y20087*
X21340Y20090*
X22660Y20090*
X22692Y20087*
X22723Y20080*
X22753Y20067*
X22780Y20051*
X22805Y20030*
X22823Y20008*
X22902Y20008*
X23006Y20063*
X23134Y20094*
X23266Y20094*
X23394Y20063*
X23512Y20001*
X23610Y19914*
X23686Y19805*
X23732Y19681*
X23748Y19550*
X23732Y19419*
X23686Y19295*
X23610Y19186*
X23512Y19099*
X23394Y19037*
X23266Y19006*
X10385Y10635D02*
X9715Y10635D01*
X9683Y10638*
X9652Y10645*
X9622Y10658*
X9595Y10674*
X9570Y10695*
X9549Y10720*
X9533Y10747*
X9520Y10777*
X9513Y10808*
X9510Y10840*
X9510Y12160*
X9513Y12192*
X9520Y12223*
X9533Y12253*
X9549Y12280*
X9570Y12305*
X9595Y12326*
X9622Y12342*
X9652Y12355*
X9683Y12362*
X9715Y12365*
X10385Y12365*
X10417Y12362*
X10448Y12355*
X10491Y12337*
X11452Y13298*
X11464Y13308*
X11475Y13319*
X11489Y13328*
X11501Y13337*
X11515Y13344*
X11545Y13363*
X11615Y13464*
X11713Y13551*
X11831Y13613*
X11959Y13644*
X12091Y13644*
X12219Y13613*
X12337Y13551*
X12435Y13464*
X12511Y13355*
X12557Y13231*
X12573Y13100*
X12557Y12969*
X12511Y12845*
X12435Y12736*
X12337Y12649*
X12219Y12587*
X12091Y12556*
X11959Y12556*
X11831Y12587*
X11713Y12649*
X11651Y12704*
X10590Y11643*
X10590Y10840*
X10587Y10808*
X10580Y10777*
X10567Y10747*
X10551Y10720*
X10530Y10695*
X10505Y10674*
X10478Y10658*
X10448Y10645*
X10417Y10638*
X10385Y10635*
X22285Y10635D02*
X21615Y10635D01*
X21583Y10638*
X21552Y10645*
X21522Y10658*
X21495Y10674*
X21470Y10695*
X21449Y10720*
X21433Y10747*
X21420Y10777*
X21413Y10808*
X21410Y10840*
X21410Y11271*
X21389Y11292*
X21377Y11302*
X20107Y12572*
X20041Y12556*
X19909Y12556*
X19781Y12587*
X19663Y12649*
X19565Y12736*
X19489Y12845*
X19443Y12969*
X19427Y13100*
X19443Y13231*
X19489Y13355*
X19565Y13464*
X19663Y13551*
X19781Y13613*
X19909Y13644*
X20041Y13644*
X20169Y13613*
X20287Y13551*
X20385Y13464*
X20461Y13355*
X20507Y13231*
X20523Y13100*
X20507Y12965*
X21333Y12138*
X21405Y12159*
X21420Y12223*
X21433Y12253*
X21449Y12280*
X21470Y12305*
X21495Y12326*
X21522Y12342*
X21552Y12355*
X21583Y12362*
X21615Y12365*
X22285Y12365*
X22317Y12362*
X22348Y12355*
X22378Y12342*
X22405Y12326*
X22430Y12305*
X22451Y12280*
X22467Y12253*
X22480Y12223*
X22487Y12192*
X22490Y12160*
X22490Y10840*
X22487Y10808*
X22480Y10777*
X22467Y10747*
X22451Y10720*
X22430Y10695*
X22405Y10674*
X22378Y10658*
X22348Y10645*
X22317Y10638*
X22285Y10635*
X8285Y8635D02*
X7615Y8635D01*
X7583Y8638*
X7552Y8645*
X7522Y8658*
X7495Y8674*
X7470Y8695*
X7449Y8720*
X7433Y8747*
X7420Y8777*
X7413Y8808*
X7410Y8840*
X7410Y10160*
X7413Y10192*
X7420Y10223*
X7433Y10253*
X7449Y10280*
X7470Y10305*
X7492Y10323*
X7492Y10677*
X7470Y10695*
X7449Y10720*
X7433Y10747*
X7420Y10777*
X7413Y10808*
X7410Y10840*
X7410Y12160*
X7413Y12192*
X7420Y12223*
X7433Y12253*
X7449Y12280*
X7470Y12305*
X7495Y12326*
X7522Y12342*
X7552Y12355*
X7583Y12362*
X7615Y12365*
X8285Y12365*
X8317Y12362*
X8348Y12355*
X8378Y12342*
X8405Y12326*
X8430Y12305*
X8451Y12280*
X8467Y12253*
X8480Y12223*
X8487Y12192*
X8490Y12160*
X8490Y10840*
X8487Y10808*
X8480Y10777*
X8467Y10747*
X8451Y10720*
X8430Y10695*
X8408Y10677*
X8408Y10323*
X8430Y10305*
X8451Y10280*
X8467Y10253*
X8480Y10223*
X8487Y10192*
X8490Y10160*
X8490Y8840*
X8487Y8808*
X8480Y8777*
X8467Y8747*
X8451Y8720*
X8430Y8695*
X8405Y8674*
X8378Y8658*
X8348Y8645*
X8317Y8638*
X8285Y8635*
X24385Y8635D02*
X23715Y8635D01*
X23683Y8638*
X23652Y8645*
X23622Y8658*
X23595Y8674*
X23570Y8695*
X23549Y8720*
X23533Y8747*
X23520Y8777*
X23513Y8808*
X23510Y8840*
X23510Y10160*
X23513Y10192*
X23520Y10223*
X23533Y10253*
X23549Y10280*
X23570Y10305*
X23592Y10323*
X23592Y10677*
X23570Y10695*
X23549Y10720*
X23533Y10747*
X23520Y10777*
X23513Y10808*
X23510Y10840*
X23510Y12160*
X23513Y12192*
X23520Y12223*
X23533Y12253*
X23549Y12280*
X23570Y12305*
X23595Y12326*
X23622Y12342*
X23652Y12355*
X23683Y12362*
X23715Y12365*
X24385Y12365*
X24417Y12362*
X24448Y12355*
X24478Y12342*
X24505Y12326*
X24530Y12305*
X24551Y12280*
X24567Y12253*
X24580Y12223*
X24587Y12192*
X24590Y12160*
X24590Y10840*
X24587Y10808*
X24580Y10777*
X24567Y10747*
X24551Y10720*
X24530Y10695*
X24508Y10677*
X24508Y10323*
X24530Y10305*
X24551Y10280*
X24567Y10253*
X24580Y10223*
X24587Y10192*
X24590Y10160*
X24590Y8840*
X24587Y8808*
X24580Y8777*
X24567Y8747*
X24551Y8720*
X24530Y8695*
X24505Y8674*
X24478Y8658*
X24448Y8645*
X24417Y8638*
X24385Y8635*
X12091Y8331D02*
X11959Y8331D01*
X11831Y8362*
X11713Y8424*
X11615Y8511*
X11539Y8620*
X11493Y8744*
X11477Y8875*
X11493Y9006*
X11539Y9130*
X11615Y9239*
X11713Y9326*
X11831Y9388*
X11959Y9419*
X12091Y9419*
X12219Y9388*
X12337Y9326*
X12435Y9239*
X12511Y9130*
X12557Y9006*
X12573Y8875*
X12557Y8744*
X12511Y8620*
X12435Y8511*
X12337Y8424*
X12219Y8362*
X12091Y8331*
X21021Y6212D02*
X20889Y6212D01*
X20761Y6244*
X20643Y6305*
X20545Y6393*
X20469Y6502*
X20423Y6625*
X20407Y6756*
X20423Y6888*
X20469Y7011*
X20545Y7120*
X20643Y7208*
X20761Y7269*
X20889Y7301*
X21021Y7301*
X21149Y7269*
X21267Y7208*
X21336Y7147*
X21410Y7180*
X21410Y8160*
X21413Y8192*
X21420Y8223*
X21433Y8253*
X21449Y8280*
X21470Y8305*
X21495Y8326*
X21522Y8342*
X21552Y8355*
X21583Y8362*
X21615Y8365*
X22285Y8365*
X22317Y8362*
X22348Y8355*
X22378Y8342*
X22405Y8326*
X22430Y8305*
X22451Y8280*
X22467Y8253*
X22480Y8223*
X22487Y8192*
X22490Y8160*
X22490Y6840*
X22487Y6808*
X22480Y6777*
X22467Y6747*
X22451Y6720*
X22430Y6695*
X22405Y6674*
X22378Y6658*
X22348Y6645*
X22317Y6638*
X22285Y6635*
X21965Y6635*
X21887Y6558*
X21875Y6548*
X21864Y6537*
X21850Y6529*
X21838Y6519*
X21824Y6512*
X21811Y6504*
X21796Y6499*
X21782Y6492*
X21766Y6488*
X21751Y6483*
X21736Y6481*
X21720Y6478*
X21705Y6478*
X21689Y6476*
X21423Y6476*
X21365Y6393*
X21267Y6305*
X21149Y6244*
X21021Y6212*
X3000Y0796D02*
X2510Y0851D01*
X2044Y1014*
X1626Y1277*
X1277Y1626*
X1014Y2044*
X0851Y2510*
X0796Y3000*
X0851Y3490*
X1014Y3956*
X1277Y4374*
X1626Y4723*
X2044Y4986*
X2510Y5149*
X3000Y5204*
X3490Y5149*
X3956Y4986*
X4374Y4723*
X4639Y4458*
X5625Y4458*
X5656Y4494*
X5680Y4515*
X5707Y4532*
X5737Y4544*
X5768Y4552*
X5800Y4554*
X6200Y4554*
X6232Y4552*
X6263Y4544*
X6293Y4532*
X6320Y4515*
X6344Y4494*
X6365Y4470*
X6382Y4443*
X6394Y4413*
X6402Y4382*
X6404Y4350*
X6404Y4211*
X6423Y4175*
X6449Y4089*
X6458Y4000*
X6449Y3911*
X6423Y3825*
X6404Y3789*
X6404Y3650*
X6402Y3618*
X6394Y3587*
X6382Y3557*
X6365Y3530*
X6344Y3506*
X6320Y3485*
X6293Y3468*
X6263Y3456*
X6232Y3448*
X6200Y3446*
X5800Y3446*
X5768Y3448*
X5737Y3456*
X5707Y3468*
X5680Y3485*
X5656Y3506*
X5625Y3542*
X5143Y3542*
X5204Y3000*
X5149Y2510*
X4986Y2044*
X4723Y1626*
X4374Y1277*
X3956Y1014*
X3490Y0851*
X3000Y0796*
X8700Y3446D02*
X8602Y3446D01*
X8602Y3701*
X8398Y3701*
X8398Y3446*
X8300Y3446*
X8268Y3448*
X8237Y3456*
X8207Y3468*
X8180Y3485*
X8156Y3506*
X8135Y3530*
X8118Y3557*
X8106Y3587*
X8098Y3618*
X8096Y3650*
X8096Y3898*
X8351Y3898*
X8351Y4102*
X8096Y4102*
X8096Y4350*
X8098Y4382*
X8106Y4413*
X8118Y4443*
X8135Y4470*
X8156Y4494*
X8180Y4515*
X8207Y4532*
X8237Y4544*
X8268Y4552*
X8300Y4554*
X8398Y4554*
X8398Y4299*
X8602Y4299*
X8602Y4554*
X8700Y4554*
X8732Y4552*
X8763Y4544*
X8793Y4532*
X8820Y4515*
X8844Y4494*
X8865Y4470*
X8882Y4443*
X8894Y4413*
X8902Y4382*
X8904Y4350*
X8904Y4102*
X8649Y4102*
X8649Y3898*
X8904Y3898*
X8904Y3650*
X8902Y3618*
X8894Y3587*
X8882Y3557*
X8865Y3530*
X8844Y3506*
X8820Y3485*
X8793Y3468*
X8763Y3456*
X8732Y3448*
X8700Y3446*
X15025Y1591D02*
X14953Y1598D01*
X14883Y1619*
X14819Y1653*
X14763Y1699*
X14716Y1756*
X14682Y1820*
X14661Y1889*
X14654Y1962*
X14654Y2243*
X14527Y2243*
X14511Y2244*
X14496Y2244*
X14480Y2248*
X14465Y2250*
X14450Y2255*
X14434Y2258*
X14420Y2265*
X14405Y2270*
X14392Y2279*
X14378Y2286*
X14365Y2295*
X14326Y2320*
X14266Y2306*
X14134Y2306*
X14006Y2337*
X13888Y2399*
X13790Y2486*
X13714Y2595*
X13668Y2719*
X13652Y2850*
X13668Y2981*
X13714Y3105*
X13790Y3214*
X13888Y3301*
X14006Y3363*
X14134Y3394*
X14266Y3394*
X14394Y3363*
X14512Y3301*
X14655Y3175*
X14716Y3290*
X14763Y3347*
X14819Y3393*
X14883Y3427*
X14953Y3448*
X15025Y3455*
X15097Y3448*
X15167Y3427*
X15231Y3393*
X15287Y3347*
X15350Y3270*
X15413Y3347*
X15469Y3393*
X15533Y3427*
X15573Y3439*
X15573Y3201*
X15777Y3201*
X15777Y3439*
X15817Y3427*
X15881Y3393*
X15937Y3347*
X16000Y3270*
X16063Y3347*
X16119Y3393*
X16183Y3427*
X16223Y3439*
X16223Y3201*
X16427Y3201*
X16427Y3439*
X16467Y3427*
X16531Y3393*
X16587Y3347*
X16650Y3270*
X16713Y3347*
X16769Y3393*
X16833Y3427*
X16873Y3439*
X16873Y3201*
X17077Y3201*
X17077Y3439*
X17117Y3427*
X17181Y3393*
X17237Y3347*
X17284Y3290*
X17318Y3226*
X17339Y3157*
X17346Y3084*
X17346Y2625*
X17092Y2625*
X17092Y2421*
X17346Y2421*
X17346Y1962*
X17339Y1889*
X17318Y1820*
X17284Y1756*
X17237Y1699*
X17181Y1653*
X17117Y1619*
X17077Y1607*
X17077Y1845*
X16873Y1845*
X16873Y1607*
X16833Y1619*
X16769Y1653*
X16713Y1699*
X16650Y1776*
X16587Y1699*
X16531Y1653*
X16467Y1619*
X16427Y1607*
X16427Y1845*
X16223Y1845*
X16223Y1607*
X16183Y1619*
X16119Y1653*
X16063Y1699*
X16000Y1776*
X15937Y1699*
X15881Y1653*
X15817Y1619*
X15777Y1607*
X15777Y1845*
X15573Y1845*
X15573Y1607*
X15533Y1619*
X15469Y1653*
X15413Y1699*
X15350Y1776*
X15287Y1699*
X15231Y1653*
X15167Y1619*
X15097Y1598*
X15025Y1591*
X0500Y0550D02*
X31500Y0550D01*
X0500Y0599D02*
X31500Y0599D01*
X0500Y0649D02*
X31500Y0649D01*
X0500Y0698D02*
X31500Y0698D01*
X0500Y0748D02*
X31500Y0748D01*
X0500Y0797D02*
X2985Y0797D01*
X3015Y0797D02*
X31500Y0797D01*
X0500Y0847D02*
X2546Y0847D01*
X3454Y0847D02*
X31500Y0847D01*
X0500Y0896D02*
X2380Y0896D01*
X3620Y0896D02*
X31500Y0896D01*
X0500Y0946D02*
X2238Y0946D01*
X3762Y0946D02*
X31500Y0946D01*
X0500Y0995D02*
X2097Y0995D01*
X3903Y0995D02*
X31500Y0995D01*
X0500Y1045D02*
X1994Y1045D01*
X4006Y1045D02*
X31500Y1045D01*
X0500Y1094D02*
X1915Y1094D01*
X4085Y1094D02*
X31500Y1094D01*
X0500Y1144D02*
X1837Y1144D01*
X4163Y1144D02*
X31500Y1144D01*
X0500Y1193D02*
X1758Y1193D01*
X4242Y1193D02*
X31500Y1193D01*
X0500Y1243D02*
X1679Y1243D01*
X4321Y1243D02*
X31500Y1243D01*
X0500Y1292D02*
X1610Y1292D01*
X4390Y1292D02*
X31500Y1292D01*
X0500Y1342D02*
X1560Y1342D01*
X4440Y1342D02*
X26072Y1342D01*
X0500Y1392D02*
X1510Y1392D01*
X4490Y1392D02*
X26028Y1392D01*
X0500Y1441D02*
X1461Y1441D01*
X4539Y1441D02*
X26005Y1441D01*
X0500Y1491D02*
X1411Y1491D01*
X4589Y1491D02*
X25997Y1491D01*
X0500Y1540D02*
X1362Y1540D01*
X4638Y1540D02*
X25996Y1540D01*
X0500Y1590D02*
X1312Y1590D01*
X4688Y1590D02*
X25996Y1590D01*
X0500Y1639D02*
X1268Y1639D01*
X4732Y1639D02*
X14845Y1639D01*
X15205Y1639D02*
X15495Y1639D01*
X15574Y1639D02*
X15776Y1639D01*
X15855Y1639D02*
X16145Y1639D01*
X16224Y1639D02*
X16426Y1639D01*
X16505Y1639D02*
X16795Y1639D01*
X16874Y1639D02*
X17076Y1639D01*
X17155Y1639D02*
X21578Y1639D01*
X22322Y1639D02*
X23678Y1639D01*
X24422Y1639D02*
X25996Y1639D01*
X0500Y1689D02*
X1237Y1689D01*
X4763Y1689D02*
X14775Y1689D01*
X15275Y1689D02*
X15425Y1689D01*
X15574Y1689D02*
X15776Y1689D01*
X15925Y1689D02*
X16075Y1689D01*
X16224Y1689D02*
X16426Y1689D01*
X16575Y1689D02*
X16725Y1689D01*
X16874Y1689D02*
X17076Y1689D01*
X17225Y1689D02*
X21478Y1689D01*
X22422Y1689D02*
X23578Y1689D01*
X24522Y1689D02*
X25996Y1689D01*
X0500Y1738D02*
X1206Y1738D01*
X4794Y1738D02*
X14730Y1738D01*
X15320Y1738D02*
X15380Y1738D01*
X15574Y1738D02*
X15776Y1738D01*
X15970Y1738D02*
X16030Y1738D01*
X16224Y1738D02*
X16426Y1738D01*
X16620Y1738D02*
X16680Y1738D01*
X16874Y1738D02*
X17076Y1738D01*
X17270Y1738D02*
X21438Y1738D01*
X22462Y1738D02*
X23538Y1738D01*
X24562Y1738D02*
X25996Y1738D01*
X0500Y1788D02*
X1175Y1788D01*
X4825Y1788D02*
X14699Y1788D01*
X15574Y1788D02*
X15776Y1788D01*
X16224Y1788D02*
X16426Y1788D01*
X16874Y1788D02*
X17076Y1788D01*
X17301Y1788D02*
X21418Y1788D01*
X22482Y1788D02*
X23518Y1788D01*
X24582Y1788D02*
X25996Y1788D01*
X0500Y1837D02*
X1143Y1837D01*
X4857Y1837D02*
X14677Y1837D01*
X15574Y1837D02*
X15776Y1837D01*
X16224Y1837D02*
X16426Y1837D01*
X16874Y1837D02*
X17076Y1837D01*
X17323Y1837D02*
X21411Y1837D01*
X22489Y1837D02*
X23511Y1837D01*
X24589Y1837D02*
X25996Y1837D01*
X0500Y1887D02*
X1112Y1887D01*
X4888Y1887D02*
X14662Y1887D01*
X17338Y1887D02*
X21410Y1887D01*
X22490Y1887D02*
X23510Y1887D01*
X24590Y1887D02*
X25996Y1887D01*
X0500Y1936D02*
X1081Y1936D01*
X4919Y1936D02*
X14656Y1936D01*
X17344Y1936D02*
X21410Y1936D01*
X22490Y1936D02*
X23510Y1936D01*
X24590Y1936D02*
X25996Y1936D01*
X0500Y1986D02*
X1050Y1986D01*
X4950Y1986D02*
X14654Y1986D01*
X17346Y1986D02*
X21410Y1986D01*
X22490Y1986D02*
X23510Y1986D01*
X24590Y1986D02*
X25996Y1986D01*
X0500Y2035D02*
X1019Y2035D01*
X4981Y2035D02*
X14654Y2035D01*
X17346Y2035D02*
X21410Y2035D01*
X22490Y2035D02*
X23510Y2035D01*
X24590Y2035D02*
X25996Y2035D01*
X0500Y2085D02*
X0999Y2085D01*
X5001Y2085D02*
X14654Y2085D01*
X17346Y2085D02*
X21410Y2085D01*
X22490Y2085D02*
X23510Y2085D01*
X0500Y2134D02*
X0982Y2134D01*
X5018Y2134D02*
X14654Y2134D01*
X17346Y2134D02*
X21410Y2134D01*
X22490Y2134D02*
X23510Y2134D01*
X0500Y2184D02*
X0965Y2184D01*
X5035Y2184D02*
X14654Y2184D01*
X17346Y2184D02*
X21410Y2184D01*
X22490Y2184D02*
X23510Y2184D01*
X0500Y2234D02*
X0947Y2234D01*
X5053Y2234D02*
X14654Y2234D01*
X17346Y2234D02*
X21410Y2234D01*
X22490Y2234D02*
X23510Y2234D01*
X0500Y2283D02*
X0930Y2283D01*
X5070Y2283D02*
X14382Y2283D01*
X17346Y2283D02*
X21410Y2283D01*
X22490Y2283D02*
X23510Y2283D01*
X0500Y2333D02*
X0913Y2333D01*
X5087Y2333D02*
X14023Y2333D01*
X17346Y2333D02*
X21410Y2333D01*
X22490Y2333D02*
X23510Y2333D01*
X0500Y2382D02*
X0895Y2382D01*
X5105Y2382D02*
X13919Y2382D01*
X17346Y2382D02*
X21410Y2382D01*
X22490Y2382D02*
X23510Y2382D01*
X0500Y2432D02*
X0878Y2432D01*
X5122Y2432D02*
X13851Y2432D01*
X17092Y2432D02*
X21410Y2432D01*
X22490Y2432D02*
X23510Y2432D01*
X0500Y2481D02*
X0861Y2481D01*
X5139Y2481D02*
X13795Y2481D01*
X17092Y2481D02*
X21410Y2481D01*
X22490Y2481D02*
X23510Y2481D01*
X0500Y2531D02*
X0848Y2531D01*
X5152Y2531D02*
X13759Y2531D01*
X17092Y2531D02*
X21410Y2531D01*
X22490Y2531D02*
X23510Y2531D01*
X0500Y2580D02*
X0843Y2580D01*
X5157Y2580D02*
X13724Y2580D01*
X17092Y2580D02*
X21410Y2580D01*
X22490Y2580D02*
X23510Y2580D01*
X0500Y2630D02*
X0837Y2630D01*
X5163Y2630D02*
X13701Y2630D01*
X17346Y2630D02*
X21410Y2630D01*
X22490Y2630D02*
X23510Y2630D01*
X0500Y2679D02*
X0832Y2679D01*
X5168Y2679D02*
X13682Y2679D01*
X17346Y2679D02*
X21410Y2679D01*
X22503Y2679D02*
X23510Y2679D01*
X0500Y2729D02*
X0826Y2729D01*
X5174Y2729D02*
X13666Y2729D01*
X17346Y2729D02*
X21410Y2729D01*
X22552Y2729D02*
X23510Y2729D01*
X0500Y2778D02*
X0821Y2778D01*
X5179Y2778D02*
X13660Y2778D01*
X17346Y2778D02*
X21410Y2778D01*
X22602Y2778D02*
X23510Y2778D01*
X0500Y2828D02*
X0815Y2828D01*
X5185Y2828D02*
X13654Y2828D01*
X17346Y2828D02*
X21410Y2828D01*
X22651Y2828D02*
X23510Y2828D01*
X0500Y2877D02*
X0809Y2877D01*
X5191Y2877D02*
X13655Y2877D01*
X17346Y2877D02*
X21410Y2877D01*
X22701Y2877D02*
X23510Y2877D01*
X0500Y2927D02*
X0804Y2927D01*
X5196Y2927D02*
X13661Y2927D01*
X17346Y2927D02*
X21410Y2927D01*
X22751Y2927D02*
X23510Y2927D01*
X0500Y2977D02*
X0798Y2977D01*
X5202Y2977D02*
X13667Y2977D01*
X17346Y2977D02*
X21410Y2977D01*
X22800Y2977D02*
X23510Y2977D01*
X0500Y3026D02*
X0798Y3026D01*
X5202Y3026D02*
X13684Y3026D01*
X17346Y3026D02*
X21410Y3026D01*
X22850Y3026D02*
X23510Y3026D01*
X0500Y3076D02*
X0804Y3076D01*
X5196Y3076D02*
X13703Y3076D01*
X17346Y3076D02*
X21410Y3076D01*
X22899Y3076D02*
X23510Y3076D01*
X0500Y3125D02*
X0810Y3125D01*
X5190Y3125D02*
X13728Y3125D01*
X17342Y3125D02*
X21410Y3125D01*
X22949Y3125D02*
X23510Y3125D01*
X0500Y3175D02*
X0815Y3175D01*
X5185Y3175D02*
X13762Y3175D01*
X17334Y3175D02*
X21412Y3175D01*
X22998Y3175D02*
X23512Y3175D01*
X0500Y3224D02*
X0821Y3224D01*
X5179Y3224D02*
X13801Y3224D01*
X14599Y3224D02*
X14681Y3224D01*
X15574Y3224D02*
X15776Y3224D01*
X16224Y3224D02*
X16426Y3224D01*
X16874Y3224D02*
X17076Y3224D01*
X17319Y3224D02*
X21421Y3224D01*
X23048Y3224D02*
X23521Y3224D01*
X0500Y3274D02*
X0826Y3274D01*
X5174Y3274D02*
X13857Y3274D01*
X14543Y3274D02*
X14707Y3274D01*
X15348Y3274D02*
X15352Y3274D01*
X15574Y3274D02*
X15776Y3274D01*
X15998Y3274D02*
X16002Y3274D01*
X16224Y3274D02*
X16426Y3274D01*
X16648Y3274D02*
X16652Y3274D01*
X16874Y3274D02*
X17076Y3274D01*
X17293Y3274D02*
X21445Y3274D01*
X23097Y3274D02*
X23545Y3274D01*
X0500Y3323D02*
X0832Y3323D01*
X5168Y3323D02*
X13930Y3323D01*
X14470Y3323D02*
X14743Y3323D01*
X15307Y3323D02*
X15393Y3323D01*
X15574Y3323D02*
X15776Y3323D01*
X15957Y3323D02*
X16043Y3323D01*
X16224Y3323D02*
X16426Y3323D01*
X16607Y3323D02*
X16693Y3323D01*
X16874Y3323D02*
X17076Y3323D01*
X17257Y3323D02*
X21492Y3323D01*
X23147Y3323D02*
X23592Y3323D01*
X0500Y3373D02*
X0838Y3373D01*
X5162Y3373D02*
X14045Y3373D01*
X14355Y3373D02*
X14794Y3373D01*
X15256Y3373D02*
X15444Y3373D01*
X15574Y3373D02*
X15776Y3373D01*
X15906Y3373D02*
X16094Y3373D01*
X16224Y3373D02*
X16426Y3373D01*
X16556Y3373D02*
X16744Y3373D01*
X16874Y3373D02*
X17076Y3373D01*
X17206Y3373D02*
X22403Y3373D01*
X23196Y3373D02*
X24186Y3373D01*
X0500Y3422D02*
X0843Y3422D01*
X5157Y3422D02*
X14874Y3422D01*
X15176Y3422D02*
X15524Y3422D01*
X15574Y3422D02*
X15776Y3422D01*
X15826Y3422D02*
X16174Y3422D01*
X16224Y3422D02*
X16426Y3422D01*
X16476Y3422D02*
X16824Y3422D01*
X16874Y3422D02*
X17076Y3422D01*
X17126Y3422D02*
X22453Y3422D01*
X23246Y3422D02*
X24203Y3422D01*
X0500Y3472D02*
X0849Y3472D01*
X5151Y3472D02*
X5701Y3472D01*
X6299Y3472D02*
X8201Y3472D01*
X8399Y3472D02*
X8601Y3472D01*
X8799Y3472D02*
X10701Y3472D01*
X11299Y3472D02*
X22502Y3472D01*
X23295Y3472D02*
X24185Y3472D01*
X0500Y3521D02*
X0862Y3521D01*
X5146Y3521D02*
X5642Y3521D01*
X6358Y3521D02*
X8142Y3521D01*
X8399Y3521D02*
X8601Y3521D01*
X8858Y3521D02*
X10642Y3521D01*
X11358Y3521D02*
X22552Y3521D01*
X23345Y3521D02*
X24126Y3521D01*
X0500Y3571D02*
X0879Y3571D01*
X6388Y3571D02*
X8112Y3571D01*
X8399Y3571D02*
X8601Y3571D01*
X8888Y3571D02*
X10612Y3571D01*
X11388Y3571D02*
X22601Y3571D01*
X23394Y3571D02*
X24076Y3571D01*
X0500Y3620D02*
X0896Y3620D01*
X6402Y3620D02*
X8098Y3620D01*
X8399Y3620D02*
X8601Y3620D01*
X8902Y3620D02*
X10598Y3620D01*
X11402Y3620D02*
X22651Y3620D01*
X23444Y3620D02*
X24027Y3620D01*
X0500Y3670D02*
X0914Y3670D01*
X6404Y3670D02*
X8096Y3670D01*
X8399Y3670D02*
X8601Y3670D01*
X8904Y3670D02*
X10596Y3670D01*
X11404Y3670D02*
X22700Y3670D01*
X23493Y3670D02*
X23977Y3670D01*
X0500Y3719D02*
X0931Y3719D01*
X6404Y3719D02*
X8096Y3719D01*
X8904Y3719D02*
X10596Y3719D01*
X11404Y3719D02*
X16248Y3719D01*
X16402Y3719D02*
X22750Y3719D01*
X23543Y3719D02*
X23928Y3719D01*
X0500Y3769D02*
X0948Y3769D01*
X6404Y3769D02*
X8096Y3769D01*
X8904Y3769D02*
X10596Y3769D01*
X18156Y3769D02*
X22799Y3769D01*
X23593Y3769D02*
X23878Y3769D01*
X0500Y3819D02*
X0966Y3819D01*
X6420Y3819D02*
X8096Y3819D01*
X8904Y3819D02*
X10596Y3819D01*
X18213Y3819D02*
X22849Y3819D01*
X23642Y3819D02*
X23829Y3819D01*
X0500Y3868D02*
X0983Y3868D01*
X6437Y3868D02*
X8096Y3868D01*
X8904Y3868D02*
X10596Y3868D01*
X18246Y3868D02*
X22898Y3868D01*
X23692Y3868D02*
X23779Y3868D01*
X0500Y3918D02*
X1000Y3918D01*
X6450Y3918D02*
X8351Y3918D01*
X8649Y3918D02*
X10596Y3918D01*
X18289Y3918D02*
X22948Y3918D01*
X0500Y3967D02*
X1021Y3967D01*
X6455Y3967D02*
X8351Y3967D01*
X8649Y3967D02*
X10596Y3967D01*
X18339Y3967D02*
X22998Y3967D01*
X0500Y4017D02*
X1052Y4017D01*
X6457Y4017D02*
X8351Y4017D01*
X8649Y4017D02*
X10596Y4017D01*
X18388Y4017D02*
X21773Y4017D01*
X22657Y4017D02*
X23047Y4017D01*
X0500Y4066D02*
X1083Y4066D01*
X6452Y4066D02*
X8351Y4066D01*
X8649Y4066D02*
X10596Y4066D01*
X18438Y4066D02*
X21696Y4066D01*
X22733Y4066D02*
X23097Y4066D01*
X0500Y4116D02*
X1114Y4116D01*
X6442Y4116D02*
X8096Y4116D01*
X8904Y4116D02*
X10596Y4116D01*
X18487Y4116D02*
X21647Y4116D01*
X22910Y4116D02*
X23142Y4116D01*
X0500Y4165D02*
X1145Y4165D01*
X6427Y4165D02*
X8096Y4165D01*
X8904Y4165D02*
X10596Y4165D01*
X18537Y4165D02*
X21613Y4165D01*
X22983Y4165D02*
X23132Y4165D01*
X0500Y4215D02*
X1176Y4215D01*
X6404Y4215D02*
X8096Y4215D01*
X8904Y4215D02*
X10596Y4215D01*
X18586Y4215D02*
X21588Y4215D01*
X23055Y4215D02*
X23078Y4215D01*
X0500Y4264D02*
X1207Y4264D01*
X6404Y4264D02*
X8096Y4264D01*
X8904Y4264D02*
X10596Y4264D01*
X18636Y4264D02*
X21573Y4264D01*
X0500Y4314D02*
X1238Y4314D01*
X6404Y4314D02*
X8096Y4314D01*
X8399Y4314D02*
X8601Y4314D01*
X8904Y4314D02*
X10596Y4314D01*
X11404Y4314D02*
X13914Y4314D01*
X16605Y4314D02*
X17892Y4314D01*
X18685Y4314D02*
X21565Y4314D01*
X0500Y4363D02*
X1270Y4363D01*
X6403Y4363D02*
X8097Y4363D01*
X8399Y4363D02*
X8601Y4363D01*
X8903Y4363D02*
X10597Y4363D01*
X11403Y4363D02*
X13926Y4363D01*
X16605Y4363D02*
X17942Y4363D01*
X18735Y4363D02*
X21563Y4363D01*
X0500Y4413D02*
X1315Y4413D01*
X6395Y4413D02*
X8105Y4413D01*
X8399Y4413D02*
X8601Y4413D01*
X8895Y4413D02*
X10606Y4413D01*
X11394Y4413D02*
X13872Y4413D01*
X16605Y4413D02*
X17991Y4413D01*
X18784Y4413D02*
X21568Y4413D01*
X0500Y4462D02*
X1364Y4462D01*
X4636Y4462D02*
X5628Y4462D01*
X6370Y4462D02*
X8130Y4462D01*
X8399Y4462D02*
X8601Y4462D01*
X8870Y4462D02*
X10630Y4462D01*
X11370Y4462D02*
X13817Y4462D01*
X16605Y4462D02*
X18041Y4462D01*
X18834Y4462D02*
X21581Y4462D01*
X0500Y4512D02*
X1414Y4512D01*
X4586Y4512D02*
X5676Y4512D01*
X6324Y4512D02*
X8176Y4512D01*
X8399Y4512D02*
X8601Y4512D01*
X8824Y4512D02*
X10676Y4512D01*
X11324Y4512D02*
X13772Y4512D01*
X16605Y4512D02*
X18090Y4512D01*
X18883Y4512D02*
X21600Y4512D01*
X0500Y4561D02*
X1463Y4561D01*
X4537Y4561D02*
X13738Y4561D01*
X16614Y4561D02*
X16725Y4561D01*
X17225Y4561D02*
X18140Y4561D01*
X18933Y4561D02*
X21628Y4561D01*
X0500Y4611D02*
X1513Y4611D01*
X4487Y4611D02*
X13708Y4611D01*
X17294Y4611D02*
X18189Y4611D01*
X18983Y4611D02*
X21669Y4611D01*
X0500Y4661D02*
X1563Y4661D01*
X4437Y4661D02*
X13690Y4661D01*
X17327Y4661D02*
X18239Y4661D01*
X19032Y4661D02*
X21729Y4661D01*
X0500Y4710D02*
X1612Y4710D01*
X4388Y4710D02*
X13671Y4710D01*
X17343Y4710D02*
X18289Y4710D01*
X19082Y4710D02*
X21704Y4710D01*
X0500Y4760D02*
X1683Y4760D01*
X4317Y4760D02*
X13663Y4760D01*
X17347Y4760D02*
X18338Y4760D01*
X19131Y4760D02*
X21652Y4760D01*
X0500Y4809D02*
X1762Y4809D01*
X4238Y4809D02*
X13657Y4809D01*
X17347Y4809D02*
X18388Y4809D01*
X19181Y4809D02*
X21616Y4809D01*
X0500Y4859D02*
X1841Y4859D01*
X4159Y4859D02*
X13653Y4859D01*
X17347Y4859D02*
X18437Y4859D01*
X19230Y4859D02*
X21589Y4859D01*
X0500Y4908D02*
X1919Y4908D01*
X4081Y4908D02*
X13659Y4908D01*
X17347Y4908D02*
X18487Y4908D01*
X19280Y4908D02*
X21815Y4908D01*
X0500Y4958D02*
X1998Y4958D01*
X4002Y4958D02*
X13665Y4958D01*
X17347Y4958D02*
X18536Y4958D01*
X19329Y4958D02*
X21815Y4958D01*
X0500Y5007D02*
X2104Y5007D01*
X3896Y5007D02*
X13677Y5007D01*
X17347Y5007D02*
X18586Y5007D01*
X19379Y5007D02*
X21815Y5007D01*
X0500Y5057D02*
X2245Y5057D01*
X3755Y5057D02*
X13696Y5057D01*
X17347Y5057D02*
X18635Y5057D01*
X19428Y5057D02*
X21815Y5057D01*
X0500Y5106D02*
X2387Y5106D01*
X3613Y5106D02*
X13715Y5106D01*
X17347Y5106D02*
X18685Y5106D01*
X19478Y5106D02*
X21579Y5106D01*
X0500Y5156D02*
X2568Y5156D01*
X3432Y5156D02*
X13750Y5156D01*
X17347Y5156D02*
X18734Y5156D01*
X19527Y5156D02*
X21597Y5156D01*
X0500Y5205D02*
X13784Y5205D01*
X17347Y5205D02*
X18784Y5205D01*
X19577Y5205D02*
X21624Y5205D01*
X0500Y5255D02*
X13836Y5255D01*
X17347Y5255D02*
X18833Y5255D01*
X19626Y5255D02*
X21664Y5255D01*
X0500Y5304D02*
X13894Y5304D01*
X17347Y5304D02*
X18883Y5304D01*
X19676Y5304D02*
X21695Y5304D01*
X24325Y5304D02*
X25099Y5304D01*
X0500Y5354D02*
X13920Y5354D01*
X17347Y5354D02*
X18932Y5354D01*
X19725Y5354D02*
X21671Y5354D01*
X24302Y5354D02*
X25133Y5354D01*
X0500Y5403D02*
X13920Y5403D01*
X17347Y5403D02*
X18982Y5403D01*
X24343Y5403D02*
X25184Y5403D01*
X0500Y5453D02*
X13920Y5453D01*
X17348Y5453D02*
X19031Y5453D01*
X24381Y5453D02*
X25242Y5453D01*
X0500Y5503D02*
X13920Y5503D01*
X17397Y5503D02*
X19081Y5503D01*
X24407Y5503D02*
X25336Y5503D01*
X25764Y5503D02*
X26112Y5503D01*
X0500Y5552D02*
X13920Y5552D01*
X17447Y5552D02*
X19131Y5552D01*
X24424Y5552D02*
X26135Y5552D01*
X0500Y5602D02*
X13920Y5602D01*
X17496Y5602D02*
X19180Y5602D01*
X24434Y5602D02*
X26158Y5602D01*
X0500Y5651D02*
X13920Y5651D01*
X17546Y5651D02*
X19230Y5651D01*
X24438Y5651D02*
X26193Y5651D01*
X0500Y5701D02*
X13920Y5701D01*
X17595Y5701D02*
X19279Y5701D01*
X24434Y5701D02*
X26227Y5701D01*
X0500Y5750D02*
X13920Y5750D01*
X17645Y5750D02*
X19329Y5750D01*
X22852Y5750D02*
X22942Y5750D01*
X24423Y5750D02*
X26262Y5750D01*
X0500Y5800D02*
X13920Y5800D01*
X17694Y5800D02*
X19378Y5800D01*
X22835Y5800D02*
X22979Y5800D01*
X24406Y5800D02*
X26305Y5800D01*
X0500Y5849D02*
X13920Y5849D01*
X17744Y5849D02*
X19428Y5849D01*
X22809Y5849D02*
X23022Y5849D01*
X24380Y5849D02*
X26354Y5849D01*
X0500Y5899D02*
X13920Y5899D01*
X17793Y5899D02*
X19497Y5899D01*
X22770Y5899D02*
X23088Y5899D01*
X24341Y5899D02*
X26404Y5899D01*
X0500Y5948D02*
X13920Y5948D01*
X17843Y5948D02*
X21714Y5948D01*
X22715Y5948D02*
X23285Y5948D01*
X24286Y5948D02*
X26465Y5948D01*
X0500Y5998D02*
X13920Y5998D01*
X17892Y5998D02*
X21807Y5998D01*
X22622Y5998D02*
X23378Y5998D01*
X24193Y5998D02*
X26535Y5998D01*
X0500Y6047D02*
X13920Y6047D01*
X17942Y6047D02*
X26610Y6047D01*
X0500Y6097D02*
X13920Y6097D01*
X17991Y6097D02*
X26716Y6097D01*
X0500Y6146D02*
X13920Y6146D01*
X18041Y6146D02*
X26847Y6146D01*
X0500Y6196D02*
X13920Y6196D01*
X18091Y6196D02*
X27070Y6196D01*
X0500Y6245D02*
X13920Y6245D01*
X18140Y6245D02*
X20757Y6245D01*
X21153Y6245D02*
X27070Y6245D01*
X0500Y6295D02*
X13920Y6295D01*
X18190Y6295D02*
X20662Y6295D01*
X21248Y6295D02*
X27070Y6295D01*
X0500Y6345D02*
X13920Y6345D01*
X18231Y6345D02*
X20599Y6345D01*
X21311Y6345D02*
X26881Y6345D01*
X0500Y6394D02*
X13920Y6394D01*
X18257Y6394D02*
X20543Y6394D01*
X21367Y6394D02*
X26735Y6394D01*
X0500Y6444D02*
X13920Y6444D01*
X18274Y6444D02*
X20509Y6444D01*
X21401Y6444D02*
X26629Y6444D01*
X0500Y6493D02*
X13920Y6493D01*
X18279Y6493D02*
X20475Y6493D01*
X21785Y6493D02*
X26548Y6493D01*
X0500Y6543D02*
X13920Y6543D01*
X18280Y6543D02*
X20454Y6543D01*
X21870Y6543D02*
X26477Y6543D01*
X0500Y6592D02*
X13920Y6592D01*
X18280Y6592D02*
X20435Y6592D01*
X21922Y6592D02*
X26413Y6592D01*
X0500Y6642D02*
X13920Y6642D01*
X18280Y6642D02*
X20420Y6642D01*
X22334Y6642D02*
X23667Y6642D01*
X24433Y6642D02*
X26363Y6642D01*
X0500Y6691D02*
X13920Y6691D01*
X18280Y6691D02*
X20414Y6691D01*
X22425Y6691D02*
X23575Y6691D01*
X24525Y6691D02*
X26314Y6691D01*
X0500Y6741D02*
X13920Y6741D01*
X18280Y6741D02*
X20408Y6741D01*
X22464Y6741D02*
X23536Y6741D01*
X24564Y6741D02*
X26268Y6741D01*
X0500Y6790D02*
X13920Y6790D01*
X18280Y6790D02*
X20410Y6790D01*
X22483Y6790D02*
X23517Y6790D01*
X24583Y6790D02*
X26234Y6790D01*
X0500Y6840D02*
X13920Y6840D01*
X18280Y6840D02*
X20417Y6840D01*
X22490Y6840D02*
X23510Y6840D01*
X24590Y6840D02*
X26199Y6840D01*
X0500Y6889D02*
X13920Y6889D01*
X18280Y6889D02*
X20423Y6889D01*
X22490Y6889D02*
X23510Y6889D01*
X24590Y6889D02*
X26164Y6889D01*
X0500Y6939D02*
X13920Y6939D01*
X18280Y6939D02*
X20442Y6939D01*
X22490Y6939D02*
X23510Y6939D01*
X24590Y6939D02*
X26139Y6939D01*
X0500Y6988D02*
X13920Y6988D01*
X18280Y6988D02*
X20461Y6988D01*
X22490Y6988D02*
X23510Y6988D01*
X24590Y6988D02*
X26116Y6988D01*
X0500Y7038D02*
X13920Y7038D01*
X18280Y7038D02*
X20488Y7038D01*
X22490Y7038D02*
X23510Y7038D01*
X24590Y7038D02*
X26093Y7038D01*
X0500Y7087D02*
X13920Y7087D01*
X18280Y7087D02*
X20522Y7087D01*
X22490Y7087D02*
X23510Y7087D01*
X0500Y7137D02*
X13920Y7137D01*
X18280Y7137D02*
X20563Y7137D01*
X22490Y7137D02*
X23510Y7137D01*
X0500Y7187D02*
X13920Y7187D01*
X18280Y7187D02*
X20619Y7187D01*
X21291Y7187D02*
X21410Y7187D01*
X22490Y7187D02*
X23510Y7187D01*
X0500Y7236D02*
X13920Y7236D01*
X18280Y7236D02*
X20697Y7236D01*
X21213Y7236D02*
X21410Y7236D01*
X22490Y7236D02*
X23510Y7236D01*
X0500Y7286D02*
X13920Y7286D01*
X18280Y7286D02*
X20826Y7286D01*
X21084Y7286D02*
X21410Y7286D01*
X22490Y7286D02*
X23510Y7286D01*
X0500Y7335D02*
X13920Y7335D01*
X18280Y7335D02*
X21410Y7335D01*
X22490Y7335D02*
X23510Y7335D01*
X0500Y7385D02*
X13920Y7385D01*
X18280Y7385D02*
X21410Y7385D01*
X22490Y7385D02*
X23510Y7385D01*
X0500Y7434D02*
X13920Y7434D01*
X18280Y7434D02*
X21410Y7434D01*
X22490Y7434D02*
X23510Y7434D01*
X0500Y7484D02*
X13920Y7484D01*
X18280Y7484D02*
X21410Y7484D01*
X22490Y7484D02*
X23510Y7484D01*
X0500Y7533D02*
X13920Y7533D01*
X18280Y7533D02*
X21410Y7533D01*
X22490Y7533D02*
X23510Y7533D01*
X0500Y7583D02*
X13920Y7583D01*
X18280Y7583D02*
X21410Y7583D01*
X22490Y7583D02*
X23510Y7583D01*
X0500Y7632D02*
X13920Y7632D01*
X18280Y7632D02*
X21410Y7632D01*
X22490Y7632D02*
X23510Y7632D01*
X0500Y7682D02*
X13920Y7682D01*
X18280Y7682D02*
X21410Y7682D01*
X22490Y7682D02*
X23510Y7682D01*
X0500Y7731D02*
X13920Y7731D01*
X18280Y7731D02*
X21410Y7731D01*
X22490Y7731D02*
X23510Y7731D01*
X0500Y7781D02*
X13920Y7781D01*
X18280Y7781D02*
X21410Y7781D01*
X22490Y7781D02*
X23510Y7781D01*
X0500Y7830D02*
X13920Y7830D01*
X18280Y7830D02*
X21410Y7830D01*
X22490Y7830D02*
X23510Y7830D01*
X0500Y7880D02*
X13920Y7880D01*
X18280Y7880D02*
X21410Y7880D01*
X22490Y7880D02*
X23510Y7880D01*
X0500Y7929D02*
X13920Y7929D01*
X18280Y7929D02*
X21410Y7929D01*
X22490Y7929D02*
X23510Y7929D01*
X0500Y7979D02*
X13920Y7979D01*
X18280Y7979D02*
X21410Y7979D01*
X22490Y7979D02*
X23510Y7979D01*
X24590Y7979D02*
X26101Y7979D01*
X0500Y8029D02*
X13920Y8029D01*
X18280Y8029D02*
X21410Y8029D01*
X22490Y8029D02*
X23510Y8029D01*
X24590Y8029D02*
X26124Y8029D01*
X0500Y8078D02*
X13920Y8078D01*
X18280Y8078D02*
X21410Y8078D01*
X22490Y8078D02*
X23510Y8078D01*
X24590Y8078D02*
X26147Y8078D01*
X0500Y8128D02*
X13920Y8128D01*
X18280Y8128D02*
X21410Y8128D01*
X22490Y8128D02*
X23510Y8128D01*
X24590Y8128D02*
X26176Y8128D01*
X0500Y8177D02*
X13920Y8177D01*
X18280Y8177D02*
X21412Y8177D01*
X22488Y8177D02*
X23512Y8177D01*
X24588Y8177D02*
X26211Y8177D01*
X0500Y8227D02*
X13920Y8227D01*
X18280Y8227D02*
X21421Y8227D01*
X22479Y8227D02*
X23522Y8227D01*
X24578Y8227D02*
X26246Y8227D01*
X0500Y8276D02*
X13920Y8276D01*
X18280Y8276D02*
X21447Y8276D01*
X22453Y8276D02*
X23547Y8276D01*
X24553Y8276D02*
X26281Y8276D01*
X0500Y8326D02*
X13920Y8326D01*
X18280Y8326D02*
X21494Y8326D01*
X22406Y8326D02*
X23595Y8326D01*
X24505Y8326D02*
X26331Y8326D01*
X0500Y8375D02*
X11805Y8375D01*
X12245Y8375D02*
X13920Y8375D01*
X18280Y8375D02*
X19756Y8375D01*
X20194Y8375D02*
X26380Y8375D01*
X31420Y8375D02*
X31426Y8375D01*
X0500Y8425D02*
X11712Y8425D01*
X12338Y8425D02*
X13920Y8425D01*
X18280Y8425D02*
X19662Y8425D01*
X20288Y8425D02*
X26431Y8425D01*
X31369Y8425D02*
X31500Y8425D01*
X0500Y8474D02*
X11656Y8474D01*
X12394Y8474D02*
X13920Y8474D01*
X18280Y8474D02*
X19606Y8474D01*
X20344Y8474D02*
X26502Y8474D01*
X31298Y8474D02*
X31500Y8474D01*
X0500Y8524D02*
X11606Y8524D01*
X12444Y8524D02*
X13920Y8524D01*
X18280Y8524D02*
X19556Y8524D01*
X20394Y8524D02*
X26572Y8524D01*
X31228Y8524D02*
X31500Y8524D01*
X0500Y8573D02*
X11571Y8573D01*
X12479Y8573D02*
X13920Y8573D01*
X18280Y8573D02*
X19522Y8573D01*
X20428Y8573D02*
X26666Y8573D01*
X31134Y8573D02*
X31500Y8573D01*
X0500Y8623D02*
X11538Y8623D01*
X12512Y8623D02*
X13920Y8623D01*
X18280Y8623D02*
X19488Y8623D01*
X20462Y8623D02*
X26772Y8623D01*
X31028Y8623D02*
X31500Y8623D01*
X0500Y8672D02*
X7497Y8672D01*
X8403Y8672D02*
X9598Y8672D01*
X10502Y8672D02*
X11519Y8672D01*
X12531Y8672D02*
X13920Y8672D01*
X18280Y8672D02*
X19470Y8672D01*
X20480Y8672D02*
X21498Y8672D01*
X22402Y8672D02*
X23597Y8672D01*
X24503Y8672D02*
X26945Y8672D01*
X30855Y8672D02*
X31500Y8672D01*
X0500Y8722D02*
X7448Y8722D01*
X8452Y8722D02*
X9548Y8722D01*
X10552Y8722D02*
X11501Y8722D01*
X12549Y8722D02*
X13920Y8722D01*
X18280Y8722D02*
X19451Y8722D01*
X20499Y8722D02*
X21448Y8722D01*
X22452Y8722D02*
X23548Y8722D01*
X24552Y8722D02*
X31500Y8722D01*
X0500Y8772D02*
X7422Y8772D01*
X8478Y8772D02*
X9523Y8772D01*
X10577Y8772D02*
X11489Y8772D01*
X12561Y8772D02*
X13920Y8772D01*
X18280Y8772D02*
X19439Y8772D01*
X20511Y8772D02*
X21423Y8772D01*
X22477Y8772D02*
X23522Y8772D01*
X24578Y8772D02*
X31500Y8772D01*
X0500Y8821D02*
X7412Y8821D01*
X8488Y8821D02*
X9512Y8821D01*
X10588Y8821D02*
X11483Y8821D01*
X12567Y8821D02*
X13920Y8821D01*
X18280Y8821D02*
X19433Y8821D01*
X20517Y8821D02*
X21412Y8821D01*
X22488Y8821D02*
X23512Y8821D01*
X24588Y8821D02*
X31500Y8821D01*
X0500Y8871D02*
X7410Y8871D01*
X8490Y8871D02*
X9510Y8871D01*
X10590Y8871D02*
X11477Y8871D01*
X12573Y8871D02*
X13920Y8871D01*
X18280Y8871D02*
X19427Y8871D01*
X20523Y8871D02*
X21410Y8871D01*
X22490Y8871D02*
X23510Y8871D01*
X24590Y8871D02*
X31500Y8871D01*
X0500Y8920D02*
X7410Y8920D01*
X8490Y8920D02*
X9510Y8920D01*
X10590Y8920D02*
X11482Y8920D01*
X12568Y8920D02*
X13920Y8920D01*
X18280Y8920D02*
X19432Y8920D01*
X20518Y8920D02*
X21410Y8920D01*
X22490Y8920D02*
X23510Y8920D01*
X24590Y8920D02*
X31500Y8920D01*
X0500Y8970D02*
X7410Y8970D01*
X8490Y8970D02*
X9510Y8970D01*
X10590Y8970D02*
X11488Y8970D01*
X12562Y8970D02*
X13920Y8970D01*
X18280Y8970D02*
X19438Y8970D01*
X20512Y8970D02*
X21410Y8970D01*
X22490Y8970D02*
X23510Y8970D01*
X24590Y8970D02*
X31500Y8970D01*
X0500Y9019D02*
X7410Y9019D01*
X8490Y9019D02*
X9510Y9019D01*
X10590Y9019D02*
X11497Y9019D01*
X12553Y9019D02*
X13920Y9019D01*
X18280Y9019D02*
X19447Y9019D01*
X20503Y9019D02*
X21410Y9019D01*
X22490Y9019D02*
X23510Y9019D01*
X24590Y9019D02*
X31500Y9019D01*
X0500Y9069D02*
X7410Y9069D01*
X8490Y9069D02*
X9510Y9069D01*
X10590Y9069D02*
X11516Y9069D01*
X12534Y9069D02*
X13920Y9069D01*
X18280Y9069D02*
X19466Y9069D01*
X20484Y9069D02*
X21410Y9069D01*
X22490Y9069D02*
X23510Y9069D01*
X24590Y9069D02*
X31500Y9069D01*
X0500Y9118D02*
X7410Y9118D01*
X8490Y9118D02*
X9510Y9118D01*
X10590Y9118D02*
X11535Y9118D01*
X12515Y9118D02*
X13920Y9118D01*
X18280Y9118D02*
X19485Y9118D01*
X20465Y9118D02*
X21410Y9118D01*
X22490Y9118D02*
X23510Y9118D01*
X24590Y9118D02*
X31500Y9118D01*
X0500Y9168D02*
X7410Y9168D01*
X8490Y9168D02*
X9510Y9168D01*
X10590Y9168D02*
X11565Y9168D01*
X12485Y9168D02*
X13920Y9168D01*
X18280Y9168D02*
X19516Y9168D01*
X20434Y9168D02*
X21410Y9168D01*
X22490Y9168D02*
X23510Y9168D01*
X24590Y9168D02*
X31500Y9168D01*
X0500Y9217D02*
X7410Y9217D01*
X8490Y9217D02*
X9510Y9217D01*
X10590Y9217D02*
X11599Y9217D01*
X12451Y9217D02*
X13920Y9217D01*
X18280Y9217D02*
X19550Y9217D01*
X20400Y9217D02*
X21410Y9217D01*
X22490Y9217D02*
X23510Y9217D01*
X24590Y9217D02*
X31500Y9217D01*
X0500Y9267D02*
X7410Y9267D01*
X8490Y9267D02*
X9510Y9267D01*
X11369Y9267D02*
X11646Y9267D01*
X12404Y9267D02*
X13920Y9267D01*
X18280Y9267D02*
X19537Y9267D01*
X20354Y9267D02*
X21410Y9267D01*
X22490Y9267D02*
X23510Y9267D01*
X24590Y9267D02*
X31500Y9267D01*
X0500Y9316D02*
X7410Y9316D01*
X8490Y9316D02*
X9510Y9316D01*
X11428Y9316D02*
X11702Y9316D01*
X12348Y9316D02*
X13920Y9316D01*
X18280Y9316D02*
X19487Y9316D01*
X20298Y9316D02*
X21387Y9316D01*
X22490Y9316D02*
X23510Y9316D01*
X24590Y9316D02*
X31500Y9316D01*
X0500Y9366D02*
X7410Y9366D01*
X8490Y9366D02*
X9510Y9366D01*
X11477Y9366D02*
X11788Y9366D01*
X12262Y9366D02*
X13920Y9366D01*
X18280Y9366D02*
X19438Y9366D01*
X20219Y9366D02*
X21338Y9366D01*
X22490Y9366D02*
X23510Y9366D01*
X24590Y9366D02*
X31500Y9366D01*
X0500Y9415D02*
X7410Y9415D01*
X8490Y9415D02*
X9510Y9415D01*
X11527Y9415D02*
X11942Y9415D01*
X12108Y9415D02*
X13920Y9415D01*
X18280Y9415D02*
X19388Y9415D01*
X20180Y9415D02*
X21288Y9415D01*
X22490Y9415D02*
X23510Y9415D01*
X24590Y9415D02*
X31500Y9415D01*
X0500Y9465D02*
X7410Y9465D01*
X8490Y9465D02*
X9510Y9465D01*
X11576Y9465D02*
X13920Y9465D01*
X18280Y9465D02*
X19339Y9465D01*
X20132Y9465D02*
X21239Y9465D01*
X22490Y9465D02*
X23510Y9465D01*
X24590Y9465D02*
X31500Y9465D01*
X0500Y9514D02*
X7410Y9514D01*
X8490Y9514D02*
X9510Y9514D01*
X11626Y9514D02*
X13920Y9514D01*
X18280Y9514D02*
X19289Y9514D01*
X20082Y9514D02*
X21189Y9514D01*
X22490Y9514D02*
X23510Y9514D01*
X24590Y9514D02*
X31500Y9514D01*
X0500Y9564D02*
X7410Y9564D01*
X8490Y9564D02*
X9510Y9564D01*
X11675Y9564D02*
X13920Y9564D01*
X18280Y9564D02*
X19239Y9564D01*
X20033Y9564D02*
X21139Y9564D01*
X22490Y9564D02*
X23510Y9564D01*
X24590Y9564D02*
X31500Y9564D01*
X0500Y9614D02*
X7410Y9614D01*
X8490Y9614D02*
X9510Y9614D01*
X11725Y9614D02*
X13920Y9614D01*
X18280Y9614D02*
X19190Y9614D01*
X19983Y9614D02*
X21090Y9614D01*
X22490Y9614D02*
X23510Y9614D01*
X24590Y9614D02*
X31500Y9614D01*
X0500Y9663D02*
X7410Y9663D01*
X8490Y9663D02*
X9510Y9663D01*
X11774Y9663D02*
X13920Y9663D01*
X18280Y9663D02*
X19140Y9663D01*
X19933Y9663D02*
X21040Y9663D01*
X22490Y9663D02*
X23510Y9663D01*
X24590Y9663D02*
X31500Y9663D01*
X0500Y9713D02*
X7410Y9713D01*
X8490Y9713D02*
X9510Y9713D01*
X11824Y9713D02*
X13920Y9713D01*
X18280Y9713D02*
X19091Y9713D01*
X19884Y9713D02*
X20991Y9713D01*
X22490Y9713D02*
X23510Y9713D01*
X24590Y9713D02*
X31500Y9713D01*
X0500Y9762D02*
X7410Y9762D01*
X8490Y9762D02*
X9510Y9762D01*
X11873Y9762D02*
X13920Y9762D01*
X18280Y9762D02*
X19041Y9762D01*
X19834Y9762D02*
X20941Y9762D01*
X22490Y9762D02*
X23510Y9762D01*
X24590Y9762D02*
X31500Y9762D01*
X0500Y9812D02*
X7410Y9812D01*
X8490Y9812D02*
X9510Y9812D01*
X10590Y9812D02*
X11130Y9812D01*
X11923Y9812D02*
X13920Y9812D01*
X18280Y9812D02*
X18992Y9812D01*
X19785Y9812D02*
X20892Y9812D01*
X22490Y9812D02*
X23510Y9812D01*
X24590Y9812D02*
X31500Y9812D01*
X0500Y9861D02*
X7410Y9861D01*
X8490Y9861D02*
X9510Y9861D01*
X10590Y9861D02*
X11179Y9861D01*
X11972Y9861D02*
X13920Y9861D01*
X18280Y9861D02*
X18942Y9861D01*
X19735Y9861D02*
X20842Y9861D01*
X22490Y9861D02*
X23510Y9861D01*
X24590Y9861D02*
X31500Y9861D01*
X0500Y9911D02*
X7410Y9911D01*
X8490Y9911D02*
X9510Y9911D01*
X10590Y9911D02*
X11229Y9911D01*
X12022Y9911D02*
X13920Y9911D01*
X18280Y9911D02*
X18893Y9911D01*
X19686Y9911D02*
X20793Y9911D01*
X22490Y9911D02*
X23510Y9911D01*
X24590Y9911D02*
X31500Y9911D01*
X0500Y9960D02*
X7410Y9960D01*
X8490Y9960D02*
X9510Y9960D01*
X10590Y9960D02*
X11278Y9960D01*
X12071Y9960D02*
X13920Y9960D01*
X18280Y9960D02*
X18843Y9960D01*
X19636Y9960D02*
X20743Y9960D01*
X22490Y9960D02*
X23510Y9960D01*
X24590Y9960D02*
X31500Y9960D01*
X0500Y10010D02*
X7410Y10010D01*
X8490Y10010D02*
X9510Y10010D01*
X10590Y10010D02*
X11328Y10010D01*
X12111Y10010D02*
X13920Y10010D01*
X18280Y10010D02*
X18794Y10010D01*
X19587Y10010D02*
X20694Y10010D01*
X22490Y10010D02*
X23510Y10010D01*
X24590Y10010D02*
X31500Y10010D01*
X0500Y10059D02*
X7410Y10059D01*
X8490Y10059D02*
X9510Y10059D01*
X10590Y10059D02*
X11377Y10059D01*
X12136Y10059D02*
X13068Y10059D01*
X13632Y10059D02*
X13718Y10059D01*
X18280Y10059D02*
X18368Y10059D01*
X19537Y10059D02*
X20644Y10059D01*
X22490Y10059D02*
X23510Y10059D01*
X24590Y10059D02*
X31500Y10059D01*
X0500Y10109D02*
X7410Y10109D01*
X8490Y10109D02*
X9510Y10109D01*
X10590Y10109D02*
X11427Y10109D01*
X12150Y10109D02*
X12993Y10109D01*
X19488Y10109D02*
X20595Y10109D01*
X22490Y10109D02*
X23510Y10109D01*
X24590Y10109D02*
X31500Y10109D01*
X0500Y10158D02*
X7410Y10158D01*
X8490Y10158D02*
X9510Y10158D01*
X10590Y10158D02*
X11476Y10158D01*
X12155Y10158D02*
X12958Y10158D01*
X19438Y10158D02*
X20545Y10158D01*
X22490Y10158D02*
X23510Y10158D01*
X24590Y10158D02*
X31500Y10158D01*
X0500Y10208D02*
X7416Y10208D01*
X8484Y10208D02*
X9517Y10208D01*
X10583Y10208D02*
X11526Y10208D01*
X12155Y10208D02*
X12941Y10208D01*
X19389Y10208D02*
X20496Y10208D01*
X21289Y10208D02*
X21417Y10208D01*
X22483Y10208D02*
X23516Y10208D01*
X24584Y10208D02*
X31500Y10208D01*
X0500Y10257D02*
X7435Y10257D01*
X8465Y10257D02*
X9535Y10257D01*
X10565Y10257D02*
X11576Y10257D01*
X12155Y10257D02*
X12936Y10257D01*
X19339Y10257D02*
X20446Y10257D01*
X21239Y10257D02*
X21435Y10257D01*
X22465Y10257D02*
X23535Y10257D01*
X24565Y10257D02*
X31500Y10257D01*
X0500Y10307D02*
X7472Y10307D01*
X8428Y10307D02*
X9573Y10307D01*
X10527Y10307D02*
X11595Y10307D01*
X12155Y10307D02*
X12936Y10307D01*
X19290Y10307D02*
X20397Y10307D01*
X21190Y10307D02*
X21473Y10307D01*
X22427Y10307D02*
X23572Y10307D01*
X24528Y10307D02*
X31500Y10307D01*
X0500Y10356D02*
X7492Y10356D01*
X8408Y10356D02*
X9659Y10356D01*
X10441Y10356D02*
X11595Y10356D01*
X12155Y10356D02*
X12936Y10356D01*
X19240Y10356D02*
X20347Y10356D01*
X21140Y10356D02*
X21559Y10356D01*
X22341Y10356D02*
X23592Y10356D01*
X24508Y10356D02*
X31500Y10356D01*
X0500Y10406D02*
X7492Y10406D01*
X8408Y10406D02*
X11595Y10406D01*
X12155Y10406D02*
X12936Y10406D01*
X19191Y10406D02*
X20297Y10406D01*
X21091Y10406D02*
X23592Y10406D01*
X24508Y10406D02*
X31500Y10406D01*
X0500Y10456D02*
X7492Y10456D01*
X8408Y10456D02*
X11595Y10456D01*
X12155Y10456D02*
X12936Y10456D01*
X19141Y10456D02*
X20248Y10456D01*
X21041Y10456D02*
X23592Y10456D01*
X24508Y10456D02*
X31500Y10456D01*
X0500Y10505D02*
X7492Y10505D01*
X8408Y10505D02*
X11595Y10505D01*
X12155Y10505D02*
X12936Y10505D01*
X19091Y10505D02*
X20198Y10505D01*
X20991Y10505D02*
X23592Y10505D01*
X24508Y10505D02*
X31500Y10505D01*
X0500Y10555D02*
X7492Y10555D01*
X8408Y10555D02*
X11595Y10555D01*
X12155Y10555D02*
X12936Y10555D01*
X19064Y10555D02*
X20149Y10555D01*
X20942Y10555D02*
X23592Y10555D01*
X24508Y10555D02*
X31500Y10555D01*
X0500Y10604D02*
X7492Y10604D01*
X8408Y10604D02*
X11595Y10604D01*
X12155Y10604D02*
X12936Y10604D01*
X19064Y10604D02*
X20099Y10604D01*
X20892Y10604D02*
X23592Y10604D01*
X24508Y10604D02*
X31500Y10604D01*
X0500Y10654D02*
X7492Y10654D01*
X8408Y10654D02*
X9631Y10654D01*
X10469Y10654D02*
X11595Y10654D01*
X12155Y10654D02*
X12936Y10654D01*
X19064Y10654D02*
X20050Y10654D01*
X20843Y10654D02*
X21531Y10654D01*
X22369Y10654D02*
X23592Y10654D01*
X24508Y10654D02*
X31500Y10654D01*
X0500Y10703D02*
X7463Y10703D01*
X8437Y10703D02*
X9563Y10703D01*
X10537Y10703D02*
X11595Y10703D01*
X12155Y10703D02*
X12936Y10703D01*
X19064Y10703D02*
X20000Y10703D01*
X20793Y10703D02*
X21463Y10703D01*
X22437Y10703D02*
X23563Y10703D01*
X24537Y10703D02*
X31500Y10703D01*
X0500Y10753D02*
X7430Y10753D01*
X8470Y10753D02*
X9530Y10753D01*
X10570Y10753D02*
X11595Y10753D01*
X12155Y10753D02*
X12936Y10753D01*
X19064Y10753D02*
X19951Y10753D01*
X20744Y10753D02*
X21430Y10753D01*
X22470Y10753D02*
X23530Y10753D01*
X24570Y10753D02*
X31500Y10753D01*
X0500Y10802D02*
X7414Y10802D01*
X8486Y10802D02*
X9514Y10802D01*
X10586Y10802D02*
X11595Y10802D01*
X12155Y10802D02*
X12936Y10802D01*
X19064Y10802D02*
X19901Y10802D01*
X20694Y10802D02*
X21414Y10802D01*
X22486Y10802D02*
X23514Y10802D01*
X24586Y10802D02*
X31500Y10802D01*
X0500Y10852D02*
X7410Y10852D01*
X8490Y10852D02*
X9510Y10852D01*
X10590Y10852D02*
X11595Y10852D01*
X12155Y10852D02*
X12936Y10852D01*
X19064Y10852D02*
X19852Y10852D01*
X20645Y10852D02*
X21410Y10852D01*
X22490Y10852D02*
X23510Y10852D01*
X24590Y10852D02*
X31500Y10852D01*
X0500Y10901D02*
X7410Y10901D01*
X8490Y10901D02*
X9510Y10901D01*
X10590Y10901D02*
X11595Y10901D01*
X12155Y10901D02*
X12943Y10901D01*
X19057Y10901D02*
X19802Y10901D01*
X20595Y10901D02*
X21410Y10901D01*
X22490Y10901D02*
X23510Y10901D01*
X24590Y10901D02*
X31500Y10901D01*
X0500Y10951D02*
X7410Y10951D01*
X8490Y10951D02*
X9510Y10951D01*
X10590Y10951D02*
X11595Y10951D01*
X12155Y10951D02*
X12963Y10951D01*
X19037Y10951D02*
X19753Y10951D01*
X20546Y10951D02*
X21410Y10951D01*
X22490Y10951D02*
X23510Y10951D01*
X24590Y10951D02*
X31500Y10951D01*
X0500Y11000D02*
X7410Y11000D01*
X8490Y11000D02*
X9510Y11000D01*
X10590Y11000D02*
X11595Y11000D01*
X12155Y11000D02*
X13003Y11000D01*
X18997Y11000D02*
X19703Y11000D01*
X20496Y11000D02*
X21410Y11000D01*
X22490Y11000D02*
X23510Y11000D01*
X24590Y11000D02*
X31500Y11000D01*
X0500Y11050D02*
X7410Y11050D01*
X8490Y11050D02*
X9510Y11050D01*
X10590Y11050D02*
X11595Y11050D01*
X12155Y11050D02*
X13070Y11050D01*
X18280Y11050D02*
X18401Y11050D01*
X18899Y11050D02*
X19654Y11050D01*
X20447Y11050D02*
X21410Y11050D01*
X22490Y11050D02*
X23510Y11050D01*
X24590Y11050D02*
X31500Y11050D01*
X0500Y11099D02*
X7410Y11099D01*
X8490Y11099D02*
X9510Y11099D01*
X10590Y11099D02*
X11595Y11099D01*
X12155Y11099D02*
X13070Y11099D01*
X18280Y11099D02*
X19604Y11099D01*
X20397Y11099D02*
X21410Y11099D01*
X22490Y11099D02*
X23510Y11099D01*
X24590Y11099D02*
X31500Y11099D01*
X0500Y11149D02*
X7410Y11149D01*
X8490Y11149D02*
X9510Y11149D01*
X10590Y11149D02*
X11595Y11149D01*
X12155Y11149D02*
X13070Y11149D01*
X18280Y11149D02*
X19555Y11149D01*
X20348Y11149D02*
X21410Y11149D01*
X22490Y11149D02*
X23510Y11149D01*
X24590Y11149D02*
X31500Y11149D01*
X0500Y11198D02*
X7410Y11198D01*
X8490Y11198D02*
X9510Y11198D01*
X10590Y11198D02*
X11595Y11198D01*
X12155Y11198D02*
X13075Y11198D01*
X18280Y11198D02*
X19505Y11198D01*
X20298Y11198D02*
X21410Y11198D01*
X22490Y11198D02*
X23510Y11198D01*
X24590Y11198D02*
X31500Y11198D01*
X0500Y11248D02*
X7410Y11248D01*
X8490Y11248D02*
X9510Y11248D01*
X10590Y11248D02*
X11595Y11248D01*
X12195Y11248D02*
X13089Y11248D01*
X18280Y11248D02*
X19455Y11248D01*
X20249Y11248D02*
X21410Y11248D01*
X22490Y11248D02*
X23510Y11248D01*
X24590Y11248D02*
X31500Y11248D01*
X0500Y11298D02*
X7410Y11298D01*
X8490Y11298D02*
X9510Y11298D01*
X10590Y11298D02*
X11595Y11298D01*
X12244Y11298D02*
X13114Y11298D01*
X18280Y11298D02*
X19406Y11298D01*
X20199Y11298D02*
X21382Y11298D01*
X22490Y11298D02*
X23510Y11298D01*
X24590Y11298D02*
X31500Y11298D01*
X0500Y11347D02*
X7410Y11347D01*
X8490Y11347D02*
X9510Y11347D01*
X10590Y11347D02*
X11596Y11347D01*
X12294Y11347D02*
X13153Y11347D01*
X18280Y11347D02*
X19356Y11347D01*
X20149Y11347D02*
X21331Y11347D01*
X22490Y11347D02*
X23510Y11347D01*
X24590Y11347D02*
X31500Y11347D01*
X0500Y11397D02*
X7410Y11397D01*
X8490Y11397D02*
X9510Y11397D01*
X10590Y11397D02*
X11605Y11397D01*
X12343Y11397D02*
X13219Y11397D01*
X18280Y11397D02*
X19307Y11397D01*
X20100Y11397D02*
X21281Y11397D01*
X22490Y11397D02*
X23510Y11397D01*
X24590Y11397D02*
X31500Y11397D01*
X0500Y11446D02*
X7410Y11446D01*
X8490Y11446D02*
X9510Y11446D01*
X10590Y11446D02*
X11622Y11446D01*
X12393Y11446D02*
X13251Y11446D01*
X14107Y11446D02*
X17720Y11446D01*
X18280Y11446D02*
X19257Y11446D01*
X20050Y11446D02*
X21232Y11446D01*
X22490Y11446D02*
X23510Y11446D01*
X24590Y11446D02*
X31500Y11446D01*
X0500Y11496D02*
X7410Y11496D01*
X8490Y11496D02*
X9510Y11496D01*
X10590Y11496D02*
X11653Y11496D01*
X12442Y11496D02*
X13236Y11496D01*
X14093Y11496D02*
X17720Y11496D01*
X18280Y11496D02*
X19208Y11496D01*
X20001Y11496D02*
X21182Y11496D01*
X22490Y11496D02*
X23510Y11496D01*
X24590Y11496D02*
X31500Y11496D01*
X0500Y11545D02*
X7410Y11545D01*
X8490Y11545D02*
X9510Y11545D01*
X10590Y11545D02*
X11699Y11545D01*
X14122Y11545D02*
X17720Y11545D01*
X18280Y11545D02*
X19158Y11545D01*
X19951Y11545D02*
X21133Y11545D01*
X22490Y11545D02*
X23510Y11545D01*
X24590Y11545D02*
X31500Y11545D01*
X0500Y11595D02*
X7410Y11595D01*
X8490Y11595D02*
X9510Y11595D01*
X10590Y11595D02*
X11748Y11595D01*
X14189Y11595D02*
X17720Y11595D01*
X18280Y11595D02*
X19109Y11595D01*
X19902Y11595D02*
X21083Y11595D01*
X22490Y11595D02*
X23510Y11595D01*
X24590Y11595D02*
X31500Y11595D01*
X0500Y11644D02*
X7410Y11644D01*
X8490Y11644D02*
X9510Y11644D01*
X10591Y11644D02*
X11798Y11644D01*
X14241Y11644D02*
X17720Y11644D01*
X18280Y11644D02*
X19059Y11644D01*
X19852Y11644D02*
X21034Y11644D01*
X22490Y11644D02*
X23510Y11644D01*
X24590Y11644D02*
X31500Y11644D01*
X0500Y11694D02*
X7410Y11694D01*
X8490Y11694D02*
X9510Y11694D01*
X10641Y11694D02*
X11847Y11694D01*
X14290Y11694D02*
X17720Y11694D01*
X18280Y11694D02*
X19010Y11694D01*
X19803Y11694D02*
X20984Y11694D01*
X22490Y11694D02*
X23510Y11694D01*
X24590Y11694D02*
X31500Y11694D01*
X0500Y11743D02*
X7410Y11743D01*
X8490Y11743D02*
X9510Y11743D01*
X10690Y11743D02*
X11897Y11743D01*
X14340Y11743D02*
X17720Y11743D01*
X18280Y11743D02*
X18960Y11743D01*
X19753Y11743D02*
X20935Y11743D01*
X22490Y11743D02*
X23510Y11743D01*
X24590Y11743D02*
X31500Y11743D01*
X0500Y11793D02*
X7410Y11793D01*
X8490Y11793D02*
X9510Y11793D01*
X10740Y11793D02*
X11946Y11793D01*
X14389Y11793D02*
X17720Y11793D01*
X18280Y11793D02*
X18911Y11793D01*
X19704Y11793D02*
X20885Y11793D01*
X22490Y11793D02*
X23510Y11793D01*
X24590Y11793D02*
X31500Y11793D01*
X0500Y11842D02*
X7410Y11842D01*
X8490Y11842D02*
X9510Y11842D01*
X10789Y11842D02*
X11996Y11842D01*
X14439Y11842D02*
X17720Y11842D01*
X18280Y11842D02*
X18861Y11842D01*
X19654Y11842D02*
X20836Y11842D01*
X22490Y11842D02*
X23510Y11842D01*
X24590Y11842D02*
X31500Y11842D01*
X0500Y11892D02*
X7410Y11892D01*
X8490Y11892D02*
X9510Y11892D01*
X10839Y11892D02*
X12045Y11892D01*
X14488Y11892D02*
X17720Y11892D01*
X18280Y11892D02*
X18812Y11892D01*
X19605Y11892D02*
X20786Y11892D01*
X22490Y11892D02*
X23510Y11892D01*
X24590Y11892D02*
X31500Y11892D01*
X0500Y11941D02*
X7410Y11941D01*
X8490Y11941D02*
X9510Y11941D01*
X10888Y11941D02*
X12095Y11941D01*
X14538Y11941D02*
X17720Y11941D01*
X18280Y11941D02*
X18762Y11941D01*
X19555Y11941D02*
X20737Y11941D01*
X22490Y11941D02*
X23510Y11941D01*
X24590Y11941D02*
X31500Y11941D01*
X0500Y11991D02*
X7410Y11991D01*
X8490Y11991D02*
X9510Y11991D01*
X10938Y11991D02*
X12144Y11991D01*
X14987Y11991D02*
X17013Y11991D01*
X17248Y11991D02*
X17452Y11991D01*
X17708Y11991D02*
X17720Y11991D01*
X18280Y11991D02*
X18292Y11991D01*
X19506Y11991D02*
X20687Y11991D01*
X22490Y11991D02*
X23510Y11991D01*
X24590Y11991D02*
X31500Y11991D01*
X0500Y12040D02*
X7410Y12040D01*
X8490Y12040D02*
X9510Y12040D01*
X10987Y12040D02*
X12213Y12040D01*
X15032Y12040D02*
X16968Y12040D01*
X17248Y12040D02*
X17452Y12040D01*
X19456Y12040D02*
X20638Y12040D01*
X22490Y12040D02*
X23510Y12040D01*
X24590Y12040D02*
X31500Y12040D01*
X0500Y12090D02*
X7410Y12090D01*
X8490Y12090D02*
X9510Y12090D01*
X11037Y12090D02*
X12941Y12090D01*
X13759Y12090D02*
X13893Y12090D01*
X15055Y12090D02*
X16945Y12090D01*
X17248Y12090D02*
X17452Y12090D01*
X19407Y12090D02*
X20588Y12090D01*
X22490Y12090D02*
X23510Y12090D01*
X24590Y12090D02*
X31500Y12090D01*
X0500Y12140D02*
X7410Y12140D01*
X8490Y12140D02*
X9510Y12140D01*
X11086Y12140D02*
X12937Y12140D01*
X13763Y12140D02*
X13943Y12140D01*
X15063Y12140D02*
X16937Y12140D01*
X17248Y12140D02*
X17452Y12140D01*
X19357Y12140D02*
X20539Y12140D01*
X21332Y12140D02*
X21337Y12140D01*
X22490Y12140D02*
X23510Y12140D01*
X24590Y12140D02*
X31500Y12140D01*
X0500Y12189D02*
X7412Y12189D01*
X8488Y12189D02*
X9512Y12189D01*
X11136Y12189D02*
X12936Y12189D01*
X13764Y12189D02*
X13993Y12189D01*
X15064Y12189D02*
X16936Y12189D01*
X17248Y12189D02*
X17452Y12189D01*
X19307Y12189D02*
X20489Y12189D01*
X21283Y12189D02*
X21412Y12189D01*
X22488Y12189D02*
X23512Y12189D01*
X24588Y12189D02*
X31500Y12189D01*
X0500Y12239D02*
X7426Y12239D01*
X8474Y12239D02*
X9526Y12239D01*
X11186Y12239D02*
X12936Y12239D01*
X13764Y12239D02*
X14042Y12239D01*
X15064Y12239D02*
X16936Y12239D01*
X19258Y12239D02*
X20439Y12239D01*
X21233Y12239D02*
X21426Y12239D01*
X22474Y12239D02*
X23526Y12239D01*
X24574Y12239D02*
X31500Y12239D01*
X0500Y12288D02*
X7456Y12288D01*
X8444Y12288D02*
X9556Y12288D01*
X11235Y12288D02*
X12936Y12288D01*
X13764Y12288D02*
X14092Y12288D01*
X15064Y12288D02*
X16936Y12288D01*
X19208Y12288D02*
X20390Y12288D01*
X21184Y12288D02*
X21456Y12288D01*
X22444Y12288D02*
X23556Y12288D01*
X24544Y12288D02*
X31500Y12288D01*
X0500Y12338D02*
X7514Y12338D01*
X8386Y12338D02*
X9614Y12338D01*
X10490Y12338D02*
X10491Y12338D01*
X11285Y12338D02*
X12936Y12338D01*
X13764Y12338D02*
X14141Y12338D01*
X15064Y12338D02*
X16936Y12338D01*
X19159Y12338D02*
X20340Y12338D01*
X21134Y12338D02*
X21514Y12338D01*
X22386Y12338D02*
X23614Y12338D01*
X24486Y12338D02*
X31500Y12338D01*
X0500Y12387D02*
X10540Y12387D01*
X11334Y12387D02*
X13191Y12387D01*
X13509Y12387D02*
X14191Y12387D01*
X15064Y12387D02*
X17191Y12387D01*
X19109Y12387D02*
X20291Y12387D01*
X21085Y12387D02*
X31500Y12387D01*
X0500Y12437D02*
X10590Y12437D01*
X11384Y12437D02*
X13191Y12437D01*
X13509Y12437D02*
X14236Y12437D01*
X15064Y12437D02*
X17191Y12437D01*
X19064Y12437D02*
X20241Y12437D01*
X21035Y12437D02*
X31500Y12437D01*
X0500Y12486D02*
X10639Y12486D01*
X11433Y12486D02*
X13191Y12486D01*
X13509Y12486D02*
X14236Y12486D01*
X15064Y12486D02*
X17191Y12486D01*
X19064Y12486D02*
X20192Y12486D01*
X20986Y12486D02*
X31500Y12486D01*
X0500Y12536D02*
X10689Y12536D01*
X11483Y12536D02*
X13191Y12536D01*
X13509Y12536D02*
X14236Y12536D01*
X15064Y12536D02*
X17191Y12536D01*
X19064Y12536D02*
X20142Y12536D01*
X20936Y12536D02*
X31500Y12536D01*
X0500Y12585D02*
X10738Y12585D01*
X11532Y12585D02*
X11837Y12585D01*
X12213Y12585D02*
X12936Y12585D01*
X13764Y12585D02*
X14236Y12585D01*
X15064Y12585D02*
X16936Y12585D01*
X19064Y12585D02*
X19787Y12585D01*
X20887Y12585D02*
X31500Y12585D01*
X0500Y12635D02*
X10788Y12635D01*
X11582Y12635D02*
X11739Y12635D01*
X12311Y12635D02*
X12936Y12635D01*
X13764Y12635D02*
X14236Y12635D01*
X15064Y12635D02*
X16936Y12635D01*
X19064Y12635D02*
X19689Y12635D01*
X20837Y12635D02*
X31500Y12635D01*
X0500Y12684D02*
X10837Y12684D01*
X11631Y12684D02*
X11673Y12684D01*
X12377Y12684D02*
X12936Y12684D01*
X13764Y12684D02*
X14236Y12684D01*
X15064Y12684D02*
X16936Y12684D01*
X19064Y12684D02*
X19623Y12684D01*
X20788Y12684D02*
X31500Y12684D01*
X0500Y12734D02*
X10887Y12734D01*
X12433Y12734D02*
X12936Y12734D01*
X13248Y12734D02*
X13452Y12734D01*
X13764Y12734D02*
X14236Y12734D01*
X15064Y12734D02*
X16936Y12734D01*
X17248Y12734D02*
X17452Y12734D01*
X19064Y12734D02*
X19567Y12734D01*
X20738Y12734D02*
X31500Y12734D01*
X0500Y12783D02*
X10937Y12783D01*
X12468Y12783D02*
X12939Y12783D01*
X13248Y12783D02*
X13452Y12783D01*
X13761Y12783D02*
X14239Y12783D01*
X15061Y12783D02*
X16939Y12783D01*
X17248Y12783D02*
X17452Y12783D01*
X19061Y12783D02*
X19532Y12783D01*
X20688Y12783D02*
X31500Y12783D01*
X0500Y12833D02*
X10986Y12833D01*
X12502Y12833D02*
X12954Y12833D01*
X13248Y12833D02*
X13452Y12833D01*
X13746Y12833D02*
X14254Y12833D01*
X15046Y12833D02*
X16954Y12833D01*
X17248Y12833D02*
X17452Y12833D01*
X19046Y12833D02*
X19498Y12833D01*
X20639Y12833D02*
X31500Y12833D01*
X0500Y12883D02*
X11036Y12883D01*
X12525Y12883D02*
X12985Y12883D01*
X13248Y12883D02*
X13452Y12883D01*
X13715Y12883D02*
X14285Y12883D01*
X15015Y12883D02*
X16985Y12883D01*
X17248Y12883D02*
X17452Y12883D01*
X19015Y12883D02*
X19475Y12883D01*
X20589Y12883D02*
X31500Y12883D01*
X0500Y12932D02*
X11085Y12932D01*
X12544Y12932D02*
X13048Y12932D01*
X13248Y12932D02*
X13452Y12932D01*
X13652Y12932D02*
X14348Y12932D01*
X14952Y12932D02*
X17048Y12932D01*
X17248Y12932D02*
X17452Y12932D01*
X17652Y12932D02*
X17720Y12932D01*
X18280Y12932D02*
X18348Y12932D01*
X18952Y12932D02*
X19456Y12932D01*
X20540Y12932D02*
X31500Y12932D01*
X0500Y12982D02*
X11135Y12982D01*
X12559Y12982D02*
X17720Y12982D01*
X18280Y12982D02*
X19441Y12982D01*
X20509Y12982D02*
X31500Y12982D01*
X0500Y13031D02*
X11184Y13031D01*
X12565Y13031D02*
X17720Y13031D01*
X18280Y13031D02*
X19435Y13031D01*
X20515Y13031D02*
X31500Y13031D01*
X0500Y13081D02*
X11234Y13081D01*
X12571Y13081D02*
X17720Y13081D01*
X18280Y13081D02*
X19429Y13081D01*
X20521Y13081D02*
X31500Y13081D01*
X0500Y13130D02*
X11283Y13130D01*
X12570Y13130D02*
X17720Y13130D01*
X18280Y13130D02*
X19430Y13130D01*
X20520Y13130D02*
X31500Y13130D01*
X0500Y13180D02*
X11333Y13180D01*
X12564Y13180D02*
X17720Y13180D01*
X18280Y13180D02*
X19436Y13180D01*
X20514Y13180D02*
X31500Y13180D01*
X0500Y13229D02*
X11382Y13229D01*
X12558Y13229D02*
X17720Y13229D01*
X18280Y13229D02*
X19442Y13229D01*
X20508Y13229D02*
X31500Y13229D01*
X0500Y13279D02*
X11432Y13279D01*
X12540Y13279D02*
X17720Y13279D01*
X18280Y13279D02*
X19460Y13279D01*
X20490Y13279D02*
X31500Y13279D01*
X0500Y13328D02*
X11489Y13328D01*
X12521Y13328D02*
X17720Y13328D01*
X18280Y13328D02*
X19479Y13328D01*
X20471Y13328D02*
X31500Y13328D01*
X0500Y13378D02*
X11555Y13378D01*
X12495Y13378D02*
X17720Y13378D01*
X18280Y13378D02*
X19505Y13378D01*
X20445Y13378D02*
X31500Y13378D01*
X0500Y13427D02*
X11589Y13427D01*
X12461Y13427D02*
X17720Y13427D01*
X18280Y13427D02*
X19539Y13427D01*
X20411Y13427D02*
X31500Y13427D01*
X0500Y13477D02*
X11629Y13477D01*
X12421Y13477D02*
X17720Y13477D01*
X18280Y13477D02*
X19579Y13477D01*
X20371Y13477D02*
X31500Y13477D01*
X0500Y13526D02*
X11685Y13526D01*
X12365Y13526D02*
X17720Y13526D01*
X18280Y13526D02*
X19635Y13526D01*
X20315Y13526D02*
X31500Y13526D01*
X0500Y13576D02*
X11760Y13576D01*
X12290Y13576D02*
X17720Y13576D01*
X18280Y13576D02*
X19710Y13576D01*
X20240Y13576D02*
X31500Y13576D01*
X0500Y13625D02*
X11881Y13625D01*
X12169Y13625D02*
X17720Y13625D01*
X18280Y13625D02*
X19831Y13625D01*
X20119Y13625D02*
X31500Y13625D01*
X0500Y13675D02*
X17720Y13675D01*
X18280Y13675D02*
X31500Y13675D01*
X0500Y13725D02*
X17720Y13725D01*
X18280Y13725D02*
X31500Y13725D01*
X0500Y13774D02*
X17720Y13774D01*
X18280Y13774D02*
X31500Y13774D01*
X0500Y13824D02*
X17720Y13824D01*
X18280Y13824D02*
X31500Y13824D01*
X0500Y13873D02*
X17720Y13873D01*
X18280Y13873D02*
X31500Y13873D01*
X0500Y13923D02*
X17720Y13923D01*
X18294Y13923D02*
X31500Y13923D01*
X0500Y13972D02*
X17720Y13972D01*
X18344Y13972D02*
X31500Y13972D01*
X0500Y14022D02*
X17720Y14022D01*
X18393Y14022D02*
X31500Y14022D01*
X0500Y14071D02*
X17725Y14071D01*
X18443Y14071D02*
X31500Y14071D01*
X0500Y14121D02*
X17737Y14121D01*
X18492Y14121D02*
X31500Y14121D01*
X0500Y14170D02*
X17761Y14170D01*
X21455Y14170D02*
X31500Y14170D01*
X0500Y14220D02*
X17799Y14220D01*
X21529Y14220D02*
X31500Y14220D01*
X0500Y14269D02*
X17848Y14269D01*
X21581Y14269D02*
X31500Y14269D01*
X0500Y14319D02*
X17897Y14319D01*
X21630Y14319D02*
X31500Y14319D01*
X0500Y14368D02*
X17947Y14368D01*
X21680Y14368D02*
X31500Y14368D01*
X0500Y14418D02*
X17996Y14418D01*
X21729Y14418D02*
X31500Y14418D01*
X0500Y14467D02*
X18046Y14467D01*
X21779Y14467D02*
X31500Y14467D01*
X0500Y14517D02*
X18095Y14517D01*
X21828Y14517D02*
X31500Y14517D01*
X0500Y14567D02*
X18145Y14567D01*
X21878Y14567D02*
X31500Y14567D01*
X0500Y14616D02*
X18195Y14616D01*
X21927Y14616D02*
X31500Y14616D01*
X0500Y14666D02*
X18257Y14666D01*
X21977Y14666D02*
X31500Y14666D01*
X0500Y14715D02*
X21233Y14715D01*
X22026Y14715D02*
X31500Y14715D01*
X0500Y14765D02*
X21283Y14765D01*
X22076Y14765D02*
X31500Y14765D01*
X0500Y14814D02*
X21332Y14814D01*
X22125Y14814D02*
X31500Y14814D01*
X0500Y14864D02*
X21382Y14864D01*
X22175Y14864D02*
X31500Y14864D01*
X0500Y14913D02*
X21431Y14913D01*
X22221Y14913D02*
X31500Y14913D01*
X0500Y14963D02*
X21481Y14963D01*
X22252Y14963D02*
X31500Y14963D01*
X0500Y15012D02*
X21530Y15012D01*
X22270Y15012D02*
X31500Y15012D01*
X0500Y15062D02*
X21580Y15062D01*
X22279Y15062D02*
X31500Y15062D01*
X0500Y15111D02*
X21629Y15111D01*
X22280Y15111D02*
X31500Y15111D01*
X0500Y15161D02*
X21679Y15161D01*
X22280Y15161D02*
X31500Y15161D01*
X0500Y15210D02*
X21720Y15210D01*
X22280Y15210D02*
X31500Y15210D01*
X0500Y15260D02*
X21720Y15260D01*
X22280Y15260D02*
X31500Y15260D01*
X0500Y15309D02*
X21720Y15309D01*
X22280Y15309D02*
X31500Y15309D01*
X0500Y15359D02*
X21720Y15359D01*
X22280Y15359D02*
X31500Y15359D01*
X0500Y15409D02*
X19130Y15409D01*
X20820Y15409D02*
X21720Y15409D01*
X22280Y15409D02*
X31500Y15409D01*
X0500Y15458D02*
X19054Y15458D01*
X20896Y15458D02*
X21720Y15458D01*
X22280Y15458D02*
X31500Y15458D01*
X0500Y15508D02*
X19018Y15508D01*
X20932Y15508D02*
X21720Y15508D01*
X22280Y15508D02*
X31500Y15508D01*
X0500Y15557D02*
X19001Y15557D01*
X20949Y15557D02*
X21720Y15557D01*
X22280Y15557D02*
X31500Y15557D01*
X0500Y15607D02*
X18996Y15607D01*
X20954Y15607D02*
X21720Y15607D01*
X22280Y15607D02*
X31500Y15607D01*
X0500Y15656D02*
X18996Y15656D01*
X20954Y15656D02*
X21720Y15656D01*
X22280Y15656D02*
X31500Y15656D01*
X0500Y15706D02*
X18996Y15706D01*
X20954Y15706D02*
X21720Y15706D01*
X22280Y15706D02*
X31500Y15706D01*
X0500Y15755D02*
X18996Y15755D01*
X20954Y15755D02*
X21720Y15755D01*
X22280Y15755D02*
X31500Y15755D01*
X0500Y15805D02*
X18996Y15805D01*
X20954Y15805D02*
X21720Y15805D01*
X22280Y15805D02*
X31500Y15805D01*
X0500Y15854D02*
X18996Y15854D01*
X20954Y15854D02*
X21720Y15854D01*
X22280Y15854D02*
X31500Y15854D01*
X0500Y15904D02*
X18996Y15904D01*
X20954Y15904D02*
X21720Y15904D01*
X22280Y15904D02*
X31500Y15904D01*
X0500Y15953D02*
X18996Y15953D01*
X20954Y15953D02*
X21720Y15953D01*
X22280Y15953D02*
X31500Y15953D01*
X0500Y16003D02*
X18996Y16003D01*
X20954Y16003D02*
X21720Y16003D01*
X22280Y16003D02*
X31500Y16003D01*
X0500Y16052D02*
X18996Y16052D01*
X20954Y16052D02*
X21720Y16052D01*
X22280Y16052D02*
X31500Y16052D01*
X0500Y16102D02*
X18996Y16102D01*
X20954Y16102D02*
X21720Y16102D01*
X22280Y16102D02*
X31500Y16102D01*
X0500Y16151D02*
X18996Y16151D01*
X20954Y16151D02*
X21720Y16151D01*
X22280Y16151D02*
X31500Y16151D01*
X0500Y16201D02*
X18996Y16201D01*
X20954Y16201D02*
X21720Y16201D01*
X22280Y16201D02*
X31500Y16201D01*
X0500Y16251D02*
X18996Y16251D01*
X20954Y16251D02*
X21720Y16251D01*
X22280Y16251D02*
X31500Y16251D01*
X0500Y16300D02*
X18996Y16300D01*
X20954Y16300D02*
X21720Y16300D01*
X22280Y16300D02*
X31500Y16300D01*
X0500Y16350D02*
X18996Y16350D01*
X20954Y16350D02*
X21720Y16350D01*
X22280Y16350D02*
X31500Y16350D01*
X0500Y16399D02*
X18996Y16399D01*
X20954Y16399D02*
X21720Y16399D01*
X22280Y16399D02*
X31500Y16399D01*
X0500Y16449D02*
X18996Y16449D01*
X20954Y16449D02*
X21720Y16449D01*
X22280Y16449D02*
X31500Y16449D01*
X0500Y16498D02*
X18996Y16498D01*
X20954Y16498D02*
X21720Y16498D01*
X22280Y16498D02*
X31500Y16498D01*
X0500Y16548D02*
X18996Y16548D01*
X20954Y16548D02*
X21720Y16548D01*
X22280Y16548D02*
X31500Y16548D01*
X0500Y16597D02*
X18996Y16597D01*
X20954Y16597D02*
X21720Y16597D01*
X22280Y16597D02*
X31500Y16597D01*
X0500Y16647D02*
X18996Y16647D01*
X20954Y16647D02*
X21720Y16647D01*
X22280Y16647D02*
X31500Y16647D01*
X0500Y16696D02*
X18996Y16696D01*
X20954Y16696D02*
X21720Y16696D01*
X22280Y16696D02*
X31500Y16696D01*
X0500Y16746D02*
X18996Y16746D01*
X20954Y16746D02*
X21720Y16746D01*
X22280Y16746D02*
X31500Y16746D01*
X0500Y16795D02*
X18996Y16795D01*
X20954Y16795D02*
X21720Y16795D01*
X22280Y16795D02*
X31500Y16795D01*
X0500Y16845D02*
X18996Y16845D01*
X20954Y16845D02*
X21720Y16845D01*
X22280Y16845D02*
X31500Y16845D01*
X0500Y16894D02*
X18996Y16894D01*
X20954Y16894D02*
X21720Y16894D01*
X22280Y16894D02*
X31500Y16894D01*
X0500Y16944D02*
X19001Y16944D01*
X20949Y16944D02*
X21229Y16944D01*
X22771Y16944D02*
X31500Y16944D01*
X0500Y16993D02*
X19019Y16993D01*
X20931Y16993D02*
X21175Y16993D01*
X22825Y16993D02*
X31500Y16993D01*
X0500Y17043D02*
X19054Y17043D01*
X20896Y17043D02*
X21149Y17043D01*
X22851Y17043D02*
X31500Y17043D01*
X0500Y17093D02*
X19133Y17093D01*
X20847Y17093D02*
X21137Y17093D01*
X22863Y17093D02*
X31500Y17093D01*
X0500Y17142D02*
X20614Y17142D01*
X20866Y17142D02*
X21133Y17142D01*
X22865Y17142D02*
X31500Y17142D01*
X0500Y17192D02*
X20627Y17192D01*
X22865Y17192D02*
X31500Y17192D01*
X0500Y17241D02*
X20565Y17241D01*
X22865Y17241D02*
X31500Y17241D01*
X0500Y17291D02*
X20513Y17291D01*
X22865Y17291D02*
X31500Y17291D01*
X0500Y17340D02*
X20463Y17340D01*
X22865Y17340D02*
X31500Y17340D01*
X0500Y17390D02*
X20414Y17390D01*
X22865Y17390D02*
X31500Y17390D01*
X0500Y17439D02*
X20364Y17439D01*
X22865Y17439D02*
X31500Y17439D01*
X0500Y17489D02*
X20315Y17489D01*
X22865Y17489D02*
X31500Y17489D01*
X0500Y17538D02*
X20265Y17538D01*
X22865Y17538D02*
X31500Y17538D01*
X0500Y17588D02*
X20216Y17588D01*
X22865Y17588D02*
X31500Y17588D01*
X0500Y17637D02*
X20166Y17637D01*
X22865Y17637D02*
X31500Y17637D01*
X0500Y17687D02*
X20117Y17687D01*
X22865Y17687D02*
X31500Y17687D01*
X0500Y17736D02*
X20067Y17736D01*
X20860Y17736D02*
X21132Y17736D01*
X22865Y17736D02*
X31500Y17736D01*
X0500Y17786D02*
X20017Y17786D01*
X20811Y17786D02*
X21135Y17786D01*
X22865Y17786D02*
X31500Y17786D01*
X0500Y17835D02*
X2645Y17835D01*
X3355Y17835D02*
X19968Y17835D01*
X20761Y17835D02*
X21142Y17835D01*
X22858Y17835D02*
X28645Y17835D01*
X29355Y17835D02*
X31500Y17835D01*
X0500Y17885D02*
X2412Y17885D01*
X3588Y17885D02*
X19918Y17885D01*
X20712Y17885D02*
X21162Y17885D01*
X22838Y17885D02*
X28412Y17885D01*
X29588Y17885D02*
X31500Y17885D01*
X0500Y17935D02*
X2270Y17935D01*
X3730Y17935D02*
X19869Y17935D01*
X20662Y17935D02*
X21201Y17935D01*
X22799Y17935D02*
X28270Y17935D01*
X29730Y17935D02*
X31500Y17935D01*
X0500Y17984D02*
X2129Y17984D01*
X3871Y17984D02*
X19819Y17984D01*
X20612Y17984D02*
X21295Y17984D01*
X22705Y17984D02*
X28129Y17984D01*
X29871Y17984D02*
X31500Y17984D01*
X0500Y18034D02*
X2012Y18034D01*
X3988Y18034D02*
X19771Y18034D01*
X20563Y18034D02*
X28012Y18034D01*
X29988Y18034D02*
X31500Y18034D01*
X0500Y18083D02*
X1933Y18083D01*
X4067Y18083D02*
X19734Y18083D01*
X20513Y18083D02*
X27933Y18083D01*
X30067Y18083D02*
X31500Y18083D01*
X0500Y18133D02*
X1854Y18133D01*
X4146Y18133D02*
X19710Y18133D01*
X20464Y18133D02*
X27854Y18133D01*
X30146Y18133D02*
X31500Y18133D01*
X0500Y18182D02*
X1776Y18182D01*
X4224Y18182D02*
X19699Y18182D01*
X20414Y18182D02*
X27776Y18182D01*
X30224Y18182D02*
X31500Y18182D01*
X0500Y18232D02*
X1697Y18232D01*
X4303Y18232D02*
X19695Y18232D01*
X20365Y18232D02*
X27697Y18232D01*
X30303Y18232D02*
X31500Y18232D01*
X0500Y18281D02*
X1621Y18281D01*
X4379Y18281D02*
X19695Y18281D01*
X20315Y18281D02*
X27621Y18281D01*
X30379Y18281D02*
X31500Y18281D01*
X0500Y18331D02*
X1571Y18331D01*
X4429Y18331D02*
X19695Y18331D01*
X20266Y18331D02*
X27571Y18331D01*
X30429Y18331D02*
X31500Y18331D01*
X0500Y18380D02*
X1522Y18380D01*
X4478Y18380D02*
X19695Y18380D01*
X20255Y18380D02*
X27522Y18380D01*
X30478Y18380D02*
X31500Y18380D01*
X0500Y18430D02*
X1472Y18430D01*
X4528Y18430D02*
X19695Y18430D01*
X20255Y18430D02*
X27472Y18430D01*
X30528Y18430D02*
X31500Y18430D01*
X0500Y18479D02*
X1423Y18479D01*
X4577Y18479D02*
X19695Y18479D01*
X20255Y18479D02*
X27423Y18479D01*
X30577Y18479D02*
X31500Y18479D01*
X0500Y18529D02*
X1373Y18529D01*
X4627Y18529D02*
X19695Y18529D01*
X20255Y18529D02*
X27373Y18529D01*
X30627Y18529D02*
X31500Y18529D01*
X0500Y18578D02*
X1324Y18578D01*
X4676Y18578D02*
X19695Y18578D01*
X20255Y18578D02*
X27324Y18578D01*
X30676Y18578D02*
X31500Y18578D01*
X0500Y18628D02*
X1275Y18628D01*
X4725Y18628D02*
X19695Y18628D01*
X20255Y18628D02*
X27275Y18628D01*
X30725Y18628D02*
X31500Y18628D01*
X0500Y18678D02*
X1244Y18678D01*
X4756Y18678D02*
X19695Y18678D01*
X20255Y18678D02*
X27244Y18678D01*
X30756Y18678D02*
X31500Y18678D01*
X0500Y18727D02*
X1213Y18727D01*
X4787Y18727D02*
X19695Y18727D01*
X20255Y18727D02*
X27213Y18727D01*
X30787Y18727D02*
X31500Y18727D01*
X0500Y18777D02*
X1182Y18777D01*
X4818Y18777D02*
X19695Y18777D01*
X20255Y18777D02*
X27182Y18777D01*
X30818Y18777D02*
X31500Y18777D01*
X0500Y18826D02*
X1150Y18826D01*
X4850Y18826D02*
X19695Y18826D01*
X20255Y18826D02*
X27150Y18826D01*
X30850Y18826D02*
X31500Y18826D01*
X0500Y18876D02*
X1119Y18876D01*
X4881Y18876D02*
X19695Y18876D01*
X20255Y18876D02*
X27119Y18876D01*
X30881Y18876D02*
X31500Y18876D01*
X0500Y18925D02*
X1088Y18925D01*
X4912Y18925D02*
X19695Y18925D01*
X20255Y18925D02*
X27088Y18925D01*
X30912Y18925D02*
X31500Y18925D01*
X0500Y18975D02*
X1057Y18975D01*
X4943Y18975D02*
X19695Y18975D01*
X20255Y18975D02*
X27057Y18975D01*
X30943Y18975D02*
X31500Y18975D01*
X0500Y19024D02*
X1026Y19024D01*
X4974Y19024D02*
X19695Y19024D01*
X20255Y19024D02*
X21267Y19024D01*
X22733Y19024D02*
X23057Y19024D01*
X23343Y19024D02*
X27026Y19024D01*
X30974Y19024D02*
X31500Y19024D01*
X0500Y19074D02*
X1003Y19074D01*
X4997Y19074D02*
X19695Y19074D01*
X20255Y19074D02*
X21192Y19074D01*
X22808Y19074D02*
X22935Y19074D01*
X23465Y19074D02*
X27003Y19074D01*
X30997Y19074D02*
X31500Y19074D01*
X0500Y19123D02*
X0986Y19123D01*
X5014Y19123D02*
X19695Y19123D01*
X20255Y19123D02*
X21157Y19123D01*
X23540Y19123D02*
X26986Y19123D01*
X31014Y19123D02*
X31500Y19123D01*
X0500Y19173D02*
X0969Y19173D01*
X5031Y19173D02*
X19695Y19173D01*
X20255Y19173D02*
X21140Y19173D01*
X23596Y19173D02*
X26969Y19173D01*
X31031Y19173D02*
X31500Y19173D01*
X0500Y19222D02*
X0951Y19222D01*
X5049Y19222D02*
X19695Y19222D01*
X20255Y19222D02*
X21135Y19222D01*
X23636Y19222D02*
X26951Y19222D01*
X31049Y19222D02*
X31500Y19222D01*
X0500Y19272D02*
X0934Y19272D01*
X5066Y19272D02*
X19695Y19272D01*
X20255Y19272D02*
X21135Y19272D01*
X23670Y19272D02*
X26934Y19272D01*
X31066Y19272D02*
X31500Y19272D01*
X0500Y19321D02*
X0917Y19321D01*
X5083Y19321D02*
X19695Y19321D01*
X20255Y19321D02*
X21135Y19321D01*
X23696Y19321D02*
X26917Y19321D01*
X31083Y19321D02*
X31500Y19321D01*
X0500Y19371D02*
X0899Y19371D01*
X5101Y19371D02*
X19695Y19371D01*
X20255Y19371D02*
X21135Y19371D01*
X23715Y19371D02*
X26899Y19371D01*
X31101Y19371D02*
X31500Y19371D01*
X0500Y19420D02*
X0882Y19420D01*
X5118Y19420D02*
X19695Y19420D01*
X20255Y19420D02*
X21135Y19420D01*
X23733Y19420D02*
X26882Y19420D01*
X31118Y19420D02*
X31500Y19420D01*
X0500Y19470D02*
X0865Y19470D01*
X5135Y19470D02*
X19695Y19470D01*
X20255Y19470D02*
X21135Y19470D01*
X23739Y19470D02*
X26865Y19470D01*
X31135Y19470D02*
X31500Y19470D01*
X0500Y19520D02*
X0850Y19520D01*
X5150Y19520D02*
X19695Y19520D01*
X20255Y19520D02*
X21135Y19520D01*
X23745Y19520D02*
X26850Y19520D01*
X31150Y19520D02*
X31500Y19520D01*
X0500Y19569D02*
X0844Y19569D01*
X5156Y19569D02*
X19695Y19569D01*
X20255Y19569D02*
X21135Y19569D01*
X23746Y19569D02*
X26844Y19569D01*
X31156Y19569D02*
X31500Y19569D01*
X0500Y19619D02*
X0839Y19619D01*
X5161Y19619D02*
X19695Y19619D01*
X20255Y19619D02*
X21135Y19619D01*
X23740Y19619D02*
X26839Y19619D01*
X31161Y19619D02*
X31500Y19619D01*
X0500Y19668D02*
X0833Y19668D01*
X5167Y19668D02*
X19695Y19668D01*
X20255Y19668D02*
X21135Y19668D01*
X23734Y19668D02*
X26833Y19668D01*
X31167Y19668D02*
X31500Y19668D01*
X0500Y19718D02*
X0827Y19718D01*
X5173Y19718D02*
X19695Y19718D01*
X20255Y19718D02*
X21135Y19718D01*
X23719Y19718D02*
X26827Y19718D01*
X31173Y19718D02*
X31500Y19718D01*
X0500Y19767D02*
X0822Y19767D01*
X5178Y19767D02*
X19695Y19767D01*
X20255Y19767D02*
X21135Y19767D01*
X23700Y19767D02*
X26822Y19767D01*
X31178Y19767D02*
X31500Y19767D01*
X0500Y19817D02*
X0816Y19817D01*
X5184Y19817D02*
X19695Y19817D01*
X20255Y19817D02*
X21135Y19817D01*
X23678Y19817D02*
X26816Y19817D01*
X31184Y19817D02*
X31500Y19817D01*
X0500Y19866D02*
X0811Y19866D01*
X5189Y19866D02*
X19695Y19866D01*
X20255Y19866D02*
X21135Y19866D01*
X23643Y19866D02*
X26811Y19866D01*
X31189Y19866D02*
X31500Y19866D01*
X0500Y19916D02*
X0805Y19916D01*
X5195Y19916D02*
X11163Y19916D01*
X12887Y19916D02*
X19113Y19916D01*
X20837Y19916D02*
X21138Y19916D01*
X23608Y19916D02*
X26805Y19916D01*
X31195Y19916D02*
X31500Y19916D01*
X0500Y19965D02*
X0799Y19965D01*
X5201Y19965D02*
X11097Y19965D01*
X12953Y19965D02*
X19047Y19965D01*
X20903Y19965D02*
X21152Y19965D01*
X23553Y19965D02*
X26799Y19965D01*
X31201Y19965D02*
X31500Y19965D01*
X0500Y20015D02*
X0797Y20015D01*
X5203Y20015D02*
X11065Y20015D01*
X12985Y20015D02*
X19015Y20015D01*
X20935Y20015D02*
X21182Y20015D01*
X22818Y20015D02*
X22914Y20015D01*
X23486Y20015D02*
X26797Y20015D01*
X31203Y20015D02*
X31500Y20015D01*
X0500Y20064D02*
X0803Y20064D01*
X5197Y20064D02*
X11049Y20064D01*
X13001Y20064D02*
X18999Y20064D01*
X20951Y20064D02*
X21242Y20064D01*
X22758Y20064D02*
X23011Y20064D01*
X23389Y20064D02*
X26803Y20064D01*
X31197Y20064D02*
X31500Y20064D01*
X0500Y20114D02*
X0808Y20114D01*
X5192Y20114D02*
X11046Y20114D01*
X13004Y20114D02*
X18996Y20114D01*
X20954Y20114D02*
X26808Y20114D01*
X31192Y20114D02*
X31500Y20114D01*
X0500Y20163D02*
X0814Y20163D01*
X5186Y20163D02*
X11046Y20163D01*
X13004Y20163D02*
X18996Y20163D01*
X20954Y20163D02*
X26814Y20163D01*
X31186Y20163D02*
X31500Y20163D01*
X0500Y20213D02*
X0820Y20213D01*
X5180Y20213D02*
X11046Y20213D01*
X13004Y20213D02*
X18996Y20213D01*
X20954Y20213D02*
X26820Y20213D01*
X31180Y20213D02*
X31500Y20213D01*
X0500Y20262D02*
X0825Y20262D01*
X5175Y20262D02*
X11046Y20262D01*
X13004Y20262D02*
X18996Y20262D01*
X20954Y20262D02*
X26825Y20262D01*
X31175Y20262D02*
X31500Y20262D01*
X0500Y20312D02*
X0831Y20312D01*
X5169Y20312D02*
X11046Y20312D01*
X13004Y20312D02*
X18996Y20312D01*
X20954Y20312D02*
X26831Y20312D01*
X31169Y20312D02*
X31500Y20312D01*
X0500Y20362D02*
X0836Y20362D01*
X5164Y20362D02*
X11046Y20362D01*
X13004Y20362D02*
X18996Y20362D01*
X20954Y20362D02*
X26836Y20362D01*
X31164Y20362D02*
X31500Y20362D01*
X0500Y20411D02*
X0842Y20411D01*
X5158Y20411D02*
X11046Y20411D01*
X13004Y20411D02*
X18996Y20411D01*
X20954Y20411D02*
X26842Y20411D01*
X31158Y20411D02*
X31500Y20411D01*
X0500Y20461D02*
X0847Y20461D01*
X5153Y20461D02*
X11046Y20461D01*
X13004Y20461D02*
X18996Y20461D01*
X20954Y20461D02*
X26847Y20461D01*
X31153Y20461D02*
X31500Y20461D01*
X0500Y20510D02*
X0858Y20510D01*
X5142Y20510D02*
X11046Y20510D01*
X20954Y20510D02*
X26858Y20510D01*
X31142Y20510D02*
X31500Y20510D01*
X0500Y20560D02*
X0875Y20560D01*
X5125Y20560D02*
X11046Y20560D01*
X20954Y20560D02*
X26875Y20560D01*
X31125Y20560D02*
X31500Y20560D01*
X0500Y20609D02*
X0892Y20609D01*
X5108Y20609D02*
X11046Y20609D01*
X20954Y20609D02*
X26892Y20609D01*
X31108Y20609D02*
X31500Y20609D01*
X0500Y20659D02*
X0910Y20659D01*
X5090Y20659D02*
X11046Y20659D01*
X20954Y20659D02*
X26910Y20659D01*
X31090Y20659D02*
X31500Y20659D01*
X0500Y20708D02*
X0927Y20708D01*
X5073Y20708D02*
X11046Y20708D01*
X20954Y20708D02*
X26927Y20708D01*
X31073Y20708D02*
X31500Y20708D01*
X0500Y20758D02*
X0944Y20758D01*
X5056Y20758D02*
X11046Y20758D01*
X20954Y20758D02*
X26944Y20758D01*
X31056Y20758D02*
X31500Y20758D01*
X0500Y20807D02*
X0962Y20807D01*
X5038Y20807D02*
X11046Y20807D01*
X20954Y20807D02*
X26962Y20807D01*
X31038Y20807D02*
X31500Y20807D01*
X0500Y20857D02*
X0979Y20857D01*
X5021Y20857D02*
X11046Y20857D01*
X20954Y20857D02*
X26979Y20857D01*
X31021Y20857D02*
X31500Y20857D01*
X0500Y20906D02*
X0996Y20906D01*
X5004Y20906D02*
X11046Y20906D01*
X20954Y20906D02*
X26996Y20906D01*
X31004Y20906D02*
X31500Y20906D01*
X0500Y20956D02*
X1014Y20956D01*
X4986Y20956D02*
X11046Y20956D01*
X20954Y20956D02*
X27014Y20956D01*
X30986Y20956D02*
X31500Y20956D01*
X0500Y21005D02*
X1045Y21005D01*
X4955Y21005D02*
X11046Y21005D01*
X20954Y21005D02*
X27045Y21005D01*
X30955Y21005D02*
X31500Y21005D01*
X0500Y21055D02*
X1076Y21055D01*
X4924Y21055D02*
X11046Y21055D01*
X13004Y21055D02*
X18996Y21055D01*
X20954Y21055D02*
X27076Y21055D01*
X30924Y21055D02*
X31500Y21055D01*
X0500Y21104D02*
X1107Y21104D01*
X4893Y21104D02*
X11046Y21104D01*
X13004Y21104D02*
X18996Y21104D01*
X20954Y21104D02*
X27107Y21104D01*
X30893Y21104D02*
X31500Y21104D01*
X0500Y21154D02*
X1138Y21154D01*
X4862Y21154D02*
X11046Y21154D01*
X13004Y21154D02*
X18996Y21154D01*
X20954Y21154D02*
X27138Y21154D01*
X30862Y21154D02*
X31500Y21154D01*
X0500Y21204D02*
X1169Y21204D01*
X4831Y21204D02*
X11046Y21204D01*
X13004Y21204D02*
X18996Y21204D01*
X20954Y21204D02*
X27169Y21204D01*
X30831Y21204D02*
X31500Y21204D01*
X0500Y21253D02*
X1200Y21253D01*
X4800Y21253D02*
X11046Y21253D01*
X13004Y21253D02*
X18996Y21253D01*
X20954Y21253D02*
X27200Y21253D01*
X30800Y21253D02*
X31500Y21253D01*
X0500Y21303D02*
X1231Y21303D01*
X4769Y21303D02*
X11046Y21303D01*
X13004Y21303D02*
X18996Y21303D01*
X20954Y21303D02*
X27231Y21303D01*
X30769Y21303D02*
X31500Y21303D01*
X0500Y21352D02*
X1262Y21352D01*
X4738Y21352D02*
X11046Y21352D01*
X13004Y21352D02*
X18996Y21352D01*
X20954Y21352D02*
X27262Y21352D01*
X30738Y21352D02*
X31500Y21352D01*
X0500Y21402D02*
X1304Y21402D01*
X4696Y21402D02*
X11046Y21402D01*
X13004Y21402D02*
X18996Y21402D01*
X20954Y21402D02*
X27304Y21402D01*
X30696Y21402D02*
X31500Y21402D01*
X0500Y21451D02*
X1353Y21451D01*
X4647Y21451D02*
X11053Y21451D01*
X12997Y21451D02*
X19003Y21451D01*
X20947Y21451D02*
X27353Y21451D01*
X30647Y21451D02*
X31500Y21451D01*
X0500Y21501D02*
X1403Y21501D01*
X4597Y21501D02*
X11073Y21501D01*
X12977Y21501D02*
X19023Y21501D01*
X20927Y21501D02*
X27403Y21501D01*
X30597Y21501D02*
X31500Y21501D01*
X0500Y21550D02*
X1452Y21550D01*
X4548Y21550D02*
X11112Y21550D01*
X12938Y21550D02*
X19062Y21550D01*
X20888Y21550D02*
X27452Y21550D01*
X30548Y21550D02*
X31500Y21550D01*
X0500Y21600D02*
X1502Y21600D01*
X4498Y21600D02*
X11210Y21600D01*
X12840Y21600D02*
X19160Y21600D01*
X20790Y21600D02*
X27502Y21600D01*
X30498Y21600D02*
X31500Y21600D01*
X0500Y21649D02*
X1551Y21649D01*
X4449Y21649D02*
X27551Y21649D01*
X30449Y21649D02*
X31500Y21649D01*
X0500Y21699D02*
X1601Y21699D01*
X4399Y21699D02*
X27601Y21699D01*
X30399Y21699D02*
X31500Y21699D01*
X0500Y21748D02*
X1665Y21748D01*
X4335Y21748D02*
X27665Y21748D01*
X30335Y21748D02*
X31500Y21748D01*
X0500Y21798D02*
X1744Y21798D01*
X4256Y21798D02*
X27744Y21798D01*
X30256Y21798D02*
X31500Y21798D01*
X0500Y21847D02*
X1823Y21847D01*
X4177Y21847D02*
X27823Y21847D01*
X30177Y21847D02*
X31500Y21847D01*
X0500Y21897D02*
X1902Y21897D01*
X4098Y21897D02*
X27902Y21897D01*
X30098Y21897D02*
X31500Y21897D01*
X0500Y21946D02*
X1980Y21946D01*
X4020Y21946D02*
X27980Y21946D01*
X30020Y21946D02*
X31500Y21946D01*
X0500Y21996D02*
X2072Y21996D01*
X3928Y21996D02*
X28072Y21996D01*
X29928Y21996D02*
X31500Y21996D01*
X0500Y22046D02*
X2213Y22046D01*
X3787Y22046D02*
X28213Y22046D01*
X29787Y22046D02*
X31500Y22046D01*
X0500Y22095D02*
X2355Y22095D01*
X3645Y22095D02*
X28355Y22095D01*
X29645Y22095D02*
X31500Y22095D01*
X0500Y22145D02*
X2496Y22145D01*
X3504Y22145D02*
X28496Y22145D01*
X29504Y22145D02*
X31500Y22145D01*
X0500Y22194D02*
X2908Y22194D01*
X3092Y22194D02*
X28908Y22194D01*
X29092Y22194D02*
X31500Y22194D01*
X0500Y22244D02*
X31500Y22244D01*
X0500Y22293D02*
X31500Y22293D01*
X0500Y22343D02*
X31500Y22343D01*
X0500Y22392D02*
X31500Y22392D01*
X0500Y22442D02*
X31500Y22442D01*
X0500Y22491D02*
X31500Y22491D01*
X15431Y7510D02*
X15431Y7510D01*
X15437Y7524*
X15437Y7524*
X15447Y7537*
X15456Y7550*
X15456Y7550*
X15467Y7561*
X15477Y7573*
X15477Y7573*
X15902Y7998*
X15902Y7998*
X15914Y8008*
X15925Y8019*
X15925Y8019*
X15938Y8028*
X15951Y8038*
X15951Y8038*
X15965Y8044*
X15978Y8053*
X15978Y8053*
X15993Y8058*
X16007Y8065*
X16007Y8065*
X16023Y8068*
X16038Y8074*
X16038Y8074*
X16053Y8075*
X16069Y8079*
X16069Y8079*
X16084Y8079*
X16100Y8081*
X16100Y8081*
X16873Y8081*
X17069Y8277*
X17069Y10054*
X17020Y10085*
X17020Y10085*
X16995Y10105*
X16995Y10105*
X16975Y10130*
X16975Y10130*
X16958Y10157*
X16958Y10157*
X16946Y10187*
X16946Y10187*
X16938Y10218*
X16938Y10218*
X16936Y10250*
X16936Y10250*
X16936Y10869*
X15064Y10869*
X15064Y10532*
X16198Y9398*
X16198Y9398*
X16208Y9386*
X16220Y9375*
X16312Y9327*
X16312Y9327*
X16411Y9239*
X16411Y9239*
X16486Y9130*
X16486Y9130*
X16533Y9006*
X16533Y9006*
X16549Y8875*
X16549Y8875*
X16533Y8744*
X16533Y8744*
X16486Y8620*
X16486Y8620*
X16411Y8511*
X16411Y8511*
X16312Y8423*
X16312Y8423*
X16195Y8362*
X16195Y8362*
X16066Y8330*
X16066Y8330*
X15934Y8330*
X15934Y8330*
X15868Y8347*
X15306Y7784*
X15306Y7483*
X15397Y7457*
X15431Y7510*
X15305Y7506D02*
X15428Y7506D01*
X15305Y7556D02*
X15462Y7556D01*
X15305Y7605D02*
X15509Y7605D01*
X15305Y7655D02*
X15558Y7655D01*
X15305Y7704D02*
X15608Y7704D01*
X15305Y7754D02*
X15657Y7754D01*
X15325Y7803D02*
X15707Y7803D01*
X15374Y7853D02*
X15756Y7853D01*
X15424Y7902D02*
X15806Y7902D01*
X15474Y7952D02*
X15855Y7952D01*
X15523Y8002D02*
X15906Y8002D01*
X15573Y8051D02*
X15976Y8051D01*
X15622Y8101D02*
X16894Y8101D01*
X15672Y8150D02*
X16943Y8150D01*
X15721Y8200D02*
X16993Y8200D01*
X15771Y8249D02*
X17042Y8249D01*
X15820Y8299D02*
X17070Y8299D01*
X16137Y8348D02*
X17070Y8348D01*
X16262Y8398D02*
X17070Y8398D01*
X16338Y8447D02*
X17070Y8447D01*
X16394Y8497D02*
X17070Y8497D01*
X16435Y8546D02*
X17070Y8546D01*
X16469Y8596D02*
X17070Y8596D01*
X16495Y8645D02*
X17070Y8645D01*
X16514Y8695D02*
X17070Y8695D01*
X16533Y8744D02*
X17070Y8744D01*
X16539Y8794D02*
X17070Y8794D01*
X16545Y8844D02*
X17070Y8844D01*
X16546Y8893D02*
X17070Y8893D01*
X16540Y8943D02*
X17070Y8943D01*
X16534Y8992D02*
X17070Y8992D01*
X16519Y9042D02*
X17070Y9042D01*
X16500Y9091D02*
X17070Y9091D01*
X16478Y9141D02*
X17070Y9141D01*
X16444Y9190D02*
X17070Y9190D01*
X16409Y9240D02*
X17070Y9240D01*
X16353Y9289D02*
X17070Y9289D01*
X16288Y9339D02*
X17070Y9339D01*
X16206Y9388D02*
X17070Y9388D01*
X16159Y9438D02*
X17070Y9438D01*
X16109Y9487D02*
X17070Y9487D01*
X16060Y9537D02*
X17070Y9537D01*
X16010Y9586D02*
X17070Y9586D01*
X15961Y9636D02*
X17070Y9636D01*
X15911Y9686D02*
X17070Y9686D01*
X15861Y9735D02*
X17070Y9735D01*
X15812Y9785D02*
X17070Y9785D01*
X15762Y9834D02*
X17070Y9834D01*
X15713Y9884D02*
X17070Y9884D01*
X15663Y9933D02*
X17070Y9933D01*
X15614Y9983D02*
X17070Y9983D01*
X15564Y10032D02*
X17070Y10032D01*
X15515Y10082D02*
X17025Y10082D01*
X15465Y10131D02*
X16974Y10131D01*
X15416Y10181D02*
X16948Y10181D01*
X15366Y10230D02*
X16937Y10230D01*
X15317Y10280D02*
X16936Y10280D01*
X15267Y10329D02*
X16936Y10329D01*
X15218Y10379D02*
X16936Y10379D01*
X15168Y10428D02*
X16936Y10428D01*
X15119Y10478D02*
X16936Y10478D01*
X15069Y10528D02*
X16936Y10528D01*
X15064Y10577D02*
X16936Y10577D01*
X15064Y10627D02*
X16936Y10627D01*
X15064Y10676D02*
X16936Y10676D01*
X15064Y10726D02*
X16936Y10726D01*
X15064Y10775D02*
X16936Y10775D01*
X15064Y10825D02*
X16936Y10825D01*
X14654Y5275D02*
X14654Y5275D01*
X14654Y6038*
X14654Y6038*
X14661Y6111*
X14661Y6111*
X14682Y6180*
X14682Y6180*
X14716Y6244*
X14716Y6244*
X14744Y6279*
X14744Y7900*
X14744Y7900*
X14746Y7916*
X14746Y7931*
X14746Y7931*
X14750Y7947*
X14751Y7962*
X14751Y7962*
X14757Y7977*
X14760Y7993*
X14760Y7993*
X14767Y8007*
X14772Y8022*
X14772Y8022*
X14781Y8035*
X14787Y8049*
X14787Y8049*
X14797Y8062*
X14806Y8075*
X14806Y8075*
X14817Y8086*
X14827Y8098*
X14827Y8098*
X15468Y8740*
X15451Y8875*
X15451Y8875*
X15467Y9006*
X15467Y9006*
X15514Y9130*
X15514Y9130*
X15579Y9224*
X14758Y10046*
X14481Y10046*
X14481Y5318*
X14512Y5302*
X14512Y5302*
X14579Y5242*
X14654Y5275*
X14523Y5291D02*
X14654Y5291D01*
X14480Y5341D02*
X14654Y5341D01*
X14480Y5390D02*
X14654Y5390D01*
X14480Y5440D02*
X14654Y5440D01*
X14480Y5489D02*
X14654Y5489D01*
X14480Y5539D02*
X14654Y5539D01*
X14480Y5588D02*
X14654Y5588D01*
X14480Y5638D02*
X14654Y5638D01*
X14480Y5687D02*
X14654Y5687D01*
X14480Y5737D02*
X14654Y5737D01*
X14480Y5786D02*
X14654Y5786D01*
X14480Y5836D02*
X14654Y5836D01*
X14480Y5885D02*
X14654Y5885D01*
X14480Y5935D02*
X14654Y5935D01*
X14480Y5984D02*
X14654Y5984D01*
X14480Y6034D02*
X14654Y6034D01*
X14480Y6084D02*
X14658Y6084D01*
X14480Y6133D02*
X14668Y6133D01*
X14480Y6183D02*
X14683Y6183D01*
X14480Y6232D02*
X14710Y6232D01*
X14480Y6282D02*
X14745Y6282D01*
X14480Y6331D02*
X14745Y6331D01*
X14480Y6381D02*
X14745Y6381D01*
X14480Y6430D02*
X14745Y6430D01*
X14480Y6480D02*
X14745Y6480D01*
X14480Y6529D02*
X14745Y6529D01*
X14480Y6579D02*
X14745Y6579D01*
X14480Y6628D02*
X14745Y6628D01*
X14480Y6678D02*
X14745Y6678D01*
X14480Y6727D02*
X14745Y6727D01*
X14480Y6777D02*
X14745Y6777D01*
X14480Y6826D02*
X14745Y6826D01*
X14480Y6876D02*
X14745Y6876D01*
X14480Y6926D02*
X14745Y6926D01*
X14480Y6975D02*
X14745Y6975D01*
X14480Y7025D02*
X14745Y7025D01*
X14480Y7074D02*
X14745Y7074D01*
X14480Y7124D02*
X14745Y7124D01*
X14480Y7173D02*
X14745Y7173D01*
X14480Y7223D02*
X14745Y7223D01*
X14480Y7272D02*
X14745Y7272D01*
X14480Y7322D02*
X14745Y7322D01*
X14480Y7371D02*
X14745Y7371D01*
X14480Y7421D02*
X14745Y7421D01*
X14480Y7470D02*
X14745Y7470D01*
X14480Y7520D02*
X14745Y7520D01*
X14480Y7569D02*
X14745Y7569D01*
X14480Y7619D02*
X14745Y7619D01*
X14480Y7668D02*
X14745Y7668D01*
X14480Y7718D02*
X14745Y7718D01*
X14480Y7768D02*
X14745Y7768D01*
X14480Y7817D02*
X14745Y7817D01*
X14480Y7867D02*
X14745Y7867D01*
X14480Y7916D02*
X14746Y7916D01*
X14480Y7966D02*
X14753Y7966D01*
X14480Y8015D02*
X14770Y8015D01*
X14480Y8065D02*
X14799Y8065D01*
X14480Y8114D02*
X14843Y8114D01*
X14480Y8164D02*
X14892Y8164D01*
X14480Y8213D02*
X14942Y8213D01*
X14480Y8263D02*
X14991Y8263D01*
X14480Y8312D02*
X15041Y8312D01*
X14480Y8362D02*
X15090Y8362D01*
X14480Y8411D02*
X15140Y8411D01*
X14480Y8461D02*
X15189Y8461D01*
X14480Y8510D02*
X15239Y8510D01*
X14480Y8560D02*
X15288Y8560D01*
X14480Y8610D02*
X15338Y8610D01*
X14480Y8659D02*
X15388Y8659D01*
X14480Y8709D02*
X15437Y8709D01*
X14480Y8758D02*
X15466Y8758D01*
X14480Y8808D02*
X15460Y8808D01*
X14480Y8857D02*
X15454Y8857D01*
X14480Y8907D02*
X15455Y8907D01*
X14480Y8956D02*
X15461Y8956D01*
X14480Y9006D02*
X15468Y9006D01*
X14480Y9055D02*
X15486Y9055D01*
X14480Y9105D02*
X15505Y9105D01*
X14480Y9154D02*
X15531Y9154D01*
X14480Y9204D02*
X15566Y9204D01*
X14480Y9253D02*
X15550Y9253D01*
X14480Y9303D02*
X15500Y9303D01*
X14480Y9352D02*
X15451Y9352D01*
X14480Y9402D02*
X15401Y9402D01*
X14480Y9452D02*
X15352Y9452D01*
X14480Y9501D02*
X15302Y9501D01*
X14480Y9551D02*
X15253Y9551D01*
X14480Y9600D02*
X15203Y9600D01*
X14480Y9650D02*
X15154Y9650D01*
X14480Y9699D02*
X15104Y9699D01*
X14480Y9749D02*
X15055Y9749D01*
X14480Y9798D02*
X15005Y9798D01*
X14480Y9848D02*
X14956Y9848D01*
X14480Y9897D02*
X14906Y9897D01*
X14480Y9947D02*
X14857Y9947D01*
X14480Y9996D02*
X14807Y9996D01*
X17719Y6618D02*
X17719Y6618D01*
X17719Y8052*
X17628Y8078*
X17594Y8025*
X17588Y8011*
X17588Y8011*
X17578Y7999*
X17569Y7985*
X17569Y7985*
X17558Y7974*
X17548Y7962*
X17548Y7962*
X17188Y7602*
X17188Y7602*
X17176Y7592*
X17165Y7581*
X17165Y7581*
X17151Y7572*
X17139Y7562*
X17139Y7562*
X17125Y7556*
X17111Y7547*
X17111Y7547*
X17097Y7542*
X17082Y7535*
X17082Y7535*
X17067Y7532*
X17052Y7526*
X17052Y7526*
X17036Y7525*
X17021Y7521*
X17021Y7521*
X17005Y7521*
X16990Y7519*
X16990Y7519*
X16216Y7519*
X15956Y7259*
X15956Y6307*
X16028Y6273*
X16119Y6347*
X16119Y6347*
X16183Y6381*
X16183Y6381*
X16253Y6402*
X16253Y6402*
X16325Y6410*
X16325Y6410*
X16397Y6402*
X16397Y6402*
X16467Y6381*
X16467Y6381*
X16531Y6347*
X16531Y6347*
X16607Y6285*
X16663Y6351*
X16663Y6351*
X16687Y6371*
X16687Y6371*
X16714Y6388*
X16714Y6388*
X16744Y6401*
X16744Y6401*
X16775Y6408*
X16775Y6408*
X16807Y6411*
X16807Y6411*
X17143Y6411*
X17143Y6411*
X17175Y6408*
X17175Y6408*
X17206Y6401*
X17206Y6401*
X17236Y6388*
X17236Y6388*
X17263Y6371*
X17263Y6371*
X17287Y6351*
X17287Y6351*
X17308Y6326*
X17308Y6326*
X17354Y6252*
X17719Y6618*
X15966Y6302D02*
X16064Y6302D01*
X16586Y6302D02*
X16621Y6302D01*
X17323Y6302D02*
X17403Y6302D01*
X15955Y6351D02*
X16127Y6351D01*
X16523Y6351D02*
X16663Y6351D01*
X17287Y6351D02*
X17453Y6351D01*
X15955Y6401D02*
X16248Y6401D01*
X16402Y6401D02*
X16745Y6401D01*
X17205Y6401D02*
X17502Y6401D01*
X15955Y6450D02*
X17552Y6450D01*
X15955Y6500D02*
X17601Y6500D01*
X15955Y6549D02*
X17651Y6549D01*
X15955Y6599D02*
X17700Y6599D01*
X15955Y6648D02*
X17720Y6648D01*
X15955Y6698D02*
X17720Y6698D01*
X15955Y6747D02*
X17720Y6747D01*
X15955Y6797D02*
X17720Y6797D01*
X15955Y6846D02*
X17720Y6846D01*
X15955Y6896D02*
X17720Y6896D01*
X15955Y6945D02*
X17720Y6945D01*
X15955Y6995D02*
X17720Y6995D01*
X15955Y7045D02*
X17720Y7045D01*
X15955Y7094D02*
X17720Y7094D01*
X15955Y7144D02*
X17720Y7144D01*
X15955Y7193D02*
X17720Y7193D01*
X15955Y7243D02*
X17720Y7243D01*
X15989Y7292D02*
X17720Y7292D01*
X16038Y7342D02*
X17720Y7342D01*
X16088Y7391D02*
X17720Y7391D01*
X16137Y7441D02*
X17720Y7441D01*
X16187Y7490D02*
X17720Y7490D01*
X17092Y7540D02*
X17720Y7540D01*
X17173Y7589D02*
X17720Y7589D01*
X17225Y7639D02*
X17720Y7639D01*
X17275Y7688D02*
X17720Y7688D01*
X17324Y7738D02*
X17720Y7738D01*
X17374Y7787D02*
X17720Y7787D01*
X17423Y7837D02*
X17720Y7837D01*
X17473Y7887D02*
X17720Y7887D01*
X17522Y7936D02*
X17720Y7936D01*
X17569Y7986D02*
X17720Y7986D01*
X17600Y8035D02*
X17720Y8035D01*
X31500Y5906D02*
X31500Y5906D01*
X31500Y6594*
X31422Y6626*
X31374Y6578*
X31374Y6578*
X31202Y6458*
X31202Y6458*
X31012Y6369*
X31012Y6369*
X30809Y6315*
X30809Y6315*
X30730Y6308*
X30730Y6192*
X30809Y6185*
X30809Y6185*
X31012Y6131*
X31012Y6131*
X31202Y6042*
X31202Y6042*
X31374Y5922*
X31374Y5922*
X31422Y5874*
X31500Y5906*
X31372Y5923D02*
X31500Y5923D01*
X31301Y5973D02*
X31500Y5973D01*
X31230Y6022D02*
X31500Y6022D01*
X31138Y6072D02*
X31500Y6072D01*
X31032Y6121D02*
X31500Y6121D01*
X30862Y6171D02*
X31500Y6171D01*
X30730Y6220D02*
X31500Y6220D01*
X30730Y6270D02*
X31500Y6270D01*
X30825Y6319D02*
X31500Y6319D01*
X31009Y6369D02*
X31500Y6369D01*
X31117Y6418D02*
X31500Y6418D01*
X31216Y6468D02*
X31500Y6468D01*
X31286Y6517D02*
X31500Y6517D01*
X31357Y6567D02*
X31500Y6567D01*
X31412Y6616D02*
X31446Y6616D01*
X16044Y4647D02*
X16044Y4647D01*
X15972Y4681*
X15881Y4607*
X15881Y4607*
X15817Y4573*
X15817Y4573*
X15747Y4552*
X15747Y4552*
X15675Y4544*
X15675Y4544*
X15603Y4552*
X15603Y4552*
X15533Y4573*
X15533Y4573*
X15469Y4607*
X15469Y4607*
X15412Y4653*
X15412Y4653*
X15350Y4729*
X15288Y4653*
X15288Y4653*
X15231Y4607*
X15231Y4607*
X15167Y4573*
X15167Y4573*
X15097Y4552*
X15097Y4552*
X15025Y4544*
X15025Y4544*
X14953Y4552*
X14953Y4552*
X14883Y4573*
X14883Y4573*
X14819Y4607*
X14819Y4607*
X14721Y4687*
X14686Y4595*
X14686Y4595*
X14611Y4486*
X14611Y4486*
X14512Y4398*
X14512Y4398*
X14470Y4377*
X14494Y4281*
X16044Y4281*
X16044Y4647*
X14482Y4330D02*
X16045Y4330D01*
X14475Y4379D02*
X16045Y4379D01*
X14546Y4429D02*
X16045Y4429D01*
X14602Y4479D02*
X16045Y4479D01*
X14639Y4528D02*
X16045Y4528D01*
X14673Y4578D02*
X14874Y4578D01*
X15176Y4578D02*
X15524Y4578D01*
X15826Y4578D02*
X16045Y4578D01*
X14698Y4627D02*
X14795Y4627D01*
X15255Y4627D02*
X15445Y4627D01*
X15905Y4627D02*
X16045Y4627D01*
X14716Y4677D02*
X14734Y4677D01*
X15306Y4677D02*
X15394Y4677D01*
X15966Y4677D02*
X15983Y4677D01*
X15347Y4726D02*
X15353Y4726D01*
X25996Y3500D02*
X25996Y3500D01*
X25996Y3500*
X25998Y3532*
X25998Y3532*
X26006Y3563*
X26006Y3563*
X26018Y3593*
X26018Y3593*
X26035Y3620*
X26035Y3620*
X26055Y3645*
X26055Y3645*
X26080Y3665*
X26080Y3665*
X26107Y3682*
X26107Y3682*
X26137Y3694*
X26137Y3694*
X26168Y3702*
X26168Y3702*
X26200Y3704*
X26200Y3704*
X26978Y3704*
X26992Y3814*
X26788Y3869*
X26788Y3869*
X26598Y3958*
X26598Y3958*
X26426Y4078*
X26426Y4078*
X26278Y4226*
X26278Y4226*
X26158Y4398*
X26158Y4398*
X26091Y4542*
X25848Y4542*
X25745Y4487*
X25745Y4487*
X25616Y4455*
X25616Y4455*
X25484Y4455*
X25484Y4455*
X25355Y4487*
X25355Y4487*
X25238Y4548*
X25238Y4548*
X25139Y4636*
X25139Y4636*
X25082Y4719*
X24427Y4719*
X24391Y4655*
X24418Y4611*
X24418Y4611*
X24430Y4581*
X24430Y4581*
X24437Y4550*
X24437Y4550*
X24440Y4518*
X24440Y4518*
X24440Y4168*
X24541Y4221*
X24541Y4221*
X24669Y4253*
X24669Y4253*
X24801Y4253*
X24801Y4253*
X24930Y4221*
X24930Y4221*
X25047Y4160*
X25047Y4160*
X25146Y4072*
X25146Y4072*
X25221Y3963*
X25221Y3963*
X25268Y3840*
X25268Y3840*
X25284Y3708*
X25284Y3708*
X25268Y3577*
X25268Y3577*
X25221Y3453*
X25221Y3453*
X25146Y3345*
X25146Y3345*
X25047Y3257*
X25047Y3257*
X24930Y3195*
X24930Y3195*
X24802Y3164*
X24801Y3164*
X24669Y3164*
X24669Y3164*
X24590Y3183*
X24590Y2958*
X25996Y2958*
X25996Y3500*
X24590Y3008D02*
X25996Y3008D01*
X24590Y3057D02*
X25996Y3057D01*
X24590Y3107D02*
X25996Y3107D01*
X24590Y3156D02*
X25996Y3156D01*
X24949Y3206D02*
X25996Y3206D01*
X25044Y3255D02*
X25996Y3255D01*
X25101Y3305D02*
X25996Y3305D01*
X25153Y3354D02*
X25996Y3354D01*
X25187Y3404D02*
X25996Y3404D01*
X25221Y3454D02*
X25996Y3454D01*
X25240Y3503D02*
X25996Y3503D01*
X25258Y3553D02*
X26003Y3553D01*
X25271Y3602D02*
X26024Y3602D01*
X25277Y3652D02*
X26064Y3652D01*
X25283Y3701D02*
X26166Y3701D01*
X25279Y3751D02*
X26984Y3751D01*
X25273Y3800D02*
X26991Y3800D01*
X25264Y3850D02*
X26862Y3850D01*
X25245Y3899D02*
X26724Y3899D01*
X25226Y3949D02*
X26618Y3949D01*
X25197Y3998D02*
X26541Y3998D01*
X25162Y4048D02*
X26470Y4048D01*
X25117Y4097D02*
X26408Y4097D01*
X25061Y4147D02*
X26358Y4147D01*
X24440Y4196D02*
X24494Y4196D01*
X24977Y4196D02*
X26308Y4196D01*
X24440Y4246D02*
X24642Y4246D01*
X24829Y4246D02*
X26265Y4246D01*
X24440Y4296D02*
X26230Y4296D01*
X24440Y4345D02*
X26195Y4345D01*
X24440Y4395D02*
X26161Y4395D01*
X24440Y4444D02*
X26137Y4444D01*
X24440Y4494D02*
X25343Y4494D01*
X25757Y4494D02*
X26114Y4494D01*
X24438Y4543D02*
X25249Y4543D01*
X24425Y4593D02*
X25189Y4593D01*
X24398Y4642D02*
X25135Y4642D01*
X24411Y4692D02*
X25101Y4692D01*
X31500Y4094D02*
X31500Y4094D01*
X31422Y4126*
X31374Y4078*
X31374Y4078*
X31202Y3958*
X31202Y3958*
X31012Y3869*
X31012Y3869*
X30808Y3814*
X30822Y3704*
X31500Y3704*
X31500Y4094*
X30815Y3754D02*
X31500Y3754D01*
X30809Y3803D02*
X31500Y3803D01*
X30950Y3853D02*
X31500Y3853D01*
X31082Y3902D02*
X31500Y3902D01*
X31188Y3952D02*
X31500Y3952D01*
X31264Y4001D02*
X31500Y4001D01*
X31334Y4051D02*
X31500Y4051D01*
X31396Y4100D02*
X31484Y4100D01*
%LNtop copper_traces*%
D11*
X24050Y7500D02*
X28900Y7500D01*
D12*
X18650Y10550D02*
X19975Y9225D01*
X23001Y4518D02*
X23001Y5358D01*
X11875Y10160D02*
X11875Y11325D01*
X19975Y9225D02*
X19975Y8875D01*
D11*
X24050Y9500D02*
X24050Y11500D01*
D12*
X11650Y13100D02*
X12025Y13100D01*
X14400Y13500D02*
X16300Y13500D01*
X21340Y14425D02*
X18400Y14425D01*
X12025Y16250D02*
X14440Y13835D01*
X19975Y20750D02*
X19975Y18225D01*
X20750Y17450D02*
X22000Y17450D01*
X22285Y4350D02*
X22757Y4350D01*
X21950Y7500D02*
X21950Y7017D01*
X23217Y5650D02*
X23715Y5650D01*
X13350Y11150D02*
X18000Y11150D01*
X10775Y15000D02*
X12025Y16250D01*
X18400Y14425D02*
X18000Y14025D01*
D11*
X24050Y2500D02*
X28900Y2500D01*
D12*
X15675Y5477D02*
X15675Y7375D01*
X16100Y7800*
X14440Y13835D02*
X14440Y13500D01*
D11*
X7950Y9500D02*
X7950Y11500D01*
D12*
X16100Y7800D02*
X16990Y7800D01*
D11*
X25550Y5000D02*
X28900Y5000D01*
D12*
X19975Y18225D02*
X20750Y17450D01*
X21950Y2523D02*
X23735Y4308D01*
X14200Y10350D02*
X14000Y10550D01*
X18000Y6502D02*
X18000Y14025D01*
X22265Y5650D02*
X19625Y5650D01*
X17975Y4000D02*
X19625Y5650D01*
X3200Y15000D02*
X10775Y15000D01*
X23735Y4308D02*
X24335Y3708D01*
X14650Y10550D02*
X16000Y9200D01*
X10050Y11500D02*
X11650Y13100D01*
X10050Y9500D02*
X11215Y9500D01*
X13350Y10550D02*
X13350Y11150D01*
D11*
X22000Y19550D02*
X23200Y19550D01*
D12*
X11000Y4000D02*
X18000Y4000D01*
X21689Y6756D02*
X21950Y7017D01*
X22000Y17450D02*
X22000Y15085D01*
X16975Y5477D02*
X18000Y6502D01*
X17350Y12450D02*
X16300Y13500D01*
X14527Y2523D02*
X14200Y2850D01*
X19975Y13100D02*
X21575Y11500D01*
X22757Y4350D02*
X23001Y4518D01*
X11875Y11325D02*
X12343Y11793D01*
X13350Y12450D02*
X14400Y13500D01*
X21600Y9500D02*
X21950Y9500D01*
D11*
X15675Y2523D02*
X16975Y2523D01*
D12*
X15025Y7900D02*
X16000Y8875D01*
X15025Y2523D02*
X14527Y2523D01*
X16000Y9200D02*
X16000Y8875D01*
X21575Y11500D02*
X21950Y11500D01*
X22000Y15085D02*
X21340Y14425D01*
X23715Y5000D02*
X25550Y5000D01*
X23001Y5358D02*
X23217Y5650D01*
X15025Y5477D02*
X15025Y7900D01*
X18650Y12450D02*
X21600Y9500D01*
X16325Y3988D02*
X16325Y5477D01*
X12343Y11793D02*
X13993Y11793D01*
X12025Y20750D02*
X19975Y20750D01*
X11215Y9500D02*
X11875Y10160D01*
X20955Y6756D02*
X21689Y6756D01*
X17350Y8160D02*
X17350Y10550D01*
X14200Y4748D02*
X14200Y10350D01*
D11*
X6000Y4000D02*
X4200Y4000D01*
D12*
X24335Y3708D02*
X24735Y3708D01*
X16990Y7800D02*
X17350Y8160D01*
X14650Y12450D02*
X14000Y11800D01*
D13*
X12025Y8875D03*
X2200Y15000D03*
X3200Y15000D03*
X12025Y13100D03*
X19975Y8875D03*
X23200Y19550D03*
X27800Y15000D03*
X4200Y8000D03*
X24735Y3708D03*
X28800Y15000D03*
X4200Y15000D03*
X16000Y8875D03*
X14200Y2850D03*
X19975Y13100D03*
X2200Y8000D03*
X14200Y4850D03*
X25550Y5000D03*
X29800Y15000D03*
X20955Y6756D03*
X3200Y8000D03*
%LNtop copper component a909c6ee266bfeb9*%
D14*
X6000Y4000D03*
%LNtop copper component 8e14199b85c15e7f*%
D15*
X24050Y7500D03*
X21950Y7500D03*
%LNtop copper component 2293443dc90e4631*%
D16*
X22000Y17450D03*
X22000Y19550D03*
%LNtop copper component 65af363b57491b91*%
D15*
X24050Y2500D03*
X21950Y2500D03*
%LNtop copper component 34da612e08865cf2*%
X10050Y9500D03*
X7950Y9500D03*
%LNtop copper component f49fa6f0a038b7a0*%
D17*
X19975Y16250D03*
X12025Y16250D03*
X12025Y20750D03*
X19975Y20750D03*
%LNtop copper component f51130c770a72e1a*%
D18*
X3000Y3000D03*
%LNtop copper component f3851719753a70e0*%
D19*
X13350Y10550D03*
X14000Y10550D03*
X14650Y10550D03*
X14650Y12450D03*
X13350Y12450D03*
%LNtop copper component c199763d80fc7ed0*%
D18*
X29000Y20000D03*
%LNtop copper component 58a3a8cc87aead12*%
D20*
X21950Y9500D03*
X24050Y9500D03*
%LNtop copper component 74906858fadfa986*%
D21*
X23785Y4350D03*
D22*
X23785Y5000D03*
X23785Y5650D03*
X22215Y5650D03*
X22215Y5000D03*
X22215Y4350D03*
%LNtop copper component 830ba2c345a829ca*%
D19*
X17350Y10550D03*
X18000Y10550D03*
X18650Y10550D03*
X18650Y12450D03*
X17350Y12450D03*
%LNtop copper component 6f40eadbb42f088b*%
D14*
X8500Y4000D03*
%LNtop copper component 3c6ee2f324f7420e*%
D23*
X16975Y5477D03*
D24*
X16325Y5477D03*
X15675Y5477D03*
X15025Y5477D03*
X15025Y2523D03*
X15675Y2523D03*
X16325Y2523D03*
X16975Y2523D03*
%LNtop copper component a6ba738d966070ac*%
D18*
X3000Y20000D03*
%LNtop copper component 1ab0cf254183e8e1*%
D25*
X28900Y5000D03*
D26*
X28900Y2500D03*
D25*
X28900Y7500D03*
%LNtop copper component c0b1ac0089f46285*%
D20*
X21950Y11500D03*
X24050Y11500D03*
%LNtop copper component 15cf22b6688a694f*%
D15*
X10050Y11500D03*
X7950Y11500D03*
%LNtop copper component aad800f2e99707d8*%
D14*
X11000Y4000D03*
M02*