%FSLAX33Y33*%
%MOMM*%
%AMRect-W670710-H1320710-RO1.000*
21,1,0.67071,1.32071,0.,0.,180*%
%AMRect-W670710-H1320710-RO1.500*
21,1,0.67071,1.32071,0.,0.,90*%
%AMRect-W900000-H335831-RO1.000*
21,1,0.9,0.335831,0.,0.,180*%
%AMRR-H335831-W900000-R167915-RO1.000*
21,1,0.56417,0.335831,0.,0.,180*
21,1,0.9,0.000001,0.,0.,180*
1,1,0.33583,0.282085,-0.0000005*
1,1,0.33583,-0.282085,-0.0000005*
1,1,0.33583,-0.282085,0.0000005*
1,1,0.33583,0.282085,0.0000005*%
%AMRect-W1458141-H335831-RO0.500*
21,1,1.458141,0.335831,0.,0.,270*%
%AMRR-H335831-W1458141-R167915-RO0.500*
21,1,1.122311,0.335831,0.,0.,270*
21,1,1.458141,0.000001,0.,0.,270*
1,1,0.33583,0.0000005,0.5611555*
1,1,0.33583,0.0000005,-0.5611555*
1,1,0.33583,-0.0000005,-0.5611555*
1,1,0.33583,-0.0000005,0.5611555*%
%AMRR-H5400000-W2000000-R1000000-RO1.500*
21,1,2.,3.4,0.,0.,90*
1,1,2.,-1.7,-0.*
1,1,2.,-1.7,0.*
1,1,2.,1.7,0.*
1,1,2.,1.7,-0.*%
%AMRect-W2000000-H5400000-RO1.500*
21,1,2.,5.4,0.,0.,90*%
%ADD10R,0.4X0.7*%
%ADD11Rect-W670710-H1320710-RO1.000*%
%ADD12Rect-W670710-H1320710-RO1.500*%
%ADD13R,1.55X1.3*%
%ADD14R,0.42X0.6*%
%ADD15R,0.67071X1.32071*%
%ADD16Rect-W900000-H335831-RO1.000*%
%ADD17RR-H335831-W900000-R167915-RO1.000*%
%ADD18Rect-W1458141-H335831-RO0.500*%
%ADD19RR-H335831-W1458141-R167915-RO0.500*%
%ADD20RR-H5400000-W2000000-R1000000-RO1.500*%
%ADD21Rect-W2000000-H5400000-RO1.500*%
D10*
%LNtop paste_traces*%
%LNtop paste component a909c6ee266bfeb9*%
G01*
X6000Y4000D03*
%LNtop paste component 8e14199b85c15e7f*%
D11*
X24050Y7500D03*
X21950Y7500D03*
%LNtop paste component 2293443dc90e4631*%
D12*
X22000Y17450D03*
X22000Y19550D03*
%LNtop paste component 65af363b57491b91*%
D11*
X24050Y2500D03*
X21950Y2500D03*
%LNtop paste component 34da612e08865cf2*%
X10050Y9500D03*
X7950Y9500D03*
%LNtop paste component f49fa6f0a038b7a0*%
D13*
X19975Y16250D03*
X12025Y16250D03*
X12025Y20750D03*
X19975Y20750D03*
%LNtop paste component f3851719753a70e0*%
D14*
X13350Y10550D03*
X14000Y10550D03*
X14650Y10550D03*
X14650Y12450D03*
X13350Y12450D03*
%LNtop paste component 58a3a8cc87aead12*%
D15*
X21950Y9500D03*
X24050Y9500D03*
%LNtop paste component 74906858fadfa986*%
D16*
X23785Y4350D03*
D17*
X23785Y5000D03*
X23785Y5650D03*
X22215Y5650D03*
X22215Y5000D03*
X22215Y4350D03*
%LNtop paste component 830ba2c345a829ca*%
D14*
X17350Y10550D03*
X18000Y10550D03*
X18650Y10550D03*
X18650Y12450D03*
X17350Y12450D03*
%LNtop paste component 6f40eadbb42f088b*%
D10*
X8500Y4000D03*
%LNtop paste component 3c6ee2f324f7420e*%
D18*
X16975Y5477D03*
D19*
X16325Y5477D03*
X15675Y5477D03*
X15025Y5477D03*
X15025Y2523D03*
X15675Y2523D03*
X16325Y2523D03*
X16975Y2523D03*
%LNtop paste component 1ab0cf254183e8e1*%
D20*
X28900Y5000D03*
D21*
X28900Y2500D03*
D20*
X28900Y7500D03*
%LNtop paste component c0b1ac0089f46285*%
D15*
X21950Y11500D03*
X24050Y11500D03*
%LNtop paste component 15cf22b6688a694f*%
D11*
X10050Y11500D03*
X7950Y11500D03*
%LNtop paste component aad800f2e99707d8*%
D10*
X11000Y4000D03*
M02*