%FSLAX33Y33*%
%MOMM*%
%ADD10C,0.15*%
%ADD11C,0.5*%
%ADD12C,0.5*%
%ADD13C,0.5*%
%ADD14C,0.1524*%
%ADD15C,0.3*%
D10*
%LNtop silkscreen_traces*%
%LNtop silkscreen component a909c6ee266bfeb9*%
G01*
X5675Y3525D02*
X5675Y4475D01*
X6325Y4475*
X6325Y3525*
X5675Y3525*
G36*
X5226Y4981D02*
X5226Y5065D01*
X5529Y5065D01*
X5529Y4800D01*
X5494Y4774D01*
X5458Y4751D01*
X5422Y4732D01*
X5385Y4716D01*
X5348Y4704D01*
X5310Y4695D01*
X5272Y4690D01*
X5233Y4688D01*
X5181Y4691D01*
X5132Y4699D01*
X5085Y4713D01*
X5041Y4733D01*
X5001Y4758D01*
X4966Y4788D01*
X4936Y4823D01*
X4911Y4864D01*
X4892Y4908D01*
X4878Y4954D01*
X4870Y5003D01*
X4867Y5054D01*
X4870Y5106D01*
X4878Y5156D01*
X4892Y5203D01*
X4911Y5250D01*
X4935Y5292D01*
X4964Y5328D01*
X4998Y5359D01*
X5037Y5384D01*
X5079Y5403D01*
X5125Y5417D01*
X5174Y5425D01*
X5226Y5428D01*
X5263Y5426D01*
X5299Y5422D01*
X5334Y5414D01*
X5366Y5403D01*
X5396Y5389D01*
X5422Y5373D01*
X5445Y5354D01*
X5464Y5333D01*
X5481Y5309D01*
X5496Y5281D01*
X5508Y5250D01*
X5518Y5216D01*
X5433Y5192D01*
X5424Y5218D01*
X5415Y5241D01*
X5404Y5261D01*
X5393Y5278D01*
X5380Y5293D01*
X5364Y5306D01*
X5346Y5318D01*
X5325Y5328D01*
X5302Y5336D01*
X5278Y5342D01*
X5252Y5346D01*
X5226Y5347D01*
X5195Y5346D01*
X5165Y5342D01*
X5138Y5336D01*
X5114Y5327D01*
X5091Y5317D01*
X5071Y5304D01*
X5053Y5291D01*
X5037Y5275D01*
X5024Y5259D01*
X5011Y5241D01*
X5001Y5223D01*
X4992Y5204D01*
X4980Y5170D01*
X4972Y5135D01*
X4966Y5098D01*
X4965Y5060D01*
X4967Y5014D01*
X4973Y4972D01*
X4983Y4934D01*
X4998Y4900D01*
X5016Y4870D01*
X5038Y4844D01*
X5064Y4822D01*
X5094Y4804D01*
X5126Y4791D01*
X5159Y4781D01*
X5193Y4775D01*
X5227Y4773D01*
X5258Y4775D01*
X5288Y4779D01*
X5318Y4787D01*
X5348Y4797D01*
X5375Y4809D01*
X5399Y4821D01*
X5420Y4834D01*
X5436Y4847D01*
X5436Y4981D01*
X5226Y4981D01*
X5226Y4981D01*
X5668Y4700D02*
X5668Y5416D01*
X5765Y5416D01*
X6141Y4854D01*
X6141Y5416D01*
X6232Y5416D01*
X6232Y4700D01*
X6135Y4700D01*
X5759Y5263D01*
X5759Y4700D01*
X5668Y4700D01*
X5668Y4700D01*
X6391Y4700D02*
X6391Y5416D01*
X6636Y5416D01*
X6636Y5331D01*
X6486Y5331D01*
X6486Y4784D01*
X6486Y4784D01*
X6639Y4784D01*
X6672Y4785D01*
X6702Y4788D01*
X6728Y4792D01*
X6750Y4798D01*
X6769Y4805D01*
X6786Y4814D01*
X6801Y4823D01*
X6814Y4835D01*
X6830Y4853D01*
X6844Y4874D01*
X6856Y4898D01*
X6866Y4925D01*
X6875Y4955D01*
X6881Y4988D01*
X6884Y5024D01*
X6885Y5063D01*
X6883Y5116D01*
X6876Y5163D01*
X6864Y5202D01*
X6848Y5236D01*
X6829Y5264D01*
X6808Y5286D01*
X6784Y5304D01*
X6759Y5317D01*
X6737Y5323D01*
X6709Y5328D01*
X6676Y5330D01*
X6636Y5331D01*
X6636Y5416D01*
X6638Y5416D01*
X6677Y5415D01*
X6711Y5413D01*
X6741Y5410D01*
X6765Y5406D01*
X6795Y5397D01*
X6822Y5386D01*
X6847Y5371D01*
X6870Y5354D01*
X6897Y5329D01*
X6920Y5300D01*
X6939Y5268D01*
X6955Y5232D01*
X6967Y5193D01*
X6976Y5152D01*
X6981Y5108D01*
X6983Y5062D01*
X6982Y5022D01*
X6978Y4985D01*
X6972Y4950D01*
X6964Y4917D01*
X6954Y4887D01*
X6942Y4860D01*
X6929Y4835D01*
X6915Y4813D01*
X6900Y4794D01*
X6884Y4776D01*
X6867Y4761D01*
X6850Y4748D01*
X6831Y4737D01*
X6811Y4727D01*
X6788Y4719D01*
X6764Y4712D01*
X6738Y4707D01*
X6711Y4703D01*
X6681Y4701D01*
X6649Y4700D01*
X6391Y4700D01*
X6391Y4700D01*
G37*
%LNtop silkscreen component 8e14199b85c15e7f*%
X23415Y8125D02*
X22585Y8125D01*
X23415Y6875D02*
X22585Y6875D01*
G36*
X20089Y7200D02*
X20089Y7916D01*
X20406Y7916D01*
X20451Y7915D01*
X20491Y7911D01*
X20524Y7905D01*
X20552Y7897D01*
X20576Y7885D01*
X20597Y7870D01*
X20615Y7851D01*
X20631Y7828D01*
X20644Y7803D01*
X20654Y7777D01*
X20659Y7749D01*
X20661Y7721D01*
X20658Y7684D01*
X20649Y7650D01*
X20633Y7620D01*
X20612Y7592D01*
X20584Y7568D01*
X20549Y7549D01*
X20508Y7535D01*
X20484Y7530D01*
X20469Y7607D01*
X20489Y7613D01*
X20506Y7621D01*
X20521Y7631D01*
X20534Y7643D01*
X20545Y7656D01*
X20553Y7671D01*
X20559Y7687D01*
X20562Y7703D01*
X20564Y7721D01*
X20561Y7745D01*
X20554Y7767D01*
X20543Y7787D01*
X20527Y7804D01*
X20506Y7818D01*
X20479Y7829D01*
X20447Y7835D01*
X20410Y7837D01*
X20184Y7837D01*
X20184Y7600D01*
X20184Y7600D01*
X20387Y7600D01*
X20418Y7601D01*
X20445Y7603D01*
X20469Y7607D01*
X20484Y7530D01*
X20460Y7526D01*
X20477Y7517D01*
X20493Y7508D01*
X20506Y7499D01*
X20517Y7490D01*
X20537Y7470D01*
X20557Y7447D01*
X20576Y7422D01*
X20595Y7395D01*
X20720Y7200D01*
X20601Y7200D01*
X20506Y7349D01*
X20486Y7379D01*
X20468Y7406D01*
X20452Y7429D01*
X20438Y7448D01*
X20425Y7463D01*
X20412Y7477D01*
X20400Y7487D01*
X20390Y7495D01*
X20379Y7502D01*
X20368Y7507D01*
X20357Y7511D01*
X20346Y7514D01*
X20337Y7516D01*
X20325Y7517D01*
X20311Y7518D01*
X20294Y7518D01*
X20184Y7518D01*
X20184Y7200D01*
X20089Y7200D01*
X20089Y7200D01*
X20774Y7388D02*
X20866Y7395D01*
X20873Y7364D01*
X20883Y7336D01*
X20897Y7313D01*
X20914Y7294D01*
X20934Y7279D01*
X20955Y7269D01*
X20979Y7262D01*
X21004Y7260D01*
X21035Y7263D01*
X21063Y7272D01*
X21088Y7287D01*
X21111Y7308D01*
X21131Y7334D01*
X21144Y7364D01*
X21153Y7397D01*
X21155Y7435D01*
X21153Y7470D01*
X21145Y7502D01*
X21132Y7530D01*
X21113Y7554D01*
X21090Y7573D01*
X21064Y7586D01*
X21035Y7594D01*
X21003Y7597D01*
X20982Y7596D01*
X20962Y7592D01*
X20943Y7586D01*
X20926Y7578D01*
X20910Y7567D01*
X20895Y7556D01*
X20883Y7542D01*
X20872Y7528D01*
X20790Y7538D01*
X20859Y7906D01*
X21215Y7906D01*
X21215Y7822D01*
X20929Y7822D01*
X20891Y7630D01*
X20923Y7649D01*
X20957Y7663D01*
X20991Y7672D01*
X21026Y7675D01*
X21071Y7671D01*
X21112Y7658D01*
X21150Y7638D01*
X21184Y7610D01*
X21212Y7575D01*
X21233Y7535D01*
X21245Y7491D01*
X21249Y7443D01*
X21245Y7396D01*
X21234Y7352D01*
X21217Y7312D01*
X21192Y7275D01*
X21154Y7237D01*
X21111Y7210D01*
X21060Y7193D01*
X21004Y7188D01*
X20957Y7191D01*
X20915Y7201D01*
X20878Y7219D01*
X20845Y7242D01*
X20817Y7272D01*
X20796Y7306D01*
X20782Y7345D01*
X20774Y7388D01*
X20774Y7388D01*
G37*
%LNtop silkscreen component 2293443dc90e4631*%
X22625Y18085D02*
X22625Y18915D01*
X21375Y18085D02*
X21375Y18915D01*
G36*
X21389Y20200D02*
X21389Y20916D01*
X21706Y20916D01*
X21751Y20915D01*
X21791Y20911D01*
X21824Y20905D01*
X21852Y20897D01*
X21876Y20885D01*
X21897Y20870D01*
X21915Y20851D01*
X21931Y20828D01*
X21944Y20803D01*
X21954Y20777D01*
X21959Y20749D01*
X21961Y20721D01*
X21958Y20684D01*
X21949Y20650D01*
X21933Y20620D01*
X21912Y20592D01*
X21884Y20568D01*
X21849Y20549D01*
X21808Y20535D01*
X21784Y20530D01*
X21769Y20607D01*
X21789Y20613D01*
X21806Y20621D01*
X21821Y20631D01*
X21834Y20643D01*
X21845Y20656D01*
X21853Y20671D01*
X21859Y20687D01*
X21862Y20703D01*
X21864Y20721D01*
X21861Y20745D01*
X21854Y20767D01*
X21843Y20787D01*
X21827Y20804D01*
X21806Y20818D01*
X21779Y20829D01*
X21747Y20835D01*
X21710Y20837D01*
X21484Y20837D01*
X21484Y20600D01*
X21484Y20600D01*
X21687Y20600D01*
X21718Y20601D01*
X21745Y20603D01*
X21769Y20607D01*
X21784Y20530D01*
X21760Y20526D01*
X21777Y20517D01*
X21793Y20508D01*
X21806Y20499D01*
X21817Y20490D01*
X21837Y20470D01*
X21857Y20447D01*
X21876Y20422D01*
X21895Y20395D01*
X22020Y20200D01*
X21901Y20200D01*
X21806Y20349D01*
X21786Y20379D01*
X21768Y20406D01*
X21752Y20429D01*
X21738Y20448D01*
X21725Y20463D01*
X21712Y20477D01*
X21700Y20487D01*
X21690Y20495D01*
X21679Y20502D01*
X21668Y20507D01*
X21657Y20511D01*
X21646Y20514D01*
X21637Y20516D01*
X21625Y20517D01*
X21611Y20518D01*
X21594Y20518D01*
X21484Y20518D01*
X21484Y20200D01*
X21389Y20200D01*
X21389Y20200D01*
X22075Y20389D02*
X22162Y20401D01*
X22171Y20366D01*
X22183Y20336D01*
X22197Y20312D01*
X22214Y20293D01*
X22233Y20279D01*
X22254Y20268D01*
X22277Y20262D01*
X22303Y20260D01*
X22332Y20263D01*
X22360Y20271D01*
X22385Y20284D01*
X22407Y20303D01*
X22426Y20326D01*
X22439Y20351D01*
X22447Y20379D01*
X22450Y20409D01*
X22448Y20438D01*
X22440Y20465D01*
X22428Y20488D01*
X22410Y20509D01*
X22389Y20527D01*
X22366Y20539D01*
X22339Y20546D01*
X22310Y20549D01*
X22297Y20548D01*
X22282Y20546D01*
X22266Y20543D01*
X22248Y20539D01*
X22258Y20616D01*
X22262Y20616D01*
X22266Y20615D01*
X22269Y20615D01*
X22272Y20615D01*
X22299Y20617D01*
X22325Y20622D01*
X22350Y20632D01*
X22373Y20644D01*
X22393Y20661D01*
X22407Y20682D01*
X22415Y20706D01*
X22418Y20735D01*
X22416Y20758D01*
X22410Y20779D01*
X22399Y20798D01*
X22385Y20815D01*
X22368Y20829D01*
X22348Y20839D01*
X22325Y20845D01*
X22301Y20846D01*
X22276Y20844D01*
X22254Y20838D01*
X22233Y20828D01*
X22215Y20814D01*
X22200Y20796D01*
X22187Y20774D01*
X22178Y20748D01*
X22171Y20718D01*
X22083Y20733D01*
X22094Y20775D01*
X22110Y20812D01*
X22131Y20843D01*
X22157Y20870D01*
X22187Y20891D01*
X22221Y20907D01*
X22258Y20916D01*
X22299Y20919D01*
X22327Y20917D01*
X22355Y20912D01*
X22381Y20905D01*
X22407Y20894D01*
X22430Y20880D01*
X22450Y20864D01*
X22467Y20846D01*
X22482Y20825D01*
X22493Y20803D01*
X22502Y20780D01*
X22506Y20757D01*
X22508Y20733D01*
X22507Y20710D01*
X22502Y20688D01*
X22494Y20668D01*
X22483Y20648D01*
X22469Y20630D01*
X22452Y20614D01*
X22432Y20600D01*
X22409Y20588D01*
X22439Y20578D01*
X22466Y20565D01*
X22489Y20548D01*
X22508Y20527D01*
X22523Y20502D01*
X22534Y20475D01*
X22541Y20445D01*
X22543Y20411D01*
X22539Y20366D01*
X22526Y20325D01*
X22505Y20287D01*
X22475Y20252D01*
X22438Y20224D01*
X22398Y20204D01*
X22352Y20191D01*
X22302Y20187D01*
X22257Y20191D01*
X22216Y20201D01*
X22179Y20219D01*
X22146Y20243D01*
X22118Y20274D01*
X22097Y20308D01*
X22082Y20346D01*
X22075Y20389D01*
X22075Y20389D01*
G37*
%LNtop silkscreen component 65af363b57491b91*%
X23415Y3125D02*
X22585Y3125D01*
X23415Y1875D02*
X22585Y1875D01*
G36*
X20089Y2200D02*
X20089Y2916D01*
X20406Y2916D01*
X20451Y2915D01*
X20491Y2911D01*
X20524Y2905D01*
X20552Y2897D01*
X20576Y2885D01*
X20597Y2870D01*
X20615Y2851D01*
X20631Y2828D01*
X20644Y2803D01*
X20654Y2777D01*
X20659Y2749D01*
X20661Y2721D01*
X20658Y2684D01*
X20649Y2650D01*
X20633Y2620D01*
X20612Y2592D01*
X20584Y2568D01*
X20549Y2549D01*
X20508Y2535D01*
X20484Y2530D01*
X20469Y2607D01*
X20489Y2613D01*
X20506Y2621D01*
X20521Y2631D01*
X20534Y2643D01*
X20545Y2656D01*
X20553Y2671D01*
X20559Y2687D01*
X20562Y2703D01*
X20564Y2721D01*
X20561Y2745D01*
X20554Y2767D01*
X20543Y2787D01*
X20527Y2804D01*
X20506Y2818D01*
X20479Y2829D01*
X20447Y2835D01*
X20410Y2837D01*
X20184Y2837D01*
X20184Y2600D01*
X20184Y2600D01*
X20387Y2600D01*
X20418Y2601D01*
X20445Y2603D01*
X20469Y2607D01*
X20484Y2530D01*
X20460Y2526D01*
X20477Y2517D01*
X20493Y2508D01*
X20506Y2499D01*
X20517Y2490D01*
X20537Y2470D01*
X20557Y2447D01*
X20576Y2422D01*
X20595Y2395D01*
X20720Y2200D01*
X20601Y2200D01*
X20506Y2349D01*
X20486Y2379D01*
X20468Y2406D01*
X20452Y2429D01*
X20438Y2448D01*
X20425Y2463D01*
X20412Y2477D01*
X20400Y2487D01*
X20390Y2495D01*
X20379Y2502D01*
X20368Y2507D01*
X20357Y2511D01*
X20346Y2514D01*
X20337Y2516D01*
X20325Y2517D01*
X20311Y2518D01*
X20294Y2518D01*
X20184Y2518D01*
X20184Y2200D01*
X20089Y2200D01*
X20089Y2200D01*
X21056Y2200D02*
X21056Y2371D01*
X20745Y2371D01*
X20745Y2452D01*
X21000Y2814D01*
X21056Y2775D01*
X20832Y2452D01*
X21056Y2452D01*
X21056Y2452D01*
X21056Y2775D01*
X21000Y2814D01*
X21072Y2916D01*
X21144Y2916D01*
X21144Y2452D01*
X21240Y2452D01*
X21240Y2371D01*
X21144Y2371D01*
X21144Y2200D01*
X21056Y2200D01*
X21056Y2200D01*
G37*
%LNtop silkscreen component 34da612e08865cf2*%
X9415Y10125D02*
X8585Y10125D01*
X9415Y8875D02*
X8585Y8875D01*
G36*
X6189Y9200D02*
X6189Y9916D01*
X6506Y9916D01*
X6551Y9915D01*
X6591Y9911D01*
X6624Y9905D01*
X6652Y9897D01*
X6676Y9885D01*
X6697Y9870D01*
X6715Y9851D01*
X6731Y9828D01*
X6744Y9803D01*
X6754Y9777D01*
X6759Y9749D01*
X6761Y9721D01*
X6758Y9684D01*
X6749Y9650D01*
X6733Y9620D01*
X6712Y9592D01*
X6684Y9568D01*
X6649Y9549D01*
X6608Y9535D01*
X6584Y9530D01*
X6569Y9607D01*
X6589Y9613D01*
X6606Y9621D01*
X6621Y9631D01*
X6634Y9643D01*
X6645Y9656D01*
X6653Y9671D01*
X6659Y9687D01*
X6662Y9703D01*
X6664Y9721D01*
X6661Y9745D01*
X6654Y9767D01*
X6643Y9787D01*
X6627Y9804D01*
X6606Y9818D01*
X6579Y9829D01*
X6547Y9835D01*
X6510Y9837D01*
X6284Y9837D01*
X6284Y9600D01*
X6284Y9600D01*
X6487Y9600D01*
X6518Y9601D01*
X6545Y9603D01*
X6569Y9607D01*
X6584Y9530D01*
X6560Y9526D01*
X6577Y9517D01*
X6593Y9508D01*
X6606Y9499D01*
X6617Y9490D01*
X6637Y9470D01*
X6657Y9447D01*
X6676Y9422D01*
X6695Y9395D01*
X6820Y9200D01*
X6701Y9200D01*
X6606Y9349D01*
X6586Y9379D01*
X6568Y9406D01*
X6552Y9429D01*
X6538Y9448D01*
X6525Y9463D01*
X6512Y9477D01*
X6500Y9487D01*
X6490Y9495D01*
X6479Y9502D01*
X6468Y9507D01*
X6457Y9511D01*
X6446Y9514D01*
X6437Y9516D01*
X6425Y9517D01*
X6411Y9518D01*
X6394Y9518D01*
X6284Y9518D01*
X6284Y9200D01*
X6189Y9200D01*
X6189Y9200D01*
X7205Y9200D02*
X7117Y9200D01*
X7117Y9760D01*
X7100Y9745D01*
X7081Y9730D01*
X7058Y9715D01*
X7034Y9700D01*
X7009Y9685D01*
X6985Y9673D01*
X6963Y9663D01*
X6941Y9654D01*
X6941Y9739D01*
X6977Y9757D01*
X7011Y9777D01*
X7042Y9799D01*
X7070Y9823D01*
X7096Y9848D01*
X7117Y9872D01*
X7135Y9895D01*
X7148Y9919D01*
X7205Y9919D01*
X7205Y9200D01*
X7205Y9200D01*
G37*
%LNtop silkscreen component f49fa6f0a038b7a0*%
X13000Y17500D02*
X13000Y19500D01*
X19000Y17500D02*
X19000Y19500D01*
X13500Y21500D02*
X18500Y21500D01*
X13500Y15500D02*
X18500Y15500D01*
D11*
X10700Y20750D03*
G36*
X14945Y18405D02*
X15034Y18413D01*
X15039Y18387D01*
X15045Y18364D01*
X15053Y18343D01*
X15064Y18325D01*
X15077Y18308D01*
X15093Y18294D01*
X15113Y18280D01*
X15136Y18269D01*
X15161Y18260D01*
X15188Y18253D01*
X15216Y18249D01*
X15246Y18248D01*
X15272Y18249D01*
X15297Y18252D01*
X15320Y18257D01*
X15341Y18264D01*
X15361Y18273D01*
X15378Y18283D01*
X15392Y18295D01*
X15403Y18308D01*
X15412Y18322D01*
X15418Y18337D01*
X15422Y18353D01*
X15423Y18369D01*
X15422Y18386D01*
X15419Y18401D01*
X15412Y18415D01*
X15404Y18428D01*
X15393Y18440D01*
X15378Y18451D01*
X15360Y18461D01*
X15339Y18470D01*
X15321Y18477D01*
X15293Y18485D01*
X15257Y18494D01*
X15212Y18505D01*
X15166Y18517D01*
X15128Y18528D01*
X15097Y18539D01*
X15074Y18550D01*
X15050Y18564D01*
X15029Y18580D01*
X15012Y18598D01*
X14997Y18617D01*
X14986Y18637D01*
X14979Y18659D01*
X14974Y18682D01*
X14972Y18706D01*
X14974Y18732D01*
X14980Y18758D01*
X14990Y18783D01*
X15003Y18807D01*
X15020Y18829D01*
X15041Y18849D01*
X15065Y18865D01*
X15093Y18879D01*
X15123Y18889D01*
X15155Y18897D01*
X15189Y18902D01*
X15224Y18903D01*
X15263Y18901D01*
X15299Y18897D01*
X15333Y18889D01*
X15365Y18877D01*
X15393Y18863D01*
X15418Y18846D01*
X15440Y18825D01*
X15458Y18802D01*
X15473Y18776D01*
X15483Y18749D01*
X15490Y18720D01*
X15493Y18689D01*
X15402Y18682D01*
X15397Y18714D01*
X15386Y18742D01*
X15372Y18765D01*
X15353Y18785D01*
X15329Y18800D01*
X15301Y18811D01*
X15267Y18817D01*
X15228Y18820D01*
X15188Y18818D01*
X15154Y18812D01*
X15125Y18802D01*
X15103Y18788D01*
X15086Y18771D01*
X15073Y18753D01*
X15066Y18734D01*
X15064Y18712D01*
X15065Y18694D01*
X15071Y18677D01*
X15079Y18662D01*
X15091Y18649D01*
X15111Y18636D01*
X15141Y18623D01*
X15182Y18611D01*
X15234Y18598D01*
X15287Y18585D01*
X15332Y18573D01*
X15367Y18562D01*
X15393Y18552D01*
X15422Y18537D01*
X15447Y18519D01*
X15468Y18500D01*
X15485Y18479D01*
X15498Y18456D01*
X15507Y18431D01*
X15513Y18405D01*
X15515Y18377D01*
X15513Y18349D01*
X15507Y18322D01*
X15496Y18295D01*
X15482Y18269D01*
X15464Y18246D01*
X15442Y18225D01*
X15417Y18206D01*
X15388Y18191D01*
X15356Y18179D01*
X15323Y18170D01*
X15287Y18165D01*
X15250Y18163D01*
X15203Y18165D01*
X15161Y18170D01*
X15122Y18179D01*
X15087Y18191D01*
X15056Y18207D01*
X15029Y18227D01*
X15005Y18250D01*
X14984Y18276D01*
X14968Y18306D01*
X14956Y18337D01*
X14948Y18370D01*
X14945Y18405D01*
X14945Y18405D01*
X15769Y18175D02*
X15579Y18891D01*
X15676Y18891D01*
X15785Y18422D01*
X15794Y18385D01*
X15802Y18348D01*
X15809Y18312D01*
X15816Y18275D01*
X15828Y18326D01*
X15837Y18366D01*
X15844Y18393D01*
X15848Y18407D01*
X15984Y18891D01*
X16098Y18891D01*
X16201Y18529D01*
X16219Y18462D01*
X16234Y18398D01*
X16247Y18335D01*
X16256Y18275D01*
X16264Y18310D01*
X16272Y18348D01*
X16282Y18388D01*
X16292Y18431D01*
X16404Y18891D01*
X16500Y18891D01*
X16303Y18175D01*
X16212Y18175D01*
X16061Y18720D01*
X16053Y18751D01*
X16046Y18776D01*
X16041Y18793D01*
X16039Y18804D01*
X16033Y18781D01*
X16028Y18759D01*
X16023Y18739D01*
X16018Y18720D01*
X15866Y18175D01*
X15769Y18175D01*
X15769Y18175D01*
X16883Y18175D02*
X16796Y18175D01*
X16796Y18735D01*
X16778Y18720D01*
X16759Y18705D01*
X16737Y18690D01*
X16712Y18675D01*
X16687Y18660D01*
X16663Y18648D01*
X16641Y18638D01*
X16620Y18629D01*
X16620Y18714D01*
X16655Y18732D01*
X16689Y18752D01*
X16720Y18774D01*
X16749Y18798D01*
X16774Y18823D01*
X16796Y18847D01*
X16813Y18870D01*
X16827Y18894D01*
X16883Y18894D01*
X16883Y18175D01*
X16883Y18175D01*
G37*
%LNtop silkscreen component f3851719753a70e0*%
D10*
X12925Y11250D02*
X12925Y11750D01*
X15075Y11750*
X15075Y11250*
X12925Y11250*
D11*
X13350Y9700D03*
G36*
X13872Y13791D02*
X13967Y13791D01*
X13967Y13377D01*
X13965Y13326D01*
X13960Y13280D01*
X13953Y13240D01*
X13942Y13206D01*
X13928Y13176D01*
X13908Y13148D01*
X13883Y13124D01*
X13854Y13103D01*
X13820Y13085D01*
X13780Y13073D01*
X13736Y13065D01*
X13687Y13063D01*
X13639Y13065D01*
X13595Y13071D01*
X13557Y13082D01*
X13522Y13097D01*
X13493Y13117D01*
X13467Y13140D01*
X13447Y13167D01*
X13431Y13198D01*
X13419Y13234D01*
X13410Y13275D01*
X13405Y13323D01*
X13404Y13377D01*
X13404Y13791D01*
X13498Y13791D01*
X13498Y13378D01*
X13499Y13334D01*
X13503Y13297D01*
X13508Y13265D01*
X13516Y13240D01*
X13526Y13219D01*
X13539Y13201D01*
X13556Y13185D01*
X13575Y13172D01*
X13598Y13162D01*
X13622Y13154D01*
X13649Y13150D01*
X13679Y13148D01*
X13727Y13151D01*
X13768Y13160D01*
X13801Y13175D01*
X13827Y13196D01*
X13847Y13225D01*
X13861Y13265D01*
X13869Y13316D01*
X13872Y13378D01*
X13872Y13791D01*
X13872Y13791D01*
X14420Y13075D02*
X14332Y13075D01*
X14332Y13635D01*
X14315Y13620D01*
X14295Y13605D01*
X14273Y13590D01*
X14249Y13575D01*
X14223Y13560D01*
X14200Y13548D01*
X14177Y13538D01*
X14156Y13529D01*
X14156Y13614D01*
X14192Y13632D01*
X14225Y13652D01*
X14256Y13674D01*
X14285Y13698D01*
X14311Y13723D01*
X14332Y13747D01*
X14350Y13770D01*
X14363Y13794D01*
X14420Y13794D01*
X14420Y13075D01*
X14420Y13075D01*
G37*
%LNtop silkscreen component 58a3a8cc87aead12*%
D10*
X22585Y8875D02*
X23415Y8875D01*
X22585Y10125D02*
X23415Y10125D01*
G36*
X24889Y9200D02*
X24889Y9916D01*
X25206Y9916D01*
X25251Y9915D01*
X25291Y9911D01*
X25324Y9905D01*
X25352Y9897D01*
X25376Y9885D01*
X25397Y9870D01*
X25415Y9851D01*
X25431Y9828D01*
X25444Y9803D01*
X25454Y9777D01*
X25459Y9749D01*
X25461Y9721D01*
X25458Y9684D01*
X25449Y9650D01*
X25433Y9620D01*
X25412Y9592D01*
X25384Y9568D01*
X25349Y9549D01*
X25308Y9535D01*
X25284Y9530D01*
X25269Y9607D01*
X25289Y9613D01*
X25306Y9621D01*
X25321Y9631D01*
X25334Y9643D01*
X25345Y9656D01*
X25353Y9671D01*
X25359Y9687D01*
X25362Y9703D01*
X25364Y9721D01*
X25361Y9745D01*
X25354Y9767D01*
X25343Y9787D01*
X25327Y9804D01*
X25306Y9818D01*
X25279Y9829D01*
X25247Y9835D01*
X25210Y9837D01*
X24984Y9837D01*
X24984Y9600D01*
X24984Y9600D01*
X25187Y9600D01*
X25218Y9601D01*
X25245Y9603D01*
X25269Y9607D01*
X25284Y9530D01*
X25260Y9526D01*
X25277Y9517D01*
X25293Y9508D01*
X25306Y9499D01*
X25317Y9490D01*
X25337Y9470D01*
X25357Y9447D01*
X25376Y9422D01*
X25395Y9395D01*
X25520Y9200D01*
X25401Y9200D01*
X25306Y9349D01*
X25286Y9379D01*
X25268Y9406D01*
X25252Y9429D01*
X25238Y9448D01*
X25225Y9463D01*
X25212Y9477D01*
X25200Y9487D01*
X25190Y9495D01*
X25179Y9502D01*
X25168Y9507D01*
X25157Y9511D01*
X25146Y9514D01*
X25137Y9516D01*
X25125Y9517D01*
X25111Y9518D01*
X25094Y9518D01*
X24984Y9518D01*
X24984Y9200D01*
X24889Y9200D01*
X24889Y9200D01*
X26036Y9284D02*
X26036Y9200D01*
X25563Y9200D01*
X25563Y9216D01*
X25565Y9231D01*
X25568Y9246D01*
X25573Y9261D01*
X25583Y9285D01*
X25597Y9309D01*
X25612Y9333D01*
X25631Y9356D01*
X25653Y9381D01*
X25680Y9407D01*
X25711Y9435D01*
X25746Y9465D01*
X25800Y9510D01*
X25844Y9550D01*
X25878Y9586D01*
X25904Y9616D01*
X25922Y9644D01*
X25934Y9671D01*
X25942Y9697D01*
X25945Y9722D01*
X25942Y9747D01*
X25935Y9770D01*
X25924Y9791D01*
X25907Y9810D01*
X25887Y9826D01*
X25864Y9837D01*
X25838Y9844D01*
X25810Y9846D01*
X25780Y9844D01*
X25753Y9836D01*
X25729Y9825D01*
X25708Y9808D01*
X25692Y9787D01*
X25680Y9762D01*
X25672Y9734D01*
X25670Y9702D01*
X25579Y9712D01*
X25587Y9759D01*
X25602Y9801D01*
X25622Y9836D01*
X25649Y9866D01*
X25682Y9889D01*
X25720Y9906D01*
X25763Y9915D01*
X25812Y9919D01*
X25861Y9915D01*
X25904Y9904D01*
X25942Y9887D01*
X25975Y9862D01*
X26001Y9831D01*
X26020Y9798D01*
X26031Y9761D01*
X26035Y9720D01*
X26034Y9699D01*
X26031Y9677D01*
X26025Y9656D01*
X26017Y9636D01*
X26007Y9615D01*
X25994Y9593D01*
X25978Y9571D01*
X25959Y9548D01*
X25935Y9523D01*
X25905Y9494D01*
X25868Y9460D01*
X25824Y9422D01*
X25788Y9392D01*
X25759Y9366D01*
X25737Y9347D01*
X25722Y9332D01*
X25711Y9320D01*
X25701Y9308D01*
X25693Y9296D01*
X25685Y9284D01*
X26036Y9284D01*
X26036Y9284D01*
G37*
%LNtop silkscreen component 74906858fadfa986*%
X24050Y6250D02*
X21950Y6250D01*
X24050Y3750D02*
X21950Y3750D01*
D12*
X24735Y4350D03*
G36*
X23888Y2884D02*
X23794Y2884D01*
X23794Y3298D01*
X23795Y3349D01*
X23800Y3395D01*
X23807Y3435D01*
X23818Y3469D01*
X23833Y3499D01*
X23852Y3527D01*
X23877Y3551D01*
X23906Y3572D01*
X23941Y3590D01*
X23980Y3602D01*
X24024Y3610D01*
X24074Y3612D01*
X24122Y3610D01*
X24165Y3604D01*
X24204Y3593D01*
X24238Y3578D01*
X24268Y3558D01*
X24293Y3535D01*
X24313Y3508D01*
X24329Y3477D01*
X24341Y3441D01*
X24350Y3400D01*
X24355Y3352D01*
X24357Y3298D01*
X24357Y2884D01*
X24262Y2884D01*
X24262Y3297D01*
X24261Y3341D01*
X24258Y3378D01*
X24252Y3410D01*
X24245Y3435D01*
X24234Y3456D01*
X24221Y3474D01*
X24205Y3490D01*
X24185Y3503D01*
X24163Y3513D01*
X24138Y3521D01*
X24111Y3525D01*
X24082Y3527D01*
X24033Y3524D01*
X23992Y3515D01*
X23959Y3500D01*
X23933Y3479D01*
X23913Y3450D01*
X23900Y3410D01*
X23891Y3359D01*
X23888Y3297D01*
X23888Y2884D01*
X23888Y2884D01*
X23390Y3600D02*
X23390Y3429D01*
X23700Y3429D01*
X23700Y3348D01*
X23446Y2986D01*
X23390Y3025D01*
X23614Y3348D01*
X23390Y3348D01*
X23390Y3348D01*
X23390Y3025D01*
X23446Y2986D01*
X23374Y2884D01*
X23302Y2884D01*
X23302Y3348D01*
X23205Y3348D01*
X23205Y3429D01*
X23302Y3429D01*
X23302Y3600D01*
X23390Y3600D01*
X23390Y3600D01*
G37*
%LNtop silkscreen component 830ba2c345a829ca*%
D10*
X16925Y11250D02*
X16925Y11750D01*
X19075Y11750*
X19075Y11250*
X16925Y11250*
D11*
X17350Y9700D03*
G36*
X17872Y13791D02*
X17967Y13791D01*
X17967Y13377D01*
X17965Y13326D01*
X17960Y13280D01*
X17953Y13240D01*
X17942Y13206D01*
X17928Y13176D01*
X17908Y13148D01*
X17883Y13124D01*
X17854Y13103D01*
X17820Y13085D01*
X17780Y13073D01*
X17736Y13065D01*
X17687Y13063D01*
X17639Y13065D01*
X17595Y13071D01*
X17557Y13082D01*
X17522Y13097D01*
X17493Y13117D01*
X17467Y13140D01*
X17447Y13167D01*
X17431Y13198D01*
X17419Y13234D01*
X17410Y13275D01*
X17405Y13323D01*
X17404Y13377D01*
X17404Y13791D01*
X17498Y13791D01*
X17498Y13378D01*
X17499Y13334D01*
X17503Y13297D01*
X17508Y13265D01*
X17516Y13240D01*
X17526Y13219D01*
X17539Y13201D01*
X17556Y13185D01*
X17575Y13172D01*
X17598Y13162D01*
X17622Y13154D01*
X17649Y13150D01*
X17679Y13148D01*
X17727Y13151D01*
X17768Y13160D01*
X17801Y13175D01*
X17827Y13196D01*
X17847Y13225D01*
X17861Y13265D01*
X17869Y13316D01*
X17872Y13378D01*
X17872Y13791D01*
X17872Y13791D01*
X18551Y13159D02*
X18551Y13075D01*
X18077Y13075D01*
X18078Y13091D01*
X18080Y13106D01*
X18083Y13121D01*
X18088Y13136D01*
X18098Y13160D01*
X18111Y13184D01*
X18127Y13208D01*
X18146Y13231D01*
X18168Y13256D01*
X18194Y13282D01*
X18225Y13310D01*
X18261Y13340D01*
X18314Y13385D01*
X18358Y13425D01*
X18393Y13461D01*
X18418Y13491D01*
X18436Y13519D01*
X18449Y13546D01*
X18457Y13572D01*
X18459Y13597D01*
X18457Y13622D01*
X18450Y13645D01*
X18438Y13666D01*
X18422Y13685D01*
X18402Y13701D01*
X18379Y13712D01*
X18353Y13719D01*
X18325Y13721D01*
X18294Y13719D01*
X18267Y13711D01*
X18244Y13700D01*
X18223Y13683D01*
X18206Y13662D01*
X18194Y13637D01*
X18187Y13609D01*
X18184Y13577D01*
X18094Y13587D01*
X18102Y13634D01*
X18116Y13676D01*
X18137Y13711D01*
X18164Y13741D01*
X18197Y13764D01*
X18235Y13781D01*
X18278Y13790D01*
X18326Y13794D01*
X18375Y13790D01*
X18419Y13779D01*
X18457Y13762D01*
X18490Y13737D01*
X18516Y13706D01*
X18535Y13673D01*
X18546Y13636D01*
X18550Y13595D01*
X18549Y13574D01*
X18545Y13552D01*
X18540Y13531D01*
X18532Y13511D01*
X18522Y13490D01*
X18509Y13468D01*
X18493Y13446D01*
X18474Y13423D01*
X18450Y13398D01*
X18419Y13369D01*
X18382Y13335D01*
X18338Y13297D01*
X18302Y13267D01*
X18273Y13241D01*
X18251Y13222D01*
X18237Y13207D01*
X18226Y13195D01*
X18216Y13183D01*
X18207Y13171D01*
X18200Y13159D01*
X18551Y13159D01*
X18551Y13159D01*
G37*
%LNtop silkscreen component 6f40eadbb42f088b*%
D10*
X8175Y3525D02*
X8175Y4475D01*
X8825Y4475*
X8825Y3525*
X8175Y3525*
G36*
X7401Y4700D02*
X7123Y5416D01*
X7226Y5416D01*
X7412Y4896D01*
X7423Y4865D01*
X7433Y4835D01*
X7442Y4806D01*
X7450Y4779D01*
X7458Y4808D01*
X7468Y4837D01*
X7478Y4867D01*
X7488Y4896D01*
X7682Y5416D01*
X7778Y5416D01*
X7498Y4700D01*
X7401Y4700D01*
X7401Y4700D01*
X7859Y4700D02*
X7859Y5416D01*
X8128Y5416D01*
X8167Y5414D01*
X8202Y5410D01*
X8233Y5404D01*
X8259Y5394D01*
X8283Y5382D01*
X8304Y5367D01*
X8322Y5348D01*
X8337Y5327D01*
X8349Y5304D01*
X8358Y5281D01*
X8363Y5257D01*
X8365Y5233D01*
X8364Y5210D01*
X8359Y5188D01*
X8351Y5167D01*
X8340Y5146D01*
X8326Y5127D01*
X8309Y5110D01*
X8289Y5094D01*
X8265Y5081D01*
X8237Y5013D01*
X8224Y5019D01*
X8204Y5024D01*
X8180Y5028D01*
X8152Y5030D01*
X8120Y5031D01*
X7954Y5031D01*
X7954Y4784D01*
X7954Y4784D01*
X8132Y4784D01*
X8154Y4785D01*
X8171Y4785D01*
X8186Y4786D01*
X8197Y4788D01*
X8212Y4791D01*
X8227Y4796D01*
X8240Y4801D01*
X8251Y4807D01*
X8262Y4815D01*
X8271Y4824D01*
X8280Y4835D01*
X8288Y4847D01*
X8294Y4861D01*
X8298Y4875D01*
X8301Y4891D01*
X8302Y4908D01*
X8300Y4927D01*
X8297Y4945D01*
X8290Y4962D01*
X8281Y4977D01*
X8270Y4991D01*
X8257Y5002D01*
X8242Y5012D01*
X8237Y5013D01*
X8265Y5081D01*
X8231Y5138D01*
X8243Y5147D01*
X8254Y5159D01*
X8262Y5172D01*
X8267Y5187D01*
X8271Y5203D01*
X8272Y5221D01*
X8271Y5239D01*
X8268Y5255D01*
X8262Y5270D01*
X8255Y5284D01*
X8245Y5297D01*
X8234Y5307D01*
X8221Y5315D01*
X8206Y5321D01*
X8187Y5326D01*
X8163Y5329D01*
X8133Y5331D01*
X8097Y5331D01*
X7954Y5331D01*
X7954Y5115D01*
X7954Y5115D01*
X8109Y5115D01*
X8138Y5116D01*
X8163Y5117D01*
X8183Y5120D01*
X8199Y5123D01*
X8216Y5130D01*
X8231Y5138D01*
X8265Y5081D01*
X8296Y5070D01*
X8323Y5055D01*
X8346Y5037D01*
X8365Y5016D01*
X8380Y4992D01*
X8391Y4966D01*
X8398Y4938D01*
X8400Y4908D01*
X8399Y4883D01*
X8395Y4859D01*
X8388Y4836D01*
X8379Y4814D01*
X8367Y4794D01*
X8355Y4776D01*
X8341Y4760D01*
X8326Y4747D01*
X8310Y4736D01*
X8291Y4727D01*
X8270Y4719D01*
X8248Y4712D01*
X8223Y4707D01*
X8195Y4703D01*
X8165Y4701D01*
X8132Y4700D01*
X7859Y4700D01*
X7859Y4700D01*
X8452Y4700D02*
X8708Y5367D01*
X8775Y5341D01*
X8768Y5306D01*
X8759Y5272D01*
X8749Y5238D01*
X8737Y5204D01*
X8658Y4994D01*
X8658Y4994D01*
X8901Y4994D01*
X8826Y5192D01*
X8810Y5235D01*
X8796Y5274D01*
X8785Y5310D01*
X8775Y5341D01*
X8708Y5367D01*
X8727Y5416D01*
X8829Y5416D01*
X9122Y4700D01*
X9014Y4700D01*
X8930Y4917D01*
X8631Y4917D01*
X8552Y4700D01*
X8452Y4700D01*
X8452Y4700D01*
X9379Y4700D02*
X9379Y5331D01*
X9144Y5331D01*
X9144Y5416D01*
X9711Y5416D01*
X9711Y5331D01*
X9474Y5331D01*
X9474Y4700D01*
X9379Y4700D01*
X9379Y4700D01*
G37*
%LNtop silkscreen component 3c6ee2f324f7420e*%
X14550Y4248D02*
X17450Y4248D01*
X17450Y3752*
X14550Y3752*
X14550Y4248*
D13*
X16975Y6706D03*
G36*
X13241Y6366D02*
X13336Y6366D01*
X13336Y5952D01*
X13334Y5901D01*
X13329Y5855D01*
X13322Y5815D01*
X13311Y5781D01*
X13296Y5751D01*
X13277Y5723D01*
X13252Y5699D01*
X13223Y5678D01*
X13189Y5660D01*
X13149Y5648D01*
X13105Y5640D01*
X13056Y5638D01*
X13008Y5640D01*
X12964Y5646D01*
X12925Y5657D01*
X12891Y5672D01*
X12862Y5692D01*
X12836Y5715D01*
X12816Y5742D01*
X12800Y5773D01*
X12788Y5809D01*
X12779Y5851D01*
X12774Y5898D01*
X12773Y5952D01*
X12773Y6366D01*
X12867Y6366D01*
X12867Y5953D01*
X12868Y5909D01*
X12872Y5872D01*
X12877Y5840D01*
X12885Y5815D01*
X12895Y5794D01*
X12908Y5776D01*
X12925Y5760D01*
X12944Y5747D01*
X12966Y5737D01*
X12991Y5729D01*
X13018Y5725D01*
X13047Y5723D01*
X13096Y5726D01*
X13137Y5735D01*
X13170Y5750D01*
X13196Y5771D01*
X13216Y5800D01*
X13230Y5840D01*
X13238Y5891D01*
X13241Y5953D01*
X13241Y6366D01*
X13241Y6366D01*
X13458Y5839D02*
X13546Y5851D01*
X13555Y5816D01*
X13566Y5786D01*
X13581Y5762D01*
X13598Y5743D01*
X13617Y5729D01*
X13638Y5718D01*
X13661Y5712D01*
X13686Y5710D01*
X13716Y5713D01*
X13743Y5721D01*
X13768Y5734D01*
X13791Y5753D01*
X13810Y5776D01*
X13823Y5801D01*
X13831Y5829D01*
X13834Y5859D01*
X13831Y5888D01*
X13824Y5915D01*
X13811Y5938D01*
X13794Y5959D01*
X13773Y5977D01*
X13749Y5989D01*
X13723Y5996D01*
X13693Y5999D01*
X13680Y5998D01*
X13665Y5996D01*
X13649Y5993D01*
X13631Y5989D01*
X13641Y6066D01*
X13645Y6066D01*
X13649Y6065D01*
X13652Y6065D01*
X13655Y6065D01*
X13683Y6067D01*
X13709Y6072D01*
X13733Y6082D01*
X13756Y6094D01*
X13776Y6111D01*
X13790Y6132D01*
X13799Y6156D01*
X13801Y6185D01*
X13799Y6208D01*
X13793Y6229D01*
X13783Y6248D01*
X13769Y6265D01*
X13751Y6279D01*
X13731Y6289D01*
X13709Y6295D01*
X13684Y6296D01*
X13660Y6294D01*
X13637Y6288D01*
X13617Y6278D01*
X13599Y6264D01*
X13583Y6246D01*
X13571Y6224D01*
X13561Y6198D01*
X13555Y6168D01*
X13467Y6183D01*
X13478Y6225D01*
X13493Y6262D01*
X13514Y6293D01*
X13540Y6320D01*
X13570Y6341D01*
X13604Y6357D01*
X13641Y6366D01*
X13682Y6369D01*
X13711Y6367D01*
X13738Y6362D01*
X13765Y6355D01*
X13790Y6344D01*
X13813Y6330D01*
X13834Y6314D01*
X13851Y6296D01*
X13866Y6275D01*
X13877Y6253D01*
X13885Y6230D01*
X13890Y6207D01*
X13892Y6183D01*
X13890Y6160D01*
X13885Y6138D01*
X13878Y6118D01*
X13867Y6098D01*
X13853Y6080D01*
X13836Y6064D01*
X13816Y6050D01*
X13793Y6038D01*
X13823Y6028D01*
X13849Y6015D01*
X13872Y5998D01*
X13892Y5977D01*
X13907Y5952D01*
X13918Y5925D01*
X13925Y5895D01*
X13927Y5861D01*
X13923Y5816D01*
X13910Y5775D01*
X13888Y5737D01*
X13858Y5702D01*
X13822Y5674D01*
X13781Y5654D01*
X13736Y5641D01*
X13686Y5637D01*
X13641Y5641D01*
X13599Y5651D01*
X13562Y5669D01*
X13529Y5693D01*
X13501Y5724D01*
X13480Y5758D01*
X13466Y5796D01*
X13458Y5839D01*
X13458Y5839D01*
G37*
%LNtop silkscreen component 1ab0cf254183e8e1*%
D14*
X30600Y1300D02*
X27200Y1300D01*
X27200Y8700*
X30600Y8700*
X30600Y1300*
G36*
X28529Y9100D02*
X28529Y9403D01*
X28253Y9816D01*
X28368Y9816D01*
X28509Y9600D01*
X28528Y9570D01*
X28547Y9539D01*
X28565Y9509D01*
X28582Y9479D01*
X28599Y9508D01*
X28618Y9539D01*
X28638Y9571D01*
X28660Y9605D01*
X28799Y9816D01*
X28909Y9816D01*
X28624Y9403D01*
X28624Y9100D01*
X28529Y9100D01*
X28529Y9100D01*
X29290Y9100D02*
X29202Y9100D01*
X29202Y9660D01*
X29185Y9645D01*
X29165Y9630D01*
X29143Y9615D01*
X29118Y9600D01*
X29093Y9585D01*
X29070Y9573D01*
X29047Y9563D01*
X29026Y9554D01*
X29026Y9639D01*
X29062Y9657D01*
X29095Y9677D01*
X29126Y9699D01*
X29155Y9723D01*
X29180Y9748D01*
X29202Y9772D01*
X29219Y9795D01*
X29233Y9819D01*
X29290Y9819D01*
X29290Y9100D01*
X29290Y9100D01*
G37*
%LNtop silkscreen component c0b1ac0089f46285*%
D10*
X22585Y10875D02*
X23415Y10875D01*
X22585Y12125D02*
X23415Y12125D01*
D15*
X22724Y10945D02*
X22724Y12055D01*
D11*
X20990Y11500D03*
G36*
X24788Y11200D02*
X24788Y11916D01*
X25033Y11916D01*
X25033Y11831D01*
X24882Y11831D01*
X24882Y11284D01*
X24882Y11284D01*
X25035Y11284D01*
X25069Y11285D01*
X25098Y11288D01*
X25124Y11292D01*
X25146Y11298D01*
X25165Y11305D01*
X25182Y11314D01*
X25197Y11323D01*
X25210Y11335D01*
X25226Y11353D01*
X25240Y11374D01*
X25253Y11398D01*
X25263Y11425D01*
X25271Y11455D01*
X25277Y11488D01*
X25280Y11524D01*
X25282Y11563D01*
X25279Y11616D01*
X25272Y11663D01*
X25261Y11702D01*
X25245Y11736D01*
X25225Y11764D01*
X25204Y11786D01*
X25181Y11804D01*
X25155Y11817D01*
X25133Y11823D01*
X25105Y11828D01*
X25072Y11830D01*
X25033Y11831D01*
X25033Y11916D01*
X25034Y11916D01*
X25073Y11915D01*
X25108Y11913D01*
X25137Y11910D01*
X25162Y11906D01*
X25191Y11897D01*
X25219Y11886D01*
X25244Y11871D01*
X25267Y11854D01*
X25293Y11829D01*
X25316Y11800D01*
X25335Y11768D01*
X25351Y11732D01*
X25364Y11693D01*
X25372Y11652D01*
X25378Y11608D01*
X25379Y11562D01*
X25378Y11522D01*
X25375Y11485D01*
X25369Y11450D01*
X25360Y11417D01*
X25350Y11387D01*
X25339Y11360D01*
X25326Y11335D01*
X25311Y11313D01*
X25296Y11294D01*
X25280Y11276D01*
X25264Y11261D01*
X25246Y11248D01*
X25228Y11237D01*
X25207Y11227D01*
X25185Y11219D01*
X25161Y11212D01*
X25135Y11207D01*
X25107Y11203D01*
X25077Y11201D01*
X25046Y11200D01*
X24788Y11200D01*
X24788Y11200D01*
X25936Y11284D02*
X25936Y11200D01*
X25463Y11200D01*
X25463Y11216D01*
X25465Y11231D01*
X25468Y11246D01*
X25473Y11261D01*
X25483Y11285D01*
X25497Y11309D01*
X25512Y11333D01*
X25531Y11356D01*
X25553Y11381D01*
X25580Y11407D01*
X25611Y11435D01*
X25646Y11465D01*
X25700Y11510D01*
X25744Y11550D01*
X25778Y11586D01*
X25804Y11616D01*
X25822Y11644D01*
X25834Y11671D01*
X25842Y11697D01*
X25845Y11722D01*
X25842Y11747D01*
X25835Y11770D01*
X25824Y11791D01*
X25807Y11810D01*
X25787Y11826D01*
X25764Y11837D01*
X25738Y11844D01*
X25710Y11846D01*
X25680Y11844D01*
X25653Y11836D01*
X25629Y11825D01*
X25608Y11808D01*
X25592Y11787D01*
X25580Y11762D01*
X25572Y11734D01*
X25570Y11702D01*
X25479Y11712D01*
X25487Y11759D01*
X25502Y11801D01*
X25522Y11836D01*
X25549Y11866D01*
X25582Y11889D01*
X25620Y11906D01*
X25663Y11915D01*
X25712Y11919D01*
X25761Y11915D01*
X25804Y11904D01*
X25842Y11887D01*
X25875Y11862D01*
X25901Y11831D01*
X25920Y11798D01*
X25931Y11761D01*
X25935Y11720D01*
X25934Y11699D01*
X25931Y11677D01*
X25925Y11656D01*
X25917Y11636D01*
X25907Y11615D01*
X25894Y11593D01*
X25878Y11571D01*
X25859Y11548D01*
X25835Y11523D01*
X25805Y11494D01*
X25768Y11460D01*
X25724Y11422D01*
X25688Y11392D01*
X25659Y11366D01*
X25637Y11347D01*
X25622Y11332D01*
X25611Y11320D01*
X25601Y11308D01*
X25593Y11296D01*
X25585Y11284D01*
X25936Y11284D01*
X25936Y11284D01*
G37*
%LNtop silkscreen component 15cf22b6688a694f*%
D10*
X9415Y12125D02*
X8585Y12125D01*
X9415Y10875D02*
X8585Y10875D01*
D15*
X9276Y12055D02*
X9276Y10945D01*
D12*
X11010Y11500D03*
G36*
X6188Y11200D02*
X6188Y11916D01*
X6433Y11916D01*
X6433Y11831D01*
X6282Y11831D01*
X6282Y11284D01*
X6282Y11284D01*
X6435Y11284D01*
X6469Y11285D01*
X6498Y11288D01*
X6524Y11292D01*
X6546Y11298D01*
X6565Y11305D01*
X6582Y11314D01*
X6597Y11323D01*
X6610Y11335D01*
X6626Y11353D01*
X6640Y11374D01*
X6653Y11398D01*
X6663Y11425D01*
X6671Y11455D01*
X6677Y11488D01*
X6680Y11524D01*
X6682Y11563D01*
X6679Y11616D01*
X6672Y11663D01*
X6661Y11702D01*
X6645Y11736D01*
X6625Y11764D01*
X6604Y11786D01*
X6581Y11804D01*
X6555Y11817D01*
X6533Y11823D01*
X6505Y11828D01*
X6472Y11830D01*
X6433Y11831D01*
X6433Y11916D01*
X6434Y11916D01*
X6473Y11915D01*
X6508Y11913D01*
X6537Y11910D01*
X6562Y11906D01*
X6591Y11897D01*
X6619Y11886D01*
X6644Y11871D01*
X6667Y11854D01*
X6693Y11829D01*
X6716Y11800D01*
X6735Y11768D01*
X6751Y11732D01*
X6764Y11693D01*
X6772Y11652D01*
X6778Y11608D01*
X6779Y11562D01*
X6778Y11522D01*
X6775Y11485D01*
X6769Y11450D01*
X6760Y11417D01*
X6750Y11387D01*
X6739Y11360D01*
X6726Y11335D01*
X6711Y11313D01*
X6696Y11294D01*
X6680Y11276D01*
X6664Y11261D01*
X6646Y11248D01*
X6628Y11237D01*
X6607Y11227D01*
X6585Y11219D01*
X6561Y11212D01*
X6535Y11207D01*
X6507Y11203D01*
X6477Y11201D01*
X6446Y11200D01*
X6188Y11200D01*
X6188Y11200D01*
X7205Y11200D02*
X7117Y11200D01*
X7117Y11760D01*
X7100Y11745D01*
X7081Y11730D01*
X7058Y11715D01*
X7034Y11700D01*
X7009Y11685D01*
X6985Y11673D01*
X6963Y11663D01*
X6941Y11654D01*
X6941Y11739D01*
X6977Y11757D01*
X7011Y11777D01*
X7042Y11799D01*
X7070Y11823D01*
X7096Y11848D01*
X7117Y11872D01*
X7135Y11895D01*
X7148Y11919D01*
X7205Y11919D01*
X7205Y11200D01*
X7205Y11200D01*
G37*
%LNtop silkscreen component aad800f2e99707d8*%
D10*
X10675Y3525D02*
X10675Y4475D01*
X11325Y4475*
X11325Y3525*
X10675Y3525*
G36*
X9940Y5099D02*
X9946Y5183D01*
X9964Y5258D01*
X9994Y5322D01*
X10036Y5378D01*
X10087Y5422D01*
X10145Y5453D01*
X10210Y5472D01*
X10283Y5479D01*
X10331Y5476D01*
X10377Y5467D01*
X10420Y5452D01*
X10461Y5431D01*
X10499Y5405D01*
X10531Y5374D01*
X10559Y5339D01*
X10583Y5299D01*
X10601Y5255D01*
X10614Y5209D01*
X10622Y5159D01*
X10624Y5107D01*
X10622Y5054D01*
X10613Y5004D01*
X10600Y4957D01*
X10580Y4912D01*
X10556Y4872D01*
X10527Y4837D01*
X10494Y4807D01*
X10456Y4782D01*
X10415Y4763D01*
X10372Y4749D01*
X10348Y4744D01*
X10333Y4824D01*
X10379Y4838D01*
X10421Y4861D01*
X10458Y4894D01*
X10488Y4936D01*
X10509Y4985D01*
X10522Y5042D01*
X10527Y5107D01*
X10525Y5150D01*
X10519Y5189D01*
X10510Y5226D01*
X10497Y5260D01*
X10481Y5291D01*
X10461Y5318D01*
X10438Y5341D01*
X10411Y5361D01*
X10381Y5377D01*
X10350Y5388D01*
X10318Y5395D01*
X10283Y5397D01*
X10235Y5393D01*
X10190Y5380D01*
X10148Y5358D01*
X10110Y5328D01*
X10078Y5288D01*
X10056Y5236D01*
X10042Y5172D01*
X10037Y5097D01*
X10037Y5097D01*
X10042Y5036D01*
X10055Y4982D01*
X10077Y4934D01*
X10107Y4893D01*
X10144Y4861D01*
X10185Y4837D01*
X10231Y4824D01*
X10282Y4819D01*
X10333Y4824D01*
X10348Y4744D01*
X10328Y4741D01*
X10282Y4738D01*
X10233Y4741D01*
X10186Y4750D01*
X10143Y4765D01*
X10101Y4787D01*
X10064Y4813D01*
X10031Y4844D01*
X10004Y4880D01*
X9981Y4920D01*
X9963Y4963D01*
X9950Y5007D01*
X9942Y5052D01*
X9940Y5099D01*
X9940Y5099D01*
X10714Y4980D02*
X10804Y4988D01*
X10808Y4962D01*
X10814Y4939D01*
X10823Y4918D01*
X10833Y4900D01*
X10846Y4883D01*
X10863Y4869D01*
X10882Y4855D01*
X10905Y4844D01*
X10930Y4835D01*
X10957Y4828D01*
X10985Y4824D01*
X11015Y4823D01*
X11041Y4824D01*
X11066Y4827D01*
X11089Y4832D01*
X11111Y4839D01*
X11130Y4848D01*
X11147Y4858D01*
X11161Y4870D01*
X11173Y4883D01*
X11181Y4897D01*
X11188Y4912D01*
X11192Y4928D01*
X11193Y4944D01*
X11192Y4961D01*
X11188Y4976D01*
X11182Y4990D01*
X11173Y5003D01*
X11162Y5015D01*
X11147Y5026D01*
X11130Y5036D01*
X11109Y5045D01*
X11090Y5052D01*
X11063Y5060D01*
X11026Y5069D01*
X10981Y5080D01*
X10936Y5092D01*
X10897Y5103D01*
X10867Y5114D01*
X10843Y5125D01*
X10819Y5139D01*
X10798Y5155D01*
X10781Y5173D01*
X10767Y5192D01*
X10756Y5212D01*
X10748Y5234D01*
X10743Y5257D01*
X10742Y5281D01*
X10744Y5307D01*
X10749Y5333D01*
X10759Y5358D01*
X10772Y5382D01*
X10790Y5404D01*
X10810Y5424D01*
X10834Y5440D01*
X10862Y5454D01*
X10893Y5464D01*
X10925Y5472D01*
X10958Y5477D01*
X10994Y5478D01*
X11032Y5476D01*
X11068Y5472D01*
X11102Y5464D01*
X11134Y5452D01*
X11163Y5438D01*
X11188Y5421D01*
X11209Y5400D01*
X11227Y5377D01*
X11242Y5351D01*
X11253Y5324D01*
X11259Y5295D01*
X11263Y5264D01*
X11172Y5257D01*
X11166Y5289D01*
X11156Y5317D01*
X11141Y5340D01*
X11122Y5360D01*
X11099Y5375D01*
X11070Y5386D01*
X11036Y5392D01*
X10997Y5395D01*
X10957Y5393D01*
X10923Y5387D01*
X10895Y5377D01*
X10872Y5363D01*
X10855Y5346D01*
X10843Y5328D01*
X10835Y5309D01*
X10833Y5287D01*
X10835Y5269D01*
X10840Y5252D01*
X10849Y5237D01*
X10861Y5224D01*
X10880Y5211D01*
X10910Y5198D01*
X10951Y5186D01*
X11004Y5173D01*
X11057Y5160D01*
X11101Y5148D01*
X11136Y5137D01*
X11162Y5127D01*
X11191Y5112D01*
X11216Y5094D01*
X11237Y5075D01*
X11254Y5054D01*
X11267Y5031D01*
X11277Y5006D01*
X11282Y4980D01*
X11284Y4952D01*
X11282Y4924D01*
X11276Y4897D01*
X11266Y4870D01*
X11251Y4844D01*
X11233Y4821D01*
X11212Y4800D01*
X11186Y4781D01*
X11157Y4766D01*
X11126Y4754D01*
X11092Y4745D01*
X11057Y4740D01*
X11019Y4738D01*
X10973Y4740D01*
X10930Y4745D01*
X10891Y4754D01*
X10857Y4766D01*
X10826Y4782D01*
X10798Y4802D01*
X10774Y4825D01*
X10754Y4851D01*
X10737Y4881D01*
X10725Y4912D01*
X10717Y4945D01*
X10714Y4980D01*
X10714Y4980D01*
X11924Y5001D02*
X12019Y4977D01*
X12001Y4922D01*
X11977Y4874D01*
X11948Y4833D01*
X11912Y4799D01*
X11871Y4772D01*
X11826Y4753D01*
X11776Y4742D01*
X11723Y4738D01*
X11667Y4741D01*
X11618Y4750D01*
X11573Y4764D01*
X11534Y4785D01*
X11500Y4811D01*
X11470Y4843D01*
X11445Y4879D01*
X11424Y4921D01*
X11407Y4967D01*
X11396Y5014D01*
X11389Y5063D01*
X11386Y5113D01*
X11389Y5167D01*
X11397Y5218D01*
X11410Y5265D01*
X11429Y5308D01*
X11452Y5347D01*
X11481Y5382D01*
X11513Y5411D01*
X11550Y5435D01*
X11591Y5454D01*
X11633Y5467D01*
X11678Y5475D01*
X11724Y5478D01*
X11776Y5475D01*
X11823Y5464D01*
X11866Y5447D01*
X11905Y5423D01*
X11939Y5393D01*
X11967Y5358D01*
X11990Y5316D01*
X12007Y5270D01*
X11913Y5248D01*
X11900Y5284D01*
X11883Y5315D01*
X11864Y5341D01*
X11841Y5361D01*
X11816Y5377D01*
X11788Y5388D01*
X11756Y5395D01*
X11722Y5397D01*
X11683Y5395D01*
X11646Y5387D01*
X11614Y5375D01*
X11584Y5357D01*
X11558Y5336D01*
X11537Y5311D01*
X11520Y5283D01*
X11506Y5251D01*
X11496Y5218D01*
X11489Y5184D01*
X11485Y5149D01*
X11484Y5114D01*
X11485Y5070D01*
X11490Y5028D01*
X11499Y4990D01*
X11510Y4954D01*
X11526Y4922D01*
X11544Y4895D01*
X11567Y4872D01*
X11593Y4853D01*
X11622Y4838D01*
X11652Y4827D01*
X11683Y4821D01*
X11715Y4819D01*
X11753Y4822D01*
X11788Y4830D01*
X11820Y4845D01*
X11850Y4865D01*
X11875Y4890D01*
X11896Y4922D01*
X11912Y4959D01*
X11924Y5001D01*
X11924Y5001D01*
G37*
%LNtext*%
G36*
X7900Y12600D02*
X7900Y13509D01*
X8303Y13509D01*
X8360Y13508D01*
X8410Y13503D01*
X8452Y13495D01*
X8488Y13485D01*
X8518Y13470D01*
X8545Y13451D01*
X8568Y13427D01*
X8589Y13398D01*
X8605Y13366D01*
X8617Y13333D01*
X8624Y13298D01*
X8627Y13261D01*
X8623Y13215D01*
X8611Y13172D01*
X8591Y13133D01*
X8564Y13098D01*
X8528Y13068D01*
X8484Y13044D01*
X8432Y13026D01*
X8401Y13020D01*
X8382Y13117D01*
X8408Y13125D01*
X8430Y13135D01*
X8449Y13147D01*
X8465Y13162D01*
X8478Y13179D01*
X8489Y13199D01*
X8497Y13219D01*
X8501Y13239D01*
X8503Y13261D01*
X8500Y13292D01*
X8491Y13320D01*
X8476Y13345D01*
X8456Y13367D01*
X8429Y13385D01*
X8395Y13398D01*
X8355Y13406D01*
X8308Y13409D01*
X8020Y13409D01*
X8020Y13108D01*
X8020Y13108D01*
X8279Y13108D01*
X8318Y13109D01*
X8352Y13112D01*
X8382Y13117D01*
X8401Y13020D01*
X8371Y13014D01*
X8393Y13002D01*
X8413Y12991D01*
X8429Y12980D01*
X8443Y12968D01*
X8469Y12943D01*
X8494Y12914D01*
X8519Y12882D01*
X8543Y12847D01*
X8701Y12600D01*
X8550Y12600D01*
X8429Y12789D01*
X8404Y12828D01*
X8381Y12861D01*
X8361Y12890D01*
X8343Y12914D01*
X8326Y12934D01*
X8310Y12951D01*
X8295Y12965D01*
X8282Y12975D01*
X8268Y12983D01*
X8254Y12990D01*
X8241Y12995D01*
X8227Y12999D01*
X8215Y13001D01*
X8200Y13003D01*
X8181Y13003D01*
X8160Y13004D01*
X8020Y13004D01*
X8020Y12600D01*
X7900Y12600D01*
X7900Y12600D01*
X9252Y12812D02*
X9367Y12798D01*
X9350Y12750D01*
X9328Y12708D01*
X9300Y12672D01*
X9266Y12641D01*
X9227Y12617D01*
X9182Y12599D01*
X9132Y12589D01*
X9077Y12585D01*
X9009Y12591D01*
X8948Y12607D01*
X8894Y12635D01*
X8848Y12674D01*
X8811Y12723D01*
X8785Y12781D01*
X8769Y12848D01*
X8764Y12924D01*
X8769Y13002D01*
X8785Y13071D01*
X8812Y13131D01*
X8849Y13182D01*
X8895Y13222D01*
X8948Y13251D01*
X9006Y13268D01*
X9071Y13273D01*
X9081Y13273D01*
X9072Y13182D01*
X9036Y13178D01*
X9002Y13169D01*
X8971Y13153D01*
X8943Y13130D01*
X8920Y13102D01*
X8902Y13070D01*
X8891Y13033D01*
X8885Y12993D01*
X8885Y12993D01*
X9253Y12993D01*
X9248Y13031D01*
X9239Y13065D01*
X9226Y13094D01*
X9211Y13117D01*
X9182Y13145D01*
X9150Y13166D01*
X9113Y13178D01*
X9072Y13182D01*
X9081Y13273D01*
X9134Y13268D01*
X9191Y13251D01*
X9242Y13223D01*
X9287Y13184D01*
X9324Y13134D01*
X9350Y13075D01*
X9366Y13007D01*
X9371Y12931D01*
X9371Y12925D01*
X9371Y12918D01*
X9370Y12910D01*
X9370Y12901D01*
X8879Y12901D01*
X8885Y12850D01*
X8897Y12805D01*
X8916Y12767D01*
X8940Y12735D01*
X8970Y12709D01*
X9002Y12691D01*
X9039Y12680D01*
X9078Y12677D01*
X9108Y12679D01*
X9135Y12685D01*
X9160Y12695D01*
X9183Y12709D01*
X9203Y12728D01*
X9222Y12751D01*
X9238Y12779D01*
X9252Y12812D01*
X9252Y12812D01*
X9934Y12600D02*
X9934Y12683D01*
X9884Y12735D01*
X9885Y12737D01*
X9908Y12771D01*
X9924Y12812D01*
X9933Y12862D01*
X9936Y12919D01*
X9933Y12982D01*
X9923Y13037D01*
X9907Y13082D01*
X9884Y13118D01*
X9857Y13145D01*
X9826Y13165D01*
X9792Y13177D01*
X9756Y13181D01*
X9720Y13177D01*
X9688Y13166D01*
X9658Y13147D01*
X9632Y13120D01*
X9610Y13086D01*
X9594Y13042D01*
X9585Y12990D01*
X9582Y12929D01*
X9582Y12929D01*
X9585Y12869D01*
X9595Y12818D01*
X9612Y12775D01*
X9635Y12740D01*
X9663Y12712D01*
X9693Y12693D01*
X9726Y12681D01*
X9761Y12677D01*
X9796Y12681D01*
X9828Y12692D01*
X9858Y12711D01*
X9884Y12735D01*
X9934Y12683D01*
X9899Y12640D01*
X9857Y12610D01*
X9807Y12591D01*
X9750Y12585D01*
X9712Y12588D01*
X9675Y12596D01*
X9639Y12610D01*
X9605Y12629D01*
X9574Y12652D01*
X9547Y12681D01*
X9523Y12713D01*
X9503Y12750D01*
X9487Y12790D01*
X9476Y12833D01*
X9469Y12880D01*
X9467Y12929D01*
X9469Y12977D01*
X9475Y13023D01*
X9485Y13066D01*
X9500Y13108D01*
X9518Y13145D01*
X9541Y13178D01*
X9568Y13207D01*
X9598Y13231D01*
X9632Y13249D01*
X9668Y13263D01*
X9706Y13271D01*
X9745Y13273D01*
X9774Y13272D01*
X9802Y13267D01*
X9827Y13259D01*
X9851Y13248D01*
X9874Y13235D01*
X9894Y13219D01*
X9911Y13202D01*
X9927Y13183D01*
X9927Y13509D01*
X10038Y13509D01*
X10038Y12600D01*
X9934Y12600D01*
X9934Y12600D01*
X21893Y12600D02*
X21893Y13509D01*
X22234Y13509D01*
X22284Y13507D01*
X22328Y13502D01*
X22367Y13494D01*
X22401Y13481D01*
X22431Y13466D01*
X22457Y13446D01*
X22480Y13423D01*
X22500Y13397D01*
X22515Y13368D01*
X22527Y13338D01*
X22533Y13308D01*
X22535Y13277D01*
X22533Y13248D01*
X22528Y13220D01*
X22518Y13193D01*
X22504Y13167D01*
X22486Y13142D01*
X22464Y13120D01*
X22438Y13101D01*
X22408Y13084D01*
X22373Y12998D01*
X22357Y13005D01*
X22331Y13011D01*
X22300Y13016D01*
X22264Y13019D01*
X22224Y13020D01*
X22013Y13020D01*
X22013Y12707D01*
X22013Y12707D01*
X22240Y12707D01*
X22267Y12708D01*
X22289Y12708D01*
X22308Y12710D01*
X22322Y12712D01*
X22341Y12716D01*
X22360Y12722D01*
X22376Y12728D01*
X22391Y12736D01*
X22404Y12746D01*
X22416Y12758D01*
X22427Y12771D01*
X22437Y12787D01*
X22445Y12804D01*
X22450Y12823D01*
X22454Y12842D01*
X22455Y12864D01*
X22453Y12888D01*
X22448Y12911D01*
X22440Y12932D01*
X22429Y12952D01*
X22415Y12969D01*
X22398Y12984D01*
X22378Y12996D01*
X22373Y12998D01*
X22408Y13084D01*
X22365Y13156D01*
X22381Y13168D01*
X22394Y13183D01*
X22404Y13200D01*
X22411Y13219D01*
X22416Y13239D01*
X22417Y13262D01*
X22416Y13284D01*
X22412Y13305D01*
X22405Y13324D01*
X22395Y13342D01*
X22383Y13358D01*
X22369Y13371D01*
X22352Y13381D01*
X22333Y13389D01*
X22310Y13395D01*
X22279Y13399D01*
X22240Y13401D01*
X22195Y13402D01*
X22013Y13402D01*
X22013Y13127D01*
X22013Y13127D01*
X22210Y13127D01*
X22247Y13128D01*
X22279Y13130D01*
X22304Y13133D01*
X22325Y13138D01*
X22346Y13146D01*
X22365Y13156D01*
X22408Y13084D01*
X22447Y13069D01*
X22481Y13051D01*
X22511Y13028D01*
X22535Y13001D01*
X22555Y12971D01*
X22568Y12938D01*
X22577Y12902D01*
X22579Y12864D01*
X22578Y12832D01*
X22573Y12802D01*
X22564Y12773D01*
X22553Y12745D01*
X22538Y12719D01*
X22522Y12696D01*
X22505Y12677D01*
X22486Y12660D01*
X22465Y12646D01*
X22441Y12634D01*
X22415Y12624D01*
X22386Y12615D01*
X22355Y12609D01*
X22320Y12604D01*
X22281Y12601D01*
X22240Y12600D01*
X21893Y12600D01*
X21893Y12600D01*
X22728Y12600D02*
X22728Y13509D01*
X22840Y13509D01*
X22840Y12600D01*
X22728Y12600D01*
X22728Y12600D01*
X23445Y12600D02*
X23445Y12697D01*
X23403Y12648D01*
X23354Y12613D01*
X23298Y12592D01*
X23236Y12585D01*
X23207Y12587D01*
X23179Y12591D01*
X23152Y12598D01*
X23127Y12607D01*
X23103Y12619D01*
X23083Y12633D01*
X23066Y12647D01*
X23052Y12664D01*
X23040Y12681D01*
X23031Y12701D01*
X23023Y12723D01*
X23017Y12746D01*
X23014Y12765D01*
X23012Y12789D01*
X23011Y12817D01*
X23010Y12851D01*
X23010Y13259D01*
X23122Y13259D01*
X23122Y12893D01*
X23123Y12853D01*
X23124Y12820D01*
X23126Y12794D01*
X23129Y12775D01*
X23136Y12755D01*
X23145Y12736D01*
X23158Y12720D01*
X23174Y12706D01*
X23192Y12695D01*
X23212Y12688D01*
X23234Y12683D01*
X23258Y12681D01*
X23283Y12683D01*
X23307Y12688D01*
X23330Y12696D01*
X23352Y12707D01*
X23373Y12721D01*
X23390Y12737D01*
X23404Y12756D01*
X23414Y12777D01*
X23422Y12802D01*
X23428Y12831D01*
X23432Y12866D01*
X23433Y12906D01*
X23433Y13259D01*
X23544Y13259D01*
X23544Y12600D01*
X23445Y12600D01*
X23445Y12600D01*
X24170Y12812D02*
X24285Y12798D01*
X24269Y12750D01*
X24247Y12708D01*
X24218Y12672D01*
X24184Y12641D01*
X24145Y12617D01*
X24100Y12599D01*
X24051Y12589D01*
X23996Y12585D01*
X23927Y12591D01*
X23866Y12607D01*
X23813Y12635D01*
X23767Y12674D01*
X23730Y12723D01*
X23703Y12781D01*
X23687Y12848D01*
X23682Y12924D01*
X23687Y13002D01*
X23703Y13071D01*
X23730Y13131D01*
X23768Y13182D01*
X23814Y13222D01*
X23866Y13251D01*
X23925Y13268D01*
X23990Y13273D01*
X23999Y13273D01*
X23991Y13182D01*
X23954Y13178D01*
X23920Y13169D01*
X23889Y13153D01*
X23862Y13130D01*
X23838Y13102D01*
X23821Y13070D01*
X23809Y13033D01*
X23804Y12993D01*
X23804Y12993D01*
X24171Y12993D01*
X24166Y13031D01*
X24157Y13065D01*
X24145Y13094D01*
X24129Y13117D01*
X24101Y13145D01*
X24068Y13166D01*
X24031Y13178D01*
X23991Y13182D01*
X23999Y13273D01*
X24053Y13268D01*
X24110Y13251D01*
X24161Y13223D01*
X24205Y13184D01*
X24242Y13134D01*
X24268Y13075D01*
X24284Y13007D01*
X24289Y12931D01*
X24289Y12925D01*
X24289Y12918D01*
X24289Y12910D01*
X24289Y12901D01*
X23797Y12901D01*
X23804Y12850D01*
X23816Y12805D01*
X23834Y12767D01*
X23859Y12735D01*
X23888Y12709D01*
X23921Y12691D01*
X23957Y12680D01*
X23996Y12677D01*
X24026Y12679D01*
X24053Y12685D01*
X24078Y12695D01*
X24101Y12709D01*
X24122Y12728D01*
X24140Y12751D01*
X24156Y12779D01*
X24170Y12812D01*
X24170Y12812D01*
G37*
M02*