<?xml version="1.0" encoding="utf-8" ?>
<svg baseProfile="tiny" height="91.282674934" version="1.2" width="123.172437934" xmlns="http://www.w3.org/2000/svg" xmlns:ev="http://www.w3.org/2001/xml-events" xmlns:xlink="http://www.w3.org/1999/xlink"><defs /><g id="paths" stroke="green"><path d="M 4.893306967,86.389367967 L 118.279130967,86.389367967 L 118.279130967,4.893306967 L 4.893306967,4.893306967 L 4.893306967,86.389367967 Z" fill-opacity="0" stroke-linejoin="round" stroke-width="1.0" /></g><g fill="red" id="top_parts" stroke="red"><line stroke-linecap="round" stroke-width="0.5" x1="25.0016" x2="25.0016" y1="73.8992" y2="70.5331" /><line stroke-linecap="round" stroke-width="0.5" x1="25.0016" x2="27.3047" y1="70.5331" y2="70.5331" /><line stroke-linecap="round" stroke-width="0.5" x1="27.3047" x2="27.3047" y1="70.5331" y2="73.8992" /><line stroke-linecap="round" stroke-width="0.5" x1="27.3047" x2="25.0016" y1="73.8992" y2="73.8992" /><text font-family="monospace" font-size="2" stroke-width="0.1" text-anchor="middle" x="26.153148967" y="72.216139967">TP1</text><line stroke-linecap="round" stroke-width="0.5" x1="91.741" x2="91.741" y1="57.1571" y2="62.472" /><line stroke-linecap="round" stroke-width="0.5" x1="91.741" x2="81.0377" y1="62.472" y2="62.472" /><line stroke-linecap="round" stroke-width="0.5" x1="81.0377" x2="81.0377" y1="62.472" y2="57.1571" /><line stroke-linecap="round" stroke-width="0.5" x1="81.0377" x2="91.741" y1="57.1571" y2="57.1571" /><text font-family="monospace" font-size="2" stroke-width="0.1" text-anchor="middle" x="86.389367967" y="59.814565467">R5</text><line stroke-linecap="round" stroke-width="0.5" x1="85.5035" x2="80.1886" y1="26.1898" y2="26.1898" /><line stroke-linecap="round" stroke-width="0.5" x1="80.1886" x2="80.1886" y1="26.1898" y2="15.4865" /><line stroke-linecap="round" stroke-width="0.5" x1="80.1886" x2="85.5035" y1="15.4865" y2="15.4865" /><line stroke-linecap="round" stroke-width="0.5" x1="85.5035" x2="85.5035" y1="15.4865" y2="26.1898" /><text font-family="monospace" font-size="2" stroke-width="0.1" text-anchor="middle" x="82.846060967" y="20.838188467">R3</text><line stroke-linecap="round" stroke-width="0.5" x1="91.741" x2="91.741" y1="74.8736" y2="80.1886" /><line stroke-linecap="round" stroke-width="0.5" x1="91.741" x2="81.0377" y1="80.1886" y2="80.1886" /><line stroke-linecap="round" stroke-width="0.5" x1="81.0377" x2="81.0377" y1="80.1886" y2="74.8736" /><line stroke-linecap="round" stroke-width="0.5" x1="81.0377" x2="91.741" y1="74.8736" y2="74.8736" /><text font-family="monospace" font-size="2" stroke-width="0.1" text-anchor="middle" x="86.389367967" y="77.531100467">R4</text><line stroke-linecap="round" stroke-width="0.5" x1="42.1347" x2="42.1347" y1="50.0705" y2="55.3854" /><line stroke-linecap="round" stroke-width="0.5" x1="42.1347" x2="31.4314" y1="55.3854" y2="55.3854" /><line stroke-linecap="round" stroke-width="0.5" x1="31.4314" x2="31.4314" y1="55.3854" y2="50.0705" /><line stroke-linecap="round" stroke-width="0.5" x1="31.4314" x2="42.1347" y1="50.0705" y2="50.0705" /><text font-family="monospace" font-size="2" stroke-width="0.1" text-anchor="middle" x="36.783069967" y="52.727951467">R1</text><line stroke-linecap="round" stroke-width="0.5" x1="44.4012" x2="44.4012" y1="31.8224" y2="9.8539" /><line stroke-linecap="round" stroke-width="0.5" x1="44.4012" x2="78.7713" y1="9.8539" y2="9.8539" /><line stroke-linecap="round" stroke-width="0.5" x1="78.7713" x2="78.7713" y1="9.8539" y2="31.8224" /><line stroke-linecap="round" stroke-width="0.5" x1="78.7713" x2="44.4012" y1="31.8224" y2="31.8224" /><text font-family="monospace" font-size="2" stroke-width="0.1" text-anchor="middle" x="61.586218967" y="20.838188467">SW1</text><circle cx="48.7949" cy="14.2476" r="0.8858" stroke-width="0.5" /><line stroke-linecap="round" stroke-width="0.5" x1="50.2476" x2="50.2476" y1="50.4248" y2="40.8579" /><line stroke-linecap="round" stroke-width="0.5" x1="50.2476" x2="58.7516" y1="40.8579" y2="40.8579" /><line stroke-linecap="round" stroke-width="0.5" x1="58.7516" x2="58.7516" y1="40.8579" y2="50.4248" /><line stroke-linecap="round" stroke-width="0.5" x1="58.7516" x2="50.2476" y1="50.4248" y2="50.4248" /><text font-family="monospace" font-size="2" stroke-width="0.1" text-anchor="middle" x="54.499604967" y="45.641337467">U1</text><circle cx="51.9484" cy="48.724" r="0.8858" stroke-width="0.5" /><line stroke-linecap="round" stroke-width="0.5" x1="81.0377" x2="81.0377" y1="55.3854" y2="50.0705" /><line stroke-linecap="round" stroke-width="0.5" x1="81.0377" x2="91.741" y1="50.0705" y2="50.0705" /><line stroke-linecap="round" stroke-width="0.5" x1="91.741" x2="91.741" y1="50.0705" y2="55.3854" /><line stroke-linecap="round" stroke-width="0.5" x1="91.741" x2="81.0377" y1="55.3854" y2="55.3854" /><text font-family="monospace" font-size="2" stroke-width="0.1" text-anchor="middle" x="86.389367967" y="52.727951467">R2</text><line stroke-linecap="round" stroke-width="0.5" x1="91.1209" x2="91.1209" y1="64.7752" y2="72.5705" /><line stroke-linecap="round" stroke-width="0.5" x1="91.1209" x2="81.6578" y1="72.5705" y2="72.5705" /><line stroke-linecap="round" stroke-width="0.5" x1="81.6578" x2="81.6578" y1="72.5705" y2="64.7752" /><line stroke-linecap="round" stroke-width="0.5" x1="81.6578" x2="91.1209" y1="64.7752" y2="64.7752" /><text font-family="monospace" font-size="2" stroke-width="0.1" text-anchor="middle" x="86.389367967" y="68.672832967">U4</text><circle cx="89.5619" cy="71.0114" r="0.8858" stroke-width="0.5" /><line stroke-linecap="round" stroke-width="0.5" x1="64.4209" x2="64.4209" y1="50.4248" y2="40.8579" /><line stroke-linecap="round" stroke-width="0.5" x1="64.4209" x2="72.9248" y1="40.8579" y2="40.8579" /><line stroke-linecap="round" stroke-width="0.5" x1="72.9248" x2="72.9248" y1="40.8579" y2="50.4248" /><line stroke-linecap="round" stroke-width="0.5" x1="72.9248" x2="64.4209" y1="50.4248" y2="50.4248" /><text font-family="monospace" font-size="2" stroke-width="0.1" text-anchor="middle" x="68.672832967" y="45.641337467">U2</text><circle cx="66.1217" cy="48.724" r="0.8858" stroke-width="0.5" /><line stroke-linecap="round" stroke-width="0.5" x1="33.8598" x2="33.8598" y1="73.8992" y2="70.5331" /><line stroke-linecap="round" stroke-width="0.5" x1="33.8598" x2="36.163" y1="70.5331" y2="70.5331" /><line stroke-linecap="round" stroke-width="0.5" x1="36.163" x2="36.163" y1="70.5331" y2="73.8992" /><line stroke-linecap="round" stroke-width="0.5" x1="36.163" x2="33.8598" y1="73.8992" y2="73.8992" /><text font-family="monospace" font-size="2" stroke-width="0.1" text-anchor="middle" x="35.011416467" y="72.216139967">TP2</text><line stroke-linecap="round" stroke-width="0.5" x1="56.0941" x2="67.0783" y1="64.045" y2="64.045" /><line stroke-linecap="round" stroke-width="0.5" x1="67.0783" x2="67.0783" y1="64.045" y2="80.3872" /><line stroke-linecap="round" stroke-width="0.5" x1="67.0783" x2="56.0941" y1="80.3872" y2="80.3872" /><line stroke-linecap="round" stroke-width="0.5" x1="56.0941" x2="56.0941" y1="80.3872" y2="64.045" /><text font-family="monospace" font-size="2" stroke-width="0.1" text-anchor="middle" x="61.586218967" y="72.216139967">U3</text><circle cx="64.8815" cy="66.2419" r="0.8858" stroke-width="0.5" /><line stroke-linecap="round" stroke-width="0.5" x1="117.039" x2="97.5508" y1="81.9602" y2="81.9602" /><line stroke-linecap="round" stroke-width="0.5" x1="97.5508" x2="97.5508" y1="81.9602" y2="55.3854" /><line stroke-linecap="round" stroke-width="0.5" x1="97.5508" x2="117.039" y1="55.3854" y2="55.3854" /><line stroke-linecap="round" stroke-width="0.5" x1="117.039" x2="117.039" y1="55.3854" y2="81.9602" /><text font-family="monospace" font-size="2" stroke-width="0.1" text-anchor="middle" x="107.294879267" y="68.672832967">Y1</text><line stroke-linecap="round" stroke-width="0.5" x1="81.0377" x2="81.0377" y1="48.2988" y2="42.9839" /><line stroke-linecap="round" stroke-width="0.5" x1="81.0377" x2="91.741" y1="42.9839" y2="42.9839" /><line stroke-linecap="round" stroke-width="0.5" x1="91.741" x2="91.741" y1="42.9839" y2="48.2988" /><line stroke-linecap="round" stroke-width="0.5" x1="91.741" x2="81.0377" y1="48.2988" y2="48.2988" /><text font-family="monospace" font-size="2" stroke-width="0.1" text-anchor="middle" x="86.389367967" y="45.641337467">D2</text><circle cx="82.1007" cy="44.0468" r="0.8858" stroke-width="0.5" /><line stroke-linecap="round" stroke-width="0.5" x1="42.1347" x2="42.1347" y1="42.9839" y2="48.2988" /><line stroke-linecap="round" stroke-width="0.5" x1="42.1347" x2="31.4314" y1="48.2988" y2="48.2988" /><line stroke-linecap="round" stroke-width="0.5" x1="31.4314" x2="31.4314" y1="48.2988" y2="42.9839" /><line stroke-linecap="round" stroke-width="0.5" x1="31.4314" x2="42.1347" y1="42.9839" y2="42.9839" /><text font-family="monospace" font-size="2" stroke-width="0.1" text-anchor="middle" x="36.783069967" y="45.641337467">D1</text><circle cx="41.0717" cy="47.2358" r="0.8858" stroke-width="0.5" /><line stroke-linecap="round" stroke-width="0.5" x1="42.7181" x2="42.7181" y1="73.8992" y2="70.5331" /><line stroke-linecap="round" stroke-width="0.5" x1="42.7181" x2="45.0213" y1="70.5331" y2="70.5331" /><line stroke-linecap="round" stroke-width="0.5" x1="45.0213" x2="45.0213" y1="70.5331" y2="73.8992" /><line stroke-linecap="round" stroke-width="0.5" x1="45.0213" x2="42.7181" y1="73.8992" y2="73.8992" /><text font-family="monospace" font-size="2" stroke-width="0.1" text-anchor="middle" x="43.869683967" y="72.216139967">TP3</text></g><g fill="blue" id="bottom_parts" stroke="blue"><line stroke-linecap="round" stroke-width="0.5" x1="117.1276" x2="117.1276" y1="81.7831" y2="9.4996" /><line stroke-linecap="round" stroke-width="0.5" x1="117.1276" x2="6.0449" y1="9.4996" y2="9.4996" /><line stroke-linecap="round" stroke-width="0.5" x1="6.0449" x2="6.0449" y1="9.4996" y2="81.7831" /><line stroke-linecap="round" stroke-width="0.5" x1="6.0449" x2="117.1276" y1="81.7831" y2="81.7831" /><text font-family="monospace" font-size="2" stroke-width="0.1" text-anchor="middle" x="61.586218967" y="45.641337467">BT1</text><circle cx="20.5016" cy="67.3264" r="1.5945" stroke-width="0.5" /></g></svg>