<?xml version="1.0" encoding="utf-8" ?>
<svg baseProfile="tiny" height="91.282674934" version="1.2" width="123.172437934" xmlns="http://www.w3.org/2000/svg" xmlns:ev="http://www.w3.org/2001/xml-events" xmlns:xlink="http://www.w3.org/1999/xlink"><defs /><g id="paths" stroke="blue"><path d="M 4.893306967,86.389367967 L 118.279130967,86.389367967 L 118.279130967,4.893306967 L 4.893306967,4.893306967 L 4.893306967,86.389367967 Z" fill-opacity="0" stroke-linejoin="round" stroke-width="1.0" /></g><g fill="red" id="holes"><circle cx="47.5016" cy="54.9425" r="0.585" stroke-width="0.0" /><circle cx="12.6886" cy="33.2398" r="0.585" stroke-width="0.0" /><circle cx="16.2319" cy="33.2398" r="0.585" stroke-width="0.0" /><circle cx="47.5016" cy="39.972" r="0.585" stroke-width="0.0" /><circle cx="75.6709" cy="54.9425" r="0.585" stroke-width="0.0" /><circle cx="87.098" cy="17.1177" r="0.585" stroke-width="0.0" /><circle cx="103.3972" cy="33.2398" r="0.585" stroke-width="0.0" /><circle cx="19.7752" cy="58.0429" r="0.585" stroke-width="0.0" /><circle cx="92.5383" cy="73.2495" r="0.585" stroke-width="0.0" /><circle cx="106.9405" cy="33.2398" r="0.585" stroke-width="0.0" /><circle cx="19.7752" cy="33.2398" r="0.585" stroke-width="0.0" /><circle cx="61.5862" cy="54.9425" r="0.585" stroke-width="0.0" /><circle cx="55.2083" cy="76.2909" r="0.585" stroke-width="0.0" /><circle cx="75.6709" cy="39.972" r="0.585" stroke-width="0.0" /><circle cx="12.6886" cy="58.0429" r="0.585" stroke-width="0.0" /><circle cx="55.2083" cy="69.2043" r="0.585" stroke-width="0.0" /><circle cx="95.4248" cy="68.6728" r="0.585" stroke-width="0.0" /><circle cx="110.4839" cy="33.2398" r="0.585" stroke-width="0.0" /><circle cx="79.1433" cy="62.4494" r="0.585" stroke-width="0.0" /><circle cx="16.2319" cy="58.0429" r="0.585" stroke-width="0.0" /><circle cx="15.5232" cy="75.7594" r="3.8976" stroke-width="0.0" /><circle cx="107.6492" cy="15.5232" r="3.8976" stroke-width="0.0" /><circle cx="15.5232" cy="15.5232" r="3.8976" stroke-width="0.0" /></g><g id="rulers" stroke="black" /></svg>