<?xml version='1.0' encoding='UTF-8' standalone='no'?>
<svg xmlns="http://www.w3.org/2000/svg" width="1014" height="870" x="0" y="0"><text x="455" y="680" font-size="10" font-family="sans-serif" text-anchor="middle" alignment-baseline="middle" transform="rotate(270 455 680)">flip-flop-out</text><text x="490" y="785" font-size="10" font-family="sans-serif" text-anchor="middle" alignment-baseline="middle">flip-flop-out-inverted</text><text x="705" y="135" font-size="10" font-family="sans-serif" text-anchor="middle" alignment-baseline="middle" transform="rotate(270 705 135)">resonator</text><text x="231" y="515" font-size="10" font-family="sans-serif" text-anchor="start" alignment-baseline="hanging">TODO: Choose resistor values</text><text x="670" y="640" font-size="10" font-family="sans-serif" text-anchor="start" alignment-baseline="hanging">R1</text><text x="500" y="570" font-size="10" font-family="sans-serif" text-anchor="start" alignment-baseline="hanging">VBAT</text><text x="734" y="653" font-size="10" font-family="sans-serif" text-anchor="start" alignment-baseline="hanging">LED</text><text x="390" y="630" font-size="10" font-family="sans-serif" text-anchor="start" alignment-baseline="hanging">VBAT</text><text x="734" y="793" font-size="10" font-family="sans-serif" text-anchor="start" alignment-baseline="hanging">LED</text><text x="540" y="820" font-size="10" font-family="sans-serif" text-anchor="start" alignment-baseline="hanging">74AHC1G08SE</text><text x="800" y="850" font-size="10" font-family="sans-serif" text-anchor="start" alignment-baseline="hanging">GND</text><text x="682" y="184" font-size="10" font-family="sans-serif" text-anchor="end" alignment-baseline="hanging">R5</text><text x="390" y="780" font-size="10" font-family="sans-serif" text-anchor="start" alignment-baseline="hanging">GND</text><text x="610" y="380" font-size="10" font-family="sans-serif" text-anchor="start" alignment-baseline="hanging">GND</text><text x="10" y="290" font-size="10" font-family="sans-serif" text-anchor="start" alignment-baseline="hanging">Mounting Hole M2</text><text x="630" y="710" font-size="10" font-family="sans-serif" text-anchor="start" alignment-baseline="hanging">GND</text><text x="475" y="650" font-size="10" font-family="sans-serif" text-anchor="end" alignment-baseline="middle">button</text><text x="630" y="850" font-size="10" font-family="sans-serif" text-anchor="start" alignment-baseline="hanging">GND</text><text x="165" y="108" font-size="10" font-family="sans-serif" text-anchor="end" alignment-baseline="hanging">Test Point</text><text x="10" y="390" font-size="10" font-family="sans-serif" text-anchor="start" alignment-baseline="hanging">Mounting Hole M2</text><text x="800" y="710" font-size="10" font-family="sans-serif" text-anchor="start" alignment-baseline="hanging">GND</text><text x="670" y="650" font-size="10" font-family="sans-serif" text-anchor="start" alignment-baseline="hanging">5K</text><text x="220" y="60" font-size="10" font-family="sans-serif" text-anchor="start" alignment-baseline="hanging">BT1</text><text x="920" y="40" font-size="10" font-family="sans-serif" text-anchor="start" alignment-baseline="hanging">VBAT</text><text x="10" y="450" font-size="10" font-family="sans-serif" text-anchor="start" alignment-baseline="hanging">M2</text><text x="238" y="118" font-size="10" font-family="sans-serif" text-anchor="start" alignment-baseline="hanging">S8211-46R</text><text x="735" y="783" font-size="10" font-family="sans-serif" text-anchor="start" alignment-baseline="hanging">D2</text><text x="614" y="210" font-size="10" font-family="sans-serif" text-anchor="start" alignment-baseline="hanging">Y1</text><text x="570" y="220" font-size="10" font-family="sans-serif" text-anchor="start" alignment-baseline="hanging">PBRV2.00HR50Y000</text><text x="148" y="80" font-size="10" font-family="sans-serif" text-anchor="end" alignment-baseline="hanging">TP2</text><text x="770" y="210" font-size="10" font-family="sans-serif" text-anchor="start" alignment-baseline="hanging">GND</text><text x="208" y="275" font-size="10" font-family="sans-serif" text-anchor="start" alignment-baseline="hanging">SW1</text><text x="280" y="330" font-size="10" font-family="sans-serif" text-anchor="start" alignment-baseline="hanging">GND</text><text x="541" y="610" font-size="10" font-family="sans-serif" text-anchor="start" alignment-baseline="hanging">U1</text><text x="935" y="188" font-size="10" font-family="sans-serif" text-anchor="start" alignment-baseline="hanging">Test Point</text><text x="600" y="140" font-size="10" font-family="sans-serif" text-anchor="start" alignment-baseline="hanging">5K</text><text x="190" y="10" font-size="10" font-family="sans-serif" text-anchor="start" alignment-baseline="hanging">VBAT</text><text x="800" y="90" font-size="10" font-family="sans-serif" text-anchor="start" alignment-baseline="hanging">U4</text><text x="670" y="780" font-size="10" font-family="sans-serif" text-anchor="start" alignment-baseline="hanging">R2</text><text x="735" y="643" font-size="10" font-family="sans-serif" text-anchor="start" alignment-baseline="hanging">D1</text><text x="540" y="750" font-size="10" font-family="sans-serif" text-anchor="start" alignment-baseline="hanging">U2</text><text x="670" y="790" font-size="10" font-family="sans-serif" text-anchor="start" alignment-baseline="hanging">5K</text><text x="731" y="589" font-size="10" font-family="sans-serif" text-anchor="start" alignment-baseline="hanging">Red LED</text><text x="500" y="710" font-size="10" font-family="sans-serif" text-anchor="start" alignment-baseline="hanging">VBAT</text><text x="540" y="680" font-size="10" font-family="sans-serif" text-anchor="start" alignment-baseline="hanging">74AHC1G08SE</text><text x="225" y="720" font-size="10" font-family="sans-serif" text-anchor="end" alignment-baseline="middle">osc</text><text x="475" y="800" font-size="10" font-family="sans-serif" text-anchor="end" alignment-baseline="middle">button</text><text x="810" y="160" font-size="10" font-family="sans-serif" text-anchor="start" alignment-baseline="hanging">NC7WZ14P6X</text><text x="90" y="600" font-size="10" font-family="sans-serif" text-anchor="start" alignment-baseline="hanging">GND</text><text x="345" y="98" font-size="10" font-family="sans-serif" text-anchor="start" alignment-baseline="hanging">Test Point</text><text x="313" y="258" font-size="10" font-family="sans-serif" text-anchor="end" alignment-baseline="hanging">R3</text><text x="365" y="220" font-size="10" font-family="sans-serif" text-anchor="start" alignment-baseline="middle">button</text><text x="355" y="74" font-size="10" font-family="sans-serif" text-anchor="start" alignment-baseline="hanging">TP1</text><text x="225" y="710" font-size="10" font-family="sans-serif" text-anchor="end" alignment-baseline="middle">button</text><text x="726" y="727" font-size="10" font-family="sans-serif" text-anchor="start" alignment-baseline="hanging">Green LED</text><text x="250" y="630" font-size="10" font-family="sans-serif" text-anchor="start" alignment-baseline="hanging">VBAT</text><text x="507" y="507" font-size="10" font-family="sans-serif" text-anchor="start" alignment-baseline="hanging">TODO: Do I want the LEDs driven directly off the AND gates (8ma limit) or should I put a FET in between?</text><text x="190" y="170" font-size="10" font-family="sans-serif" text-anchor="start" alignment-baseline="hanging">VBAT</text><text x="310" y="170" font-size="10" font-family="sans-serif" text-anchor="start" alignment-baseline="hanging">GND</text><text x="682" y="174" font-size="10" font-family="sans-serif" text-anchor="end" alignment-baseline="hanging">5K</text><text x="945" y="164" font-size="10" font-family="sans-serif" text-anchor="start" alignment-baseline="hanging">TP3</text><text x="320" y="670" font-size="10" font-family="sans-serif" text-anchor="start" alignment-baseline="hanging">U3</text><text x="313" y="268" font-size="10" font-family="sans-serif" text-anchor="end" alignment-baseline="hanging">10K</text><text x="975" y="130" font-size="10" font-family="sans-serif" text-anchor="start" alignment-baseline="middle">osc</text><text x="10" y="350" font-size="10" font-family="sans-serif" text-anchor="start" alignment-baseline="hanging">M1</text><text x="280" y="740" font-size="10" font-family="sans-serif" text-anchor="start" alignment-baseline="hanging">TC7W74FKTE85LF</text><text x="10" y="490" font-size="10" font-family="sans-serif" text-anchor="start" alignment-baseline="hanging">Mounting Hole M2</text><text x="10" y="550" font-size="10" font-family="sans-serif" text-anchor="start" alignment-baseline="hanging">M3</text><text x="600" y="130" font-size="10" font-family="sans-serif" text-anchor="start" alignment-baseline="hanging">R4</text><line x1="640" y1="820" x2="640" y2="830" stroke-width="2" stroke="black"></line><line x1="630" y1="830" x2="650" y2="830" stroke-width="2" stroke="black"></line><line x1="633" y1="835" x2="647" y2="835" stroke-width="2" stroke="black"></line><line x1="636" y1="840" x2="644" y2="840" stroke-width="2" stroke="black"></line><line x1="200" y1="240" x2="200" y2="260" stroke-width="2" stroke="black"></line><line x1="240" y1="240" x2="240" y2="260" stroke-width="2" stroke="black"></line><line x1="240" y1="250" x2="230" y2="250" stroke-width="2" stroke="black"></line><line x1="200" y1="250" x2="210" y2="250" stroke-width="2" stroke="black"></line><circle cx="213" cy="250" r="2" style="stroke: #000; stroke-width: 1; fill: none;"></circle><circle cx="227" cy="250" r="2" style="stroke: #000; stroke-width: 1; fill: none;"></circle><line x1="215" y1="249" x2="225" y2="243" stroke-width="2" stroke="black"></line><rect width="100" height="90" x="570" y="230" style="stroke: #000; stroke-width: 1; fill: none;"></rect><line x1="560" y1="250" x2="570" y2="250" stroke-width="2" stroke="black"></line><text x="572" y="250" font-size="10" font-family="sans-serif" text-anchor="start" alignment-baseline="middle">1</text><line x1="680" y1="250" x2="670" y2="250" stroke-width="2" stroke="black"></line><text x="668" y="250" font-size="10" font-family="sans-serif" text-anchor="end" alignment-baseline="middle">3</text><line x1="620" y1="330" x2="620" y2="320" stroke-width="2" stroke="black"></line><text x="620" y="318" font-size="10" font-family="sans-serif" text-anchor="end" alignment-baseline="middle" transform="rotate(90 620 318)">2</text><line x1="580" y1="250" x2="600" y2="250" stroke-width="2" stroke="black"></line><line x1="640" y1="250" x2="660" y2="250" stroke-width="2" stroke="black"></line><rect width="20" height="20" x="610" y="240" style="stroke: #000; stroke-width: 1; fill: none;"></rect><line x1="600" y1="260" x2="600" y2="240" stroke-width="2" stroke="black"></line><line x1="640" y1="240" x2="640" y2="260" stroke-width="2" stroke="black"></line><line x1="600" y1="270" x2="580" y2="270" stroke-width="2" stroke="black"></line><line x1="600" y1="280" x2="580" y2="280" stroke-width="2" stroke="black"></line><line x1="590" y1="270" x2="590" y2="250" stroke-width="2" stroke="black"></line><line x1="650" y1="250" x2="650" y2="270" stroke-width="2" stroke="black"></line><line x1="640" y1="270" x2="660" y2="270" stroke-width="2" stroke="black"></line><line x1="660" y1="280" x2="640" y2="280" stroke-width="2" stroke="black"></line><line x1="650" y1="280" x2="650" y2="300" stroke-width="2" stroke="black"></line><line x1="650" y1="300" x2="650" y2="300" stroke-width="2" stroke="black"></line><line x1="650" y1="300" x2="620" y2="300" stroke-width="2" stroke="black"></line><line x1="620" y1="300" x2="590" y2="300" stroke-width="2" stroke="black"></line><line x1="590" y1="300" x2="590" y2="300" stroke-width="2" stroke="black"></line><line x1="590" y1="300" x2="590" y2="280" stroke-width="2" stroke="black"></line><line x1="620" y1="300" x2="620" y2="310" stroke-width="2" stroke="black"></line><line x1="260" y1="660" x2="260" y2="640" stroke-width="2" stroke="black"></line><line x1="260" y1="640" x2="253" y2="647" stroke-width="2" stroke="black"></line><line x1="260" y1="640" x2="267" y2="647" stroke-width="2" stroke="black"></line><rect width="70" height="50" x="540" y="760" style="stroke: #000; stroke-width: 1; fill: none;"></rect><line x1="530" y1="790" x2="540" y2="790" stroke-width="2" stroke="black"></line><text x="542" y="790" font-size="10" font-family="sans-serif" text-anchor="start" alignment-baseline="middle">A</text><line x1="530" y1="800" x2="540" y2="800" stroke-width="2" stroke="black"></line><text x="542" y="800" font-size="10" font-family="sans-serif" text-anchor="start" alignment-baseline="middle">B</text><line x1="530" y1="770" x2="540" y2="770" stroke-width="2" stroke="black"></line><text x="542" y="770" font-size="10" font-family="sans-serif" text-anchor="start" alignment-baseline="middle">VCC</text><line x1="620" y1="800" x2="610" y2="800" stroke-width="2" stroke="black"></line><text x="608" y="800" font-size="10" font-family="sans-serif" text-anchor="end" alignment-baseline="middle">GND</text><line x1="620" y1="770" x2="610" y2="770" stroke-width="2" stroke="black"></line><text x="608" y="770" font-size="10" font-family="sans-serif" text-anchor="end" alignment-baseline="middle">Y</text><line x1="740" y1="620" x2="740" y2="640" stroke-width="2" stroke="black"></line><line x1="760" y1="620" x2="760" y2="640" stroke-width="2" stroke="black"></line><line x1="740" y1="620" x2="760" y2="630" stroke-width="2" stroke="black"></line><line x1="740" y1="640" x2="760" y2="630" stroke-width="2" stroke="black"></line><line x1="745" y1="618" x2="755" y2="608" stroke-width="2" stroke="black"></line><line x1="755" y1="608" x2="750" y2="608" stroke-width="2" stroke="black"></line><line x1="755" y1="608" x2="755" y2="613" stroke-width="2" stroke="black"></line><line x1="752" y1="622" x2="762" y2="612" stroke-width="2" stroke="black"></line><line x1="762" y1="612" x2="757" y2="612" stroke-width="2" stroke="black"></line><line x1="762" y1="612" x2="762" y2="617" stroke-width="2" stroke="black"></line><line x1="730" y1="630" x2="740" y2="630" stroke-width="2" stroke="black"></line><line x1="760" y1="630" x2="770" y2="630" stroke-width="2" stroke="black"></line><line x1="600" y1="120" x2="603" y2="115" stroke-width="2" stroke="black"></line><line x1="603" y1="115" x2="608" y2="125" stroke-width="2" stroke="black"></line><line x1="608" y1="125" x2="613" y2="115" stroke-width="2" stroke="black"></line><line x1="613" y1="115" x2="618" y2="125" stroke-width="2" stroke="black"></line><line x1="618" y1="125" x2="623" y2="115" stroke-width="2" stroke="black"></line><line x1="623" y1="115" x2="628" y2="125" stroke-width="2" stroke="black"></line><line x1="628" y1="125" x2="630" y2="120" stroke-width="2" stroke="black"></line><line x1="590" y1="120" x2="600" y2="120" stroke-width="2" stroke="black"></line><line x1="630" y1="120" x2="640" y2="120" stroke-width="2" stroke="black"></line><line x1="620" y1="350" x2="620" y2="360" stroke-width="2" stroke="black"></line><line x1="610" y1="360" x2="630" y2="360" stroke-width="2" stroke="black"></line><line x1="613" y1="365" x2="627" y2="365" stroke-width="2" stroke="black"></line><line x1="616" y1="370" x2="624" y2="370" stroke-width="2" stroke="black"></line><line x1="290" y1="300" x2="290" y2="310" stroke-width="2" stroke="black"></line><line x1="280" y1="310" x2="300" y2="310" stroke-width="2" stroke="black"></line><line x1="283" y1="315" x2="297" y2="315" stroke-width="2" stroke="black"></line><line x1="286" y1="320" x2="294" y2="320" stroke-width="2" stroke="black"></line><line x1="700" y1="190" x2="695" y2="187" stroke-width="2" stroke="black"></line><line x1="695" y1="187" x2="705" y2="182" stroke-width="2" stroke="black"></line><line x1="705" y1="182" x2="695" y2="177" stroke-width="2" stroke="black"></line><line x1="695" y1="177" x2="705" y2="172" stroke-width="2" stroke="black"></line><line x1="705" y1="172" x2="695" y2="167" stroke-width="2" stroke="black"></line><line x1="695" y1="167" x2="705" y2="162" stroke-width="2" stroke="black"></line><line x1="705" y1="162" x2="700" y2="160" stroke-width="2" stroke="black"></line><line x1="700" y1="200" x2="700" y2="190" stroke-width="2" stroke="black"></line><line x1="700" y1="160" x2="700" y2="150" stroke-width="2" stroke="black"></line><circle cx="140" cy="100" r="5" style="stroke: #000; stroke-width: 1; fill: none;"></circle><line x1="150" y1="100" x2="140" y2="100" stroke-width="2" stroke="black"></line><line x1="400" y1="750" x2="400" y2="760" stroke-width="2" stroke="black"></line><line x1="390" y1="760" x2="410" y2="760" stroke-width="2" stroke="black"></line><line x1="393" y1="765" x2="407" y2="765" stroke-width="2" stroke="black"></line><line x1="396" y1="770" x2="404" y2="770" stroke-width="2" stroke="black"></line><line x1="320" y1="140" x2="320" y2="150" stroke-width="2" stroke="black"></line><line x1="310" y1="150" x2="330" y2="150" stroke-width="2" stroke="black"></line><line x1="313" y1="155" x2="327" y2="155" stroke-width="2" stroke="black"></line><line x1="316" y1="160" x2="324" y2="160" stroke-width="2" stroke="black"></line><line x1="510" y1="740" x2="510" y2="720" stroke-width="2" stroke="black"></line><line x1="510" y1="720" x2="503" y2="727" stroke-width="2" stroke="black"></line><line x1="510" y1="720" x2="517" y2="727" stroke-width="2" stroke="black"></line><circle cx="40" cy="330" r="20" style="stroke: #000; stroke-width: 1; fill: none;"></circle><line x1="70" y1="330" x2="60" y2="330" stroke-width="2" stroke="black"></line><line x1="345" y1="220" x2="340" y2="220" stroke-width="2" stroke="black"></line><line x1="360" y1="220" x2="355" y2="217" stroke-width="2" stroke="black"></line><line x1="360" y1="220" x2="355" y2="223" stroke-width="2" stroke="black"></line><line x1="355" y1="217" x2="345" y2="217" stroke-width="2" stroke="black"></line><line x1="355" y1="223" x2="345" y2="223" stroke-width="2" stroke="black"></line><line x1="345" y1="217" x2="345" y2="223" stroke-width="2" stroke="black"></line><line x1="810" y1="680" x2="810" y2="690" stroke-width="2" stroke="black"></line><line x1="800" y1="690" x2="820" y2="690" stroke-width="2" stroke="black"></line><line x1="803" y1="695" x2="817" y2="695" stroke-width="2" stroke="black"></line><line x1="806" y1="700" x2="814" y2="700" stroke-width="2" stroke="black"></line><line x1="495" y1="800" x2="500" y2="800" stroke-width="2" stroke="black"></line><line x1="490" y1="797" x2="495" y2="800" stroke-width="2" stroke="black"></line><line x1="490" y1="803" x2="495" y2="800" stroke-width="2" stroke="black"></line><line x1="490" y1="797" x2="480" y2="797" stroke-width="2" stroke="black"></line><line x1="490" y1="803" x2="480" y2="803" stroke-width="2" stroke="black"></line><line x1="480" y1="797" x2="480" y2="803" stroke-width="2" stroke="black"></line><line x1="810" y1="820" x2="810" y2="830" stroke-width="2" stroke="black"></line><line x1="800" y1="830" x2="820" y2="830" stroke-width="2" stroke="black"></line><line x1="803" y1="835" x2="817" y2="835" stroke-width="2" stroke="black"></line><line x1="806" y1="840" x2="814" y2="840" stroke-width="2" stroke="black"></line><line x1="670" y1="630" x2="673" y2="625" stroke-width="2" stroke="black"></line><line x1="673" y1="625" x2="678" y2="635" stroke-width="2" stroke="black"></line><line x1="678" y1="635" x2="683" y2="625" stroke-width="2" stroke="black"></line><line x1="683" y1="625" x2="688" y2="635" stroke-width="2" stroke="black"></line><line x1="688" y1="635" x2="693" y2="625" stroke-width="2" stroke="black"></line><line x1="693" y1="625" x2="698" y2="635" stroke-width="2" stroke="black"></line><line x1="698" y1="635" x2="700" y2="630" stroke-width="2" stroke="black"></line><line x1="660" y1="630" x2="670" y2="630" stroke-width="2" stroke="black"></line><line x1="700" y1="630" x2="710" y2="630" stroke-width="2" stroke="black"></line><line x1="780" y1="180" x2="780" y2="190" stroke-width="2" stroke="black"></line><line x1="770" y1="190" x2="790" y2="190" stroke-width="2" stroke="black"></line><line x1="773" y1="195" x2="787" y2="195" stroke-width="2" stroke="black"></line><line x1="776" y1="200" x2="784" y2="200" stroke-width="2" stroke="black"></line><line x1="245" y1="710" x2="250" y2="710" stroke-width="2" stroke="black"></line><line x1="240" y1="707" x2="245" y2="710" stroke-width="2" stroke="black"></line><line x1="240" y1="713" x2="245" y2="710" stroke-width="2" stroke="black"></line><line x1="240" y1="707" x2="230" y2="707" stroke-width="2" stroke="black"></line><line x1="240" y1="713" x2="230" y2="713" stroke-width="2" stroke="black"></line><line x1="230" y1="707" x2="230" y2="713" stroke-width="2" stroke="black"></line><line x1="955" y1="130" x2="950" y2="130" stroke-width="2" stroke="black"></line><line x1="970" y1="130" x2="965" y2="127" stroke-width="2" stroke="black"></line><line x1="970" y1="130" x2="965" y2="133" stroke-width="2" stroke="black"></line><line x1="965" y1="127" x2="955" y2="127" stroke-width="2" stroke="black"></line><line x1="965" y1="133" x2="955" y2="133" stroke-width="2" stroke="black"></line><line x1="955" y1="127" x2="955" y2="133" stroke-width="2" stroke="black"></line><line x1="930" y1="70" x2="930" y2="50" stroke-width="2" stroke="black"></line><line x1="930" y1="50" x2="923" y2="57" stroke-width="2" stroke="black"></line><line x1="930" y1="50" x2="937" y2="57" stroke-width="2" stroke="black"></line><circle cx="370" cy="90" r="5" style="stroke: #000; stroke-width: 1; fill: none;"></circle><line x1="360" y1="90" x2="370" y2="90" stroke-width="2" stroke="black"></line><line x1="230" y1="100" x2="240" y2="100" stroke-width="2" stroke="black"></line><line x1="230" y1="80" x2="240" y2="80" stroke-width="2" stroke="black"></line><text x="275" y="90" font-size="10" font-family="sans-serif" text-anchor="end" alignment-baseline="middle">-</text><line x1="290" y1="90" x2="280" y2="90" stroke-width="2" stroke="black"></line><line x1="230" y1="100" x2="240" y2="100" stroke-width="2" stroke="black"></line><line x1="230" y1="80" x2="240" y2="80" stroke-width="2" stroke="black"></line><text x="275" y="90" font-size="10" font-family="sans-serif" text-anchor="end" alignment-baseline="middle">-</text><line x1="290" y1="90" x2="280" y2="90" stroke-width="2" stroke="black"></line><line x1="230" y1="100" x2="240" y2="100" stroke-width="2" stroke="black"></line><line x1="230" y1="80" x2="240" y2="80" stroke-width="2" stroke="black"></line><text x="275" y="90" font-size="10" font-family="sans-serif" text-anchor="end" alignment-baseline="middle">-</text><line x1="290" y1="90" x2="280" y2="90" stroke-width="2" stroke="black"></line><line x1="250" y1="100" x2="240" y2="100" stroke-width="2" stroke="black"></line><line x1="250" y1="80" x2="250" y2="100" stroke-width="2" stroke="black"></line><line x1="240" y1="80" x2="250" y2="80" stroke-width="2" stroke="black"></line><line x1="260" y1="80" x2="260" y2="100" stroke-width="2" stroke="black"></line><line x1="266" y1="85" x2="266" y2="95" stroke-width="2" stroke="black"></line><line x1="273" y1="80" x2="273" y2="100" stroke-width="2" stroke="black"></line><line x1="280" y1="85" x2="280" y2="95" stroke-width="2" stroke="black"></line><line x1="250" y1="90" x2="260" y2="90" stroke-width="2" stroke="black"></line><line x1="280" y1="90" x2="290" y2="90" stroke-width="2" stroke="black"></line><text x="250" y="80" font-size="10" font-family="sans-serif" text-anchor="start" alignment-baseline="hanging">+</text><text x="285" y="80" font-size="10" font-family="sans-serif" text-anchor="start" alignment-baseline="hanging">-</text><line x1="290" y1="90" x2="280" y2="90" stroke-width="2" stroke="black"></line><text x="275" y="90" font-size="10" font-family="sans-serif" text-anchor="end" alignment-baseline="middle">-</text><line x1="230" y1="80" x2="240" y2="80" stroke-width="2" stroke="black"></line><line x1="230" y1="100" x2="240" y2="100" stroke-width="2" stroke="black"></line><line x1="290" y1="90" x2="280" y2="90" stroke-width="2" stroke="black"></line><text x="275" y="90" font-size="10" font-family="sans-serif" text-anchor="end" alignment-baseline="middle">-</text><line x1="230" y1="80" x2="240" y2="80" stroke-width="2" stroke="black"></line><line x1="230" y1="100" x2="240" y2="100" stroke-width="2" stroke="black"></line><line x1="290" y1="90" x2="280" y2="90" stroke-width="2" stroke="black"></line><text x="275" y="90" font-size="10" font-family="sans-serif" text-anchor="end" alignment-baseline="middle">-</text><line x1="230" y1="80" x2="240" y2="80" stroke-width="2" stroke="black"></line><line x1="230" y1="100" x2="240" y2="100" stroke-width="2" stroke="black"></line><rect width="70" height="50" x="800" y="100" style="stroke: #000; stroke-width: 1; fill: none;"></rect><line x1="790" y1="120" x2="800" y2="120" stroke-width="2" stroke="black"></line><line x1="790" y1="130" x2="800" y2="130" stroke-width="2" stroke="black"></line><line x1="790" y1="140" x2="800" y2="140" stroke-width="2" stroke="black"></line><text x="802" y="140" font-size="10" font-family="sans-serif" text-anchor="start" alignment-baseline="middle">GND</text><line x1="880" y1="120" x2="870" y2="120" stroke-width="2" stroke="black"></line><line x1="880" y1="130" x2="870" y2="130" stroke-width="2" stroke="black"></line><line x1="880" y1="110" x2="870" y2="110" stroke-width="2" stroke="black"></line><text x="868" y="110" font-size="10" font-family="sans-serif" text-anchor="end" alignment-baseline="middle">VCC</text><text x="802" y="120" font-size="10" font-family="sans-serif" text-anchor="start" alignment-baseline="middle">A1</text><text x="802" y="130" font-size="10" font-family="sans-serif" text-anchor="start" alignment-baseline="middle">A2</text><text x="868" y="130" font-size="10" font-family="sans-serif" text-anchor="end" alignment-baseline="middle">Y2</text><text x="868" y="120" font-size="10" font-family="sans-serif" text-anchor="end" alignment-baseline="middle">Y1</text><line x1="290" y1="250" x2="295" y2="253" stroke-width="2" stroke="black"></line><line x1="295" y1="253" x2="285" y2="258" stroke-width="2" stroke="black"></line><line x1="285" y1="258" x2="295" y2="263" stroke-width="2" stroke="black"></line><line x1="295" y1="263" x2="285" y2="268" stroke-width="2" stroke="black"></line><line x1="285" y1="268" x2="295" y2="273" stroke-width="2" stroke="black"></line><line x1="295" y1="273" x2="285" y2="278" stroke-width="2" stroke="black"></line><line x1="285" y1="278" x2="290" y2="280" stroke-width="2" stroke="black"></line><line x1="290" y1="240" x2="290" y2="250" stroke-width="2" stroke="black"></line><line x1="290" y1="280" x2="290" y2="290" stroke-width="2" stroke="black"></line><line x1="670" y1="770" x2="673" y2="765" stroke-width="2" stroke="black"></line><line x1="673" y1="765" x2="678" y2="775" stroke-width="2" stroke="black"></line><line x1="678" y1="775" x2="683" y2="765" stroke-width="2" stroke="black"></line><line x1="683" y1="765" x2="688" y2="775" stroke-width="2" stroke="black"></line><line x1="688" y1="775" x2="693" y2="765" stroke-width="2" stroke="black"></line><line x1="693" y1="765" x2="698" y2="775" stroke-width="2" stroke="black"></line><line x1="698" y1="775" x2="700" y2="770" stroke-width="2" stroke="black"></line><line x1="660" y1="770" x2="670" y2="770" stroke-width="2" stroke="black"></line><line x1="700" y1="770" x2="710" y2="770" stroke-width="2" stroke="black"></line><circle cx="40" cy="530" r="20" style="stroke: #000; stroke-width: 1; fill: none;"></circle><line x1="70" y1="530" x2="60" y2="530" stroke-width="2" stroke="black"></line><circle cx="960" cy="180" r="5" style="stroke: #000; stroke-width: 1; fill: none;"></circle><line x1="950" y1="180" x2="960" y2="180" stroke-width="2" stroke="black"></line><line x1="495" y1="650" x2="500" y2="650" stroke-width="2" stroke="black"></line><line x1="490" y1="647" x2="495" y2="650" stroke-width="2" stroke="black"></line><line x1="490" y1="653" x2="495" y2="650" stroke-width="2" stroke="black"></line><line x1="490" y1="647" x2="480" y2="647" stroke-width="2" stroke="black"></line><line x1="490" y1="653" x2="480" y2="653" stroke-width="2" stroke="black"></line><line x1="480" y1="647" x2="480" y2="653" stroke-width="2" stroke="black"></line><line x1="510" y1="600" x2="510" y2="580" stroke-width="2" stroke="black"></line><line x1="510" y1="580" x2="503" y2="587" stroke-width="2" stroke="black"></line><line x1="510" y1="580" x2="517" y2="587" stroke-width="2" stroke="black"></line><line x1="740" y1="760" x2="740" y2="780" stroke-width="2" stroke="black"></line><line x1="760" y1="760" x2="760" y2="780" stroke-width="2" stroke="black"></line><line x1="740" y1="760" x2="760" y2="770" stroke-width="2" stroke="black"></line><line x1="740" y1="780" x2="760" y2="770" stroke-width="2" stroke="black"></line><line x1="745" y1="758" x2="755" y2="748" stroke-width="2" stroke="black"></line><line x1="755" y1="748" x2="750" y2="748" stroke-width="2" stroke="black"></line><line x1="755" y1="748" x2="755" y2="753" stroke-width="2" stroke="black"></line><line x1="752" y1="762" x2="762" y2="752" stroke-width="2" stroke="black"></line><line x1="762" y1="752" x2="757" y2="752" stroke-width="2" stroke="black"></line><line x1="762" y1="752" x2="762" y2="757" stroke-width="2" stroke="black"></line><line x1="730" y1="770" x2="740" y2="770" stroke-width="2" stroke="black"></line><line x1="760" y1="770" x2="770" y2="770" stroke-width="2" stroke="black"></line><line x1="200" y1="200" x2="200" y2="180" stroke-width="2" stroke="black"></line><line x1="200" y1="180" x2="193" y2="187" stroke-width="2" stroke="black"></line><line x1="200" y1="180" x2="207" y2="187" stroke-width="2" stroke="black"></line><rect width="70" height="50" x="290" y="680" style="stroke: #000; stroke-width: 1; fill: none;"></rect><line x1="280" y1="710" x2="290" y2="710" stroke-width="2" stroke="black"></line><text x="292" y="710" font-size="10" font-family="sans-serif" text-anchor="start" alignment-baseline="middle">CK</text><line x1="280" y1="720" x2="290" y2="720" stroke-width="2" stroke="black"></line><text x="292" y="720" font-size="10" font-family="sans-serif" text-anchor="start" alignment-baseline="middle">D</text><line x1="280" y1="700" x2="290" y2="700" stroke-width="2" stroke="black"></line><text x="292" y="700" font-size="10" font-family="sans-serif" text-anchor="start" alignment-baseline="middle">nCLR</text><line x1="280" y1="690" x2="290" y2="690" stroke-width="2" stroke="black"></line><text x="292" y="690" font-size="10" font-family="sans-serif" text-anchor="start" alignment-baseline="middle">nPR</text><line x1="370" y1="720" x2="360" y2="720" stroke-width="2" stroke="black"></line><text x="358" y="720" font-size="10" font-family="sans-serif" text-anchor="end" alignment-baseline="middle">GND</text><line x1="370" y1="700" x2="360" y2="700" stroke-width="2" stroke="black"></line><text x="358" y="700" font-size="10" font-family="sans-serif" text-anchor="end" alignment-baseline="middle">Q</text><line x1="370" y1="690" x2="360" y2="690" stroke-width="2" stroke="black"></line><text x="358" y="690" font-size="10" font-family="sans-serif" text-anchor="end" alignment-baseline="middle">VCC</text><line x1="370" y1="710" x2="360" y2="710" stroke-width="2" stroke="black"></line><text x="358" y="710" font-size="10" font-family="sans-serif" text-anchor="end" alignment-baseline="middle">nQ</text><circle cx="40" cy="430" r="20" style="stroke: #000; stroke-width: 1; fill: none;"></circle><line x1="70" y1="430" x2="60" y2="430" stroke-width="2" stroke="black"></line><line x1="400" y1="660" x2="400" y2="640" stroke-width="2" stroke="black"></line><line x1="400" y1="640" x2="393" y2="647" stroke-width="2" stroke="black"></line><line x1="400" y1="640" x2="407" y2="647" stroke-width="2" stroke="black"></line><rect width="70" height="50" x="540" y="620" style="stroke: #000; stroke-width: 1; fill: none;"></rect><line x1="530" y1="650" x2="540" y2="650" stroke-width="2" stroke="black"></line><text x="542" y="650" font-size="10" font-family="sans-serif" text-anchor="start" alignment-baseline="middle">A</text><line x1="530" y1="660" x2="540" y2="660" stroke-width="2" stroke="black"></line><text x="542" y="660" font-size="10" font-family="sans-serif" text-anchor="start" alignment-baseline="middle">B</text><line x1="530" y1="630" x2="540" y2="630" stroke-width="2" stroke="black"></line><text x="542" y="630" font-size="10" font-family="sans-serif" text-anchor="start" alignment-baseline="middle">VCC</text><line x1="620" y1="660" x2="610" y2="660" stroke-width="2" stroke="black"></line><text x="608" y="660" font-size="10" font-family="sans-serif" text-anchor="end" alignment-baseline="middle">GND</text><line x1="620" y1="630" x2="610" y2="630" stroke-width="2" stroke="black"></line><text x="608" y="630" font-size="10" font-family="sans-serif" text-anchor="end" alignment-baseline="middle">Y</text><line x1="245" y1="720" x2="250" y2="720" stroke-width="2" stroke="black"></line><line x1="240" y1="717" x2="245" y2="720" stroke-width="2" stroke="black"></line><line x1="240" y1="723" x2="245" y2="720" stroke-width="2" stroke="black"></line><line x1="240" y1="717" x2="230" y2="717" stroke-width="2" stroke="black"></line><line x1="240" y1="723" x2="230" y2="723" stroke-width="2" stroke="black"></line><line x1="230" y1="717" x2="230" y2="723" stroke-width="2" stroke="black"></line><line x1="200" y1="40" x2="200" y2="20" stroke-width="2" stroke="black"></line><line x1="200" y1="20" x2="193" y2="27" stroke-width="2" stroke="black"></line><line x1="200" y1="20" x2="207" y2="27" stroke-width="2" stroke="black"></line><line x1="640" y1="680" x2="640" y2="690" stroke-width="2" stroke="black"></line><line x1="630" y1="690" x2="650" y2="690" stroke-width="2" stroke="black"></line><line x1="633" y1="695" x2="647" y2="695" stroke-width="2" stroke="black"></line><line x1="636" y1="700" x2="644" y2="700" stroke-width="2" stroke="black"></line><line x1="100" y1="570" x2="100" y2="580" stroke-width="2" stroke="black"></line><line x1="90" y1="580" x2="110" y2="580" stroke-width="2" stroke="black"></line><line x1="93" y1="585" x2="107" y2="585" stroke-width="2" stroke="black"></line><line x1="96" y1="590" x2="104" y2="590" stroke-width="2" stroke="black"></line><circle cx="320" cy="90" r="2" style="stroke: #000; stroke-width: 1; fill: none;"></circle><circle cx="260" cy="690" r="2" style="stroke: #000; stroke-width: 1; fill: none;"></circle><circle cx="700" cy="120" r="2" style="stroke: #000; stroke-width: 1; fill: none;"></circle><circle cx="200" cy="80" r="2" style="stroke: #000; stroke-width: 1; fill: none;"></circle><circle cx="270" cy="220" r="2" style="stroke: #000; stroke-width: 1; fill: none;"></circle><circle cx="290" cy="220" r="2" style="stroke: #000; stroke-width: 1; fill: none;"></circle><circle cx="100" cy="430" r="2" style="stroke: #000; stroke-width: 1; fill: none;"></circle><circle cx="200" cy="100" r="2" style="stroke: #000; stroke-width: 1; fill: none;"></circle><circle cx="930" cy="130" r="2" style="stroke: #000; stroke-width: 1; fill: none;"></circle><circle cx="100" cy="530" r="2" style="stroke: #000; stroke-width: 1; fill: none;"></circle><line x1="780" y1="130" x2="790" y2="130" stroke-width="2" stroke="black"></line><line x1="780" y1="60" x2="920" y2="60" stroke-width="2" stroke="black"></line><line x1="780" y1="60" x2="780" y2="130" stroke-width="2" stroke="black"></line><line x1="400" y1="750" x2="400" y2="720" stroke-width="2" stroke="black"></line><line x1="620" y1="770" x2="660" y2="770" stroke-width="2" stroke="black"></line><line x1="320" y1="90" x2="290" y2="90" stroke-width="2" stroke="black"></line><line x1="880" y1="110" x2="930" y2="110" stroke-width="2" stroke="black"></line><line x1="400" y1="690" x2="370" y2="690" stroke-width="2" stroke="black"></line><line x1="320" y1="140" x2="320" y2="90" stroke-width="2" stroke="black"></line><line x1="780" y1="140" x2="790" y2="140" stroke-width="2" stroke="black"></line><line x1="360" y1="90" x2="320" y2="90" stroke-width="2" stroke="black"></line><line x1="250" y1="270" x2="240" y2="270" stroke-width="2" stroke="black"></line><line x1="720" y1="770" x2="710" y2="770" stroke-width="2" stroke="black"></line><line x1="720" y1="770" x2="730" y2="770" stroke-width="2" stroke="black"></line><line x1="200" y1="200" x2="200" y2="220" stroke-width="2" stroke="black"></line><line x1="930" y1="70" x2="930" y2="110" stroke-width="2" stroke="black"></line><line x1="280" y1="690" x2="260" y2="690" stroke-width="2" stroke="black"></line><line x1="290" y1="300" x2="290" y2="290" stroke-width="2" stroke="black"></line><line x1="530" y1="790" x2="450" y2="790" stroke-width="2" stroke="black"></line><line x1="400" y1="660" x2="400" y2="690" stroke-width="2" stroke="black"></line><line x1="240" y1="260" x2="240" y2="270" stroke-width="2" stroke="black"></line><line x1="510" y1="770" x2="530" y2="770" stroke-width="2" stroke="black"></line><line x1="260" y1="700" x2="280" y2="700" stroke-width="2" stroke="black"></line><line x1="260" y1="700" x2="260" y2="690" stroke-width="2" stroke="black"></line><line x1="640" y1="120" x2="700" y2="120" stroke-width="2" stroke="black"></line><line x1="450" y1="710" x2="450" y2="790" stroke-width="2" stroke="black"></line><line x1="200" y1="40" x2="200" y2="80" stroke-width="2" stroke="black"></line><line x1="370" y1="720" x2="400" y2="720" stroke-width="2" stroke="black"></line><line x1="200" y1="230" x2="200" y2="220" stroke-width="2" stroke="black"></line><line x1="200" y1="230" x2="200" y2="240" stroke-width="2" stroke="black"></line><line x1="700" y1="200" x2="700" y2="250" stroke-width="2" stroke="black"></line><line x1="700" y1="150" x2="700" y2="120" stroke-width="2" stroke="black"></line><line x1="290" y1="220" x2="290" y2="240" stroke-width="2" stroke="black"></line><line x1="290" y1="220" x2="340" y2="220" stroke-width="2" stroke="black"></line><line x1="290" y1="220" x2="270" y2="220" stroke-width="2" stroke="black"></line><line x1="920" y1="120" x2="880" y2="120" stroke-width="2" stroke="black"></line><line x1="920" y1="120" x2="920" y2="60" stroke-width="2" stroke="black"></line><line x1="280" y1="720" x2="250" y2="720" stroke-width="2" stroke="black"></line><line x1="810" y1="630" x2="770" y2="630" stroke-width="2" stroke="black"></line><line x1="100" y1="430" x2="100" y2="330" stroke-width="2" stroke="black"></line><line x1="640" y1="680" x2="640" y2="660" stroke-width="2" stroke="black"></line><line x1="540" y1="250" x2="560" y2="250" stroke-width="2" stroke="black"></line><line x1="810" y1="770" x2="770" y2="770" stroke-width="2" stroke="black"></line><line x1="680" y1="250" x2="700" y2="250" stroke-width="2" stroke="black"></line><line x1="510" y1="650" x2="530" y2="650" stroke-width="2" stroke="black"></line><line x1="510" y1="650" x2="500" y2="650" stroke-width="2" stroke="black"></line><line x1="240" y1="220" x2="240" y2="240" stroke-width="2" stroke="black"></line><line x1="240" y1="220" x2="270" y2="220" stroke-width="2" stroke="black"></line><line x1="790" y1="120" x2="700" y2="120" stroke-width="2" stroke="black"></line><line x1="810" y1="680" x2="810" y2="630" stroke-width="2" stroke="black"></line><line x1="200" y1="100" x2="200" y2="80" stroke-width="2" stroke="black"></line><line x1="540" y1="120" x2="590" y2="120" stroke-width="2" stroke="black"></line><line x1="540" y1="120" x2="540" y2="250" stroke-width="2" stroke="black"></line><line x1="930" y1="130" x2="950" y2="130" stroke-width="2" stroke="black"></line><line x1="930" y1="130" x2="880" y2="130" stroke-width="2" stroke="black"></line><line x1="930" y1="130" x2="930" y2="180" stroke-width="2" stroke="black"></line><line x1="530" y1="800" x2="500" y2="800" stroke-width="2" stroke="black"></line><line x1="780" y1="180" x2="780" y2="140" stroke-width="2" stroke="black"></line><line x1="370" y1="710" x2="450" y2="710" stroke-width="2" stroke="black"></line><line x1="720" y1="630" x2="710" y2="630" stroke-width="2" stroke="black"></line><line x1="720" y1="630" x2="730" y2="630" stroke-width="2" stroke="black"></line><line x1="230" y1="80" x2="200" y2="80" stroke-width="2" stroke="black"></line><line x1="510" y1="740" x2="510" y2="770" stroke-width="2" stroke="black"></line><line x1="640" y1="820" x2="640" y2="800" stroke-width="2" stroke="black"></line><line x1="620" y1="800" x2="640" y2="800" stroke-width="2" stroke="black"></line><line x1="70" y1="330" x2="100" y2="330" stroke-width="2" stroke="black"></line><line x1="230" y1="100" x2="200" y2="100" stroke-width="2" stroke="black"></line><line x1="950" y1="180" x2="930" y2="180" stroke-width="2" stroke="black"></line><line x1="270" y1="270" x2="250" y2="270" stroke-width="2" stroke="black"></line><line x1="270" y1="270" x2="270" y2="220" stroke-width="2" stroke="black"></line><line x1="620" y1="630" x2="660" y2="630" stroke-width="2" stroke="black"></line><line x1="810" y1="820" x2="810" y2="770" stroke-width="2" stroke="black"></line><line x1="150" y1="100" x2="200" y2="100" stroke-width="2" stroke="black"></line><line x1="280" y1="710" x2="250" y2="710" stroke-width="2" stroke="black"></line><line x1="530" y1="660" x2="450" y2="660" stroke-width="2" stroke="black"></line><line x1="510" y1="630" x2="530" y2="630" stroke-width="2" stroke="black"></line><line x1="510" y1="630" x2="510" y2="600" stroke-width="2" stroke="black"></line><line x1="100" y1="530" x2="70" y2="530" stroke-width="2" stroke="black"></line><line x1="100" y1="530" x2="100" y2="570" stroke-width="2" stroke="black"></line><line x1="100" y1="530" x2="100" y2="430" stroke-width="2" stroke="black"></line><line x1="620" y1="660" x2="640" y2="660" stroke-width="2" stroke="black"></line><line x1="70" y1="430" x2="100" y2="430" stroke-width="2" stroke="black"></line><line x1="450" y1="700" x2="370" y2="700" stroke-width="2" stroke="black"></line><line x1="450" y1="700" x2="450" y2="660" stroke-width="2" stroke="black"></line><line x1="620" y1="350" x2="620" y2="330" stroke-width="2" stroke="black"></line><line x1="260" y1="660" x2="260" y2="690" stroke-width="2" stroke="black"></line></svg>